<?xml version="1.0" encoding="UTF-8" standalone="no"?>
<!-- Generator: Adobe Illustrator 9.0, SVG Export Plug-In  -->

<svg
   xmlns:dc="http://purl.org/dc/elements/1.1/"
   xmlns:cc="http://creativecommons.org/ns#"
   xmlns:rdf="http://www.w3.org/1999/02/22-rdf-syntax-ns#"
   xmlns:svg="http://www.w3.org/2000/svg"
   xmlns="http://www.w3.org/2000/svg"
   xmlns:sodipodi="http://sodipodi.sourceforge.net/DTD/sodipodi-0.dtd"
   xmlns:inkscape="http://www.inkscape.org/namespaces/inkscape"
   width="541.41699pt"
   height="541.41602pt"
   viewBox="0 0 541.417 541.416"
   xml:space="preserve"
   id="svg2242"
   sodipodi:version="0.32"
   inkscape:version="0.92.3 (2405546, 2018-03-11)"
   sodipodi:docname="half-deck-case-bottom-ponoko-p1.svg"
   inkscape:output_extension="org.inkscape.output.svg.inkscape"
   version="1.1"
   style="display:inline"><metadata
     id="metadata2286"><rdf:RDF><cc:Work
         rdf:about=""><dc:format>image/svg+xml</dc:format><dc:type
           rdf:resource="http://purl.org/dc/dcmitype/StillImage" /><dc:title></dc:title></cc:Work></rdf:RDF></metadata><defs
     id="defs2284"><inkscape:perspective
       sodipodi:type="inkscape:persp3d"
       inkscape:vp_x="0 : 338.38501 : 1"
       inkscape:vp_y="0 : 1000 : 0"
       inkscape:vp_z="676.77124 : 338.38501 : 1"
       inkscape:persp3d-origin="338.38562 : 225.59001 : 1"
       id="perspective37556" /><inkscape:perspective
       sodipodi:type="inkscape:persp3d"
       inkscape:vp_x="0 : 338.38501 : 1"
       inkscape:vp_y="0 : 1000 : 0"
       inkscape:vp_z="676.77124 : 338.38501 : 1"
       inkscape:persp3d-origin="338.38562 : 225.59001 : 1"
       id="perspective16301" /><inkscape:perspective
       sodipodi:type="inkscape:persp3d"
       inkscape:vp_x="0 : 270.7085 : 1"
       inkscape:vp_y="0 : 1000 : 0"
       inkscape:vp_z="541.41699 : 270.7085 : 1"
       inkscape:persp3d-origin="270.7085 : 180.47233 : 1"
       id="perspective12409" /><inkscape:perspective
       sodipodi:type="inkscape:persp3d"
       inkscape:vp_x="0 : 0.5 : 1"
       inkscape:vp_y="0 : 1000 : 0"
       inkscape:vp_z="1 : 0.5 : 1"
       inkscape:persp3d-origin="0.5 : 0.33333333 : 1"
       id="perspective9337" /><inkscape:perspective
       sodipodi:type="inkscape:persp3d"
       inkscape:vp_x="0 : 0.5 : 1"
       inkscape:vp_y="0 : 1000 : 0"
       inkscape:vp_z="1 : 0.5 : 1"
       inkscape:persp3d-origin="0.5 : 0.33333333 : 1"
       id="perspective8562" /><inkscape:perspective
       id="perspective3083"
       inkscape:persp3d-origin="338.38562 : 225.59001 : 1"
       inkscape:vp_z="676.77124 : 338.38501 : 1"
       inkscape:vp_y="0 : 1000 : 0"
       inkscape:vp_x="0 : 338.38501 : 1"
       sodipodi:type="inkscape:persp3d" /><inkscape:perspective
       id="perspective23419"
       inkscape:persp3d-origin="270.7085 : 180.47233 : 1"
       inkscape:vp_z="541.41699 : 270.7085 : 1"
       inkscape:vp_y="0 : 1000 : 0"
       inkscape:vp_x="0 : 270.7085 : 1"
       sodipodi:type="inkscape:persp3d" /><inkscape:perspective
       id="perspective27913"
       inkscape:persp3d-origin="338.38562 : 225.59001 : 1"
       inkscape:vp_z="676.77124 : 338.38501 : 1"
       inkscape:vp_y="0 : 1000 : 0"
       inkscape:vp_x="0 : 338.38501 : 1"
       sodipodi:type="inkscape:persp3d" /><inkscape:perspective
       sodipodi:type="inkscape:persp3d"
       inkscape:vp_x="0 : 338.38501 : 1"
       inkscape:vp_y="0 : 1000 : 0"
       inkscape:vp_z="676.77124 : 338.38501 : 1"
       inkscape:persp3d-origin="338.38562 : 225.59001 : 1"
       id="perspective27913-5" /><inkscape:perspective
       sodipodi:type="inkscape:persp3d"
       inkscape:vp_x="0 : 270.7085 : 1"
       inkscape:vp_y="0 : 1000 : 0"
       inkscape:vp_z="541.41699 : 270.7085 : 1"
       inkscape:persp3d-origin="270.7085 : 180.47233 : 1"
       id="perspective23419-6" /><inkscape:perspective
       sodipodi:type="inkscape:persp3d"
       inkscape:vp_x="0 : 338.38501 : 1"
       inkscape:vp_y="0 : 1000 : 0"
       inkscape:vp_z="676.77124 : 338.38501 : 1"
       inkscape:persp3d-origin="338.38562 : 225.59001 : 1"
       id="perspective3083-3" /><inkscape:perspective
       id="perspective8562-2"
       inkscape:persp3d-origin="0.5 : 0.33333333 : 1"
       inkscape:vp_z="1 : 0.5 : 1"
       inkscape:vp_y="0 : 1000 : 0"
       inkscape:vp_x="0 : 0.5 : 1"
       sodipodi:type="inkscape:persp3d" /><inkscape:perspective
       id="perspective9337-7"
       inkscape:persp3d-origin="0.5 : 0.33333333 : 1"
       inkscape:vp_z="1 : 0.5 : 1"
       inkscape:vp_y="0 : 1000 : 0"
       inkscape:vp_x="0 : 0.5 : 1"
       sodipodi:type="inkscape:persp3d" /><inkscape:perspective
       id="perspective12409-1"
       inkscape:persp3d-origin="270.7085 : 180.47233 : 1"
       inkscape:vp_z="541.41699 : 270.7085 : 1"
       inkscape:vp_y="0 : 1000 : 0"
       inkscape:vp_x="0 : 270.7085 : 1"
       sodipodi:type="inkscape:persp3d" /><inkscape:perspective
       id="perspective16301-9"
       inkscape:persp3d-origin="338.38562 : 225.59001 : 1"
       inkscape:vp_z="676.77124 : 338.38501 : 1"
       inkscape:vp_y="0 : 1000 : 0"
       inkscape:vp_x="0 : 338.38501 : 1"
       sodipodi:type="inkscape:persp3d" /><inkscape:perspective
       id="perspective37556-9"
       inkscape:persp3d-origin="338.38562 : 225.59001 : 1"
       inkscape:vp_z="676.77124 : 338.38501 : 1"
       inkscape:vp_y="0 : 1000 : 0"
       inkscape:vp_x="0 : 338.38501 : 1"
       sodipodi:type="inkscape:persp3d" /><inkscape:perspective
       id="perspective5074"
       inkscape:persp3d-origin="0.5 : 0.33333333 : 1"
       inkscape:vp_z="1 : 0.5 : 1"
       inkscape:vp_y="0 : 1000 : 0"
       inkscape:vp_x="0 : 0.5 : 1"
       sodipodi:type="inkscape:persp3d" /><inkscape:perspective
       id="perspective5377"
       inkscape:persp3d-origin="0.5 : 0.33333333 : 1"
       inkscape:vp_z="1 : 0.5 : 1"
       inkscape:vp_y="0 : 1000 : 0"
       inkscape:vp_x="0 : 0.5 : 1"
       sodipodi:type="inkscape:persp3d" /><inkscape:perspective
       id="perspective5377-5"
       inkscape:persp3d-origin="0.5 : 0.33333333 : 1"
       inkscape:vp_z="1 : 0.5 : 1"
       inkscape:vp_y="0 : 1000 : 0"
       inkscape:vp_x="0 : 0.5 : 1"
       sodipodi:type="inkscape:persp3d" /><inkscape:perspective
       id="perspective6033"
       inkscape:persp3d-origin="0.5 : 0.33333333 : 1"
       inkscape:vp_z="1 : 0.5 : 1"
       inkscape:vp_y="0 : 1000 : 0"
       inkscape:vp_x="0 : 0.5 : 1"
       sodipodi:type="inkscape:persp3d" /><inkscape:perspective
       id="perspective2989"
       inkscape:persp3d-origin="0.5 : 0.33333333 : 1"
       inkscape:vp_z="1 : 0.5 : 1"
       inkscape:vp_y="0 : 1000 : 0"
       inkscape:vp_x="0 : 0.5 : 1"
       sodipodi:type="inkscape:persp3d" /><inkscape:perspective
       id="perspective3039"
       inkscape:persp3d-origin="0.5 : 0.33333333 : 1"
       inkscape:vp_z="1 : 0.5 : 1"
       inkscape:vp_y="0 : 1000 : 0"
       inkscape:vp_x="0 : 0.5 : 1"
       sodipodi:type="inkscape:persp3d" /><inkscape:perspective
       id="perspective51596"
       inkscape:persp3d-origin="1417.3237 : 465.35417 : 1"
       inkscape:vp_z="2834.6475 : 698.03125 : 1"
       inkscape:vp_y="0 : 1000 : 0"
       inkscape:vp_x="0 : 698.03125 : 1"
       sodipodi:type="inkscape:persp3d" /><inkscape:perspective
       id="perspective51446"
       inkscape:persp3d-origin="270.70999 : 180.47333 : 1"
       inkscape:vp_z="541.41998 : 270.70999 : 1"
       inkscape:vp_y="0 : 1000 : 0"
       inkscape:vp_x="0 : 270.70999 : 1"
       sodipodi:type="inkscape:persp3d" /><inkscape:perspective
       id="perspective37556-1"
       inkscape:persp3d-origin="338.38562 : 225.59001 : 1"
       inkscape:vp_z="676.77124 : 338.38501 : 1"
       inkscape:vp_y="0 : 1000 : 0"
       inkscape:vp_x="0 : 338.38501 : 1"
       sodipodi:type="inkscape:persp3d" /><inkscape:perspective
       id="perspective16301-3"
       inkscape:persp3d-origin="338.38562 : 225.59001 : 1"
       inkscape:vp_z="676.77124 : 338.38501 : 1"
       inkscape:vp_y="0 : 1000 : 0"
       inkscape:vp_x="0 : 338.38501 : 1"
       sodipodi:type="inkscape:persp3d" /><inkscape:perspective
       id="perspective12409-3"
       inkscape:persp3d-origin="270.7085 : 180.47233 : 1"
       inkscape:vp_z="541.41699 : 270.7085 : 1"
       inkscape:vp_y="0 : 1000 : 0"
       inkscape:vp_x="0 : 270.7085 : 1"
       sodipodi:type="inkscape:persp3d" /><inkscape:perspective
       id="perspective9337-3"
       inkscape:persp3d-origin="0.5 : 0.33333333 : 1"
       inkscape:vp_z="1 : 0.5 : 1"
       inkscape:vp_y="0 : 1000 : 0"
       inkscape:vp_x="0 : 0.5 : 1"
       sodipodi:type="inkscape:persp3d" /><inkscape:perspective
       id="perspective8562-08"
       inkscape:persp3d-origin="0.5 : 0.33333333 : 1"
       inkscape:vp_z="1 : 0.5 : 1"
       inkscape:vp_y="0 : 1000 : 0"
       inkscape:vp_x="0 : 0.5 : 1"
       sodipodi:type="inkscape:persp3d" /><inkscape:perspective
       sodipodi:type="inkscape:persp3d"
       inkscape:vp_x="0 : 338.38501 : 1"
       inkscape:vp_y="0 : 1000 : 0"
       inkscape:vp_z="676.77124 : 338.38501 : 1"
       inkscape:persp3d-origin="338.38562 : 225.59001 : 1"
       id="perspective3083-9" /><inkscape:perspective
       sodipodi:type="inkscape:persp3d"
       inkscape:vp_x="0 : 270.7085 : 1"
       inkscape:vp_y="0 : 1000 : 0"
       inkscape:vp_z="541.41699 : 270.7085 : 1"
       inkscape:persp3d-origin="270.7085 : 180.47233 : 1"
       id="perspective23419-4" /><inkscape:perspective
       sodipodi:type="inkscape:persp3d"
       inkscape:vp_x="0 : 338.38501 : 1"
       inkscape:vp_y="0 : 1000 : 0"
       inkscape:vp_z="676.77124 : 338.38501 : 1"
       inkscape:persp3d-origin="338.38562 : 225.59001 : 1"
       id="perspective27913-9" /><inkscape:perspective
       id="perspective27913-5-1"
       inkscape:persp3d-origin="338.38562 : 225.59001 : 1"
       inkscape:vp_z="676.77124 : 338.38501 : 1"
       inkscape:vp_y="0 : 1000 : 0"
       inkscape:vp_x="0 : 338.38501 : 1"
       sodipodi:type="inkscape:persp3d" /><inkscape:perspective
       id="perspective23419-6-7"
       inkscape:persp3d-origin="270.7085 : 180.47233 : 1"
       inkscape:vp_z="541.41699 : 270.7085 : 1"
       inkscape:vp_y="0 : 1000 : 0"
       inkscape:vp_x="0 : 270.7085 : 1"
       sodipodi:type="inkscape:persp3d" /><inkscape:perspective
       id="perspective3083-3-75"
       inkscape:persp3d-origin="338.38562 : 225.59001 : 1"
       inkscape:vp_z="676.77124 : 338.38501 : 1"
       inkscape:vp_y="0 : 1000 : 0"
       inkscape:vp_x="0 : 338.38501 : 1"
       sodipodi:type="inkscape:persp3d" /><inkscape:perspective
       sodipodi:type="inkscape:persp3d"
       inkscape:vp_x="0 : 0.5 : 1"
       inkscape:vp_y="0 : 1000 : 0"
       inkscape:vp_z="1 : 0.5 : 1"
       inkscape:persp3d-origin="0.5 : 0.33333333 : 1"
       id="perspective8562-2-1" /><inkscape:perspective
       sodipodi:type="inkscape:persp3d"
       inkscape:vp_x="0 : 0.5 : 1"
       inkscape:vp_y="0 : 1000 : 0"
       inkscape:vp_z="1 : 0.5 : 1"
       inkscape:persp3d-origin="0.5 : 0.33333333 : 1"
       id="perspective9337-7-1" /><inkscape:perspective
       sodipodi:type="inkscape:persp3d"
       inkscape:vp_x="0 : 270.7085 : 1"
       inkscape:vp_y="0 : 1000 : 0"
       inkscape:vp_z="541.41699 : 270.7085 : 1"
       inkscape:persp3d-origin="270.7085 : 180.47233 : 1"
       id="perspective12409-1-4" /><inkscape:perspective
       sodipodi:type="inkscape:persp3d"
       inkscape:vp_x="0 : 338.38501 : 1"
       inkscape:vp_y="0 : 1000 : 0"
       inkscape:vp_z="676.77124 : 338.38501 : 1"
       inkscape:persp3d-origin="338.38562 : 225.59001 : 1"
       id="perspective16301-9-00" /><inkscape:perspective
       sodipodi:type="inkscape:persp3d"
       inkscape:vp_x="0 : 338.38501 : 1"
       inkscape:vp_y="0 : 1000 : 0"
       inkscape:vp_z="676.77124 : 338.38501 : 1"
       inkscape:persp3d-origin="338.38562 : 225.59001 : 1"
       id="perspective37556-9-7" /><inkscape:perspective
       sodipodi:type="inkscape:persp3d"
       inkscape:vp_x="0 : 698.03125 : 1"
       inkscape:vp_y="0 : 1000 : 0"
       inkscape:vp_z="1396.0651 : 698.03125 : 1"
       inkscape:persp3d-origin="698.03253 : 465.35417 : 1"
       id="perspective46224" /><inkscape:perspective
       sodipodi:type="inkscape:persp3d"
       inkscape:vp_x="0 : 270.70999 : 1"
       inkscape:vp_y="0 : 1000 : 0"
       inkscape:vp_z="541.41998 : 270.70999 : 1"
       inkscape:persp3d-origin="270.70999 : 180.47333 : 1"
       id="perspective56159" /><inkscape:perspective
       id="perspective37556-9-4"
       inkscape:persp3d-origin="338.38562 : 225.59001 : 1"
       inkscape:vp_z="676.77124 : 338.38501 : 1"
       inkscape:vp_y="0 : 1000 : 0"
       inkscape:vp_x="0 : 338.38501 : 1"
       sodipodi:type="inkscape:persp3d" /><inkscape:perspective
       id="perspective16301-9-0"
       inkscape:persp3d-origin="338.38562 : 225.59001 : 1"
       inkscape:vp_z="676.77124 : 338.38501 : 1"
       inkscape:vp_y="0 : 1000 : 0"
       inkscape:vp_x="0 : 338.38501 : 1"
       sodipodi:type="inkscape:persp3d" /><inkscape:perspective
       id="perspective12409-1-3"
       inkscape:persp3d-origin="270.7085 : 180.47233 : 1"
       inkscape:vp_z="541.41699 : 270.7085 : 1"
       inkscape:vp_y="0 : 1000 : 0"
       inkscape:vp_x="0 : 270.7085 : 1"
       sodipodi:type="inkscape:persp3d" /><inkscape:perspective
       id="perspective9337-7-4"
       inkscape:persp3d-origin="0.5 : 0.33333333 : 1"
       inkscape:vp_z="1 : 0.5 : 1"
       inkscape:vp_y="0 : 1000 : 0"
       inkscape:vp_x="0 : 0.5 : 1"
       sodipodi:type="inkscape:persp3d" /><inkscape:perspective
       id="perspective8562-2-3"
       inkscape:persp3d-origin="0.5 : 0.33333333 : 1"
       inkscape:vp_z="1 : 0.5 : 1"
       inkscape:vp_y="0 : 1000 : 0"
       inkscape:vp_x="0 : 0.5 : 1"
       sodipodi:type="inkscape:persp3d" /><inkscape:perspective
       sodipodi:type="inkscape:persp3d"
       inkscape:vp_x="0 : 338.38501 : 1"
       inkscape:vp_y="0 : 1000 : 0"
       inkscape:vp_z="676.77124 : 338.38501 : 1"
       inkscape:persp3d-origin="338.38562 : 225.59001 : 1"
       id="perspective3083-3-7" /><inkscape:perspective
       sodipodi:type="inkscape:persp3d"
       inkscape:vp_x="0 : 270.7085 : 1"
       inkscape:vp_y="0 : 1000 : 0"
       inkscape:vp_z="541.41699 : 270.7085 : 1"
       inkscape:persp3d-origin="270.7085 : 180.47233 : 1"
       id="perspective23419-6-5" /><inkscape:perspective
       sodipodi:type="inkscape:persp3d"
       inkscape:vp_x="0 : 338.38501 : 1"
       inkscape:vp_y="0 : 1000 : 0"
       inkscape:vp_z="676.77124 : 338.38501 : 1"
       inkscape:persp3d-origin="338.38562 : 225.59001 : 1"
       id="perspective27913-5-6" /><inkscape:perspective
       id="perspective27913-0"
       inkscape:persp3d-origin="338.38562 : 225.59001 : 1"
       inkscape:vp_z="676.77124 : 338.38501 : 1"
       inkscape:vp_y="0 : 1000 : 0"
       inkscape:vp_x="0 : 338.38501 : 1"
       sodipodi:type="inkscape:persp3d" /><inkscape:perspective
       id="perspective23419-8"
       inkscape:persp3d-origin="270.7085 : 180.47233 : 1"
       inkscape:vp_z="541.41699 : 270.7085 : 1"
       inkscape:vp_y="0 : 1000 : 0"
       inkscape:vp_x="0 : 270.7085 : 1"
       sodipodi:type="inkscape:persp3d" /><inkscape:perspective
       id="perspective3083-7"
       inkscape:persp3d-origin="338.38562 : 225.59001 : 1"
       inkscape:vp_z="676.77124 : 338.38501 : 1"
       inkscape:vp_y="0 : 1000 : 0"
       inkscape:vp_x="0 : 338.38501 : 1"
       sodipodi:type="inkscape:persp3d" /><inkscape:perspective
       sodipodi:type="inkscape:persp3d"
       inkscape:vp_x="0 : 0.5 : 1"
       inkscape:vp_y="0 : 1000 : 0"
       inkscape:vp_z="1 : 0.5 : 1"
       inkscape:persp3d-origin="0.5 : 0.33333333 : 1"
       id="perspective8562-6" /><inkscape:perspective
       sodipodi:type="inkscape:persp3d"
       inkscape:vp_x="0 : 0.5 : 1"
       inkscape:vp_y="0 : 1000 : 0"
       inkscape:vp_z="1 : 0.5 : 1"
       inkscape:persp3d-origin="0.5 : 0.33333333 : 1"
       id="perspective9337-5" /><inkscape:perspective
       sodipodi:type="inkscape:persp3d"
       inkscape:vp_x="0 : 270.7085 : 1"
       inkscape:vp_y="0 : 1000 : 0"
       inkscape:vp_z="541.41699 : 270.7085 : 1"
       inkscape:persp3d-origin="270.7085 : 180.47233 : 1"
       id="perspective12409-0" /><inkscape:perspective
       sodipodi:type="inkscape:persp3d"
       inkscape:vp_x="0 : 338.38501 : 1"
       inkscape:vp_y="0 : 1000 : 0"
       inkscape:vp_z="676.77124 : 338.38501 : 1"
       inkscape:persp3d-origin="338.38562 : 225.59001 : 1"
       id="perspective16301-0" /><inkscape:perspective
       sodipodi:type="inkscape:persp3d"
       inkscape:vp_x="0 : 338.38501 : 1"
       inkscape:vp_y="0 : 1000 : 0"
       inkscape:vp_z="676.77124 : 338.38501 : 1"
       inkscape:persp3d-origin="338.38562 : 225.59001 : 1"
       id="perspective37556-7" /><inkscape:perspective
       id="perspective37556-9-49"
       inkscape:persp3d-origin="338.38562 : 225.59001 : 1"
       inkscape:vp_z="676.77124 : 338.38501 : 1"
       inkscape:vp_y="0 : 1000 : 0"
       inkscape:vp_x="0 : 338.38501 : 1"
       sodipodi:type="inkscape:persp3d" /><inkscape:perspective
       id="perspective16301-9-2"
       inkscape:persp3d-origin="338.38562 : 225.59001 : 1"
       inkscape:vp_z="676.77124 : 338.38501 : 1"
       inkscape:vp_y="0 : 1000 : 0"
       inkscape:vp_x="0 : 338.38501 : 1"
       sodipodi:type="inkscape:persp3d" /><inkscape:perspective
       id="perspective12409-1-9"
       inkscape:persp3d-origin="270.7085 : 180.47233 : 1"
       inkscape:vp_z="541.41699 : 270.7085 : 1"
       inkscape:vp_y="0 : 1000 : 0"
       inkscape:vp_x="0 : 270.7085 : 1"
       sodipodi:type="inkscape:persp3d" /><inkscape:perspective
       id="perspective9337-7-40"
       inkscape:persp3d-origin="0.5 : 0.33333333 : 1"
       inkscape:vp_z="1 : 0.5 : 1"
       inkscape:vp_y="0 : 1000 : 0"
       inkscape:vp_x="0 : 0.5 : 1"
       sodipodi:type="inkscape:persp3d" /><inkscape:perspective
       id="perspective8562-2-0"
       inkscape:persp3d-origin="0.5 : 0.33333333 : 1"
       inkscape:vp_z="1 : 0.5 : 1"
       inkscape:vp_y="0 : 1000 : 0"
       inkscape:vp_x="0 : 0.5 : 1"
       sodipodi:type="inkscape:persp3d" /><inkscape:perspective
       sodipodi:type="inkscape:persp3d"
       inkscape:vp_x="0 : 338.38501 : 1"
       inkscape:vp_y="0 : 1000 : 0"
       inkscape:vp_z="676.77124 : 338.38501 : 1"
       inkscape:persp3d-origin="338.38562 : 225.59001 : 1"
       id="perspective3083-3-6" /><inkscape:perspective
       sodipodi:type="inkscape:persp3d"
       inkscape:vp_x="0 : 270.7085 : 1"
       inkscape:vp_y="0 : 1000 : 0"
       inkscape:vp_z="541.41699 : 270.7085 : 1"
       inkscape:persp3d-origin="270.7085 : 180.47233 : 1"
       id="perspective23419-6-3" /><inkscape:perspective
       sodipodi:type="inkscape:persp3d"
       inkscape:vp_x="0 : 338.38501 : 1"
       inkscape:vp_y="0 : 1000 : 0"
       inkscape:vp_z="676.77124 : 338.38501 : 1"
       inkscape:persp3d-origin="338.38562 : 225.59001 : 1"
       id="perspective27913-5-8" /><inkscape:perspective
       id="perspective27913-3"
       inkscape:persp3d-origin="338.38562 : 225.59001 : 1"
       inkscape:vp_z="676.77124 : 338.38501 : 1"
       inkscape:vp_y="0 : 1000 : 0"
       inkscape:vp_x="0 : 338.38501 : 1"
       sodipodi:type="inkscape:persp3d" /><inkscape:perspective
       id="perspective23419-0"
       inkscape:persp3d-origin="270.7085 : 180.47233 : 1"
       inkscape:vp_z="541.41699 : 270.7085 : 1"
       inkscape:vp_y="0 : 1000 : 0"
       inkscape:vp_x="0 : 270.7085 : 1"
       sodipodi:type="inkscape:persp3d" /><inkscape:perspective
       id="perspective3083-30"
       inkscape:persp3d-origin="338.38562 : 225.59001 : 1"
       inkscape:vp_z="676.77124 : 338.38501 : 1"
       inkscape:vp_y="0 : 1000 : 0"
       inkscape:vp_x="0 : 338.38501 : 1"
       sodipodi:type="inkscape:persp3d" /><inkscape:perspective
       sodipodi:type="inkscape:persp3d"
       inkscape:vp_x="0 : 0.5 : 1"
       inkscape:vp_y="0 : 1000 : 0"
       inkscape:vp_z="1 : 0.5 : 1"
       inkscape:persp3d-origin="0.5 : 0.33333333 : 1"
       id="perspective8562-0" /><inkscape:perspective
       sodipodi:type="inkscape:persp3d"
       inkscape:vp_x="0 : 0.5 : 1"
       inkscape:vp_y="0 : 1000 : 0"
       inkscape:vp_z="1 : 0.5 : 1"
       inkscape:persp3d-origin="0.5 : 0.33333333 : 1"
       id="perspective9337-1" /><inkscape:perspective
       sodipodi:type="inkscape:persp3d"
       inkscape:vp_x="0 : 270.7085 : 1"
       inkscape:vp_y="0 : 1000 : 0"
       inkscape:vp_z="541.41699 : 270.7085 : 1"
       inkscape:persp3d-origin="270.7085 : 180.47233 : 1"
       id="perspective12409-00" /><inkscape:perspective
       sodipodi:type="inkscape:persp3d"
       inkscape:vp_x="0 : 338.38501 : 1"
       inkscape:vp_y="0 : 1000 : 0"
       inkscape:vp_z="676.77124 : 338.38501 : 1"
       inkscape:persp3d-origin="338.38562 : 225.59001 : 1"
       id="perspective16301-7" /><inkscape:perspective
       sodipodi:type="inkscape:persp3d"
       inkscape:vp_x="0 : 338.38501 : 1"
       inkscape:vp_y="0 : 1000 : 0"
       inkscape:vp_z="676.77124 : 338.38501 : 1"
       inkscape:persp3d-origin="338.38562 : 225.59001 : 1"
       id="perspective37556-3" /><inkscape:perspective
       sodipodi:type="inkscape:persp3d"
       inkscape:vp_x="0 : 0.5 : 1"
       inkscape:vp_y="0 : 1000 : 0"
       inkscape:vp_z="1 : 0.5 : 1"
       inkscape:persp3d-origin="0.5 : 0.33333333 : 1"
       id="perspective3083-79" /></defs><sodipodi:namedview
     inkscape:window-height="1029"
     inkscape:window-width="1920"
     inkscape:pageshadow="2"
     inkscape:pageopacity="0.0"
     guidetolerance="10.0"
     gridtolerance="10.0"
     objecttolerance="10.0"
     borderopacity="1.0"
     bordercolor="#666666"
     pagecolor="#ffffff"
     id="base"
     inkscape:zoom="1.2974634"
     inkscape:cx="194.9771"
     inkscape:cy="412.4391"
     inkscape:window-x="0"
     inkscape:window-y="26"
     inkscape:current-layer="layer9"
     showgrid="false"
     inkscape:window-maximized="1"
     inkscape:document-units="mm"
     units="mm" /><g
     inkscape:groupmode="layer"
     id="layer9"
     inkscape:label="Your Design"><path
       style="fill:none;stroke:#0000ff;stroke-width:0.02834645mm"
       inkscape:connector-curvature="0"
       d="m 134.18329,3.9222265 0.21515,0.00326 187.10206,5.6826819 0.66385,0.051457 168.53833,21.0672926 0.67295,0.117297 0.65853,0.181542 0.63799,0.244103 0.61152,0.304396 0.57937,0.361856 0.54185,0.415962 0.49928,0.466194 0.45207,0.512102 0.40067,0.553246 0.34554,0.589252 0.2872,0.619784 0.22619,0.644556 0.16309,0.663341 0.0985,0.675958 0.0329,0.682299 v 276.255924 77.78729 l -0.0322,0.6751 -0.0964,0.66892 -0.15967,0.65673 -0.22151,0.6385 -0.28133,0.61453 -0.33859,0.58493 -0.39277,0.55 -0.44337,0.51007 -0.48996,0.46553 -0.53207,0.41675 -0.56935,0.36417 -0.60145,0.30827 -0.62808,0.24945 -0.649,0.1885 -0.66402,0.12586 -0.67299,0.0621 -422.707049,18.73805 -0.69982,-0.003 -0.69608,-0.0726 -0.6855,-0.14088 -0.66829,-0.20778 -0.64452,-0.27269 -0.61446,-0.33495 -0.57844,-0.39393 -0.53677,-0.44906 -0.48988,-0.49981 -0.43815,-0.54569 -0.38223,-0.58626 -0.3225,-0.6211 -0.25965,-0.64987 -0.19446,-0.67233 -56.3480099,-238.54816 -0.1423,-0.80905 -0.0476,-0.82007 V 14.133123 l 0.0323,-0.676252 0.0967,-0.67008 0.16016,-0.657792 0.22223,-0.6395 0.28233,-0.615371 0.33971,-0.585627 0.39399,-0.5505358 0.44479,-0.5104213 0.49147,-0.4656475 0.53365,-0.416624 0.57098,-0.3637978 0.60307,-0.3076515 0.62969,-0.2486976 0.65055,-0.1874721 0.66549,-0.1245373 0.6743099,-0.060466 74.97087,-3.1242803 0.29503,-0.00614 z m 182.8501,12.7692895 v 0 l 0.0204,0.416765 0.0612,0.412752 0.1014,0.404764 0.14057,0.392877 0.17841,0.377206 0.21453,0.357902 0.24857,0.335155 0.28023,0.309175 0.30917,0.280233 0.33516,0.24857 0.3579,0.214526 0.37721,0.178412 0.39287,0.14057 0.40477,0.101396 0.41275,0.06123 0.41676,0.02041 0.41677,-0.02041 0.41275,-0.06123 0.40477,-0.101396 0.39287,-0.14057 0.37721,-0.178412 0.3579,-0.214526 0.33516,-0.24857 0.30917,-0.280233 0.28023,-0.309175 0.24857,-0.335155 0.21453,-0.357902 0.17841,-0.377206 0.14057,-0.392877 0.1014,-0.404764 0.0612,-0.412752 0.0204,-0.416765 -0.0204,-0.416766 -0.0612,-0.412752 -0.1014,-0.404764 -0.14057,-0.392876 -0.17841,-0.377206 -0.21453,-0.357904 -0.24857,-0.335152 -0.28023,-0.309176 -0.30917,-0.280222 -0.33516,-0.248567 -0.3579,-0.214517 -0.37721,-0.178405 -0.39287,-0.140572 -0.40477,-0.101387 -0.41275,-0.06123 -0.41677,-0.02047 -0.41676,0.02047 -0.41275,0.06123 -0.40477,0.101387 -0.39287,0.140572 -0.37721,0.178405 -0.3579,0.214517 -0.33516,0.248567 -0.30917,0.280222 -0.28023,0.309176 -0.24857,0.335152 -0.21453,0.357904 -0.17841,0.377206 -0.14057,0.392876 -0.1014,0.404764 -0.0612,0.412752 z m 168.53834,21.06729 v 0 l 0.0205,0.416766 0.0612,0.412753 0.10139,0.404762 0.14057,0.392879 0.1784,0.377206 0.21452,0.357903 0.24857,0.335151 0.28022,0.309178 0.30918,0.280233 0.33515,0.24857 0.3579,0.214526 0.37721,0.178413 0.39288,0.14057 0.40476,0.101395 0.41275,0.06123 0.41678,0.02043 0.41676,-0.02047 0.41274,-0.06123 0.40477,-0.101387 0.39287,-0.140573 0.37721,-0.178407 0.3579,-0.214517 0.33516,-0.248567 0.30917,-0.280219 0.28022,-0.309178 0.24857,-0.335151 0.21452,-0.357903 0.1784,-0.377206 0.14058,-0.392879 0.10138,-0.404762 0.0612,-0.412753 0.0205,-0.416766 -0.0205,-0.416764 -0.0612,-0.412753 -0.10138,-0.404764 -0.14058,-0.392876 -0.1784,-0.377207 -0.21452,-0.357902 -0.24857,-0.335152 -0.28021,-0.309177 -0.30918,-0.280233 -0.33515,-0.24857 -0.35791,-0.214526 -0.3772,-0.178413 -0.39288,-0.14057 -0.40476,-0.101395 -0.41275,-0.06123 -0.41677,-0.02041 -0.41676,0.02041 -0.41276,0.06123 -0.40476,0.101395 -0.39288,0.14057 -0.3772,0.178413 -0.35791,0.214526 -0.33515,0.24857 -0.30917,0.280233 -0.28023,0.309177 -0.24856,0.335152 -0.21452,0.357902 -0.17841,0.377207 -0.14057,0.392876 -0.10139,0.404764 -0.0612,0.412753 z m 0,177.021614 v 0 l 0.0205,0.41677 0.0612,0.41275 0.10139,0.40476 0.14057,0.39288 0.1784,0.3772 0.21452,0.3579 0.24857,0.33516 0.28022,0.30917 0.30918,0.28024 0.33515,0.24857 0.3579,0.21452 0.37721,0.17842 0.39288,0.14057 0.40476,0.10139 0.41275,0.0612 0.41677,0.0204 0.41676,-0.0204 0.41275,-0.0612 0.40477,-0.10139 0.39287,-0.14057 0.37721,-0.17842 0.3579,-0.21452 0.33516,-0.24857 0.30917,-0.28024 0.28022,-0.30917 0.24857,-0.33516 0.21452,-0.3579 0.1784,-0.3772 0.14058,-0.39288 0.10139,-0.40476 0.0612,-0.41275 0.0205,-0.41677 -0.0205,-0.41677 -0.0612,-0.41275 -0.10139,-0.40476 -0.14057,-0.39288 -0.1784,-0.3772 -0.21452,-0.35791 -0.24857,-0.33515 -0.28022,-0.30918 -0.30917,-0.28023 -0.33516,-0.24857 -0.3579,-0.21453 -0.3772,-0.17841 -0.39288,-0.14057 -0.40476,-0.10139 -0.41276,-0.0612 -0.41676,-0.0204 -0.41677,0.0204 -0.41275,0.0612 -0.40476,0.10139 -0.39288,0.14057 -0.37721,0.17841 -0.3579,0.21453 -0.33515,0.24857 -0.30918,0.28023 -0.28022,0.30918 -0.24857,0.33515 -0.21452,0.35791 -0.1784,0.3772 -0.14057,0.39288 -0.10139,0.40476 -0.0612,0.41275 z m 0,177.0216 v 0 l 0.0205,0.41678 0.0612,0.41275 0.10139,0.40476 0.14057,0.39288 0.1784,0.37721 0.21452,0.3579 0.24857,0.33514 0.28022,0.30918 0.30918,0.28034 0.33515,0.2486 0.3579,0.21458 0.37721,0.1783 0.39288,0.1406 0.40476,0.10148 0.41275,0.0612 0.41677,0.0198 0.41676,-0.0198 0.41275,-0.0612 0.40477,-0.10148 0.39287,-0.1406 0.37721,-0.1783 0.3579,-0.21458 0.33516,-0.2486 0.30917,-0.28034 0.28022,-0.30918 0.24857,-0.33514 0.21452,-0.3579 0.1784,-0.37721 0.14057,-0.39288 0.10139,-0.40476 0.0612,-0.41275 0.0205,-0.41678 -0.0205,-0.41675 -0.0612,-0.41275 -0.10139,-0.40476 -0.14057,-0.39288 -0.1784,-0.37721 -0.21452,-0.3579 -0.24857,-0.33517 -0.28022,-0.30917 -0.30917,-0.28007 -0.33516,-0.2486 -0.3579,-0.21458 -0.3772,-0.1783 -0.39288,-0.1406 -0.40476,-0.10148 -0.41276,-0.0612 -0.41676,-0.0199 -0.41677,0.0199 -0.41275,0.0612 -0.40476,0.10148 -0.39288,0.1406 -0.37721,0.1783 -0.3579,0.21458 -0.33515,0.2486 -0.30918,0.28007 -0.28022,0.30917 -0.24857,0.33517 -0.21452,0.3579 -0.1784,0.37721 -0.14057,0.39288 -0.10139,0.40476 -0.0612,0.41275 z m -211.35353,9.36904 0.0204,0.41678 0.0612,0.41272 0.1014,0.40479 0.14057,0.39286 0.17841,0.3772 0.21453,0.3579 0.24857,0.33517 0.28023,0.30918 0.30917,0.28034 0.33516,0.2486 0.3579,0.21459 0.37721,0.17829 0.39287,0.1406 0.40477,0.10148 0.41275,0.0612 0.41676,0.0198 0.41677,-0.0198 0.41275,-0.0612 0.40476,-0.10148 0.39288,-0.1406 0.37721,-0.17829 0.3579,-0.21459 0.33515,-0.2486 0.30918,-0.28034 0.28023,-0.30918 0.24857,-0.33517 0.21453,-0.3579 0.17841,-0.3772 0.14057,-0.39286 0.1014,-0.40479 0.0612,-0.41272 0.0204,-0.41678 -0.0204,-0.41678 -0.0612,-0.41275 -0.1014,-0.40476 -0.14057,-0.39288 -0.17841,-0.37721 -0.21453,-0.3579 -0.24857,-0.33514 -0.28023,-0.30917 -0.30918,-0.28035 -0.33515,-0.2486 -0.3579,-0.21458 -0.37721,-0.1783 -0.39288,-0.1406 -0.40476,-0.10148 -0.41275,-0.0612 -0.41677,-0.0198 -0.41676,0.0198 -0.41275,0.0612 -0.40477,0.10148 -0.39287,0.1406 -0.37721,0.1783 -0.3579,0.21458 -0.33516,0.2486 -0.30917,0.28035 -0.28023,0.30917 -0.24857,0.33514 -0.21453,0.3579 -0.17841,0.37721 -0.14057,0.39288 -0.1014,0.40476 -0.0612,0.41275 z m -211.353509,9.36904 0.0198,0.41675 0.0612,0.41276 0.10148,0.40476 0.14059,0.39288 0.1783,0.3772 0.21459,0.35791 0.24859,0.33516 0.28035,0.30918 0.30918,0.28006 0.33514,0.2486 0.3579,0.21458 0.3772,0.1783 0.39289,0.1406 0.40476,0.10148 0.41275,0.0612 0.41678,0.0198 0.41675,-0.0198 0.41275,-0.0612 0.40479,-0.10148 0.39285,-0.1406 0.37721,-0.1783 0.3579,-0.21458 0.33517,-0.2486 0.30917,-0.28006 0.28006,-0.30918 0.2486,-0.33516 0.21459,-0.35791 0.17829,-0.3772 0.1406,-0.39288 0.10148,-0.40476 0.0612,-0.41276 0.0198,-0.41675 -0.0198,-0.41677 -0.0612,-0.41276 -0.10148,-0.40476 -0.1406,-0.39288 -0.17829,-0.3772 -0.21459,-0.35791 -0.2486,-0.33514 -0.28006,-0.30917 -0.30917,-0.28035 -0.33517,-0.2486 -0.3579,-0.21458 -0.37721,-0.1783 -0.39285,-0.1406 -0.40479,-0.10148 -0.41275,-0.0612 -0.41675,-0.0199 -0.41678,0.0199 -0.41275,0.0612 -0.40476,0.10148 -0.39289,0.1406 -0.3772,0.1783 -0.3579,0.21458 -0.33514,0.2486 -0.30918,0.28035 -0.28035,0.30917 -0.24859,0.33514 -0.21459,0.35791 -0.1783,0.3772 -0.14059,0.39288 -0.10148,0.40476 -0.0612,0.41276 z M 6.5166411,171.99192 v 0 l 0.0198,0.41677 0.0612,0.41275 0.10148,0.40477 0.1406,0.39287 0.1783,0.37721 0.21458,0.3579 0.2486,0.33515 0.28034,0.30918 0.30918,0.28023 0.33514,0.24857 0.3579,0.21453 0.37721,0.17841 0.39288,0.14057 0.40476,0.1014 0.4127499,0.0612 0.41678,0.0204 0.41678,-0.0204 0.41275,-0.0612 0.40476,-0.1014 0.39288,-0.14057 0.37721,-0.17841 0.3579,-0.21453 0.33514,-0.24857 0.30917,-0.28023 0.28035,-0.30918 0.2486,-0.33515 0.21458,-0.3579 0.1783,-0.37721 0.1406,-0.39287 0.10148,-0.40477 0.0612,-0.41275 0.0198,-0.41677 -0.0198,-0.41676 -0.0612,-0.41276 -0.10148,-0.40476 -0.1406,-0.39287 -0.1783,-0.37721 -0.21458,-0.3579 -0.2486,-0.33516 -0.28035,-0.30917 -0.30917,-0.28023 -0.33514,-0.24857 -0.3579,-0.21453 -0.37721,-0.17841 -0.39288,-0.14057 -0.40476,-0.1014 -0.41275,-0.0612 -0.41678,-0.0204 -0.41678,0.0204 -0.4127499,0.0612 -0.40476,0.1014 -0.39288,0.14057 -0.37721,0.17841 -0.3579,0.21453 -0.33514,0.24857 -0.30918,0.28023 -0.28034,0.30917 -0.2486,0.33516 -0.21458,0.3579 -0.1783,0.37721 -0.1406,0.39287 -0.10148,0.40476 -0.0612,0.41276 z m 0,-157.859307 v 0 l 0.0198,0.416765 0.0612,0.412752 0.10148,0.404764 0.1406,0.392876 0.1783,0.377206 0.21458,0.357903 0.2486,0.335154 0.28034,0.309175 0.30918,0.280222 0.33514,0.248567 0.3579,0.214517 0.37721,0.178404 0.39288,0.140573 0.40476,0.101396 0.4127499,0.06123 0.41678,0.02041 0.41678,-0.02041 0.41275,-0.06123 0.40476,-0.101396 0.39288,-0.140573 0.37721,-0.178404 0.3579,-0.214517 0.33514,-0.248567 0.30917,-0.280222 0.28035,-0.309175 0.2486,-0.335154 0.21458,-0.357903 0.1783,-0.377206 0.1406,-0.392876 0.10148,-0.404764 0.0612,-0.412752 0.0198,-0.416765 -0.0198,-0.416766 -0.0612,-0.412752 -0.10148,-0.404764 -0.1406,-0.392876 -0.1783,-0.377206 -0.21458,-0.357904 -0.2486,-0.335153 -0.28035,-0.309175 -0.30917,-0.280219 -0.33514,-0.248567 -0.3579,-0.214521 -0.37721,-0.178404 -0.39288,-0.140573 -0.40476,-0.1013863 -0.41275,-0.061225 -0.41678,-0.020466 -0.41678,0.020466 -0.4127499,0.061225 -0.40476,0.1013863 -0.39288,0.140573 -0.37721,0.178404 -0.3579,0.214521 -0.33514,0.248567 -0.30918,0.280219 -0.28034,0.309175 -0.2486,0.335153 -0.21458,0.357904 -0.1783,0.377206 -0.1406,0.392876 -0.10148,0.404764 -0.0612,0.412752 z"
       id="path4505-6" /></g></svg>