<?xml version="1.0" encoding="utf-8" ?>
<svg baseProfile="full" height="155.94330272112006mm" version="1.1" viewBox="0,0,184.00000000000003,155.94330272112006" width="184.00000000000003mm" xmlns="http://www.w3.org/2000/svg" xmlns:ev="http://www.w3.org/2001/xml-events" xmlns:xlink="http://www.w3.org/1999/xlink"><defs /><g><path d="M 132.96204367916351,5.0 132.88614853201764,5.001152280222001 66.88068698564722,7.005873967279568 66.64649529632008,7.024026995273397 7.189913163526981,14.456099761872535 6.952512334708881,14.49747953828516 6.720198449376855,14.561524039231067 6.495130035805823,14.647638199693164 6.2793983014748145,14.75502189595106 6.075007702758402,14.882677379874854 5.883857320659984,15.029418549432352 5.70772321563301,15.193881969273418 5.548241925439044,15.374539538994535 5.406895259371209,15.569712691377186 5.2849965301264215,15.777587988678183 5.1836783512519835,15.996233972060086 5.10388211354575,16.223619107606375 5.04634923818914,16.45763066217724 5.011614287883896,16.69609433372233 5.000000000000002,16.936794453656706 5.0,114.39375 5.000000000000003,141.8353832932956 5.011369262335846,142.07353671349597 5.0453736412425245,142.30952403072803 5.101703852956554,142.54119884361774 5.179847551114406,142.76645397478552 5.279093986752681,142.9832406364885 5.398540472861244,143.18958706518433 5.537100594691562,143.38361645552916 5.693514091144139,143.56356403069117 5.866358317359744,143.72779309371944 6.054061184257513,143.87480991397337 6.254915457329484,144.00327731321514 6.467094284638195,144.11202682779387 6.688667812783818,144.2000693363015 6.91762073971182,144.26660405603724 7.151870644711158,144.31102582645462 7.389286928884165,144.33293061334462 156.51094867944454,150.94330272112006 156.7578335033689,150.94204409706296 157.00339029973705,150.9164401876724 157.2452242532848,150.86674069743202 157.48097685611515,150.79343032519606 157.70834890926406,150.69722403711918 157.9251229458497,150.57906009388333 158.1291848571225,150.44009090022388 158.3185445105055,150.2816717659965 158.49135515854522,150.10534768839287 158.6459314494865,149.91283828421348 158.78076586382062,149.70602101914633 158.89454341650796,149.48691289761004 158.98615448149076,149.25765079173254 159.05470561342344,149.02047060130883 178.9330438628631,64.86597310114772 178.98320454827606,64.58055907861434 179.00000000000003,64.29125790090993 179.0,8.601997468861603 178.98859115294965,8.36343076233953 178.95446874123138,8.127041472670273 178.89794420274623,7.894987143253974 178.81953344134553,7.6693857519719835 178.7199521181364,7.4522963802382876 178.60010911958736,7.245700419603581 178.46109826205074,7.0514834874407475 178.30418830841614,6.871418216768696 178.13081138801294,6.707148077293169 177.9425499254547,6.560172375331144 177.7411221977268,6.43183256952566 177.52836665133918,6.3233000272486475 177.3062251226821,6.235565333439963 177.07672511473476,6.169429249461748 176.8419612918881,6.125495404487296 176.60407636178044,6.104164786130724 150.156137109102,5.0021673172691195 150.05206074732155,5.0 132.96204367916351,5.0 zM 159.22988117819344,88.14758746355804 156.7988066908564,101.93489600572894 143.0114981486855,99.50382151839193 145.4425726360225,85.71651297622101 159.22988117819344,88.14758746355804 zM 155.92188339363838,106.90817515844061 153.49080890630137,120.69548370061152 139.70350036413046,118.2644092132745 142.13457485146748,104.4771006711036 155.92188339363838,106.90817515844061 zM 152.61388560908333,125.66876285332319 150.1828111217463,139.4560713954941 136.3955025795754,137.02499690815708 138.82657706691242,123.23768836598617 152.61388560908333,125.66876285332319 zM 143.82500000000005,62.768750000000004 143.82500000000005,76.76875000000001 129.82500000000005,76.76875000000001 129.82500000000005,62.768750000000004 143.82500000000005,62.768750000000004 zM 143.82500000000005,43.71875000000001 143.82500000000005,57.71875000000001 129.82500000000005,57.71875000000001 129.82500000000005,43.71875000000001 143.82500000000005,43.71875000000001 zM 143.82500000000005,24.668750000000003 143.82500000000005,38.66875 129.82500000000005,38.66875 129.82500000000005,24.668750000000003 143.82500000000005,24.668750000000003 zM 137.16129569875585,103.60017737388559 134.7302212114188,117.3874859160565 120.94291266924789,114.95641142871948 123.37398715658492,101.16910288654856 137.16129569875585,103.60017737388559 zM 133.85329791420082,122.36076506876817 131.4222234268638,136.1480736109391 117.63491488469289,133.71699912360202 120.0659893720299,119.92969058143115 133.85329791420082,122.36076506876817 zM 124.77500000000002,22.2875 124.77500000000002,36.2875 110.77500000000002,36.2875 110.77500000000002,22.2875 124.77500000000002,22.2875 zM 124.775,79.4375 124.775,93.4375 110.775,93.4375 110.775,79.4375 124.775,79.4375 zM 124.775,60.3875 124.775,74.3875 110.775,74.3875 110.775,60.3875 124.775,60.3875 zM 124.775,41.3375 124.775,55.3375 110.775,55.3375 110.775,41.3375 124.775,41.3375 zM 105.725,77.05625 105.725,91.05625 91.725,91.05625 91.725,77.05625 105.725,77.05625 zM 105.725,58.006249999999994 105.725,72.00625 91.725,72.00625 91.725,58.006249999999994 105.725,58.006249999999994 zM 105.725,38.956250000000004 105.725,52.956250000000004 91.725,52.956250000000004 91.725,38.956250000000004 105.725,38.956250000000004 zM 105.725,19.90625 105.725,33.90625 91.725,33.90625 91.725,19.90625 105.725,19.90625 zM 86.67500000000001,36.575 86.67500000000001,50.575 72.67500000000001,50.575 72.67500000000001,36.575 86.67500000000001,36.575 zM 86.67500000000001,55.625 86.67500000000001,69.625 72.67500000000001,69.625 72.67500000000001,55.625 86.67500000000001,55.625 zM 86.67500000000001,17.525 86.67500000000001,31.525 72.67500000000001,31.525 72.67500000000001,17.525 86.67500000000001,17.525 zM 86.675,74.675 86.675,88.675 72.675,88.675 72.675,74.675 86.675,74.675 zM 67.625,119.91875 67.625,133.91875 53.625,133.91875 53.625,119.91875 67.625,119.91875 zM 67.625,77.05625 67.625,91.05625 53.625,91.05625 53.625,77.05625 67.625,77.05625 zM 67.625,58.00625 67.625,72.00625 53.625,72.00625 53.625,58.00625 67.625,58.00625 zM 67.625,38.95625 67.625,52.95625 53.625,52.95625 53.625,38.95625 67.625,38.95625 zM 67.625,19.90625 67.625,33.90625 53.625,33.90625 53.625,19.90625 67.625,19.90625 zM 48.575,100.86875 48.575,114.86875 34.575,114.86875 34.575,100.86875 48.575,100.86875 zM 48.575,24.668750000000003 48.575,38.66875 34.575,38.66875 34.575,24.668750000000003 48.575,24.668750000000003 zM 48.575,43.71875 48.575,57.71875 34.575,57.71875 34.575,43.71875 48.575,43.71875 zM 48.575,62.768750000000004 48.575,76.76875000000001 34.575,76.76875000000001 34.575,62.768750000000004 48.575,62.768750000000004 zM 48.575,81.81875 48.575,95.81875 34.575,95.81875 34.575,81.81875 48.575,81.81875 zM 48.575,119.91875 48.575,133.91875 34.575,133.91875 34.575,119.91875 48.575,119.91875 zM 29.525,24.668750000000003 29.525,38.66875 15.525000000000002,38.66875 15.525000000000002,24.668750000000003 29.525,24.668750000000003 zM 29.525,119.91875 29.525,133.91875 15.525,133.91875 15.525,119.91875 29.525,119.91875 zM 29.525,81.81875 29.525,95.81875 15.525,95.81875 15.525,81.81875 29.525,81.81875 zM 29.525,62.768750000000004 29.525,76.76875000000001 15.525000000000002,76.76875000000001 15.525000000000002,62.768750000000004 29.525,62.768750000000004 zM 29.525,43.71875 29.525,57.71875 15.525000000000002,57.71875 15.525000000000002,43.71875 29.525,43.71875 zM 68.4565821327931,9.504721687057566 68.4565821327931,9.504721687057579 68.44935922280139,9.651747397551919 68.42776005339795,9.79735717008177 68.39199263639141,9.94014870293927 68.34240143156002,10.07874683560521 68.27946402931562,10.21181679229657 68.2037865512469,10.338077036586977 68.1160978128372,10.456311613303042 68.01724230457292,10.565381858837394 67.90817205903856,10.664237367101677 67.7899374823225,10.751926105511387 67.6636772380321,10.827603583580103 67.53060728134072,10.890540985824499 67.39200914867479,10.94013219065588 67.24921761581729,10.975899607662413 67.10360784328743,10.997498777065863 66.95658213279309,11.004721687057566 66.80955642229875,10.99749877706586 66.6639466497689,10.975899607662411 66.5211551169114,10.940132190655879 66.38255698424547,10.890540985824495 66.2494870275541,10.827603583580098 66.12322678326369,10.751926105511384 66.00499220654763,10.664237367101672 65.89592196101327,10.565381858837387 65.797066452749,10.456311613303034 65.70937771433928,10.33807703658697 65.63370023627057,10.211816792296563 65.57076283402617,10.0787468356052 65.52117162919478,9.940148702939258 65.48540421218826,9.797357170081757 65.4638050427848,9.651747397551906 65.4565821327931,9.504721687057565 65.4638050427848,9.357695976563225 65.48540421218826,9.212086204033373 65.52117162919478,9.069294671175872 65.57076283402617,8.93069653850993 65.63370023627057,8.797626581818568 65.70937771433928,8.67136633752816 65.797066452749,8.553131760812096 65.89592196101327,8.444061515277744 66.00499220654763,8.34520600701346 66.1232267832637,8.257517268603747 66.24948702755411,8.181839790535033 66.38255698424547,8.118902388290635 66.5211551169114,8.069311183459252 66.6639466497689,8.03354376645272 66.80955642229875,8.011944597049272 66.9565821327931,8.004721687057566 67.10360784328743,8.011944597049272 67.24921761581729,8.033543766452722 67.39200914867479,8.069311183459254 67.53060728134074,8.118902388290637 67.6636772380321,8.181839790535035 67.7899374823225,8.257517268603749 67.90817205903856,8.345206007013463 68.01724230457292,8.444061515277745 68.11609781283721,8.5531317608121 68.20378655124692,8.671366337528163 68.27946402931563,8.79762658181857 68.34240143156003,8.930696538509931 68.39199263639141,9.069294671175873 68.42776005339795,9.212086204033374 68.44935922280139,9.357695976563225 68.4565821327931,9.504721687057566 zM 9.000000000000002,16.936794453656706 9.000000000000002,16.936794453656717 8.992777090008296,17.083820164151057 8.971177920604845,17.22942993668091 8.935410503598312,17.37222146953841 8.885819298766927,17.51081960220435 8.82288189652253,17.643889558895708 8.747204418453816,17.770149803186115 8.659515680044102,17.888384379902178 8.560660171779817,17.997454625436532 8.451589926245465,18.096310133700815 8.333355349529398,18.183998872110525 8.207095105238992,18.25967635017924 8.07402514854763,18.322613752423635 7.9354270158816895,18.37220495725502 7.792635483024189,18.40797237426155 7.647025710494338,18.429571543665 7.499999999999997,18.436794453656702 7.352974289505657,18.429571543665 7.207364516975806,18.40797237426155 7.064572984118305,18.372204957255015 6.925974851452365,18.322613752423635 6.792904894761004,18.259676350179237 6.666644650470597,18.18399887211052 6.548410073754533,18.09631013370081 6.439339828220181,17.997454625436525 6.3404843199558965,17.88838437990217 6.2527955815461835,17.770149803186108 6.1771181034774685,17.6438895588957 6.114180701233071,17.51081960220434 6.064589496401688,17.372221469538395 6.028822079395155,17.229429936680894 6.0072229099917065,17.083820164151042 6.000000000000002,16.936794453656702 6.0072229099917065,16.789768743162362 6.028822079395157,16.64415897063251 6.064589496401689,16.50136743777501 6.114180701233073,16.36276930510907 6.17711810347747,16.229699348417707 6.252795581546185,16.1034391041273 6.340484319955898,15.985204527411234 6.439339828220183,15.876134281876881 6.548410073754535,15.777278773612597 6.666644650470601,15.689590035202885 6.7929048947610084,15.61391255713417 6.92597485145237,15.550975154889773 7.064572984118311,15.50138395005839 7.207364516975812,15.465616533051858 7.352974289505664,15.44401736364841 7.500000000000004,15.436794453656704 7.647025710494345,15.44401736364841 7.792635483024196,15.46561653305186 7.9354270158816975,15.501383950058392 8.074025148547637,15.550975154889775 8.207095105238999,15.613912557134173 8.333355349529405,15.689590035202887 8.451589926245472,15.7772787736126 8.560660171779825,15.876134281876883 8.659515680044109,15.985204527411238 8.74720441845382,16.1034391041273 8.822881896522535,16.229699348417707 8.885819298766933,16.36276930510907 8.935410503598316,16.50136743777501 8.971177920604848,16.64415897063251 8.992777090008296,16.789768743162362 9.000000000000002,16.936794453656706 zM 9.000000000000002,79.38608887347614 9.000000000000002,79.38608887347615 8.992777090008296,79.53311458397049 8.971177920604845,79.67872435650034 8.935410503598312,79.82151588935784 8.885819298766927,79.96011402202379 8.82288189652253,80.09318397871515 8.747204418453816,80.21944422300555 8.659515680044102,80.33767879972162 8.560660171779817,80.44674904525597 8.451589926245465,80.54560455352025 8.333355349529398,80.63329329192996 8.207095105238992,80.70897076999867 8.07402514854763,80.77190817224307 7.9354270158816895,80.82149937707446 7.792635483024189,80.85726679408099 7.647025710494338,80.87886596348443 7.499999999999997,80.88608887347614 7.352974289505657,80.87886596348443 7.207364516975806,80.85726679408099 7.064572984118305,80.82149937707445 6.925974851452365,80.77190817224307 6.792904894761004,80.70897076999867 6.666644650470597,80.63329329192996 6.548410073754533,80.54560455352025 6.439339828220181,80.44674904525596 6.3404843199558965,80.3376787997216 6.2527955815461835,80.21944422300554 6.1771181034774685,80.09318397871513 6.114180701233071,79.96011402202377 6.064589496401688,79.82151588935783 6.028822079395155,79.67872435650033 6.0072229099917065,79.53311458397047 6.000000000000002,79.38608887347614 6.0072229099917065,79.2390631629818 6.028822079395157,79.09345339045194 6.064589496401689,78.95066185759444 6.114180701233073,78.8120637249285 6.17711810347747,78.67899376823715 6.252795581546185,78.55273352394673 6.340484319955898,78.43449894723068 6.439339828220183,78.32542870169632 6.548410073754535,78.22657319343203 6.666644650470601,78.13888445502232 6.7929048947610084,78.06320697695361 6.92597485145237,78.00026957470921 7.064572984118311,77.95067836987783 7.207364516975812,77.9149109528713 7.352974289505664,77.89331178346785 7.500000000000004,77.88608887347614 7.647025710494345,77.89331178346785 7.792635483024196,77.9149109528713 7.9354270158816975,77.95067836987783 8.074025148547637,78.00026957470921 8.207095105238999,78.06320697695361 8.333355349529405,78.13888445502232 8.451589926245472,78.22657319343205 8.560660171779825,78.32542870169632 8.659515680044109,78.43449894723068 8.74720441845382,78.55273352394673 8.822881896522535,78.67899376823715 8.885819298766933,78.8120637249285 8.935410503598316,78.95066185759444 8.971177920604848,79.09345339045194 8.992777090008296,79.2390631629818 9.000000000000002,79.38608887347614 zM 9.000000000000004,141.8353832932956 9.000000000000004,141.8353832932956 8.992777090008296,141.98240900378994 8.971177920604847,142.12801877631978 8.935410503598312,142.27081030917728 8.885819298766929,142.40940844184323 8.822881896522532,142.54247839853457 8.747204418453816,142.668738642825 8.659515680044102,142.78697321954104 8.56066017177982,142.89604346507542 8.451589926245465,142.99489897333967 8.3333553495294,143.0825877117494 8.207095105238993,143.1582651898181 8.074025148547632,143.22120259206253 7.93542701588169,143.27079379689388 7.79263548302419,143.30656121390044 7.647025710494339,143.32816038330387 7.499999999999998,143.3353832932956 7.352974289505658,143.32816038330387 7.207364516975807,143.30656121390044 7.064572984118307,143.27079379689388 6.925974851452366,143.2212025920625 6.792904894761005,143.1582651898181 6.666644650470598,143.0825877117494 6.548410073754534,142.99489897333967 6.439339828220181,142.8960434650754 6.3404843199558965,142.78697321954104 6.252795581546184,142.66873864282496 6.17711810347747,142.54247839853457 6.114180701233073,142.4094084418432 6.064589496401689,142.27081030917725 6.028822079395157,142.12801877631978 6.007222909991707,141.9824090037899 6.000000000000003,141.8353832932956 6.007222909991707,141.68835758280125 6.028822079395157,141.54274781027138 6.06458949640169,141.39995627741388 6.114180701233074,141.26135814474793 6.177118103477471,141.1282881880566 6.252795581546186,141.00202794376617 6.340484319955899,140.8837933670501 6.4393398282201835,140.77472312151576 6.548410073754537,140.67586761325146 6.666644650470602,140.58817887484176 6.792904894761009,140.51250139677305 6.925974851452371,140.44956399452866 7.064572984118312,140.39997278969724 7.207364516975813,140.36420537269072 7.3529742895056645,140.3426062032873 7.500000000000005,140.3353832932956 7.647025710494346,140.3426062032873 7.792635483024197,140.36420537269072 7.935427015881698,140.39997278969724 8.074025148547639,140.44956399452866 8.207095105239,140.51250139677305 8.333355349529407,140.58817887484176 8.451589926245472,140.67586761325146 8.560660171779825,140.77472312151576 8.659515680044109,140.88379336705012 8.747204418453821,141.00202794376617 8.822881896522535,141.1282881880566 8.885819298766933,141.26135814474793 8.935410503598316,141.39995627741388 8.971177920604848,141.54274781027138 8.992777090008298,141.68835758280125 9.000000000000004,141.8353832932956 zM 83.56083087528019,145.14056934718332 83.55360796528848,145.28759505767766 83.53200879588503,145.43320483020753 83.4962413788785,145.57599636306503 83.44665017404712,145.71459449573095 83.38371277180272,145.84766445242232 83.30803529373401,145.97392469671271 83.22034655532428,146.0921592734288 83.12149104706,146.20122951896315 83.01242080152565,146.30008502722742 82.89418622480959,146.38777376563715 82.76792598051918,146.46345124370586 82.63485602382782,146.52638864595025 82.49625789116187,146.57597985078164 82.35346635830437,146.61174726778816 82.20785658577452,146.63334643719162 82.06083087528019,146.64056934718332 81.91380516478584,146.63334643719162 81.76819539225599,146.61174726778816 81.62540385939849,146.57597985078164 81.48680572673256,146.52638864595025 81.3537357700412,146.46345124370586 81.22747552575079,146.38777376563712 81.10924094903471,146.30008502722742 81.00017070350037,146.20122951896315 80.90131519523608,146.0921592734288 80.81362645682637,145.97392469671271 80.73794897875766,145.84766445242232 80.67501157651326,145.71459449573095 80.62542037168187,145.575996363065 80.58965295467534,145.4332048302075 80.5680537852719,145.28759505767766 80.56083087528019,145.14056934718332 80.5680537852719,144.99354363668897 80.58965295467534,144.84793386415913 80.62542037168187,144.70514233130163 80.67501157651326,144.56654419863568 80.73794897875766,144.4334742419443 80.81362645682637,144.30721399765392 80.90131519523608,144.18897942093784 81.00017070350037,144.0799091754035 81.10924094903473,143.9810536671392 81.22747552575079,143.89336492872948 81.3537357700412,143.81768745066077 81.48680572673256,143.75475004841638 81.6254038593985,143.705158843585 81.768195392256,143.66939142657847 81.91380516478586,143.647792257175 82.06083087528019,143.64056934718332 82.20785658577454,143.647792257175 82.35346635830439,143.66939142657847 82.49625789116189,143.705158843585 82.63485602382782,143.75475004841638 82.76792598051918,143.81768745066077 82.89418622480959,143.8933649287295 83.01242080152566,143.9810536671392 83.12149104706,144.0799091754035 83.2203465553243,144.18897942093784 83.30803529373401,144.30721399765392 83.38371277180272,144.4334742419443 83.44665017404712,144.56654419863568 83.49624137887851,144.70514233130163 83.53200879588503,144.84793386415913 83.55360796528848,144.99354363668897 83.56083087528019,145.14056934718332 zM 158.12166175056038,148.44575540107104 158.11443884056868,148.5927811115654 158.09283967116522,148.73839088409525 158.0570722541587,148.88118241695275 158.0074810493273,149.01978054961867 157.9445436470829,149.15285050631005 157.86886616901418,149.27911075060044 157.7811774306045,149.39734532731651 157.68232192234018,149.50641557285087 157.57325167680585,149.60527108111515 157.45501710008978,149.69295981952487 157.32875685579936,149.76863729759359 157.195686899108,149.83157469983797 157.05708876644206,149.88116590466936 156.91429723358456,149.91693332167588 156.76868746105472,149.93853249107934 156.62166175056038,149.94575540107104 156.47463604006603,149.93853249107934 156.3290262675362,149.91693332167588 156.1862347346787,149.88116590466936 156.04763660201274,149.83157469983797 155.91456664532137,149.76863729759359 155.78830640103098,149.69295981952484 155.6700718243149,149.60527108111515 155.56100157878055,149.50641557285087 155.46214607051627,149.39734532731651 155.37445733210657,149.27911075060044 155.29877985403783,149.15285050631005 155.23584245179345,149.01978054961867 155.18625124696206,148.88118241695273 155.15048382995553,148.73839088409522 155.12888466055207,148.5927811115654 155.12166175056038,148.44575540107104 155.12888466055207,148.2987296905767 155.15048382995553,148.15311991804685 155.18625124696206,148.01032838518935 155.23584245179345,147.8717302525234 155.29877985403783,147.73866029583203 155.37445733210657,147.61240005154164 155.46214607051627,147.49416547482556 155.56100157878055,147.3850952292912 155.6700718243149,147.28623972102693 155.78830640103098,147.1985509826172 155.91456664532137,147.1228735045485 156.04763660201274,147.0599361023041 156.1862347346787,147.01034489747272 156.3290262675362,146.9745774804662 156.47463604006603,146.95297831106274 156.62166175056038,146.94575540107104 156.76868746105472,146.95297831106274 156.91429723358456,146.9745774804662 157.05708876644206,147.01034489747272 157.195686899108,147.0599361023041 157.32875685579938,147.1228735045485 157.45501710008978,147.19855098261723 157.57325167680585,147.28623972102693 157.6823219223402,147.3850952292912 157.7811774306045,147.49416547482556 157.86886616901418,147.61240005154164 157.94454364708292,147.73866029583203 158.0074810493273,147.8717302525234 158.0570722541587,148.01032838518935 158.09283967116522,148.15311991804685 158.11443884056868,148.2987296905767 158.12166175056038,148.44575540107104 zM 178.00000000000003,64.29125790090993 178.00000000000003,64.29125790090994 177.99277709000833,64.43828361140427 177.97117792060487,64.58389338393414 177.93541050359835,64.72668491679164 177.88581929876696,64.86528304945757 177.82288189652255,64.99835300614893 177.74720441845383,65.12461325043934 177.65951568004414,65.2428478271554 177.56066017177983,65.35191807268976 177.4515899262455,65.45077358095403 177.33335534952943,65.53846231936375 177.207095105239,65.61413979743247 177.07402514854766,65.67707719967686 176.93542701588171,65.72666840450825 176.7926354830242,65.76243582151477 176.64702571049438,65.78403499091823 176.50000000000003,65.79125790090993 176.35297428950568,65.78403499091823 176.20736451697584,65.76243582151477 176.06457298411834,65.72666840450825 175.9259748514524,65.67707719967686 175.79290489476102,65.61413979743246 175.66664465047063,65.53846231936375 175.54841007375455,65.45077358095403 175.4393398282202,65.35191807268976 175.34048431995592,65.2428478271554 175.25279558154622,65.12461325043932 175.17711810347748,64.99835300614893 175.1141807012331,64.86528304945756 175.0645894964017,64.72668491679161 175.02882207939518,64.58389338393411 175.00722290999173,64.43828361140427 175.00000000000003,64.29125790090993 175.00722290999173,64.14423219041558 175.02882207939518,63.998622417885734 175.0645894964017,63.85583088502823 175.1141807012331,63.71723275236229 175.17711810347748,63.58416279567093 175.25279558154622,63.45790255138052 175.34048431995592,63.33966797466446 175.4393398282202,63.2305977291301 175.54841007375455,63.13174222086582 175.66664465047063,63.04405348245611 175.79290489476102,62.968376004387395 175.9259748514524,62.90543860214299 176.06457298411834,62.855847397311614 176.20736451697584,62.82007998030508 176.35297428950568,62.79848081090163 176.50000000000003,62.791257900909926 176.64702571049438,62.79848081090163 176.7926354830242,62.82007998030508 176.93542701588171,62.855847397311614 177.07402514854766,62.90543860214299 177.20709510523903,62.968376004387395 177.33335534952943,63.04405348245611 177.4515899262455,63.131742220865824 177.56066017177986,63.2305977291301 177.65951568004414,63.33966797466446 177.74720441845383,63.45790255138052 177.82288189652257,63.58416279567093 177.88581929876696,63.71723275236229 177.93541050359835,63.85583088502823 177.97117792060487,63.998622417885734 177.99277709000833,64.14423219041558 178.00000000000003,64.29125790090993 zM 178.0,8.601997468861605 178.0,8.601997468861615 177.9927770900083,8.749023179355955 177.97117792060484,8.894632951885807 177.93541050359832,9.037424484743308 177.88581929876693,9.176022617409249 177.82288189652252,9.309092574100609 177.7472044184538,9.435352818391014 177.6595156800441,9.55358739510708 177.5606601717798,9.66265764064143 177.45158992624548,9.761513148905713 177.3333553495294,9.849201887315425 177.20709510523898,9.92487936538414 177.07402514854763,9.987816767628537 176.9354270158817,10.037407972459919 176.79263548302418,10.07317538946645 176.64702571049435,10.094774558869899 176.5,10.101997468861605 176.35297428950565,10.094774558869899 176.20736451697582,10.07317538946645 176.0645729841183,10.037407972459917 175.92597485145237,9.987816767628534 175.792904894761,9.924879365384136 175.6666446504706,9.84920188731542 175.54841007375452,9.761513148905708 175.43933982822017,9.662657640641424 175.3404843199559,9.553587395107073 175.2527955815462,9.435352818391006 175.17711810347745,9.3090925741006 175.11418070123307,9.176022617409238 175.06458949640168,9.037424484743296 175.02882207939516,8.894632951885795 175.0072229099917,8.749023179355943 175.0,8.601997468861601 175.0072229099917,8.454971758367261 175.02882207939516,8.309361985837409 175.06458949640168,8.166570452979908 175.11418070123307,8.027972320313967 175.17711810347748,7.894902363622605 175.2527955815462,7.768642119332198 175.3404843199559,7.650407542616134 175.43933982822017,7.54133729708178 175.54841007375452,7.442481788817497 175.6666446504706,7.354793050407784 175.792904894761,7.2791155723390695 175.92597485145237,7.216178170094672 176.0645729841183,7.166586965263289 176.20736451697582,7.130819548256758 176.35297428950565,7.109220378853308 176.5,7.101997468861604 176.64702571049435,7.109220378853308 176.79263548302418,7.130819548256758 176.9354270158817,7.166586965263291 177.07402514854763,7.216178170094674 177.207095105239,7.279115572339072 177.3333553495294,7.354793050407787 177.45158992624548,7.442481788817499 177.56066017177983,7.541337297081784 177.6595156800441,7.650407542616136 177.7472044184538,7.768642119332201 177.82288189652255,7.894902363622608 177.88581929876693,8.02797232031397 177.93541050359832,8.166570452979911 177.97117792060484,8.309361985837413 177.9927770900083,8.454971758367263 178.0,8.601997468861605 z" fill="none" stroke="#0000ff" stroke-width="0.01mm" /></g></svg>