<?xml version="1.0" encoding="utf-8" ?>
<svg baseProfile="full" height="143.85654041249649mm" version="1.1" viewBox="0,0,165.6303501951956,143.85654041249649" width="165.6303501951956mm" xmlns="http://www.w3.org/2000/svg" xmlns:ev="http://www.w3.org/2001/xml-events" xmlns:xlink="http://www.w3.org/1999/xlink"><defs /><g><path d="M 42.87156720064472,133.08274924334617 68.14999999999999,132.44375 68.14999999999999,107.39375 49.100000000000016,107.39375000000001 49.100000000000016,89.58125000000001 68.14999999999976,89.58125000000003 68.14999999999999,87.19999999999996 81.20000000000002,87.19999999999996 81.19999999999963,89.58125000000001 100.25,89.58124999999998 100.24999999999987,91.96250000000003 113.1528387505238,91.96250000000003 109.71609182991254,111.45326032948991 106.23444586769057,131.19865577738477 124.86608588567066,134.4839166074021 124.66854633478026,135.10921194740828 149.664467775529,138.85654041249649 153.84070644841873,115.17191395255269 157.14870423297376,96.41132625767018 160.6303501951956,76.66593080977538 144.35000000000005,73.79526581498008 144.35000000000005,32.19375 144.35000000000002,12.143750000000004 125.29999999999998,12.14375 125.3,9.762500000000003 106.25,9.762500000000003 106.25000000000001,7.381250000000002 87.2,7.381250000000001 87.2,5.0 62.15000000000001,5.0 62.15,7.381250000000001 43.100000000000016,7.381250000000001 43.10000000000001,12.143750000000002 5.000000000000002,12.143750000000002 5.000000000000002,94.34375 24.04999999999999,94.34375 24.050000000000004,107.39375 5.0,107.39375 5.000000000000001,132.44375 42.96062665966282,132.44375 42.87156720064472,133.08274924334617 zM 125.29999999999997,88.0455395898675 125.30000000000004,75.29374999999997 135.43586606663155,75.29374999999999 133.36267357887374,87.05140886438873 138.55645011989614,88.36732195481524 133.1537666145688,88.23617913304282 132.87857555205892,89.7968652027765 131.91558021508604,88.20612383586537 125.29999999999997,88.0455395898675 zM 154.22988117819344,81.14758746355804 151.7988066908564,94.93489600572894 138.0114981486855,92.50382151839193 140.4425726360225,78.71651297622101 154.22988117819344,81.14758746355804 zM 150.92188339363838,99.90817515844061 148.49080890630137,113.69548370061152 134.70350036413046,111.2644092132745 137.13457485146748,97.4771006711036 150.92188339363838,99.90817515844061 zM 147.61388560908333,118.66876285332319 145.1828111217463,132.4560713954941 131.3955025795754,130.02499690815708 133.82657706691242,116.23768836598617 147.61388560908333,118.66876285332319 zM 138.82500000000005,55.768750000000004 138.82500000000005,69.76875000000001 124.82500000000003,69.76875000000001 124.82500000000003,55.768750000000004 138.82500000000005,55.768750000000004 zM 138.82500000000005,36.71875000000001 138.82500000000005,50.71875000000001 124.82500000000003,50.71875000000001 124.82500000000003,36.71875000000001 138.82500000000005,36.71875000000001 zM 138.82500000000005,17.668750000000003 138.82500000000005,31.668750000000003 124.82500000000003,31.668750000000003 124.82500000000003,17.668750000000003 138.82500000000005,17.668750000000003 zM 132.16129569875585,96.60017737388559 129.7302212114188,110.3874859160565 115.94291266924789,107.95641142871948 118.37398715658492,94.16910288654856 132.16129569875585,96.60017737388559 zM 128.85329791420082,115.36076506876817 126.4222234268638,129.1480736109391 112.63491488469289,126.71699912360204 115.0659893720299,112.92969058143115 128.85329791420082,115.36076506876817 zM 119.77500000000002,15.287500000000005 119.77500000000002,29.2875 105.77500000000002,29.2875 105.77500000000002,15.287500000000005 119.77500000000002,15.287500000000005 zM 119.775,72.4375 119.775,86.4375 105.775,86.4375 105.775,72.4375 119.775,72.4375 zM 119.775,53.3875 119.775,67.3875 105.775,67.3875 105.775,53.3875 119.775,53.3875 zM 119.775,34.3375 119.775,48.3375 105.775,48.3375 105.775,34.3375 119.775,34.3375 zM 100.725,70.05625 100.725,84.05625 86.725,84.05625 86.725,70.05625 100.725,70.05625 zM 100.725,51.006249999999994 100.725,65.00625 86.725,65.00625 86.725,51.006249999999994 100.725,51.006249999999994 zM 100.725,31.956250000000004 100.725,45.956250000000004 86.725,45.956250000000004 86.725,31.956250000000004 100.725,31.956250000000004 zM 100.725,12.906250000000004 100.725,26.90625 86.725,26.90625 86.725,12.906250000000004 100.725,12.906250000000004 zM 81.67500000000001,29.575000000000003 81.67500000000001,43.575 67.67500000000001,43.575 67.67500000000001,29.575000000000003 81.67500000000001,29.575000000000003 zM 81.67500000000001,48.625 81.67500000000001,62.625 67.67500000000001,62.625 67.67500000000001,48.625 81.67500000000001,48.625 zM 81.67500000000001,10.525 81.67500000000001,24.525 67.67500000000001,24.525 67.67500000000001,10.525 81.67500000000001,10.525 zM 81.675,67.675 81.675,81.675 67.675,81.675 67.675,67.675 81.675,67.675 zM 62.625,112.91875 62.625,126.91875 48.625,126.91875 48.625,112.91875 62.625,112.91875 zM 62.625,70.05625 62.625,84.05625 48.625,84.05625 48.625,70.05625 62.625,70.05625 zM 62.625,51.00625 62.625,65.00625000000001 48.625,65.00625000000001 48.625,51.00625 62.625,51.00625 zM 62.625,31.956250000000004 62.625,45.95625 48.625,45.95625 48.625,31.956250000000004 62.625,31.956250000000004 zM 62.625,12.906250000000002 62.625,26.90625 48.625,26.90625 48.625,12.906250000000002 62.625,12.906250000000002 zM 43.575,93.86875 43.575,107.86875 29.575000000000003,107.86875 29.575000000000003,93.86875 43.575,93.86875 zM 43.575,17.668750000000003 43.575,31.668750000000003 29.575000000000003,31.668750000000003 29.575000000000003,17.668750000000003 43.575,17.668750000000003 zM 43.575,36.71875 43.575,50.71875 29.575000000000003,50.71875 29.575000000000003,36.71875 43.575,36.71875 zM 43.575,55.768750000000004 43.575,69.76875000000001 29.575000000000003,69.76875000000001 29.575000000000003,55.768750000000004 43.575,55.768750000000004 zM 43.575,74.81875 43.575,88.81875 29.575000000000003,88.81875 29.575000000000003,74.81875 43.575,74.81875 zM 43.575,112.91875 43.575,126.91875 29.575000000000003,126.91875 29.575000000000003,112.91875 43.575,112.91875 zM 24.525,17.668750000000003 24.525,31.668750000000003 10.525000000000002,31.668750000000003 10.525000000000002,17.668750000000003 24.525,17.668750000000003 zM 24.525,112.91875 24.525,126.91875 10.525,126.91875 10.525,112.91875 24.525,112.91875 zM 24.525,74.81875 24.525,88.81875 10.525,88.81875 10.525,74.81875 24.525,74.81875 zM 24.525,55.768750000000004 24.525,69.76875000000001 10.525000000000002,69.76875000000001 10.525000000000002,55.768750000000004 24.525,55.768750000000004 zM 24.525,36.71875 24.525,50.71875 10.525000000000002,50.71875 10.525000000000002,36.71875 24.525,36.71875 z" fill="none" stroke="#0000ff" stroke-width="0.01mm" /></g></svg>