solid OpenSCAD_Model
  facet normal -1 0 0
    outer loop
      vertex -19 -7 0
      vertex -19 6.75 2
      vertex -19 6.75 0
    endloop
  endfacet
  facet normal -1 -0 0
    outer loop
      vertex -19 6.75 2
      vertex -19 -7 0
      vertex -19 -7 2
    endloop
  endfacet
  facet normal 0 0 1
    outer loop
      vertex -10.75 6.75 3.6
      vertex -12 4.75 3.6
      vertex -10.75 -7 3.6
    endloop
  endfacet
  facet normal -0 0 1
    outer loop
      vertex -18.7208 6.75 3.6
      vertex -12 4.75 3.6
      vertex -10.75 6.75 3.6
    endloop
  endfacet
  facet normal -0 0 1
    outer loop
      vertex -20 0 3.6
      vertex -18 -5.25 3.6
      vertex -18 4.75 3.6
    endloop
  endfacet
  facet normal 0 0 1
    outer loop
      vertex -12 4.75 3.6
      vertex -18.7208 6.75 3.6
      vertex -18 4.75 3.6
    endloop
  endfacet
  facet normal 0 0 1
    outer loop
      vertex -19.563 4.15823 3.6
      vertex -18 4.75 3.6
      vertex -18.7208 6.75 3.6
    endloop
  endfacet
  facet normal 0 0 1
    outer loop
      vertex -18 4.75 3.6
      vertex -19.563 4.15823 3.6
      vertex -20 0 3.6
    endloop
  endfacet
  facet normal 0 0 1
    outer loop
      vertex -18 -5.25 3.6
      vertex -20 0 3.6
      vertex -19.563 -4.15823 3.6
    endloop
  endfacet
  facet normal 0 0 1
    outer loop
      vertex -18 -5.25 3.6
      vertex -19.563 -4.15823 3.6
      vertex -18.6396 -7 3.6
    endloop
  endfacet
  facet normal -0 0 1
    outer loop
      vertex -12 -5.25 3.6
      vertex -10.75 -7 3.6
      vertex -12 4.75 3.6
    endloop
  endfacet
  facet normal 0 0 1
    outer loop
      vertex -18.6396 -7 3.6
      vertex -12 -5.25 3.6
      vertex -18 -5.25 3.6
    endloop
  endfacet
  facet normal 0 0 1
    outer loop
      vertex -12 -5.25 3.6
      vertex -18.6396 -7 3.6
      vertex -10.75 -7 3.6
    endloop
  endfacet
  facet normal 1 -0 0
    outer loop
      vertex -10.75 -7 3.6
      vertex -10.75 6.75 0
      vertex -10.75 6.75 3.6
    endloop
  endfacet
  facet normal 1 0 0
    outer loop
      vertex -10.75 6.75 0
      vertex -10.75 -7 3.6
      vertex -10.75 -7 0
    endloop
  endfacet
  facet normal 0 0 -1
    outer loop
      vertex -12 4.75 0
      vertex -10.75 -7 0
      vertex -12 -5.25 0
    endloop
  endfacet
  facet normal 0 0 -1
    outer loop
      vertex -19 -7 0
      vertex -12 -5.25 0
      vertex -10.75 -7 0
    endloop
  endfacet
  facet normal -0 0 -1
    outer loop
      vertex -18 -5.25 0
      vertex -19 -7 0
      vertex -18 4.75 0
    endloop
  endfacet
  facet normal -0 0 -1
    outer loop
      vertex -12 -5.25 0
      vertex -19 -7 0
      vertex -18 -5.25 0
    endloop
  endfacet
  facet normal 0 0 -1
    outer loop
      vertex -10.75 -7 0
      vertex -12 4.75 0
      vertex -10.75 6.75 0
    endloop
  endfacet
  facet normal 0 0 -1
    outer loop
      vertex -19 6.75 0
      vertex -12 4.75 0
      vertex -18 4.75 0
    endloop
  endfacet
  facet normal 0 0 -1
    outer loop
      vertex -12 4.75 0
      vertex -19 6.75 0
      vertex -10.75 6.75 0
    endloop
  endfacet
  facet normal 0 0 -1
    outer loop
      vertex -19 6.75 0
      vertex -18 4.75 0
      vertex -19 -7 0
    endloop
  endfacet
  facet normal 0 -1 0
    outer loop
      vertex -19 -7 2
      vertex -19 -7 0
      vertex -18.6396 -7 2
    endloop
  endfacet
  facet normal 0 -1 0
    outer loop
      vertex -18.6396 -7 2
      vertex -10.75 -7 3.6
      vertex -18.6396 -7 3.6
    endloop
  endfacet
  facet normal 0 -1 0
    outer loop
      vertex -10.75 -7 0
      vertex -18.6396 -7 2
      vertex -19 -7 0
    endloop
  endfacet
  facet normal 0 -1 0
    outer loop
      vertex -18.6396 -7 2
      vertex -10.75 -7 0
      vertex -10.75 -7 3.6
    endloop
  endfacet
  facet normal 0 1 0
    outer loop
      vertex -10.75 6.75 3.6
      vertex -18.7208 6.75 2
      vertex -18.7208 6.75 3.6
    endloop
  endfacet
  facet normal 0 1 -0
    outer loop
      vertex -10.75 6.75 0
      vertex -18.7208 6.75 2
      vertex -10.75 6.75 3.6
    endloop
  endfacet
  facet normal 0 1 0
    outer loop
      vertex -19 6.75 0
      vertex -18.7208 6.75 2
      vertex -10.75 6.75 0
    endloop
  endfacet
  facet normal 0 1 0
    outer loop
      vertex -18.7208 6.75 2
      vertex -19 6.75 0
      vertex -19 6.75 2
    endloop
  endfacet
  facet normal 1 -0 0
    outer loop
      vertex -18 -5.25 2
      vertex -18 4.75 0
      vertex -18 4.75 2
    endloop
  endfacet
  facet normal 1 0 0
    outer loop
      vertex -18 4.75 0
      vertex -18 -5.25 2
      vertex -18 -5.25 0
    endloop
  endfacet
  facet normal 1 -0 0
    outer loop
      vertex -18 -5.25 3.6
      vertex -18 4.75 2
      vertex -18 4.75 3.6
    endloop
  endfacet
  facet normal 1 0 0
    outer loop
      vertex -18 4.75 2
      vertex -18 -5.25 3.6
      vertex -18 -5.25 2
    endloop
  endfacet
  facet normal -1 0 0
    outer loop
      vertex -12 -5.25 0
      vertex -12 4.75 3.6
      vertex -12 4.75 0
    endloop
  endfacet
  facet normal -1 -0 0
    outer loop
      vertex -12 4.75 3.6
      vertex -12 -5.25 0
      vertex -12 -5.25 3.6
    endloop
  endfacet
  facet normal 0 1 0
    outer loop
      vertex -12 -5.25 3.6
      vertex -18 -5.25 2
      vertex -18 -5.25 3.6
    endloop
  endfacet
  facet normal 0 1 -0
    outer loop
      vertex -12 -5.25 0
      vertex -18 -5.25 2
      vertex -12 -5.25 3.6
    endloop
  endfacet
  facet normal 0 1 0
    outer loop
      vertex -18 -5.25 2
      vertex -12 -5.25 0
      vertex -18 -5.25 0
    endloop
  endfacet
  facet normal 0 -1 0
    outer loop
      vertex -18 4.75 2
      vertex -12 4.75 3.6
      vertex -18 4.75 3.6
    endloop
  endfacet
  facet normal 0 -1 0
    outer loop
      vertex -12 4.75 0
      vertex -18 4.75 2
      vertex -18 4.75 0
    endloop
  endfacet
  facet normal 0 -1 0
    outer loop
      vertex -18 4.75 2
      vertex -12 4.75 0
      vertex -12 4.75 3.6
    endloop
  endfacet
  facet normal -1 0 0
    outer loop
      vertex 11 -7 0
      vertex 11 6.75 3.6
      vertex 11 6.75 0
    endloop
  endfacet
  facet normal -1 -0 0
    outer loop
      vertex 11 6.75 3.6
      vertex 11 -7 0
      vertex 11 -7 3.6
    endloop
  endfacet
  facet normal 0 0 1
    outer loop
      vertex 18 4.75 3.6
      vertex 20 0 3.6
      vertex 19.563 4.15823 3.6
    endloop
  endfacet
  facet normal -0 0 1
    outer loop
      vertex 18 4.75 3.6
      vertex 19.563 4.15823 3.6
      vertex 18.7208 6.75 3.6
    endloop
  endfacet
  facet normal 0 0 1
    outer loop
      vertex 18 -5.25 3.6
      vertex 20 0 3.6
      vertex 18 4.75 3.6
    endloop
  endfacet
  facet normal 0 0 1
    outer loop
      vertex 20 0 3.6
      vertex 18 -5.25 3.6
      vertex 19.563 -4.15823 3.6
    endloop
  endfacet
  facet normal 0 0 1
    outer loop
      vertex 18.7208 6.75 3.6
      vertex 12 4.75 3.6
      vertex 18 4.75 3.6
    endloop
  endfacet
  facet normal 0 0 1
    outer loop
      vertex 11 -7 3.6
      vertex 12 4.75 3.6
      vertex 11 6.75 3.6
    endloop
  endfacet
  facet normal -0 0 1
    outer loop
      vertex 11 6.75 3.6
      vertex 12 4.75 3.6
      vertex 18.7208 6.75 3.6
    endloop
  endfacet
  facet normal 0 0 1
    outer loop
      vertex 19.563 -4.15823 3.6
      vertex 18 -5.25 3.6
      vertex 18.6396 -7 3.6
    endloop
  endfacet
  facet normal -0 0 1
    outer loop
      vertex 12 -5.25 3.6
      vertex 18.6396 -7 3.6
      vertex 18 -5.25 3.6
    endloop
  endfacet
  facet normal 0 0 1
    outer loop
      vertex 12 -5.25 3.6
      vertex 11 -7 3.6
      vertex 18.6396 -7 3.6
    endloop
  endfacet
  facet normal 0 0 1
    outer loop
      vertex 12 4.75 3.6
      vertex 11 -7 3.6
      vertex 12 -5.25 3.6
    endloop
  endfacet
  facet normal 1 -0 0
    outer loop
      vertex 19.25 -7 2
      vertex 19.25 6.75 0
      vertex 19.25 6.75 2
    endloop
  endfacet
  facet normal 1 0 0
    outer loop
      vertex 19.25 6.75 0
      vertex 19.25 -7 2
      vertex 19.25 -7 0
    endloop
  endfacet
  facet normal 0 0 -1
    outer loop
      vertex 18 4.75 0
      vertex 19.25 -7 0
      vertex 18 -5.25 0
    endloop
  endfacet
  facet normal 0 0 -1
    outer loop
      vertex 11 -7 0
      vertex 18 -5.25 0
      vertex 19.25 -7 0
    endloop
  endfacet
  facet normal -0 0 -1
    outer loop
      vertex 12 -5.25 0
      vertex 11 -7 0
      vertex 12 4.75 0
    endloop
  endfacet
  facet normal -0 0 -1
    outer loop
      vertex 18 -5.25 0
      vertex 11 -7 0
      vertex 12 -5.25 0
    endloop
  endfacet
  facet normal 0 0 -1
    outer loop
      vertex 19.25 -7 0
      vertex 18 4.75 0
      vertex 19.25 6.75 0
    endloop
  endfacet
  facet normal 0 0 -1
    outer loop
      vertex 11 6.75 0
      vertex 18 4.75 0
      vertex 12 4.75 0
    endloop
  endfacet
  facet normal 0 0 -1
    outer loop
      vertex 18 4.75 0
      vertex 11 6.75 0
      vertex 19.25 6.75 0
    endloop
  endfacet
  facet normal 0 0 -1
    outer loop
      vertex 11 6.75 0
      vertex 12 4.75 0
      vertex 11 -7 0
    endloop
  endfacet
  facet normal 0 -1 0
    outer loop
      vertex 11 -7 3.6
      vertex 18.6396 -7 2
      vertex 18.6396 -7 3.6
    endloop
  endfacet
  facet normal 0 -1 0
    outer loop
      vertex 11 -7 0
      vertex 18.6396 -7 2
      vertex 11 -7 3.6
    endloop
  endfacet
  facet normal 0 -1 0
    outer loop
      vertex 19.25 -7 0
      vertex 18.6396 -7 2
      vertex 11 -7 0
    endloop
  endfacet
  facet normal 0 -1 0
    outer loop
      vertex 18.6396 -7 2
      vertex 19.25 -7 0
      vertex 19.25 -7 2
    endloop
  endfacet
  facet normal 0 1 0
    outer loop
      vertex 19.25 6.75 2
      vertex 19.25 6.75 0
      vertex 18.7208 6.75 2
    endloop
  endfacet
  facet normal 0 1 -0
    outer loop
      vertex 18.7208 6.75 2
      vertex 11 6.75 3.6
      vertex 18.7208 6.75 3.6
    endloop
  endfacet
  facet normal 0 1 0
    outer loop
      vertex 11 6.75 0
      vertex 18.7208 6.75 2
      vertex 19.25 6.75 0
    endloop
  endfacet
  facet normal 0 1 0
    outer loop
      vertex 18.7208 6.75 2
      vertex 11 6.75 0
      vertex 11 6.75 3.6
    endloop
  endfacet
  facet normal 1 -0 0
    outer loop
      vertex 12 -5.25 3.6
      vertex 12 4.75 0
      vertex 12 4.75 3.6
    endloop
  endfacet
  facet normal 1 0 0
    outer loop
      vertex 12 4.75 0
      vertex 12 -5.25 3.6
      vertex 12 -5.25 0
    endloop
  endfacet
  facet normal -1 0 0
    outer loop
      vertex 18 -5.25 2
      vertex 18 4.75 3.6
      vertex 18 4.75 2
    endloop
  endfacet
  facet normal -1 -0 0
    outer loop
      vertex 18 4.75 3.6
      vertex 18 -5.25 2
      vertex 18 -5.25 3.6
    endloop
  endfacet
  facet normal -1 0 0
    outer loop
      vertex 18 -5.25 0
      vertex 18 4.75 2
      vertex 18 4.75 0
    endloop
  endfacet
  facet normal -1 -0 0
    outer loop
      vertex 18 4.75 2
      vertex 18 -5.25 0
      vertex 18 -5.25 2
    endloop
  endfacet
  facet normal 0 1 -0
    outer loop
      vertex 18 -5.25 2
      vertex 12 -5.25 3.6
      vertex 18 -5.25 3.6
    endloop
  endfacet
  facet normal 0 1 0
    outer loop
      vertex 12 -5.25 0
      vertex 18 -5.25 2
      vertex 18 -5.25 0
    endloop
  endfacet
  facet normal 0 1 0
    outer loop
      vertex 18 -5.25 2
      vertex 12 -5.25 0
      vertex 12 -5.25 3.6
    endloop
  endfacet
  facet normal 0 -1 0
    outer loop
      vertex 12 4.75 3.6
      vertex 18 4.75 2
      vertex 18 4.75 3.6
    endloop
  endfacet
  facet normal 0 -1 0
    outer loop
      vertex 12 4.75 0
      vertex 18 4.75 2
      vertex 12 4.75 3.6
    endloop
  endfacet
  facet normal 0 -1 -0
    outer loop
      vertex 18 4.75 2
      vertex 12 4.75 0
      vertex 18 4.75 0
    endloop
  endfacet
  facet normal -0.866025 -0.5 0
    outer loop
      vertex 21.4683 9.55831 7
      vertex 19.0119 13.813 8
      vertex 19.0119 13.813 7
    endloop
  endfacet
  facet normal -0.866025 -0.5 0
    outer loop
      vertex 19.0119 13.813 8
      vertex 21.4683 9.55831 7
      vertex 21.4683 9.55831 8
    endloop
  endfacet
  facet normal 0 -1 0
    outer loop
      vertex -2.45642 23.3713 7
      vertex 2.45642 23.3713 8
      vertex -2.45642 23.3713 8
    endloop
  endfacet
  facet normal 0 -1 -0
    outer loop
      vertex 2.45642 23.3713 8
      vertex -2.45642 23.3713 7
      vertex 2.45642 23.3713 7
    endloop
  endfacet
  facet normal -0.743145 -0.669131 0
    outer loop
      vertex 19.0119 13.813 7
      vertex 15.7246 17.4639 8
      vertex 15.7246 17.4639 7
    endloop
  endfacet
  facet normal -0.743145 -0.669131 0
    outer loop
      vertex 15.7246 17.4639 8
      vertex 19.0119 13.813 7
      vertex 19.0119 13.813 8
    endloop
  endfacet
  facet normal -0.207912 -0.978148 0
    outer loop
      vertex 2.45642 23.3713 7
      vertex 7.2619 22.3498 8
      vertex 2.45642 23.3713 8
    endloop
  endfacet
  facet normal -0.207912 -0.978148 -0
    outer loop
      vertex 7.2619 22.3498 8
      vertex 2.45642 23.3713 7
      vertex 7.2619 22.3498 7
    endloop
  endfacet
  facet normal 0.406736 -0.913546 0
    outer loop
      vertex -11.75 20.3516 7
      vertex -7.2619 22.3498 8
      vertex -11.75 20.3516 8
    endloop
  endfacet
  facet normal 0.406736 -0.913546 0
    outer loop
      vertex -7.2619 22.3498 8
      vertex -11.75 20.3516 7
      vertex -7.2619 22.3498 7
    endloop
  endfacet
  facet normal 0.866025 -0.5 0
    outer loop
      vertex -21.4683 9.55831 8
      vertex -19.0119 13.813 7
      vertex -19.0119 13.813 8
    endloop
  endfacet
  facet normal 0.866025 -0.5 0
    outer loop
      vertex -19.0119 13.813 7
      vertex -21.4683 9.55831 8
      vertex -21.4683 9.55831 7
    endloop
  endfacet
  facet normal -0.994522 0.104528 0
    outer loop
      vertex 22.9865 -4.88592 7
      vertex 23.5 0 8
      vertex 23.5 0 7
    endloop
  endfacet
  facet normal -0.994522 0.104528 0
    outer loop
      vertex 23.5 0 8
      vertex 22.9865 -4.88592 7
      vertex 22.9865 -4.88592 8
    endloop
  endfacet
  facet normal -0.207912 0.978148 0
    outer loop
      vertex 7.2619 -22.3498 7
      vertex 2.45642 -23.3713 8
      vertex 7.2619 -22.3498 8
    endloop
  endfacet
  facet normal -0.207912 0.978148 0
    outer loop
      vertex 2.45642 -23.3713 8
      vertex 7.2619 -22.3498 7
      vertex 2.45642 -23.3713 7
    endloop
  endfacet
  facet normal -0.587786 -0.809017 0
    outer loop
      vertex 11.75 20.3516 7
      vertex 15.7246 17.4639 8
      vertex 11.75 20.3516 8
    endloop
  endfacet
  facet normal -0.587786 -0.809017 -0
    outer loop
      vertex 15.7246 17.4639 8
      vertex 11.75 20.3516 7
      vertex 15.7246 17.4639 7
    endloop
  endfacet
  facet normal -0.406736 -0.913546 0
    outer loop
      vertex 7.2619 22.3498 7
      vertex 11.75 20.3516 8
      vertex 7.2619 22.3498 8
    endloop
  endfacet
  facet normal -0.406736 -0.913546 -0
    outer loop
      vertex 11.75 20.3516 8
      vertex 7.2619 22.3498 7
      vertex 11.75 20.3516 7
    endloop
  endfacet
  facet normal 0.994522 -0.104528 0
    outer loop
      vertex -23.5 0 8
      vertex -22.9865 4.88592 7
      vertex -22.9865 4.88592 8
    endloop
  endfacet
  facet normal 0.994522 -0.104528 0
    outer loop
      vertex -22.9865 4.88592 7
      vertex -23.5 0 8
      vertex -23.5 0 7
    endloop
  endfacet
  facet normal 0.587785 -0.809017 0
    outer loop
      vertex -15.7246 17.4639 7
      vertex -11.75 20.3516 8
      vertex -15.7246 17.4639 8
    endloop
  endfacet
  facet normal 0.587785 -0.809017 0
    outer loop
      vertex -11.75 20.3516 8
      vertex -15.7246 17.4639 7
      vertex -11.75 20.3516 7
    endloop
  endfacet
  facet normal 0.207912 -0.978148 0
    outer loop
      vertex -7.2619 22.3498 7
      vertex -2.45642 23.3713 8
      vertex -7.2619 22.3498 8
    endloop
  endfacet
  facet normal 0.207912 -0.978148 0
    outer loop
      vertex -2.45642 23.3713 8
      vertex -7.2619 22.3498 7
      vertex -2.45642 23.3713 7
    endloop
  endfacet
  facet normal 0.743145 -0.669131 0
    outer loop
      vertex -19.0119 13.813 8
      vertex -15.7246 17.4639 7
      vertex -15.7246 17.4639 8
    endloop
  endfacet
  facet normal 0.743145 -0.669131 0
    outer loop
      vertex -15.7246 17.4639 7
      vertex -19.0119 13.813 8
      vertex -19.0119 13.813 7
    endloop
  endfacet
  facet normal -0.994522 -0.104528 0
    outer loop
      vertex 23.5 0 7
      vertex 22.9865 4.88592 8
      vertex 22.9865 4.88592 7
    endloop
  endfacet
  facet normal -0.994522 -0.104528 0
    outer loop
      vertex 22.9865 4.88592 8
      vertex 23.5 0 7
      vertex 23.5 0 8
    endloop
  endfacet
  facet normal 0.866025 0.5 0
    outer loop
      vertex -19.0119 -13.813 8
      vertex -21.4683 -9.55831 7
      vertex -21.4683 -9.55831 8
    endloop
  endfacet
  facet normal 0.866025 0.5 0
    outer loop
      vertex -21.4683 -9.55831 7
      vertex -19.0119 -13.813 8
      vertex -19.0119 -13.813 7
    endloop
  endfacet
  facet normal -0.587786 0.809017 0
    outer loop
      vertex 15.7246 -17.4639 7
      vertex 11.75 -20.3516 8
      vertex 15.7246 -17.4639 8
    endloop
  endfacet
  facet normal -0.587786 0.809017 0
    outer loop
      vertex 11.75 -20.3516 8
      vertex 15.7246 -17.4639 7
      vertex 11.75 -20.3516 7
    endloop
  endfacet
  facet normal -0.951057 -0.309017 0
    outer loop
      vertex 22.9865 4.88592 7
      vertex 21.4683 9.55831 8
      vertex 21.4683 9.55831 7
    endloop
  endfacet
  facet normal -0.951057 -0.309017 0
    outer loop
      vertex 21.4683 9.55831 8
      vertex 22.9865 4.88592 7
      vertex 22.9865 4.88592 8
    endloop
  endfacet
  facet normal 0.951057 -0.309017 0
    outer loop
      vertex -22.9865 4.88592 8
      vertex -21.4683 9.55831 7
      vertex -21.4683 9.55831 8
    endloop
  endfacet
  facet normal 0.951057 -0.309017 0
    outer loop
      vertex -21.4683 9.55831 7
      vertex -22.9865 4.88592 8
      vertex -22.9865 4.88592 7
    endloop
  endfacet
  facet normal -0.866025 0.5 0
    outer loop
      vertex 19.0119 -13.813 7
      vertex 21.4683 -9.55831 8
      vertex 21.4683 -9.55831 7
    endloop
  endfacet
  facet normal -0.866025 0.5 0
    outer loop
      vertex 21.4683 -9.55831 8
      vertex 19.0119 -13.813 7
      vertex 19.0119 -13.813 8
    endloop
  endfacet
  facet normal 0.994522 0.104528 0
    outer loop
      vertex -22.9865 -4.88592 8
      vertex -23.5 0 7
      vertex -23.5 0 8
    endloop
  endfacet
  facet normal 0.994522 0.104528 0
    outer loop
      vertex -23.5 0 7
      vertex -22.9865 -4.88592 8
      vertex -22.9865 -4.88592 7
    endloop
  endfacet
  facet normal -0.406736 0.913546 0
    outer loop
      vertex 11.75 -20.3516 7
      vertex 7.2619 -22.3498 8
      vertex 11.75 -20.3516 8
    endloop
  endfacet
  facet normal -0.406736 0.913546 0
    outer loop
      vertex 7.2619 -22.3498 8
      vertex 11.75 -20.3516 7
      vertex 7.2619 -22.3498 7
    endloop
  endfacet
  facet normal -0.951057 0.309017 0
    outer loop
      vertex 21.4683 -9.55831 7
      vertex 22.9865 -4.88592 8
      vertex 22.9865 -4.88592 7
    endloop
  endfacet
  facet normal -0.951057 0.309017 0
    outer loop
      vertex 22.9865 -4.88592 8
      vertex 21.4683 -9.55831 7
      vertex 21.4683 -9.55831 8
    endloop
  endfacet
  facet normal 0.207912 0.978148 -0
    outer loop
      vertex -2.45642 -23.3713 7
      vertex -7.2619 -22.3498 8
      vertex -2.45642 -23.3713 8
    endloop
  endfacet
  facet normal 0.207912 0.978148 0
    outer loop
      vertex -7.2619 -22.3498 8
      vertex -2.45642 -23.3713 7
      vertex -7.2619 -22.3498 7
    endloop
  endfacet
  facet normal 0 1 -0
    outer loop
      vertex 2.45642 -23.3713 7
      vertex -2.45642 -23.3713 8
      vertex 2.45642 -23.3713 8
    endloop
  endfacet
  facet normal 0 1 0
    outer loop
      vertex -2.45642 -23.3713 8
      vertex 2.45642 -23.3713 7
      vertex -2.45642 -23.3713 7
    endloop
  endfacet
  facet normal 0 0 1
    outer loop
      vertex 20 0 7
      vertex 23.5 0 7
      vertex 22.9865 4.88592 7
    endloop
  endfacet
  facet normal 0 0 1
    outer loop
      vertex 19.563 4.15823 7
      vertex 22.9865 4.88592 7
      vertex 21.4683 9.55831 7
    endloop
  endfacet
  facet normal 0 0 1
    outer loop
      vertex 23.5 0 7
      vertex 20 0 7
      vertex 22.9865 -4.88592 7
    endloop
  endfacet
  facet normal -0 0 1
    outer loop
      vertex 19.563 -4.15823 7
      vertex 22.9865 -4.88592 7
      vertex 20 0 7
    endloop
  endfacet
  facet normal 0 0 1
    outer loop
      vertex 22.9865 4.88592 7
      vertex 19.563 4.15823 7
      vertex 20 0 7
    endloop
  endfacet
  facet normal 0 0 1
    outer loop
      vertex 18.2709 8.13473 7
      vertex 21.4683 9.55831 7
      vertex 19.0119 13.813 7
    endloop
  endfacet
  facet normal 0 0 1
    outer loop
      vertex 21.4683 9.55831 7
      vertex 18.2709 8.13473 7
      vertex 19.563 4.15823 7
    endloop
  endfacet
  facet normal 0 0 1
    outer loop
      vertex 19.0119 13.813 7
      vertex 16.1803 11.7557 7
      vertex 18.2709 8.13473 7
    endloop
  endfacet
  facet normal 0 0 1
    outer loop
      vertex 15.7246 17.4639 7
      vertex 16.1803 11.7557 7
      vertex 19.0119 13.813 7
    endloop
  endfacet
  facet normal 0 0 1
    outer loop
      vertex 15.7246 17.4639 7
      vertex 13.3826 14.8629 7
      vertex 16.1803 11.7557 7
    endloop
  endfacet
  facet normal 0 0 1
    outer loop
      vertex 11.75 20.3516 7
      vertex 13.3826 14.8629 7
      vertex 15.7246 17.4639 7
    endloop
  endfacet
  facet normal 0 0 1
    outer loop
      vertex 11.75 20.3516 7
      vertex 10 17.3205 7
      vertex 13.3826 14.8629 7
    endloop
  endfacet
  facet normal 0 0 1
    outer loop
      vertex 7.2619 22.3498 7
      vertex 10 17.3205 7
      vertex 11.75 20.3516 7
    endloop
  endfacet
  facet normal 0 0 1
    outer loop
      vertex 7.2619 22.3498 7
      vertex 6.18034 19.0211 7
      vertex 10 17.3205 7
    endloop
  endfacet
  facet normal 0 0 1
    outer loop
      vertex 2.45642 23.3713 7
      vertex 6.18034 19.0211 7
      vertex 7.2619 22.3498 7
    endloop
  endfacet
  facet normal 0 0 1
    outer loop
      vertex 2.45642 23.3713 7
      vertex 2.09057 19.8904 7
      vertex 6.18034 19.0211 7
    endloop
  endfacet
  facet normal 0 0 1
    outer loop
      vertex 2.45642 23.3713 7
      vertex -2.09057 19.8904 7
      vertex 2.09057 19.8904 7
    endloop
  endfacet
  facet normal -0 0 1
    outer loop
      vertex -2.45642 23.3713 7
      vertex -2.09057 19.8904 7
      vertex 2.45642 23.3713 7
    endloop
  endfacet
  facet normal 0 0 1
    outer loop
      vertex -2.45642 23.3713 7
      vertex -6.18034 19.0211 7
      vertex -2.09057 19.8904 7
    endloop
  endfacet
  facet normal -0 0 1
    outer loop
      vertex -7.2619 22.3498 7
      vertex -6.18034 19.0211 7
      vertex -2.45642 23.3713 7
    endloop
  endfacet
  facet normal 0 0 1
    outer loop
      vertex -7.2619 22.3498 7
      vertex -10 17.3205 7
      vertex -6.18034 19.0211 7
    endloop
  endfacet
  facet normal -0 0 1
    outer loop
      vertex -11.75 20.3516 7
      vertex -10 17.3205 7
      vertex -7.2619 22.3498 7
    endloop
  endfacet
  facet normal 0 0 1
    outer loop
      vertex -11.75 20.3516 7
      vertex -13.3826 14.8629 7
      vertex -10 17.3205 7
    endloop
  endfacet
  facet normal -0 0 1
    outer loop
      vertex -15.7246 17.4639 7
      vertex -13.3826 14.8629 7
      vertex -11.75 20.3516 7
    endloop
  endfacet
  facet normal 0 0 1
    outer loop
      vertex -15.7246 17.4639 7
      vertex -16.1803 11.7557 7
      vertex -13.3826 14.8629 7
    endloop
  endfacet
  facet normal -0 0 1
    outer loop
      vertex -19.0119 13.813 7
      vertex -16.1803 11.7557 7
      vertex -15.7246 17.4639 7
    endloop
  endfacet
  facet normal 0 0 1
    outer loop
      vertex -16.1803 11.7557 7
      vertex -19.0119 13.813 7
      vertex -18.2709 8.13473 7
    endloop
  endfacet
  facet normal -0 0 1
    outer loop
      vertex -21.4683 9.55831 7
      vertex -18.2709 8.13473 7
      vertex -19.0119 13.813 7
    endloop
  endfacet
  facet normal 0 0 1
    outer loop
      vertex -18.2709 8.13473 7
      vertex -21.4683 9.55831 7
      vertex -19.563 4.15823 7
    endloop
  endfacet
  facet normal -0 0 1
    outer loop
      vertex -22.9865 4.88592 7
      vertex -19.563 4.15823 7
      vertex -21.4683 9.55831 7
    endloop
  endfacet
  facet normal 0 -0 1
    outer loop
      vertex -22 1 7
      vertex -19.563 4.15823 7
      vertex -22.9865 4.88592 7
    endloop
  endfacet
  facet normal 0 0 1
    outer loop
      vertex -23.5 0 7
      vertex -22 1 7
      vertex -22.9865 4.88592 7
    endloop
  endfacet
  facet normal 0 0 1
    outer loop
      vertex -19.563 4.15823 7
      vertex -22 1 7
      vertex -20 1 7
    endloop
  endfacet
  facet normal 0 0 1
    outer loop
      vertex 22.9865 -4.88592 7
      vertex 19.563 -4.15823 7
      vertex 21.4683 -9.55831 7
    endloop
  endfacet
  facet normal -0 0 1
    outer loop
      vertex 18.2709 -8.13473 7
      vertex 21.4683 -9.55831 7
      vertex 19.563 -4.15823 7
    endloop
  endfacet
  facet normal 0 0 1
    outer loop
      vertex 21.4683 -9.55831 7
      vertex 18.2709 -8.13473 7
      vertex 19.0119 -13.813 7
    endloop
  endfacet
  facet normal -0 0 1
    outer loop
      vertex 16.1803 -11.7557 7
      vertex 19.0119 -13.813 7
      vertex 18.2709 -8.13473 7
    endloop
  endfacet
  facet normal 0 0 1
    outer loop
      vertex 16.1803 -11.7557 7
      vertex 15.7246 -17.4639 7
      vertex 19.0119 -13.813 7
    endloop
  endfacet
  facet normal -0 0 1
    outer loop
      vertex 13.3826 -14.8629 7
      vertex 15.7246 -17.4639 7
      vertex 16.1803 -11.7557 7
    endloop
  endfacet
  facet normal 0 0 1
    outer loop
      vertex 13.3826 -14.8629 7
      vertex 11.75 -20.3516 7
      vertex 15.7246 -17.4639 7
    endloop
  endfacet
  facet normal -0 0 1
    outer loop
      vertex 10 -17.3205 7
      vertex 11.75 -20.3516 7
      vertex 13.3826 -14.8629 7
    endloop
  endfacet
  facet normal 0 0 1
    outer loop
      vertex 10 -17.3205 7
      vertex 7.2619 -22.3498 7
      vertex 11.75 -20.3516 7
    endloop
  endfacet
  facet normal -0 0 1
    outer loop
      vertex 6.18034 -19.0211 7
      vertex 7.2619 -22.3498 7
      vertex 10 -17.3205 7
    endloop
  endfacet
  facet normal 0 0 1
    outer loop
      vertex 6.18034 -19.0211 7
      vertex 2.45642 -23.3713 7
      vertex 7.2619 -22.3498 7
    endloop
  endfacet
  facet normal -0 0 1
    outer loop
      vertex 2.09057 -19.8904 7
      vertex 2.45642 -23.3713 7
      vertex 6.18034 -19.0211 7
    endloop
  endfacet
  facet normal -0 0 1
    outer loop
      vertex -2.09057 -19.8904 7
      vertex 2.45642 -23.3713 7
      vertex 2.09057 -19.8904 7
    endloop
  endfacet
  facet normal 0 0 1
    outer loop
      vertex -2.09057 -19.8904 7
      vertex -2.45642 -23.3713 7
      vertex 2.45642 -23.3713 7
    endloop
  endfacet
  facet normal 0 0 1
    outer loop
      vertex -6.18034 -19.0211 7
      vertex -2.45642 -23.3713 7
      vertex -2.09057 -19.8904 7
    endloop
  endfacet
  facet normal 0 0 1
    outer loop
      vertex -6.18034 -19.0211 7
      vertex -7.2619 -22.3498 7
      vertex -2.45642 -23.3713 7
    endloop
  endfacet
  facet normal 0 0 1
    outer loop
      vertex -10 -17.3205 7
      vertex -7.2619 -22.3498 7
      vertex -6.18034 -19.0211 7
    endloop
  endfacet
  facet normal 0 0 1
    outer loop
      vertex -10 -17.3205 7
      vertex -11.75 -20.3516 7
      vertex -7.2619 -22.3498 7
    endloop
  endfacet
  facet normal 0 0 1
    outer loop
      vertex -13.3826 -14.8629 7
      vertex -11.75 -20.3516 7
      vertex -10 -17.3205 7
    endloop
  endfacet
  facet normal 0 0 1
    outer loop
      vertex -13.3826 -14.8629 7
      vertex -15.7246 -17.4639 7
      vertex -11.75 -20.3516 7
    endloop
  endfacet
  facet normal 0 0 1
    outer loop
      vertex -16.1803 -11.7557 7
      vertex -15.7246 -17.4639 7
      vertex -13.3826 -14.8629 7
    endloop
  endfacet
  facet normal 0 0 1
    outer loop
      vertex -19.0119 -13.813 7
      vertex -16.1803 -11.7557 7
      vertex -18.2709 -8.13473 7
    endloop
  endfacet
  facet normal 0 0 1
    outer loop
      vertex -16.1803 -11.7557 7
      vertex -19.0119 -13.813 7
      vertex -15.7246 -17.4639 7
    endloop
  endfacet
  facet normal 0 0 1
    outer loop
      vertex -21.4683 -9.55831 7
      vertex -18.2709 -8.13473 7
      vertex -19.563 -4.15823 7
    endloop
  endfacet
  facet normal -0 0 1
    outer loop
      vertex -20 -1 7
      vertex -19.563 -4.15823 7
      vertex -20 0 7
    endloop
  endfacet
  facet normal -0 0 1
    outer loop
      vertex -22 -1 7
      vertex -19.563 -4.15823 7
      vertex -20 -1 7
    endloop
  endfacet
  facet normal 0 0 1
    outer loop
      vertex -18.2709 -8.13473 7
      vertex -21.4683 -9.55831 7
      vertex -19.0119 -13.813 7
    endloop
  endfacet
  facet normal 0 0 1
    outer loop
      vertex -19.563 -4.15823 7
      vertex -22 -1 7
      vertex -22.9865 -4.88592 7
    endloop
  endfacet
  facet normal 0 0 1
    outer loop
      vertex -22 1 7
      vertex -23.5 0 7
      vertex -22 -1 7
    endloop
  endfacet
  facet normal 0 0 1
    outer loop
      vertex -19.563 -4.15823 7
      vertex -22.9865 -4.88592 7
      vertex -21.4683 -9.55831 7
    endloop
  endfacet
  facet normal 0 0 1
    outer loop
      vertex -22 -1 7
      vertex -23.5 0 7
      vertex -22.9865 -4.88592 7
    endloop
  endfacet
  facet normal 0 0 1
    outer loop
      vertex -19.563 4.15823 7
      vertex -20 1 7
      vertex -20 0 7
    endloop
  endfacet
  facet normal 0.951057 0.309017 0
    outer loop
      vertex -21.4683 -9.55831 8
      vertex -22.9865 -4.88592 7
      vertex -22.9865 -4.88592 8
    endloop
  endfacet
  facet normal 0.951057 0.309017 0
    outer loop
      vertex -22.9865 -4.88592 7
      vertex -21.4683 -9.55831 8
      vertex -21.4683 -9.55831 7
    endloop
  endfacet
  facet normal 0.743145 0.669131 0
    outer loop
      vertex -15.7246 -17.4639 8
      vertex -19.0119 -13.813 7
      vertex -19.0119 -13.813 8
    endloop
  endfacet
  facet normal 0.743145 0.669131 0
    outer loop
      vertex -19.0119 -13.813 7
      vertex -15.7246 -17.4639 8
      vertex -15.7246 -17.4639 7
    endloop
  endfacet
  facet normal -0.743145 0.669131 0
    outer loop
      vertex 15.7246 -17.4639 7
      vertex 19.0119 -13.813 8
      vertex 19.0119 -13.813 7
    endloop
  endfacet
  facet normal -0.743145 0.669131 0
    outer loop
      vertex 19.0119 -13.813 8
      vertex 15.7246 -17.4639 7
      vertex 15.7246 -17.4639 8
    endloop
  endfacet
  facet normal 0.587786 0.809017 -0
    outer loop
      vertex -11.75 -20.3516 7
      vertex -15.7246 -17.4639 8
      vertex -11.75 -20.3516 8
    endloop
  endfacet
  facet normal 0.587786 0.809017 0
    outer loop
      vertex -15.7246 -17.4639 8
      vertex -11.75 -20.3516 7
      vertex -15.7246 -17.4639 7
    endloop
  endfacet
  facet normal 0.406736 0.913546 -0
    outer loop
      vertex -7.2619 -22.3498 7
      vertex -11.75 -20.3516 8
      vertex -7.2619 -22.3498 8
    endloop
  endfacet
  facet normal 0.406736 0.913546 0
    outer loop
      vertex -11.75 -20.3516 8
      vertex -7.2619 -22.3498 7
      vertex -11.75 -20.3516 7
    endloop
  endfacet
  facet normal -0.994522 -0.104529 0
    outer loop
      vertex 20 0 3.6
      vertex 19.563 4.15823 7
      vertex 19.563 4.15823 3.6
    endloop
  endfacet
  facet normal -0.994522 -0.104529 0
    outer loop
      vertex 19.563 4.15823 7
      vertex 20 0 3.6
      vertex 20 0 7
    endloop
  endfacet
  facet normal 0.994522 -0.104529 0
    outer loop
      vertex -20 0 6.6
      vertex -19.563 4.15823 7
      vertex -20 0 7
    endloop
  endfacet
  facet normal 0.994522 -0.104529 0
    outer loop
      vertex -19.563 4.15823 7
      vertex -20 0 6.6
      vertex -19.563 4.15823 3.6
    endloop
  endfacet
  facet normal 0.994522 -0.104529 0
    outer loop
      vertex -19.563 4.15823 3.6
      vertex -20 0 6.6
      vertex -20 0 3.6
    endloop
  endfacet
  facet normal 0 -1 0
    outer loop
      vertex -2.09057 19.8904 2
      vertex 2.09057 19.8904 7
      vertex -2.09057 19.8904 7
    endloop
  endfacet
  facet normal 0 -1 -0
    outer loop
      vertex 2.09057 19.8904 7
      vertex -2.09057 19.8904 2
      vertex 2.09057 19.8904 2
    endloop
  endfacet
  facet normal 0 1 -0
    outer loop
      vertex 2.09057 -19.8904 2
      vertex -2.09057 -19.8904 7
      vertex 2.09057 -19.8904 7
    endloop
  endfacet
  facet normal 0 1 0
    outer loop
      vertex -2.09057 -19.8904 7
      vertex 2.09057 -19.8904 2
      vertex -2.09057 -19.8904 2
    endloop
  endfacet
  facet normal -0.587785 -0.809017 0
    outer loop
      vertex 10 17.3205 2
      vertex 13.3826 14.8629 7
      vertex 10 17.3205 7
    endloop
  endfacet
  facet normal -0.587785 -0.809017 -0
    outer loop
      vertex 13.3826 14.8629 7
      vertex 10 17.3205 2
      vertex 13.3826 14.8629 2
    endloop
  endfacet
  facet normal -0.406737 -0.913545 0
    outer loop
      vertex 6.18034 19.0211 2
      vertex 10 17.3205 7
      vertex 6.18034 19.0211 7
    endloop
  endfacet
  facet normal -0.406737 -0.913545 -0
    outer loop
      vertex 10 17.3205 7
      vertex 6.18034 19.0211 2
      vertex 10 17.3205 2
    endloop
  endfacet
  facet normal 0.743145 -0.669131 0
    outer loop
      vertex -16.1803 11.7557 7
      vertex -13.3826 14.8629 2
      vertex -13.3826 14.8629 7
    endloop
  endfacet
  facet normal 0.743145 -0.669131 0
    outer loop
      vertex -13.3826 14.8629 2
      vertex -16.1803 11.7557 7
      vertex -16.1803 11.7557 2
    endloop
  endfacet
  facet normal 0.866026 -0.5 0
    outer loop
      vertex -18.2709 8.13473 7
      vertex -16.1803 11.7557 2
      vertex -16.1803 11.7557 7
    endloop
  endfacet
  facet normal 0.866026 -0.5 0
    outer loop
      vertex -16.1803 11.7557 2
      vertex -18.2709 8.13473 7
      vertex -18.2709 8.13473 2
    endloop
  endfacet
  facet normal 0.406737 -0.913545 0
    outer loop
      vertex -10 17.3205 2
      vertex -6.18034 19.0211 7
      vertex -10 17.3205 7
    endloop
  endfacet
  facet normal 0.406737 -0.913545 0
    outer loop
      vertex -6.18034 19.0211 7
      vertex -10 17.3205 2
      vertex -6.18034 19.0211 2
    endloop
  endfacet
  facet normal -0.866026 -0.5 0
    outer loop
      vertex 18.2709 8.13473 2
      vertex 16.1803 11.7557 7
      vertex 16.1803 11.7557 2
    endloop
  endfacet
  facet normal -0.866026 -0.5 0
    outer loop
      vertex 16.1803 11.7557 7
      vertex 18.2709 8.13473 2
      vertex 18.2709 8.13473 7
    endloop
  endfacet
  facet normal -0.951057 -0.309017 -0
    outer loop
      vertex 18.7208 6.75 3.6
      vertex 18.2709 8.13473 2
      vertex 18.7208 6.75 2
    endloop
  endfacet
  facet normal -0.951057 -0.309017 0
    outer loop
      vertex 18.2709 8.13473 2
      vertex 18.7208 6.75 3.6
      vertex 18.2709 8.13473 7
    endloop
  endfacet
  facet normal -0.951057 -0.309017 -0
    outer loop
      vertex 19.563 4.15823 7
      vertex 18.7208 6.75 3.6
      vertex 19.563 4.15823 3.6
    endloop
  endfacet
  facet normal -0.951057 -0.309017 2.16043e-08
    outer loop
      vertex 18.7208 6.75 3.6
      vertex 19.563 4.15823 7
      vertex 18.2709 8.13473 7
    endloop
  endfacet
  facet normal -0.743145 -0.669131 0
    outer loop
      vertex 16.1803 11.7557 2
      vertex 13.3826 14.8629 7
      vertex 13.3826 14.8629 2
    endloop
  endfacet
  facet normal -0.743145 -0.669131 0
    outer loop
      vertex 13.3826 14.8629 7
      vertex 16.1803 11.7557 2
      vertex 16.1803 11.7557 7
    endloop
  endfacet
  facet normal -0.207912 -0.978148 0
    outer loop
      vertex 2.09057 19.8904 2
      vertex 6.18034 19.0211 7
      vertex 2.09057 19.8904 7
    endloop
  endfacet
  facet normal -0.207912 -0.978148 -0
    outer loop
      vertex 6.18034 19.0211 7
      vertex 2.09057 19.8904 2
      vertex 6.18034 19.0211 2
    endloop
  endfacet
  facet normal 0.951057 -0.309017 0
    outer loop
      vertex -18.2709 8.13473 7
      vertex -18.7208 6.75 3.6
      vertex -18.2709 8.13473 2
    endloop
  endfacet
  facet normal 0.951057 -0.309017 2.16043e-08
    outer loop
      vertex -19.563 4.15823 7
      vertex -18.7208 6.75 3.6
      vertex -18.2709 8.13473 7
    endloop
  endfacet
  facet normal 0.951057 -0.309017 0
    outer loop
      vertex -18.7208 6.75 3.6
      vertex -19.563 4.15823 7
      vertex -19.563 4.15823 3.6
    endloop
  endfacet
  facet normal 0.951057 -0.309017 0
    outer loop
      vertex -18.2709 8.13473 2
      vertex -18.7208 6.75 3.6
      vertex -18.7208 6.75 2
    endloop
  endfacet
  facet normal 0.587785 -0.809017 0
    outer loop
      vertex -13.3826 14.8629 2
      vertex -10 17.3205 7
      vertex -13.3826 14.8629 7
    endloop
  endfacet
  facet normal 0.587785 -0.809017 0
    outer loop
      vertex -10 17.3205 7
      vertex -13.3826 14.8629 2
      vertex -10 17.3205 2
    endloop
  endfacet
  facet normal 0.207912 -0.978148 0
    outer loop
      vertex -6.18034 19.0211 2
      vertex -2.09057 19.8904 7
      vertex -6.18034 19.0211 7
    endloop
  endfacet
  facet normal 0.207912 -0.978148 0
    outer loop
      vertex -2.09057 19.8904 7
      vertex -6.18034 19.0211 2
      vertex -2.09057 19.8904 2
    endloop
  endfacet
  facet normal -0.994522 0.104529 0
    outer loop
      vertex 19.563 -4.15823 3.6
      vertex 20 0 7
      vertex 20 0 3.6
    endloop
  endfacet
  facet normal -0.994522 0.104529 0
    outer loop
      vertex 20 0 7
      vertex 19.563 -4.15823 3.6
      vertex 19.563 -4.15823 7
    endloop
  endfacet
  facet normal 0 0 -1
    outer loop
      vertex 19.25 -7 2
      vertex 24.5 0 2
      vertex 23.9646 -5.09384 2
    endloop
  endfacet
  facet normal 0 0 -1
    outer loop
      vertex 19.25 -7 2
      vertex 23.9646 -5.09384 2
      vertex 22.3819 -9.96505 2
    endloop
  endfacet
  facet normal -0 0 -1
    outer loop
      vertex 24.5 0 2
      vertex 19.25 -7 2
      vertex 19.25 6.75 2
    endloop
  endfacet
  facet normal 0 0 -1
    outer loop
      vertex 18.2709 -8.13473 2
      vertex 22.3819 -9.96505 2
      vertex 19.8209 -14.4007 2
    endloop
  endfacet
  facet normal 0 0 -1
    outer loop
      vertex 24.5 0 2
      vertex 19.25 6.75 2
      vertex 23.9646 5.09384 2
    endloop
  endfacet
  facet normal 0 0 -1
    outer loop
      vertex 23.9646 5.09384 2
      vertex 19.25 6.75 2
      vertex 22.3819 9.96505 2
    endloop
  endfacet
  facet normal 0 0 -1
    outer loop
      vertex 22.3819 -9.96505 2
      vertex 18.2709 -8.13473 2
      vertex 19.25 -7 2
    endloop
  endfacet
  facet normal -0 0 -1
    outer loop
      vertex 19.25 -7 2
      vertex 18.2709 -8.13473 2
      vertex 18.6396 -7 2
    endloop
  endfacet
  facet normal 0 0 -1
    outer loop
      vertex 16.1803 -11.7557 2
      vertex 19.8209 -14.4007 2
      vertex 16.3937 -18.207 2
    endloop
  endfacet
  facet normal 0 0 -1
    outer loop
      vertex 19.8209 -14.4007 2
      vertex 16.1803 -11.7557 2
      vertex 18.2709 -8.13473 2
    endloop
  endfacet
  facet normal 0 0 -1
    outer loop
      vertex 16.3937 -18.207 2
      vertex 13.3826 -14.8629 2
      vertex 16.1803 -11.7557 2
    endloop
  endfacet
  facet normal 0 0 -1
    outer loop
      vertex 12.25 -21.2176 2
      vertex 13.3826 -14.8629 2
      vertex 16.3937 -18.207 2
    endloop
  endfacet
  facet normal 0 0 -1
    outer loop
      vertex 12.25 -21.2176 2
      vertex 10 -17.3205 2
      vertex 13.3826 -14.8629 2
    endloop
  endfacet
  facet normal 0 0 -1
    outer loop
      vertex 7.57092 -23.3009 2
      vertex 10 -17.3205 2
      vertex 12.25 -21.2176 2
    endloop
  endfacet
  facet normal 0 0 -1
    outer loop
      vertex 7.57092 -23.3009 2
      vertex 6.18034 -19.0211 2
      vertex 10 -17.3205 2
    endloop
  endfacet
  facet normal 0 0 -1
    outer loop
      vertex 2.56095 -24.3658 2
      vertex 6.18034 -19.0211 2
      vertex 7.57092 -23.3009 2
    endloop
  endfacet
  facet normal 0 0 -1
    outer loop
      vertex 2.56095 -24.3658 2
      vertex 2.09057 -19.8904 2
      vertex 6.18034 -19.0211 2
    endloop
  endfacet
  facet normal 0 0 -1
    outer loop
      vertex 2.56095 -24.3658 2
      vertex -2.09057 -19.8904 2
      vertex 2.09057 -19.8904 2
    endloop
  endfacet
  facet normal 0 0 -1
    outer loop
      vertex -2.56095 -24.3658 2
      vertex -2.09057 -19.8904 2
      vertex 2.56095 -24.3658 2
    endloop
  endfacet
  facet normal 0 0 -1
    outer loop
      vertex -2.56095 -24.3658 2
      vertex -6.18034 -19.0211 2
      vertex -2.09057 -19.8904 2
    endloop
  endfacet
  facet normal 0 0 -1
    outer loop
      vertex -7.57092 -23.3009 2
      vertex -6.18034 -19.0211 2
      vertex -2.56095 -24.3658 2
    endloop
  endfacet
  facet normal 0 0 -1
    outer loop
      vertex -7.57092 -23.3009 2
      vertex -10 -17.3205 2
      vertex -6.18034 -19.0211 2
    endloop
  endfacet
  facet normal 0 0 -1
    outer loop
      vertex -12.25 -21.2176 2
      vertex -10 -17.3205 2
      vertex -7.57092 -23.3009 2
    endloop
  endfacet
  facet normal 0 0 -1
    outer loop
      vertex -12.25 -21.2176 2
      vertex -13.3826 -14.8629 2
      vertex -10 -17.3205 2
    endloop
  endfacet
  facet normal 0 0 -1
    outer loop
      vertex -16.3937 -18.207 2
      vertex -13.3826 -14.8629 2
      vertex -12.25 -21.2176 2
    endloop
  endfacet
  facet normal -0 0 -1
    outer loop
      vertex -13.3826 -14.8629 2
      vertex -16.3937 -18.207 2
      vertex -16.1803 -11.7557 2
    endloop
  endfacet
  facet normal 0 0 -1
    outer loop
      vertex -19.8209 -14.4007 2
      vertex -16.1803 -11.7557 2
      vertex -16.3937 -18.207 2
    endloop
  endfacet
  facet normal -0 0 -1
    outer loop
      vertex -16.1803 -11.7557 2
      vertex -19.8209 -14.4007 2
      vertex -18.2709 -8.13473 2
    endloop
  endfacet
  facet normal 0 0 -1
    outer loop
      vertex -22.3819 -9.96505 2
      vertex -18.2709 -8.13473 2
      vertex -19.8209 -14.4007 2
    endloop
  endfacet
  facet normal 0 0 -1
    outer loop
      vertex -18.2709 -8.13473 2
      vertex -19 -7 2
      vertex -18.6396 -7 2
    endloop
  endfacet
  facet normal 0 -0 -1
    outer loop
      vertex -19 -7 2
      vertex -18.2709 -8.13473 2
      vertex -22.3819 -9.96505 2
    endloop
  endfacet
  facet normal 0 0 -1
    outer loop
      vertex 18.2709 8.13473 2
      vertex 22.3819 9.96505 2
      vertex 19.25 6.75 2
    endloop
  endfacet
  facet normal 0 0 -1
    outer loop
      vertex 18.2709 8.13473 2
      vertex 19.25 6.75 2
      vertex 18.7208 6.75 2
    endloop
  endfacet
  facet normal -0 0 -1
    outer loop
      vertex 22.3819 9.96505 2
      vertex 18.2709 8.13473 2
      vertex 19.8209 14.4007 2
    endloop
  endfacet
  facet normal 0 0 -1
    outer loop
      vertex 16.1803 11.7557 2
      vertex 19.8209 14.4007 2
      vertex 18.2709 8.13473 2
    endloop
  endfacet
  facet normal -0 0 -1
    outer loop
      vertex 19.8209 14.4007 2
      vertex 16.1803 11.7557 2
      vertex 16.3937 18.207 2
    endloop
  endfacet
  facet normal 0 0 -1
    outer loop
      vertex 13.3826 14.8629 2
      vertex 16.3937 18.207 2
      vertex 16.1803 11.7557 2
    endloop
  endfacet
  facet normal 0 0 -1
    outer loop
      vertex 13.3826 14.8629 2
      vertex 12.25 21.2176 2
      vertex 16.3937 18.207 2
    endloop
  endfacet
  facet normal 0 0 -1
    outer loop
      vertex 10 17.3205 2
      vertex 12.25 21.2176 2
      vertex 13.3826 14.8629 2
    endloop
  endfacet
  facet normal 0 0 -1
    outer loop
      vertex 10 17.3205 2
      vertex 7.57092 23.3009 2
      vertex 12.25 21.2176 2
    endloop
  endfacet
  facet normal 0 0 -1
    outer loop
      vertex 6.18034 19.0211 2
      vertex 7.57092 23.3009 2
      vertex 10 17.3205 2
    endloop
  endfacet
  facet normal 0 0 -1
    outer loop
      vertex 6.18034 19.0211 2
      vertex 2.56095 24.3658 2
      vertex 7.57092 23.3009 2
    endloop
  endfacet
  facet normal 0 0 -1
    outer loop
      vertex 2.09057 19.8904 2
      vertex 2.56095 24.3658 2
      vertex 6.18034 19.0211 2
    endloop
  endfacet
  facet normal 0 0 -1
    outer loop
      vertex -2.09057 19.8904 2
      vertex 2.56095 24.3658 2
      vertex 2.09057 19.8904 2
    endloop
  endfacet
  facet normal 0 0 -1
    outer loop
      vertex -2.09057 19.8904 2
      vertex -2.56095 24.3658 2
      vertex 2.56095 24.3658 2
    endloop
  endfacet
  facet normal 0 0 -1
    outer loop
      vertex -6.18034 19.0211 2
      vertex -2.56095 24.3658 2
      vertex -2.09057 19.8904 2
    endloop
  endfacet
  facet normal 0 0 -1
    outer loop
      vertex -6.18034 19.0211 2
      vertex -7.57092 23.3009 2
      vertex -2.56095 24.3658 2
    endloop
  endfacet
  facet normal 0 0 -1
    outer loop
      vertex -10 17.3205 2
      vertex -7.57092 23.3009 2
      vertex -6.18034 19.0211 2
    endloop
  endfacet
  facet normal 0 0 -1
    outer loop
      vertex -10 17.3205 2
      vertex -12.25 21.2176 2
      vertex -7.57092 23.3009 2
    endloop
  endfacet
  facet normal 0 0 -1
    outer loop
      vertex -13.3826 14.8629 2
      vertex -12.25 21.2176 2
      vertex -10 17.3205 2
    endloop
  endfacet
  facet normal 0 0 -1
    outer loop
      vertex -16.3937 18.207 2
      vertex -13.3826 14.8629 2
      vertex -16.1803 11.7557 2
    endloop
  endfacet
  facet normal 0 0 -1
    outer loop
      vertex -13.3826 14.8629 2
      vertex -16.3937 18.207 2
      vertex -12.25 21.2176 2
    endloop
  endfacet
  facet normal 0 0 -1
    outer loop
      vertex -19.8209 14.4007 2
      vertex -16.1803 11.7557 2
      vertex -18.2709 8.13473 2
    endloop
  endfacet
  facet normal 0 0 -1
    outer loop
      vertex -19 6.75 2
      vertex -18.2709 8.13473 2
      vertex -18.7208 6.75 2
    endloop
  endfacet
  facet normal -0 0 -1
    outer loop
      vertex -18.2709 8.13473 2
      vertex -19 6.75 2
      vertex -22.3819 9.96505 2
    endloop
  endfacet
  facet normal 0 0 -1
    outer loop
      vertex -16.1803 11.7557 2
      vertex -19.8209 14.4007 2
      vertex -16.3937 18.207 2
    endloop
  endfacet
  facet normal 0 0 -1
    outer loop
      vertex -23.9646 -5.09384 2
      vertex -19 -7 2
      vertex -22.3819 -9.96505 2
    endloop
  endfacet
  facet normal 0 0 -1
    outer loop
      vertex -24.5 0 2
      vertex -19 -7 2
      vertex -23.9646 -5.09384 2
    endloop
  endfacet
  facet normal 0 0 -1
    outer loop
      vertex -18.2709 8.13473 2
      vertex -22.3819 9.96505 2
      vertex -19.8209 14.4007 2
    endloop
  endfacet
  facet normal 0 0 -1
    outer loop
      vertex -19 -7 2
      vertex -24.5 0 2
      vertex -19 6.75 2
    endloop
  endfacet
  facet normal -0 0 -1
    outer loop
      vertex -19 6.75 2
      vertex -23.9646 5.09384 2
      vertex -22.3819 9.96505 2
    endloop
  endfacet
  facet normal 0 0 -1
    outer loop
      vertex -19 6.75 2
      vertex -24.5 0 2
      vertex -23.9646 5.09384 2
    endloop
  endfacet
  facet normal -0.207912 0.978148 0
    outer loop
      vertex 6.18034 -19.0211 2
      vertex 2.09057 -19.8904 7
      vertex 6.18034 -19.0211 7
    endloop
  endfacet
  facet normal -0.207912 0.978148 0
    outer loop
      vertex 2.09057 -19.8904 7
      vertex 6.18034 -19.0211 2
      vertex 2.09057 -19.8904 2
    endloop
  endfacet
  facet normal -0.866026 0.5 0
    outer loop
      vertex 16.1803 -11.7557 2
      vertex 18.2709 -8.13473 7
      vertex 18.2709 -8.13473 2
    endloop
  endfacet
  facet normal -0.866026 0.5 0
    outer loop
      vertex 18.2709 -8.13473 7
      vertex 16.1803 -11.7557 2
      vertex 16.1803 -11.7557 7
    endloop
  endfacet
  facet normal 0.866026 0.5 0
    outer loop
      vertex -16.1803 -11.7557 7
      vertex -18.2709 -8.13473 2
      vertex -18.2709 -8.13473 7
    endloop
  endfacet
  facet normal 0.866026 0.5 0
    outer loop
      vertex -18.2709 -8.13473 2
      vertex -16.1803 -11.7557 7
      vertex -16.1803 -11.7557 2
    endloop
  endfacet
  facet normal 0.994522 0.104529 0
    outer loop
      vertex -19.563 -4.15823 7
      vertex -20 0 6.6
      vertex -20 0 7
    endloop
  endfacet
  facet normal 0.994522 0.104529 -0
    outer loop
      vertex -19.563 -4.15823 3.6
      vertex -20 0 6.6
      vertex -19.563 -4.15823 7
    endloop
  endfacet
  facet normal 0.994522 0.104529 0
    outer loop
      vertex -20 0 6.6
      vertex -19.563 -4.15823 3.6
      vertex -20 0 3.6
    endloop
  endfacet
  facet normal -0.587785 0.809017 0
    outer loop
      vertex 13.3826 -14.8629 2
      vertex 10 -17.3205 7
      vertex 13.3826 -14.8629 7
    endloop
  endfacet
  facet normal -0.587785 0.809017 0
    outer loop
      vertex 10 -17.3205 7
      vertex 13.3826 -14.8629 2
      vertex 10 -17.3205 2
    endloop
  endfacet
  facet normal -0.406737 0.913545 0
    outer loop
      vertex 10 -17.3205 2
      vertex 6.18034 -19.0211 7
      vertex 10 -17.3205 7
    endloop
  endfacet
  facet normal -0.406737 0.913545 0
    outer loop
      vertex 6.18034 -19.0211 7
      vertex 10 -17.3205 2
      vertex 6.18034 -19.0211 2
    endloop
  endfacet
  facet normal -0.951057 0.309017 0
    outer loop
      vertex 18.6396 -7 2
      vertex 18.2709 -8.13473 2
      vertex 18.6396 -7 3.6
    endloop
  endfacet
  facet normal -0.951057 0.309017 0
    outer loop
      vertex 18.6396 -7 3.6
      vertex 19.563 -4.15823 7
      vertex 19.563 -4.15823 3.6
    endloop
  endfacet
  facet normal -0.951057 0.309017 1.05131e-07
    outer loop
      vertex 18.6396 -7 3.6
      vertex 18.2709 -8.13473 7
      vertex 19.563 -4.15823 7
    endloop
  endfacet
  facet normal -0.951057 0.309017 0
    outer loop
      vertex 18.2709 -8.13473 7
      vertex 18.6396 -7 3.6
      vertex 18.2709 -8.13473 2
    endloop
  endfacet
  facet normal 0.743145 0.669131 0
    outer loop
      vertex -13.3826 -14.8629 7
      vertex -16.1803 -11.7557 2
      vertex -16.1803 -11.7557 7
    endloop
  endfacet
  facet normal 0.743145 0.669131 0
    outer loop
      vertex -16.1803 -11.7557 2
      vertex -13.3826 -14.8629 7
      vertex -13.3826 -14.8629 2
    endloop
  endfacet
  facet normal 0.951057 0.309017 0
    outer loop
      vertex -19.563 -4.15823 7
      vertex -18.6396 -7 3.6
      vertex -19.563 -4.15823 3.6
    endloop
  endfacet
  facet normal 0.951057 0.309017 1.05131e-07
    outer loop
      vertex -18.2709 -8.13473 7
      vertex -18.6396 -7 3.6
      vertex -19.563 -4.15823 7
    endloop
  endfacet
  facet normal 0.951057 0.309017 -0
    outer loop
      vertex -18.2709 -8.13473 2
      vertex -18.6396 -7 3.6
      vertex -18.2709 -8.13473 7
    endloop
  endfacet
  facet normal 0.951057 0.309017 0
    outer loop
      vertex -18.6396 -7 3.6
      vertex -18.2709 -8.13473 2
      vertex -18.6396 -7 2
    endloop
  endfacet
  facet normal -0.743145 0.669131 0
    outer loop
      vertex 13.3826 -14.8629 2
      vertex 16.1803 -11.7557 7
      vertex 16.1803 -11.7557 2
    endloop
  endfacet
  facet normal -0.743145 0.669131 0
    outer loop
      vertex 16.1803 -11.7557 7
      vertex 13.3826 -14.8629 2
      vertex 13.3826 -14.8629 7
    endloop
  endfacet
  facet normal 0.587785 0.809017 -0
    outer loop
      vertex -10 -17.3205 2
      vertex -13.3826 -14.8629 7
      vertex -10 -17.3205 7
    endloop
  endfacet
  facet normal 0.587785 0.809017 0
    outer loop
      vertex -13.3826 -14.8629 7
      vertex -10 -17.3205 2
      vertex -13.3826 -14.8629 2
    endloop
  endfacet
  facet normal 0.406737 0.913545 -0
    outer loop
      vertex -6.18034 -19.0211 2
      vertex -10 -17.3205 7
      vertex -6.18034 -19.0211 7
    endloop
  endfacet
  facet normal 0.406737 0.913545 0
    outer loop
      vertex -10 -17.3205 7
      vertex -6.18034 -19.0211 2
      vertex -10 -17.3205 2
    endloop
  endfacet
  facet normal 0.207912 0.978148 -0
    outer loop
      vertex -2.09057 -19.8904 2
      vertex -6.18034 -19.0211 7
      vertex -2.09057 -19.8904 7
    endloop
  endfacet
  facet normal 0.207912 0.978148 0
    outer loop
      vertex -6.18034 -19.0211 7
      vertex -2.09057 -19.8904 2
      vertex -6.18034 -19.0211 2
    endloop
  endfacet
  facet normal 0.866025 0.5 0
    outer loop
      vertex 22.3819 9.96505 8
      vertex 19.8209 14.4007 2
      vertex 19.8209 14.4007 8
    endloop
  endfacet
  facet normal 0.866025 0.5 0
    outer loop
      vertex 19.8209 14.4007 2
      vertex 22.3819 9.96505 8
      vertex 22.3819 9.96505 2
    endloop
  endfacet
  facet normal 0.743145 0.669131 0
    outer loop
      vertex 19.8209 14.4007 8
      vertex 16.3937 18.207 2
      vertex 16.3937 18.207 8
    endloop
  endfacet
  facet normal 0.743145 0.669131 0
    outer loop
      vertex 16.3937 18.207 2
      vertex 19.8209 14.4007 8
      vertex 19.8209 14.4007 2
    endloop
  endfacet
  facet normal 0.207912 0.978148 -0
    outer loop
      vertex 7.57092 23.3009 2
      vertex 2.56095 24.3658 8
      vertex 7.57092 23.3009 8
    endloop
  endfacet
  facet normal 0.207912 0.978148 0
    outer loop
      vertex 2.56095 24.3658 8
      vertex 7.57092 23.3009 2
      vertex 2.56095 24.3658 2
    endloop
  endfacet
  facet normal -0.207912 0.978148 0
    outer loop
      vertex -2.56095 24.3658 2
      vertex -7.57092 23.3009 8
      vertex -2.56095 24.3658 8
    endloop
  endfacet
  facet normal -0.207912 0.978148 0
    outer loop
      vertex -7.57092 23.3009 8
      vertex -2.56095 24.3658 2
      vertex -7.57092 23.3009 2
    endloop
  endfacet
  facet normal -0.866025 0.5 0
    outer loop
      vertex -22.3819 9.96505 2
      vertex -19.8209 14.4007 8
      vertex -19.8209 14.4007 2
    endloop
  endfacet
  facet normal -0.866025 0.5 0
    outer loop
      vertex -19.8209 14.4007 8
      vertex -22.3819 9.96505 2
      vertex -22.3819 9.96505 8
    endloop
  endfacet
  facet normal 0.994522 -0.104529 0
    outer loop
      vertex 23.9646 -5.09384 8
      vertex 24.5 0 2
      vertex 24.5 0 8
    endloop
  endfacet
  facet normal 0.994522 -0.104529 0
    outer loop
      vertex 24.5 0 2
      vertex 23.9646 -5.09384 8
      vertex 23.9646 -5.09384 2
    endloop
  endfacet
  facet normal 0.951057 0.309017 0
    outer loop
      vertex 23.9646 5.09384 8
      vertex 22.3819 9.96505 2
      vertex 22.3819 9.96505 8
    endloop
  endfacet
  facet normal 0.951057 0.309017 0
    outer loop
      vertex 22.3819 9.96505 2
      vertex 23.9646 5.09384 8
      vertex 23.9646 5.09384 2
    endloop
  endfacet
  facet normal 0.587785 0.809017 -0
    outer loop
      vertex 16.3937 18.207 2
      vertex 12.25 21.2176 8
      vertex 16.3937 18.207 8
    endloop
  endfacet
  facet normal 0.587785 0.809017 0
    outer loop
      vertex 12.25 21.2176 8
      vertex 16.3937 18.207 2
      vertex 12.25 21.2176 2
    endloop
  endfacet
  facet normal 0 1 -0
    outer loop
      vertex 2.56095 24.3658 2
      vertex -2.56095 24.3658 8
      vertex 2.56095 24.3658 8
    endloop
  endfacet
  facet normal 0 1 0
    outer loop
      vertex -2.56095 24.3658 8
      vertex 2.56095 24.3658 2
      vertex -2.56095 24.3658 2
    endloop
  endfacet
  facet normal 0.406737 0.913545 -0
    outer loop
      vertex 12.25 21.2176 2
      vertex 7.57092 23.3009 8
      vertex 12.25 21.2176 8
    endloop
  endfacet
  facet normal 0.406737 0.913545 0
    outer loop
      vertex 7.57092 23.3009 8
      vertex 12.25 21.2176 2
      vertex 7.57092 23.3009 2
    endloop
  endfacet
  facet normal -0.994522 0.104529 0
    outer loop
      vertex -24.5 0 2
      vertex -23.9646 5.09384 8
      vertex -23.9646 5.09384 2
    endloop
  endfacet
  facet normal -0.994522 0.104529 0
    outer loop
      vertex -23.9646 5.09384 8
      vertex -24.5 0 2
      vertex -24.5 0 8
    endloop
  endfacet
  facet normal -0.743145 0.669131 0
    outer loop
      vertex -19.8209 14.4007 2
      vertex -16.3937 18.207 8
      vertex -16.3937 18.207 2
    endloop
  endfacet
  facet normal -0.743145 0.669131 0
    outer loop
      vertex -16.3937 18.207 8
      vertex -19.8209 14.4007 2
      vertex -19.8209 14.4007 8
    endloop
  endfacet
  facet normal -0.406737 0.913545 0
    outer loop
      vertex -7.57092 23.3009 2
      vertex -12.25 21.2176 8
      vertex -7.57092 23.3009 8
    endloop
  endfacet
  facet normal -0.406737 0.913545 0
    outer loop
      vertex -12.25 21.2176 8
      vertex -7.57092 23.3009 2
      vertex -12.25 21.2176 2
    endloop
  endfacet
  facet normal -0.587785 0.809017 0
    outer loop
      vertex -12.25 21.2176 2
      vertex -16.3937 18.207 8
      vertex -12.25 21.2176 8
    endloop
  endfacet
  facet normal -0.587785 0.809017 0
    outer loop
      vertex -16.3937 18.207 8
      vertex -12.25 21.2176 2
      vertex -16.3937 18.207 2
    endloop
  endfacet
  facet normal 0.994522 0.104529 0
    outer loop
      vertex 24.5 0 8
      vertex 23.9646 5.09384 2
      vertex 23.9646 5.09384 8
    endloop
  endfacet
  facet normal 0.994522 0.104529 0
    outer loop
      vertex 23.9646 5.09384 2
      vertex 24.5 0 8
      vertex 24.5 0 2
    endloop
  endfacet
  facet normal 0.587785 -0.809017 0
    outer loop
      vertex 12.25 -21.2176 2
      vertex 16.3937 -18.207 8
      vertex 12.25 -21.2176 8
    endloop
  endfacet
  facet normal 0.587785 -0.809017 0
    outer loop
      vertex 16.3937 -18.207 8
      vertex 12.25 -21.2176 2
      vertex 16.3937 -18.207 2
    endloop
  endfacet
  facet normal 0 0 1
    outer loop
      vertex 23.5 0 8
      vertex 24.5 0 8
      vertex 23.9646 5.09384 8
    endloop
  endfacet
  facet normal 0 0 1
    outer loop
      vertex 24.5 0 8
      vertex 23.5 0 8
      vertex 23.9646 -5.09384 8
    endloop
  endfacet
  facet normal 0 0 1
    outer loop
      vertex 23.9646 5.09384 8
      vertex 22.9865 4.88592 8
      vertex 23.5 0 8
    endloop
  endfacet
  facet normal 0 0 1
    outer loop
      vertex 22.3819 9.96505 8
      vertex 22.9865 4.88592 8
      vertex 23.9646 5.09384 8
    endloop
  endfacet
  facet normal 0 0 1
    outer loop
      vertex 22.3819 9.96505 8
      vertex 21.4683 9.55831 8
      vertex 22.9865 4.88592 8
    endloop
  endfacet
  facet normal 0 0 1
    outer loop
      vertex 19.8209 14.4007 8
      vertex 21.4683 9.55831 8
      vertex 22.3819 9.96505 8
    endloop
  endfacet
  facet normal 0 0 1
    outer loop
      vertex 19.8209 14.4007 8
      vertex 19.0119 13.813 8
      vertex 21.4683 9.55831 8
    endloop
  endfacet
  facet normal 0 0 1
    outer loop
      vertex 16.3937 18.207 8
      vertex 19.0119 13.813 8
      vertex 19.8209 14.4007 8
    endloop
  endfacet
  facet normal 0 0 1
    outer loop
      vertex 16.3937 18.207 8
      vertex 15.7246 17.4639 8
      vertex 19.0119 13.813 8
    endloop
  endfacet
  facet normal 0 0 1
    outer loop
      vertex 12.25 21.2176 8
      vertex 15.7246 17.4639 8
      vertex 16.3937 18.207 8
    endloop
  endfacet
  facet normal 0 0 1
    outer loop
      vertex 12.25 21.2176 8
      vertex 11.75 20.3516 8
      vertex 15.7246 17.4639 8
    endloop
  endfacet
  facet normal 0 0 1
    outer loop
      vertex 7.57092 23.3009 8
      vertex 11.75 20.3516 8
      vertex 12.25 21.2176 8
    endloop
  endfacet
  facet normal 0 0 1
    outer loop
      vertex 7.57092 23.3009 8
      vertex 7.2619 22.3498 8
      vertex 11.75 20.3516 8
    endloop
  endfacet
  facet normal 0 0 1
    outer loop
      vertex 2.56095 24.3658 8
      vertex 7.2619 22.3498 8
      vertex 7.57092 23.3009 8
    endloop
  endfacet
  facet normal 0 0 1
    outer loop
      vertex 2.56095 24.3658 8
      vertex 2.45642 23.3713 8
      vertex 7.2619 22.3498 8
    endloop
  endfacet
  facet normal 0 0 1
    outer loop
      vertex 2.56095 24.3658 8
      vertex -2.45642 23.3713 8
      vertex 2.45642 23.3713 8
    endloop
  endfacet
  facet normal -0 0 1
    outer loop
      vertex -2.56095 24.3658 8
      vertex -2.45642 23.3713 8
      vertex 2.56095 24.3658 8
    endloop
  endfacet
  facet normal 0 0 1
    outer loop
      vertex -2.56095 24.3658 8
      vertex -7.2619 22.3498 8
      vertex -2.45642 23.3713 8
    endloop
  endfacet
  facet normal -0 0 1
    outer loop
      vertex -7.57092 23.3009 8
      vertex -7.2619 22.3498 8
      vertex -2.56095 24.3658 8
    endloop
  endfacet
  facet normal 0 0 1
    outer loop
      vertex -7.57092 23.3009 8
      vertex -11.75 20.3516 8
      vertex -7.2619 22.3498 8
    endloop
  endfacet
  facet normal -0 0 1
    outer loop
      vertex -12.25 21.2176 8
      vertex -11.75 20.3516 8
      vertex -7.57092 23.3009 8
    endloop
  endfacet
  facet normal 0 0 1
    outer loop
      vertex -12.25 21.2176 8
      vertex -15.7246 17.4639 8
      vertex -11.75 20.3516 8
    endloop
  endfacet
  facet normal -0 0 1
    outer loop
      vertex -16.3937 18.207 8
      vertex -15.7246 17.4639 8
      vertex -12.25 21.2176 8
    endloop
  endfacet
  facet normal 0 0 1
    outer loop
      vertex -16.3937 18.207 8
      vertex -19.0119 13.813 8
      vertex -15.7246 17.4639 8
    endloop
  endfacet
  facet normal -0 0 1
    outer loop
      vertex -19.8209 14.4007 8
      vertex -19.0119 13.813 8
      vertex -16.3937 18.207 8
    endloop
  endfacet
  facet normal 0 0 1
    outer loop
      vertex -19.8209 14.4007 8
      vertex -21.4683 9.55831 8
      vertex -19.0119 13.813 8
    endloop
  endfacet
  facet normal -0 0 1
    outer loop
      vertex -22.3819 9.96505 8
      vertex -21.4683 9.55831 8
      vertex -19.8209 14.4007 8
    endloop
  endfacet
  facet normal 0 0 1
    outer loop
      vertex -22.3819 9.96505 8
      vertex -22.9865 4.88592 8
      vertex -21.4683 9.55831 8
    endloop
  endfacet
  facet normal 0 0 1
    outer loop
      vertex -22.9865 4.88592 8
      vertex -23.9646 5.09384 8
      vertex -23.5 0 8
    endloop
  endfacet
  facet normal -0 0 1
    outer loop
      vertex -23.9646 5.09384 8
      vertex -22.9865 4.88592 8
      vertex -22.3819 9.96505 8
    endloop
  endfacet
  facet normal -0 0 1
    outer loop
      vertex 22.9865 -4.88592 8
      vertex 23.9646 -5.09384 8
      vertex 23.5 0 8
    endloop
  endfacet
  facet normal 0 0 1
    outer loop
      vertex 22.9865 -4.88592 8
      vertex 22.3819 -9.96505 8
      vertex 23.9646 -5.09384 8
    endloop
  endfacet
  facet normal -0 0 1
    outer loop
      vertex 21.4683 -9.55831 8
      vertex 22.3819 -9.96505 8
      vertex 22.9865 -4.88592 8
    endloop
  endfacet
  facet normal 0 0 1
    outer loop
      vertex 21.4683 -9.55831 8
      vertex 19.8209 -14.4007 8
      vertex 22.3819 -9.96505 8
    endloop
  endfacet
  facet normal -0 0 1
    outer loop
      vertex 19.0119 -13.813 8
      vertex 19.8209 -14.4007 8
      vertex 21.4683 -9.55831 8
    endloop
  endfacet
  facet normal 0 0 1
    outer loop
      vertex 19.0119 -13.813 8
      vertex 16.3937 -18.207 8
      vertex 19.8209 -14.4007 8
    endloop
  endfacet
  facet normal -0 0 1
    outer loop
      vertex 15.7246 -17.4639 8
      vertex 16.3937 -18.207 8
      vertex 19.0119 -13.813 8
    endloop
  endfacet
  facet normal 0 0 1
    outer loop
      vertex 15.7246 -17.4639 8
      vertex 12.25 -21.2176 8
      vertex 16.3937 -18.207 8
    endloop
  endfacet
  facet normal -0 0 1
    outer loop
      vertex 11.75 -20.3516 8
      vertex 12.25 -21.2176 8
      vertex 15.7246 -17.4639 8
    endloop
  endfacet
  facet normal 0 0 1
    outer loop
      vertex 11.75 -20.3516 8
      vertex 7.57092 -23.3009 8
      vertex 12.25 -21.2176 8
    endloop
  endfacet
  facet normal -0 0 1
    outer loop
      vertex 7.2619 -22.3498 8
      vertex 7.57092 -23.3009 8
      vertex 11.75 -20.3516 8
    endloop
  endfacet
  facet normal 0 0 1
    outer loop
      vertex 7.2619 -22.3498 8
      vertex 2.56095 -24.3658 8
      vertex 7.57092 -23.3009 8
    endloop
  endfacet
  facet normal -0 0 1
    outer loop
      vertex 2.45642 -23.3713 8
      vertex 2.56095 -24.3658 8
      vertex 7.2619 -22.3498 8
    endloop
  endfacet
  facet normal -0 0 1
    outer loop
      vertex -2.45642 -23.3713 8
      vertex 2.56095 -24.3658 8
      vertex 2.45642 -23.3713 8
    endloop
  endfacet
  facet normal 0 0 1
    outer loop
      vertex -2.45642 -23.3713 8
      vertex -2.56095 -24.3658 8
      vertex 2.56095 -24.3658 8
    endloop
  endfacet
  facet normal 0 0 1
    outer loop
      vertex -7.2619 -22.3498 8
      vertex -2.56095 -24.3658 8
      vertex -2.45642 -23.3713 8
    endloop
  endfacet
  facet normal 0 0 1
    outer loop
      vertex -7.2619 -22.3498 8
      vertex -7.57092 -23.3009 8
      vertex -2.56095 -24.3658 8
    endloop
  endfacet
  facet normal 0 0 1
    outer loop
      vertex -11.75 -20.3516 8
      vertex -7.57092 -23.3009 8
      vertex -7.2619 -22.3498 8
    endloop
  endfacet
  facet normal 0 0 1
    outer loop
      vertex -11.75 -20.3516 8
      vertex -12.25 -21.2176 8
      vertex -7.57092 -23.3009 8
    endloop
  endfacet
  facet normal 0 0 1
    outer loop
      vertex -15.7246 -17.4639 8
      vertex -12.25 -21.2176 8
      vertex -11.75 -20.3516 8
    endloop
  endfacet
  facet normal 0 0 1
    outer loop
      vertex -15.7246 -17.4639 8
      vertex -16.3937 -18.207 8
      vertex -12.25 -21.2176 8
    endloop
  endfacet
  facet normal 0 0 1
    outer loop
      vertex -19.0119 -13.813 8
      vertex -16.3937 -18.207 8
      vertex -15.7246 -17.4639 8
    endloop
  endfacet
  facet normal 0 0 1
    outer loop
      vertex -19.0119 -13.813 8
      vertex -19.8209 -14.4007 8
      vertex -16.3937 -18.207 8
    endloop
  endfacet
  facet normal 0 0 1
    outer loop
      vertex -21.4683 -9.55831 8
      vertex -19.8209 -14.4007 8
      vertex -19.0119 -13.813 8
    endloop
  endfacet
  facet normal 0 0 1
    outer loop
      vertex -21.4683 -9.55831 8
      vertex -22.3819 -9.96505 8
      vertex -19.8209 -14.4007 8
    endloop
  endfacet
  facet normal 0 0 1
    outer loop
      vertex -22.9865 -4.88592 8
      vertex -22.3819 -9.96505 8
      vertex -21.4683 -9.55831 8
    endloop
  endfacet
  facet normal 0 0 1
    outer loop
      vertex -22.9865 -4.88592 8
      vertex -23.9646 -5.09384 8
      vertex -22.3819 -9.96505 8
    endloop
  endfacet
  facet normal 0 0 1
    outer loop
      vertex -23.5 0 8
      vertex -23.9646 -5.09384 8
      vertex -22.9865 -4.88592 8
    endloop
  endfacet
  facet normal 0 0 1
    outer loop
      vertex -24.5 0 8
      vertex -23.5 0 8
      vertex -23.9646 5.09384 8
    endloop
  endfacet
  facet normal 0 0 1
    outer loop
      vertex -23.5 0 8
      vertex -24.5 0 8
      vertex -23.9646 -5.09384 8
    endloop
  endfacet
  facet normal -0.951057 0.309017 0
    outer loop
      vertex -23.9646 5.09384 2
      vertex -22.3819 9.96505 8
      vertex -22.3819 9.96505 2
    endloop
  endfacet
  facet normal -0.951057 0.309017 0
    outer loop
      vertex -22.3819 9.96505 8
      vertex -23.9646 5.09384 2
      vertex -23.9646 5.09384 8
    endloop
  endfacet
  facet normal 0.951057 -0.309017 0
    outer loop
      vertex 22.3819 -9.96505 8
      vertex 23.9646 -5.09384 2
      vertex 23.9646 -5.09384 8
    endloop
  endfacet
  facet normal 0.951057 -0.309017 0
    outer loop
      vertex 23.9646 -5.09384 2
      vertex 22.3819 -9.96505 8
      vertex 22.3819 -9.96505 2
    endloop
  endfacet
  facet normal 0.866025 -0.5 0
    outer loop
      vertex 19.8209 -14.4007 8
      vertex 22.3819 -9.96505 2
      vertex 22.3819 -9.96505 8
    endloop
  endfacet
  facet normal 0.866025 -0.5 0
    outer loop
      vertex 22.3819 -9.96505 2
      vertex 19.8209 -14.4007 8
      vertex 19.8209 -14.4007 2
    endloop
  endfacet
  facet normal -0.207912 -0.978148 0
    outer loop
      vertex -7.57092 -23.3009 2
      vertex -2.56095 -24.3658 8
      vertex -7.57092 -23.3009 8
    endloop
  endfacet
  facet normal -0.207912 -0.978148 -0
    outer loop
      vertex -2.56095 -24.3658 8
      vertex -7.57092 -23.3009 2
      vertex -2.56095 -24.3658 2
    endloop
  endfacet
  facet normal -0.994522 -0.104529 0
    outer loop
      vertex -23.9646 -5.09384 2
      vertex -24.5 0 8
      vertex -24.5 0 2
    endloop
  endfacet
  facet normal -0.994522 -0.104529 0
    outer loop
      vertex -24.5 0 8
      vertex -23.9646 -5.09384 2
      vertex -23.9646 -5.09384 8
    endloop
  endfacet
  facet normal -0.866025 -0.5 0
    outer loop
      vertex -19.8209 -14.4007 2
      vertex -22.3819 -9.96505 8
      vertex -22.3819 -9.96505 2
    endloop
  endfacet
  facet normal -0.866025 -0.5 0
    outer loop
      vertex -22.3819 -9.96505 8
      vertex -19.8209 -14.4007 2
      vertex -19.8209 -14.4007 8
    endloop
  endfacet
  facet normal 0.207912 -0.978148 0
    outer loop
      vertex 2.56095 -24.3658 2
      vertex 7.57092 -23.3009 8
      vertex 2.56095 -24.3658 8
    endloop
  endfacet
  facet normal 0.207912 -0.978148 0
    outer loop
      vertex 7.57092 -23.3009 8
      vertex 2.56095 -24.3658 2
      vertex 7.57092 -23.3009 2
    endloop
  endfacet
  facet normal 0.406737 -0.913545 0
    outer loop
      vertex 7.57092 -23.3009 2
      vertex 12.25 -21.2176 8
      vertex 7.57092 -23.3009 8
    endloop
  endfacet
  facet normal 0.406737 -0.913545 0
    outer loop
      vertex 12.25 -21.2176 8
      vertex 7.57092 -23.3009 2
      vertex 12.25 -21.2176 2
    endloop
  endfacet
  facet normal 0.743145 -0.669131 0
    outer loop
      vertex 16.3937 -18.207 8
      vertex 19.8209 -14.4007 2
      vertex 19.8209 -14.4007 8
    endloop
  endfacet
  facet normal 0.743145 -0.669131 0
    outer loop
      vertex 19.8209 -14.4007 2
      vertex 16.3937 -18.207 8
      vertex 16.3937 -18.207 2
    endloop
  endfacet
  facet normal -0.587785 -0.809017 0
    outer loop
      vertex -16.3937 -18.207 2
      vertex -12.25 -21.2176 8
      vertex -16.3937 -18.207 8
    endloop
  endfacet
  facet normal -0.587785 -0.809017 -0
    outer loop
      vertex -12.25 -21.2176 8
      vertex -16.3937 -18.207 2
      vertex -12.25 -21.2176 2
    endloop
  endfacet
  facet normal 0 -1 0
    outer loop
      vertex -2.56095 -24.3658 2
      vertex 2.56095 -24.3658 8
      vertex -2.56095 -24.3658 8
    endloop
  endfacet
  facet normal 0 -1 -0
    outer loop
      vertex 2.56095 -24.3658 8
      vertex -2.56095 -24.3658 2
      vertex 2.56095 -24.3658 2
    endloop
  endfacet
  facet normal -0.406737 -0.913545 0
    outer loop
      vertex -12.25 -21.2176 2
      vertex -7.57092 -23.3009 8
      vertex -12.25 -21.2176 8
    endloop
  endfacet
  facet normal -0.406737 -0.913545 -0
    outer loop
      vertex -7.57092 -23.3009 8
      vertex -12.25 -21.2176 2
      vertex -7.57092 -23.3009 2
    endloop
  endfacet
  facet normal -0.951057 -0.309017 0
    outer loop
      vertex -22.3819 -9.96505 2
      vertex -23.9646 -5.09384 8
      vertex -23.9646 -5.09384 2
    endloop
  endfacet
  facet normal -0.951057 -0.309017 0
    outer loop
      vertex -23.9646 -5.09384 8
      vertex -22.3819 -9.96505 2
      vertex -22.3819 -9.96505 8
    endloop
  endfacet
  facet normal -0.743145 -0.669131 0
    outer loop
      vertex -16.3937 -18.207 2
      vertex -19.8209 -14.4007 8
      vertex -19.8209 -14.4007 2
    endloop
  endfacet
  facet normal -0.743145 -0.669131 0
    outer loop
      vertex -19.8209 -14.4007 8
      vertex -16.3937 -18.207 2
      vertex -16.3937 -18.207 8
    endloop
  endfacet
  facet normal -1 0 0
    outer loop
      vertex -22 -1 7
      vertex -22 1 8.6
      vertex -22 1 7
    endloop
  endfacet
  facet normal -1 -0 0
    outer loop
      vertex -22 1 8.6
      vertex -22 -1 7
      vertex -22 -1 8.6
    endloop
  endfacet
  facet normal -0 0 1
    outer loop
      vertex -22 1 8.6
      vertex -20 -1 8.6
      vertex -20 1 8.6
    endloop
  endfacet
  facet normal 0 0 1
    outer loop
      vertex -20 -1 8.6
      vertex -22 1 8.6
      vertex -22 -1 8.6
    endloop
  endfacet
  facet normal 1 0 0
    outer loop
      vertex -20 1 8.6
      vertex -20 0 7
      vertex -20 1 7
    endloop
  endfacet
  facet normal 1 -0 0
    outer loop
      vertex -20 -1 8.6
      vertex -20 0 7
      vertex -20 1 8.6
    endloop
  endfacet
  facet normal 1 0 0
    outer loop
      vertex -20 0 7
      vertex -20 -1 8.6
      vertex -20 -1 7
    endloop
  endfacet
  facet normal 0 -1 0
    outer loop
      vertex -22 -1 7
      vertex -20 -1 8.6
      vertex -22 -1 8.6
    endloop
  endfacet
  facet normal 0 -1 -0
    outer loop
      vertex -20 -1 8.6
      vertex -22 -1 7
      vertex -20 -1 7
    endloop
  endfacet
  facet normal 0 1 -0
    outer loop
      vertex -20 1 7
      vertex -22 1 8.6
      vertex -20 1 8.6
    endloop
  endfacet
  facet normal 0 1 0
    outer loop
      vertex -22 1 8.6
      vertex -20 1 7
      vertex -22 1 7
    endloop
  endfacet
endsolid OpenSCAD_Model
