M48
;DRILL file {KiCad 5.0.0-fee4fd1~66~ubuntu18.04.1} date Sun Sep 16 18:32:09 2018
;FORMAT={-:-/ absolute / metric / decimal}
FMAT,2
METRIC,TZ
T1C0.300
T2C0.700
T3C0.991
T4C1.000
T5C1.016
T6C1.100
T7C1.499
T8C1.702
T9C3.200
T10C1.100
T11C3.988
%
G90
G05
M71
T1
X53.53Y-79.08
X76.697Y-71.
X85.606Y-97.969
X105.684Y-74.496
X109.049Y-62.178
X111.626Y-93.96
X112.114Y-71.778
X112.884Y-73.521
X120.286Y-78.236
X125.51Y-62.311
X127.13Y-74.08
X131.61Y-77.51
X139.472Y-51.072
X142.231Y-62.805
X144.99Y-30.07
X158.561Y-57.142
X161.82Y-55.82
X164.19Y-30.56
X164.25Y-32.61
X168.101Y-65.161
X169.742Y-58.684
X170.254Y-142.403
X180.94Y-71.1
X181.3Y-62.3
X183.94Y-57.86
X189.26Y-79.65
X192.017Y-83.056
X194.771Y-74.108
T2
X119.35Y-57.431
X127.15Y-57.431
X147.84Y-139.752
X155.522Y-141.106
X62.2Y-62.194
X70.Y-62.194
X43.15Y-43.144
X50.95Y-43.144
X100.3Y-55.05
X108.1Y-55.05
X81.25Y-76.481
X89.05Y-76.481
X119.35Y-76.481
X127.15Y-76.481
X157.45Y-43.144
X165.25Y-43.144
X173.216Y-105.539
X180.898Y-106.893
X62.2Y-43.144
X70.Y-43.144
X100.3Y-74.1
X108.1Y-74.1
X81.25Y-138.394
X89.05Y-138.394
X166.6Y-143.06
X174.282Y-144.414
X43.15Y-100.294
X50.95Y-100.294
X100.3Y-93.15
X108.1Y-93.15
X100.3Y-36.
X108.1Y-36.
X138.4Y-59.812
X146.2Y-59.812
X138.4Y-40.762
X146.2Y-40.762
X157.45Y-62.194
X165.25Y-62.194
X62.2Y-81.244
X70.Y-81.244
X151.148Y-120.992
X158.83Y-122.346
X43.15Y-138.394
X50.95Y-138.394
X43.15Y-81.244
X50.95Y-81.244
X138.4Y-78.862
X146.2Y-78.862
X62.2Y-138.394
X70.Y-138.394
X81.25Y-95.531
X89.05Y-95.531
X62.2Y-100.294
X70.Y-100.294
X62.2Y-119.344
X70.Y-119.344
X157.45Y-81.244
X165.25Y-81.244
X43.15Y-62.194
X50.95Y-62.194
X119.35Y-38.381
X127.15Y-38.381
X119.35Y-95.531
X127.15Y-95.531
X138.4Y-97.912
X146.2Y-97.912
X81.25Y-38.381
X89.05Y-38.381
X169.908Y-124.3
X177.59Y-125.654
X81.25Y-57.431
X89.05Y-57.431
T3
X171.84Y-43.11
X171.84Y-45.65
X171.84Y-48.19
X171.84Y-50.73
X171.84Y-53.27
X171.84Y-55.81
X171.84Y-58.35
X171.84Y-60.89
X171.84Y-63.43
X171.84Y-65.97
X171.84Y-68.51
X171.84Y-71.05
X192.16Y-32.95
X192.16Y-35.49
X192.16Y-38.03
X192.16Y-40.57
X192.16Y-43.11
X192.16Y-45.65
X192.16Y-48.19
X192.16Y-50.73
X192.16Y-53.27
X192.16Y-55.81
X192.16Y-58.35
X192.16Y-60.89
X192.16Y-63.43
X192.16Y-65.97
X192.16Y-68.51
X192.16Y-71.05
T4
X110.911Y-30.462
X111.Y-33.
X113.45Y-30.373
X113.538Y-32.911
X115.988Y-30.284
X116.077Y-32.823
X118.527Y-30.196
X118.615Y-32.734
X121.065Y-30.107
X121.154Y-32.645
X123.604Y-30.018
X123.692Y-32.557
X126.142Y-29.93
X126.231Y-32.468
X128.681Y-29.841
X128.769Y-32.379
X131.219Y-29.752
X131.308Y-32.291
X133.757Y-29.664
X133.846Y-32.202
X136.296Y-29.575
X136.385Y-32.114
X138.834Y-29.486
X138.923Y-32.025
X112.73Y-133.19
X112.73Y-135.73
X112.73Y-138.27
X112.73Y-140.81
X115.27Y-133.19
X115.27Y-135.73
X115.27Y-138.27
X115.27Y-140.81
T5
X174.35Y-47.04
X174.35Y-49.58
X174.35Y-52.12
X174.35Y-54.66
X174.35Y-59.74
X174.35Y-62.28
X174.35Y-64.82
X174.35Y-67.36
X175.62Y-39.42
X178.16Y-39.42
X180.7Y-39.42
X183.24Y-39.42
X185.78Y-39.42
X188.32Y-39.42
X189.59Y-47.04
X189.59Y-49.58
X189.59Y-52.12
X189.59Y-54.66
X189.59Y-59.74
X189.59Y-62.28
X189.59Y-64.82
X189.59Y-67.36
T6
X150.4Y-32.9
X152.4Y-36.
X155.6Y-36.
X157.6Y-32.9
T7
X95.865Y-61.035
X97.135Y-58.495
X102.215Y-58.495
X103.485Y-61.035
X145.741Y-126.115
X147.433Y-123.834
X152.436Y-124.716
X153.245Y-127.438
X76.815Y-44.366
X78.085Y-41.826
X83.165Y-41.826
X84.435Y-44.366
X114.915Y-101.516
X116.185Y-98.976
X121.265Y-98.976
X122.535Y-101.516
X57.765Y-87.229
X59.035Y-84.689
X64.115Y-84.689
X65.385Y-87.229
X38.715Y-87.229
X39.985Y-84.689
X45.065Y-84.689
X46.335Y-87.229
X153.015Y-87.229
X154.285Y-84.689
X159.365Y-84.689
X160.635Y-87.229
X76.815Y-144.379
X78.085Y-141.839
X83.165Y-141.839
X84.435Y-144.379
X76.815Y-63.416
X78.085Y-60.876
X83.165Y-60.876
X84.435Y-63.416
X142.433Y-144.876
X144.125Y-142.595
X149.128Y-143.477
X149.937Y-146.199
X76.815Y-82.466
X78.085Y-79.926
X83.165Y-79.926
X84.435Y-82.466
X38.715Y-144.379
X39.985Y-141.839
X45.065Y-141.839
X46.335Y-144.379
X114.915Y-44.366
X116.185Y-41.826
X121.265Y-41.826
X122.535Y-44.366
X57.765Y-144.379
X59.035Y-141.839
X64.115Y-141.839
X65.385Y-144.379
X133.965Y-65.797
X135.235Y-63.258
X140.315Y-63.258
X141.585Y-65.797
X38.715Y-49.129
X39.985Y-46.589
X45.065Y-46.589
X46.335Y-49.129
X57.765Y-106.279
X59.035Y-103.739
X64.115Y-103.739
X65.385Y-106.279
X38.715Y-68.179
X39.985Y-65.639
X45.065Y-65.639
X46.335Y-68.179
X133.965Y-46.747
X135.235Y-44.207
X140.315Y-44.207
X141.585Y-46.747
X167.81Y-110.663
X169.502Y-108.382
X174.505Y-109.264
X175.314Y-111.986
X95.865Y-80.085
X97.135Y-77.545
X102.215Y-77.545
X103.485Y-80.085
X57.765Y-49.129
X59.035Y-46.589
X64.115Y-46.589
X65.385Y-49.129
X57.765Y-68.179
X59.035Y-65.639
X64.115Y-65.639
X65.385Y-68.179
X133.965Y-103.898
X135.235Y-101.358
X140.315Y-101.358
X141.585Y-103.898
X153.015Y-68.179
X154.285Y-65.639
X159.365Y-65.639
X160.635Y-68.179
X114.915Y-82.466
X116.185Y-79.926
X121.265Y-79.926
X122.535Y-82.466
X153.015Y-49.129
X154.285Y-46.589
X159.365Y-46.589
X160.635Y-49.129
X95.865Y-41.985
X97.135Y-39.445
X102.215Y-39.445
X103.485Y-41.985
X38.715Y-106.279
X39.985Y-103.739
X45.065Y-103.739
X46.335Y-106.279
X133.965Y-84.847
X135.235Y-82.307
X140.315Y-82.307
X141.585Y-84.847
X76.815Y-101.516
X78.085Y-98.976
X83.165Y-98.976
X84.435Y-101.516
X95.865Y-99.135
X97.135Y-96.595
X102.215Y-96.595
X103.485Y-99.135
X57.765Y-125.329
X59.035Y-122.789
X64.115Y-122.789
X65.385Y-125.329
X114.915Y-63.416
X116.185Y-60.876
X121.265Y-60.876
X122.535Y-63.416
X161.194Y-148.184
X162.886Y-145.903
X167.889Y-146.785
X168.698Y-149.507
X164.502Y-129.423
X166.194Y-127.142
X171.197Y-128.024
X172.006Y-130.746
T8
X56.495Y-146.919
X66.655Y-146.919
X132.695Y-68.337
X142.855Y-68.337
X37.445Y-51.669
X47.605Y-51.669
X56.495Y-108.819
X66.655Y-108.819
X37.445Y-70.719
X47.605Y-70.719
X132.695Y-49.287
X142.855Y-49.287
X166.118Y-112.944
X176.124Y-114.708
X94.595Y-82.625
X104.755Y-82.625
X56.495Y-51.669
X66.655Y-51.669
X56.495Y-70.719
X66.655Y-70.719
X132.695Y-106.438
X142.855Y-106.438
X151.745Y-70.719
X161.905Y-70.719
X113.645Y-85.006
X123.805Y-85.006
X151.745Y-51.669
X161.905Y-51.669
X94.595Y-44.525
X104.755Y-44.525
X37.445Y-108.819
X47.605Y-108.819
X132.695Y-87.388
X142.855Y-87.388
X75.545Y-104.056
X85.705Y-104.056
X94.595Y-101.675
X104.755Y-101.675
X56.495Y-127.869
X66.655Y-127.869
X113.645Y-65.956
X123.805Y-65.956
X159.502Y-150.465
X169.508Y-152.229
X162.81Y-131.704
X172.816Y-133.468
X94.595Y-63.575
X104.755Y-63.575
X144.049Y-128.396
X154.055Y-130.16
X75.545Y-46.906
X85.705Y-46.906
X113.645Y-104.056
X123.805Y-104.056
X56.495Y-89.769
X66.655Y-89.769
X37.445Y-89.769
X47.605Y-89.769
X151.745Y-89.769
X161.905Y-89.769
X75.545Y-146.919
X85.705Y-146.919
X75.545Y-65.956
X85.705Y-65.956
X140.741Y-147.157
X150.747Y-148.921
X75.545Y-85.006
X85.705Y-85.006
X37.445Y-146.919
X47.605Y-146.919
X113.645Y-46.906
X123.805Y-46.906
T9
X196.5Y-84.291
X102.061Y-165.141
X196.5Y-28.602
X27.5Y-99.386
X176.622Y-168.446
X27.5Y-161.835
X86.957Y-29.505
X27.5Y-36.937
T10
X154.Y-27.9
X154.Y-32.9
T11
X156.825Y-70.719
X118.725Y-85.006
X156.825Y-51.669
X99.675Y-44.525
X42.525Y-108.819
X137.775Y-87.388
X80.625Y-104.056
X99.675Y-101.675
X61.575Y-127.869
X118.725Y-65.956
X164.505Y-151.347
X167.813Y-132.586
X99.675Y-63.575
X149.052Y-129.278
X80.625Y-46.906
X118.725Y-104.056
X61.575Y-89.769
X42.525Y-89.769
X156.825Y-89.769
X80.625Y-146.919
X80.625Y-65.956
X145.744Y-148.039
X80.625Y-85.006
X42.525Y-146.919
X118.725Y-46.906
X61.575Y-146.919
X137.775Y-68.337
X42.525Y-51.669
X61.575Y-108.819
X42.525Y-70.719
X137.775Y-49.287
X171.121Y-113.826
X99.675Y-82.625
X61.575Y-51.669
X61.575Y-70.719
X137.775Y-106.438
T6
X149.5Y-27.9G85X149.2Y-27.9
G05
X158.8Y-27.9G85X158.5Y-27.9
G05
T0
M30
