G04 #@! TF.GenerationSoftware,KiCad,Pcbnew,5.0.0-fee4fd1~66~ubuntu18.04.1*
G04 #@! TF.CreationDate,2018-09-16T18:32:03-07:00*
G04 #@! TF.ProjectId,halfdeck,68616C666465636B2E6B696361645F70,c1293dc*
G04 #@! TF.SameCoordinates,Original*
G04 #@! TF.FileFunction,Legend,Bot*
G04 #@! TF.FilePolarity,Positive*
%FSLAX46Y46*%
G04 Gerber Fmt 4.6, Leading zero omitted, Abs format (unit mm)*
G04 Created by KiCad (PCBNEW 5.0.0-fee4fd1~66~ubuntu18.04.1) date Sun Sep 16 18:32:03 2018*
%MOMM*%
%LPD*%
G01*
G04 APERTURE LIST*
%ADD10C,0.120000*%
%ADD11C,0.150000*%
%ADD12C,0.381000*%
%ADD13C,0.200000*%
%ADD14C,0.100000*%
%ADD15C,0.250000*%
%ADD16C,0.254000*%
G04 APERTURE END LIST*
D10*
G04 #@! TO.C,J5*
X115270000Y-131860000D02*
X116600000Y-131860000D01*
X116600000Y-135670000D02*
X116600000Y-137000000D01*
X114000000Y-131860000D02*
X114000000Y-134460000D01*
X114000000Y-134460000D02*
X116600000Y-134460000D01*
X116600000Y-134460000D02*
X116600000Y-142140000D01*
X111400000Y-142140000D02*
X116600000Y-142140000D01*
X111400000Y-131860000D02*
X111400000Y-142140000D01*
X111400000Y-131860000D02*
X114000000Y-131860000D01*
D11*
X135930000Y-137000000D02*
G75*
G03X135930000Y-137000000I-21930000J0D01*
G01*
X134000000Y-137000000D02*
G75*
G03X134000000Y-137000000I-20000000J0D01*
G01*
G36*
X137000000Y-135450000D02*
X133000000Y-135450000D01*
X133000000Y-138550000D01*
X137000000Y-138550000D01*
X137000000Y-135450000D01*
G37*
X137000000Y-135450000D02*
X133000000Y-135450000D01*
X133000000Y-138550000D01*
X137000000Y-138550000D01*
X137000000Y-135450000D01*
G04 #@! TO.C,U1*
X170570000Y-26600000D02*
X193430000Y-26600000D01*
X193430000Y-26600000D02*
X193430000Y-77400000D01*
X193430000Y-77400000D02*
X170570000Y-77400000D01*
X170570000Y-77400000D02*
X170570000Y-26600000D01*
G04 #@! TO.C,SW00*
X33025000Y-42168800D02*
X52025000Y-42168800D01*
X52025000Y-42168800D02*
X52025000Y-61168800D01*
X52025000Y-61168800D02*
X33025000Y-61168800D01*
X33025000Y-61168800D02*
X33025000Y-42168800D01*
D12*
X36175000Y-45318800D02*
X37953000Y-45318800D01*
X47097000Y-45318800D02*
X48875000Y-45318800D01*
X48875000Y-45318800D02*
X48875000Y-47096800D01*
X48875000Y-56240800D02*
X48875000Y-58018800D01*
X48875000Y-58018800D02*
X47097000Y-58018800D01*
X37953000Y-58018800D02*
X36175000Y-58018800D01*
X36175000Y-58018800D02*
X36175000Y-56240800D01*
X36175000Y-47096800D02*
X36175000Y-45318800D01*
D13*
G04 #@! TO.C,D00*
X49225000Y-41933208D02*
X49225000Y-44333208D01*
X44250000Y-41933208D02*
X44250000Y-44333208D01*
X44250000Y-44333208D02*
X49850000Y-44333208D01*
X49850000Y-41933208D02*
X49850000Y-44333208D01*
X49125000Y-41933208D02*
X49125000Y-44333208D01*
X49325000Y-41933208D02*
X49325000Y-44333208D01*
X49850000Y-41933208D02*
X44250000Y-41933208D01*
X49500000Y-41933208D02*
X49500000Y-44333208D01*
X49675000Y-41933208D02*
X49675000Y-44333208D01*
D11*
G04 #@! TO.C,SW01*
X71125000Y-75506200D02*
X90125000Y-75506200D01*
X90125000Y-75506200D02*
X90125000Y-94506200D01*
X90125000Y-94506200D02*
X71125000Y-94506200D01*
X71125000Y-94506200D02*
X71125000Y-75506200D01*
D12*
X74275000Y-78656200D02*
X76053000Y-78656200D01*
X85197000Y-78656200D02*
X86975000Y-78656200D01*
X86975000Y-78656200D02*
X86975000Y-80434200D01*
X86975000Y-89578200D02*
X86975000Y-91356200D01*
X86975000Y-91356200D02*
X85197000Y-91356200D01*
X76053000Y-91356200D02*
X74275000Y-91356200D01*
X74275000Y-91356200D02*
X74275000Y-89578200D01*
X74275000Y-80434200D02*
X74275000Y-78656200D01*
D13*
G04 #@! TO.C,D01*
X87325000Y-75270608D02*
X87325000Y-77670608D01*
X82350000Y-75270608D02*
X82350000Y-77670608D01*
X82350000Y-77670608D02*
X87950000Y-77670608D01*
X87950000Y-75270608D02*
X87950000Y-77670608D01*
X87225000Y-75270608D02*
X87225000Y-77670608D01*
X87425000Y-75270608D02*
X87425000Y-77670608D01*
X87950000Y-75270608D02*
X82350000Y-75270608D01*
X87600000Y-75270608D02*
X87600000Y-77670608D01*
X87775000Y-75270608D02*
X87775000Y-77670608D01*
D11*
G04 #@! TO.C,SW02*
X90175000Y-35025000D02*
X109175000Y-35025000D01*
X109175000Y-35025000D02*
X109175000Y-54025000D01*
X109175000Y-54025000D02*
X90175000Y-54025000D01*
X90175000Y-54025000D02*
X90175000Y-35025000D01*
D12*
X93325000Y-38175000D02*
X95103000Y-38175000D01*
X104247000Y-38175000D02*
X106025000Y-38175000D01*
X106025000Y-38175000D02*
X106025000Y-39953000D01*
X106025000Y-49097000D02*
X106025000Y-50875000D01*
X106025000Y-50875000D02*
X104247000Y-50875000D01*
X95103000Y-50875000D02*
X93325000Y-50875000D01*
X93325000Y-50875000D02*
X93325000Y-49097000D01*
X93325000Y-39953000D02*
X93325000Y-38175000D01*
D13*
G04 #@! TO.C,D02*
X106375000Y-34789408D02*
X106375000Y-37189408D01*
X101400000Y-34789408D02*
X101400000Y-37189408D01*
X101400000Y-37189408D02*
X107000000Y-37189408D01*
X107000000Y-34789408D02*
X107000000Y-37189408D01*
X106275000Y-34789408D02*
X106275000Y-37189408D01*
X106475000Y-34789408D02*
X106475000Y-37189408D01*
X107000000Y-34789408D02*
X101400000Y-34789408D01*
X106650000Y-34789408D02*
X106650000Y-37189408D01*
X106825000Y-34789408D02*
X106825000Y-37189408D01*
D11*
G04 #@! TO.C,SW03*
X33025000Y-99319000D02*
X52025000Y-99319000D01*
X52025000Y-99319000D02*
X52025000Y-118319000D01*
X52025000Y-118319000D02*
X33025000Y-118319000D01*
X33025000Y-118319000D02*
X33025000Y-99319000D01*
D12*
X36175000Y-102469000D02*
X37953000Y-102469000D01*
X47097000Y-102469000D02*
X48875000Y-102469000D01*
X48875000Y-102469000D02*
X48875000Y-104247000D01*
X48875000Y-113391000D02*
X48875000Y-115169000D01*
X48875000Y-115169000D02*
X47097000Y-115169000D01*
X37953000Y-115169000D02*
X36175000Y-115169000D01*
X36175000Y-115169000D02*
X36175000Y-113391000D01*
X36175000Y-104247000D02*
X36175000Y-102469000D01*
D13*
G04 #@! TO.C,D03*
X49225000Y-99083408D02*
X49225000Y-101483408D01*
X44250000Y-99083408D02*
X44250000Y-101483408D01*
X44250000Y-101483408D02*
X49850000Y-101483408D01*
X49850000Y-99083408D02*
X49850000Y-101483408D01*
X49125000Y-99083408D02*
X49125000Y-101483408D01*
X49325000Y-99083408D02*
X49325000Y-101483408D01*
X49850000Y-99083408D02*
X44250000Y-99083408D01*
X49500000Y-99083408D02*
X49500000Y-101483408D01*
X49675000Y-99083408D02*
X49675000Y-101483408D01*
D11*
G04 #@! TO.C,SW04*
X128275000Y-39787500D02*
X147275000Y-39787500D01*
X147275000Y-39787500D02*
X147275000Y-58787500D01*
X147275000Y-58787500D02*
X128275000Y-58787500D01*
X128275000Y-58787500D02*
X128275000Y-39787500D01*
D12*
X131425000Y-42937500D02*
X133203000Y-42937500D01*
X142347000Y-42937500D02*
X144125000Y-42937500D01*
X144125000Y-42937500D02*
X144125000Y-44715500D01*
X144125000Y-53859500D02*
X144125000Y-55637500D01*
X144125000Y-55637500D02*
X142347000Y-55637500D01*
X133203000Y-55637500D02*
X131425000Y-55637500D01*
X131425000Y-55637500D02*
X131425000Y-53859500D01*
X131425000Y-44715500D02*
X131425000Y-42937500D01*
D13*
G04 #@! TO.C,D04*
X144475000Y-39551908D02*
X144475000Y-41951908D01*
X139500000Y-39551908D02*
X139500000Y-41951908D01*
X139500000Y-41951908D02*
X145100000Y-41951908D01*
X145100000Y-39551908D02*
X145100000Y-41951908D01*
X144375000Y-39551908D02*
X144375000Y-41951908D01*
X144575000Y-39551908D02*
X144575000Y-41951908D01*
X145100000Y-39551908D02*
X139500000Y-39551908D01*
X144750000Y-39551908D02*
X144750000Y-41951908D01*
X144925000Y-39551908D02*
X144925000Y-41951908D01*
D11*
G04 #@! TO.C,SW05*
X128275000Y-96938000D02*
X147275000Y-96938000D01*
X147275000Y-96938000D02*
X147275000Y-115938000D01*
X147275000Y-115938000D02*
X128275000Y-115938000D01*
X128275000Y-115938000D02*
X128275000Y-96938000D01*
D12*
X131425000Y-100088000D02*
X133203000Y-100088000D01*
X142347000Y-100088000D02*
X144125000Y-100088000D01*
X144125000Y-100088000D02*
X144125000Y-101866000D01*
X144125000Y-111010000D02*
X144125000Y-112788000D01*
X144125000Y-112788000D02*
X142347000Y-112788000D01*
X133203000Y-112788000D02*
X131425000Y-112788000D01*
X131425000Y-112788000D02*
X131425000Y-111010000D01*
X131425000Y-101866000D02*
X131425000Y-100088000D01*
D13*
G04 #@! TO.C,D05*
X144475000Y-96701908D02*
X144475000Y-99101908D01*
X139500000Y-96701908D02*
X139500000Y-99101908D01*
X139500000Y-99101908D02*
X145100000Y-99101908D01*
X145100000Y-96701908D02*
X145100000Y-99101908D01*
X144375000Y-96701908D02*
X144375000Y-99101908D01*
X144575000Y-96701908D02*
X144575000Y-99101908D01*
X145100000Y-96701908D02*
X139500000Y-96701908D01*
X144750000Y-96701908D02*
X144750000Y-99101908D01*
X144925000Y-96701908D02*
X144925000Y-99101908D01*
D11*
G04 #@! TO.C,SW10*
X52075000Y-42168800D02*
X71075000Y-42168800D01*
X71075000Y-42168800D02*
X71075000Y-61168800D01*
X71075000Y-61168800D02*
X52075000Y-61168800D01*
X52075000Y-61168800D02*
X52075000Y-42168800D01*
D12*
X55225000Y-45318800D02*
X57003000Y-45318800D01*
X66147000Y-45318800D02*
X67925000Y-45318800D01*
X67925000Y-45318800D02*
X67925000Y-47096800D01*
X67925000Y-56240800D02*
X67925000Y-58018800D01*
X67925000Y-58018800D02*
X66147000Y-58018800D01*
X57003000Y-58018800D02*
X55225000Y-58018800D01*
X55225000Y-58018800D02*
X55225000Y-56240800D01*
X55225000Y-47096800D02*
X55225000Y-45318800D01*
D13*
G04 #@! TO.C,D10*
X68275000Y-41933208D02*
X68275000Y-44333208D01*
X63300000Y-41933208D02*
X63300000Y-44333208D01*
X63300000Y-44333208D02*
X68900000Y-44333208D01*
X68900000Y-41933208D02*
X68900000Y-44333208D01*
X68175000Y-41933208D02*
X68175000Y-44333208D01*
X68375000Y-41933208D02*
X68375000Y-44333208D01*
X68900000Y-41933208D02*
X63300000Y-41933208D01*
X68550000Y-41933208D02*
X68550000Y-44333208D01*
X68725000Y-41933208D02*
X68725000Y-44333208D01*
D11*
G04 #@! TO.C,SW11*
X71125000Y-56456200D02*
X90125000Y-56456200D01*
X90125000Y-56456200D02*
X90125000Y-75456200D01*
X90125000Y-75456200D02*
X71125000Y-75456200D01*
X71125000Y-75456200D02*
X71125000Y-56456200D01*
D12*
X74275000Y-59606200D02*
X76053000Y-59606200D01*
X85197000Y-59606200D02*
X86975000Y-59606200D01*
X86975000Y-59606200D02*
X86975000Y-61384200D01*
X86975000Y-70528200D02*
X86975000Y-72306200D01*
X86975000Y-72306200D02*
X85197000Y-72306200D01*
X76053000Y-72306200D02*
X74275000Y-72306200D01*
X74275000Y-72306200D02*
X74275000Y-70528200D01*
X74275000Y-61384200D02*
X74275000Y-59606200D01*
D13*
G04 #@! TO.C,D11*
X87325000Y-56220608D02*
X87325000Y-58620608D01*
X82350000Y-56220608D02*
X82350000Y-58620608D01*
X82350000Y-58620608D02*
X87950000Y-58620608D01*
X87950000Y-56220608D02*
X87950000Y-58620608D01*
X87225000Y-56220608D02*
X87225000Y-58620608D01*
X87425000Y-56220608D02*
X87425000Y-58620608D01*
X87950000Y-56220608D02*
X82350000Y-56220608D01*
X87600000Y-56220608D02*
X87600000Y-58620608D01*
X87775000Y-56220608D02*
X87775000Y-58620608D01*
D11*
G04 #@! TO.C,SW12*
X90175000Y-54075000D02*
X109175000Y-54075000D01*
X109175000Y-54075000D02*
X109175000Y-73075000D01*
X109175000Y-73075000D02*
X90175000Y-73075000D01*
X90175000Y-73075000D02*
X90175000Y-54075000D01*
D12*
X93325000Y-57225000D02*
X95103000Y-57225000D01*
X104247000Y-57225000D02*
X106025000Y-57225000D01*
X106025000Y-57225000D02*
X106025000Y-59003000D01*
X106025000Y-68147000D02*
X106025000Y-69925000D01*
X106025000Y-69925000D02*
X104247000Y-69925000D01*
X95103000Y-69925000D02*
X93325000Y-69925000D01*
X93325000Y-69925000D02*
X93325000Y-68147000D01*
X93325000Y-59003000D02*
X93325000Y-57225000D01*
D13*
G04 #@! TO.C,D12*
X106375000Y-53839408D02*
X106375000Y-56239408D01*
X101400000Y-53839408D02*
X101400000Y-56239408D01*
X101400000Y-56239408D02*
X107000000Y-56239408D01*
X107000000Y-53839408D02*
X107000000Y-56239408D01*
X106275000Y-53839408D02*
X106275000Y-56239408D01*
X106475000Y-53839408D02*
X106475000Y-56239408D01*
X107000000Y-53839408D02*
X101400000Y-53839408D01*
X106650000Y-53839408D02*
X106650000Y-56239408D01*
X106825000Y-53839408D02*
X106825000Y-56239408D01*
D11*
G04 #@! TO.C,SW13*
X52075000Y-99319000D02*
X71075000Y-99319000D01*
X71075000Y-99319000D02*
X71075000Y-118319000D01*
X71075000Y-118319000D02*
X52075000Y-118319000D01*
X52075000Y-118319000D02*
X52075000Y-99319000D01*
D12*
X55225000Y-102469000D02*
X57003000Y-102469000D01*
X66147000Y-102469000D02*
X67925000Y-102469000D01*
X67925000Y-102469000D02*
X67925000Y-104247000D01*
X67925000Y-113391000D02*
X67925000Y-115169000D01*
X67925000Y-115169000D02*
X66147000Y-115169000D01*
X57003000Y-115169000D02*
X55225000Y-115169000D01*
X55225000Y-115169000D02*
X55225000Y-113391000D01*
X55225000Y-104247000D02*
X55225000Y-102469000D01*
D13*
G04 #@! TO.C,D13*
X68275000Y-99083408D02*
X68275000Y-101483408D01*
X63300000Y-99083408D02*
X63300000Y-101483408D01*
X63300000Y-101483408D02*
X68900000Y-101483408D01*
X68900000Y-99083408D02*
X68900000Y-101483408D01*
X68175000Y-99083408D02*
X68175000Y-101483408D01*
X68375000Y-99083408D02*
X68375000Y-101483408D01*
X68900000Y-99083408D02*
X63300000Y-99083408D01*
X68550000Y-99083408D02*
X68550000Y-101483408D01*
X68725000Y-99083408D02*
X68725000Y-101483408D01*
D11*
G04 #@! TO.C,SW14*
X128275000Y-58837500D02*
X147275000Y-58837500D01*
X147275000Y-58837500D02*
X147275000Y-77837500D01*
X147275000Y-77837500D02*
X128275000Y-77837500D01*
X128275000Y-77837500D02*
X128275000Y-58837500D01*
D12*
X131425000Y-61987500D02*
X133203000Y-61987500D01*
X142347000Y-61987500D02*
X144125000Y-61987500D01*
X144125000Y-61987500D02*
X144125000Y-63765500D01*
X144125000Y-72909500D02*
X144125000Y-74687500D01*
X144125000Y-74687500D02*
X142347000Y-74687500D01*
X133203000Y-74687500D02*
X131425000Y-74687500D01*
X131425000Y-74687500D02*
X131425000Y-72909500D01*
X131425000Y-63765500D02*
X131425000Y-61987500D01*
D13*
G04 #@! TO.C,D14*
X144475000Y-58601908D02*
X144475000Y-61001908D01*
X139500000Y-58601908D02*
X139500000Y-61001908D01*
X139500000Y-61001908D02*
X145100000Y-61001908D01*
X145100000Y-58601908D02*
X145100000Y-61001908D01*
X144375000Y-58601908D02*
X144375000Y-61001908D01*
X144575000Y-58601908D02*
X144575000Y-61001908D01*
X145100000Y-58601908D02*
X139500000Y-58601908D01*
X144750000Y-58601908D02*
X144750000Y-61001908D01*
X144925000Y-58601908D02*
X144925000Y-61001908D01*
D11*
G04 #@! TO.C,SW15*
X141345984Y-118272669D02*
X160057331Y-121571984D01*
X160057331Y-121571984D02*
X156758016Y-140283331D01*
X156758016Y-140283331D02*
X138046669Y-136984016D01*
X138046669Y-136984016D02*
X141345984Y-118272669D01*
D12*
X143901137Y-121921805D02*
X145652125Y-122230551D01*
X154657207Y-123818390D02*
X156408195Y-124127137D01*
X156408195Y-124127137D02*
X156099449Y-125878125D01*
X154511610Y-134883207D02*
X154202863Y-136634195D01*
X154202863Y-136634195D02*
X152451875Y-136325449D01*
X143446793Y-134737610D02*
X141695805Y-134428863D01*
X141695805Y-134428863D02*
X142004551Y-132677875D01*
X143592390Y-123672793D02*
X143901137Y-121921805D01*
D13*
G04 #@! TO.C,D15*
X157341174Y-120854484D02*
X156924418Y-123218023D01*
X152441755Y-119990585D02*
X152025000Y-122354123D01*
X152025000Y-122354123D02*
X157539923Y-123326553D01*
X157956679Y-120963015D02*
X157539923Y-123326553D01*
X157242693Y-120837120D02*
X156825938Y-123200658D01*
X157439655Y-120871849D02*
X157022899Y-123235388D01*
X157956679Y-120963015D02*
X152441755Y-119990585D01*
X157611996Y-120902238D02*
X157195240Y-123265776D01*
X157784337Y-120932626D02*
X157367582Y-123296165D01*
D11*
G04 #@! TO.C,SW20*
X52075000Y-61218800D02*
X71075000Y-61218800D01*
X71075000Y-61218800D02*
X71075000Y-80218800D01*
X71075000Y-80218800D02*
X52075000Y-80218800D01*
X52075000Y-80218800D02*
X52075000Y-61218800D01*
D12*
X55225000Y-64368800D02*
X57003000Y-64368800D01*
X66147000Y-64368800D02*
X67925000Y-64368800D01*
X67925000Y-64368800D02*
X67925000Y-66146800D01*
X67925000Y-75290800D02*
X67925000Y-77068800D01*
X67925000Y-77068800D02*
X66147000Y-77068800D01*
X57003000Y-77068800D02*
X55225000Y-77068800D01*
X55225000Y-77068800D02*
X55225000Y-75290800D01*
X55225000Y-66146800D02*
X55225000Y-64368800D01*
D13*
G04 #@! TO.C,D20*
X68275000Y-60983208D02*
X68275000Y-63383208D01*
X63300000Y-60983208D02*
X63300000Y-63383208D01*
X63300000Y-63383208D02*
X68900000Y-63383208D01*
X68900000Y-60983208D02*
X68900000Y-63383208D01*
X68175000Y-60983208D02*
X68175000Y-63383208D01*
X68375000Y-60983208D02*
X68375000Y-63383208D01*
X68900000Y-60983208D02*
X63300000Y-60983208D01*
X68550000Y-60983208D02*
X68550000Y-63383208D01*
X68725000Y-60983208D02*
X68725000Y-63383208D01*
D11*
G04 #@! TO.C,SW21*
X90175000Y-73125000D02*
X109175000Y-73125000D01*
X109175000Y-73125000D02*
X109175000Y-92125000D01*
X109175000Y-92125000D02*
X90175000Y-92125000D01*
X90175000Y-92125000D02*
X90175000Y-73125000D01*
D12*
X93325000Y-76275000D02*
X95103000Y-76275000D01*
X104247000Y-76275000D02*
X106025000Y-76275000D01*
X106025000Y-76275000D02*
X106025000Y-78053000D01*
X106025000Y-87197000D02*
X106025000Y-88975000D01*
X106025000Y-88975000D02*
X104247000Y-88975000D01*
X95103000Y-88975000D02*
X93325000Y-88975000D01*
X93325000Y-88975000D02*
X93325000Y-87197000D01*
X93325000Y-78053000D02*
X93325000Y-76275000D01*
D13*
G04 #@! TO.C,D21*
X106375000Y-72889408D02*
X106375000Y-75289408D01*
X101400000Y-72889408D02*
X101400000Y-75289408D01*
X101400000Y-75289408D02*
X107000000Y-75289408D01*
X107000000Y-72889408D02*
X107000000Y-75289408D01*
X106275000Y-72889408D02*
X106275000Y-75289408D01*
X106475000Y-72889408D02*
X106475000Y-75289408D01*
X107000000Y-72889408D02*
X101400000Y-72889408D01*
X106650000Y-72889408D02*
X106650000Y-75289408D01*
X106825000Y-72889408D02*
X106825000Y-75289408D01*
D11*
G04 #@! TO.C,SW22*
X109225000Y-56456200D02*
X128225000Y-56456200D01*
X128225000Y-56456200D02*
X128225000Y-75456200D01*
X128225000Y-75456200D02*
X109225000Y-75456200D01*
X109225000Y-75456200D02*
X109225000Y-56456200D01*
D12*
X112375000Y-59606200D02*
X114153000Y-59606200D01*
X123297000Y-59606200D02*
X125075000Y-59606200D01*
X125075000Y-59606200D02*
X125075000Y-61384200D01*
X125075000Y-70528200D02*
X125075000Y-72306200D01*
X125075000Y-72306200D02*
X123297000Y-72306200D01*
X114153000Y-72306200D02*
X112375000Y-72306200D01*
X112375000Y-72306200D02*
X112375000Y-70528200D01*
X112375000Y-61384200D02*
X112375000Y-59606200D01*
D13*
G04 #@! TO.C,D22*
X125425000Y-56220608D02*
X125425000Y-58620608D01*
X120450000Y-56220608D02*
X120450000Y-58620608D01*
X120450000Y-58620608D02*
X126050000Y-58620608D01*
X126050000Y-56220608D02*
X126050000Y-58620608D01*
X125325000Y-56220608D02*
X125325000Y-58620608D01*
X125525000Y-56220608D02*
X125525000Y-58620608D01*
X126050000Y-56220608D02*
X120450000Y-56220608D01*
X125700000Y-56220608D02*
X125700000Y-58620608D01*
X125875000Y-56220608D02*
X125875000Y-58620608D01*
D11*
G04 #@! TO.C,SW23*
X52075000Y-118369000D02*
X71075000Y-118369000D01*
X71075000Y-118369000D02*
X71075000Y-137369000D01*
X71075000Y-137369000D02*
X52075000Y-137369000D01*
X52075000Y-137369000D02*
X52075000Y-118369000D01*
D12*
X55225000Y-121519000D02*
X57003000Y-121519000D01*
X66147000Y-121519000D02*
X67925000Y-121519000D01*
X67925000Y-121519000D02*
X67925000Y-123297000D01*
X67925000Y-132441000D02*
X67925000Y-134219000D01*
X67925000Y-134219000D02*
X66147000Y-134219000D01*
X57003000Y-134219000D02*
X55225000Y-134219000D01*
X55225000Y-134219000D02*
X55225000Y-132441000D01*
X55225000Y-123297000D02*
X55225000Y-121519000D01*
D13*
G04 #@! TO.C,D23*
X68275000Y-118133408D02*
X68275000Y-120533408D01*
X63300000Y-118133408D02*
X63300000Y-120533408D01*
X63300000Y-120533408D02*
X68900000Y-120533408D01*
X68900000Y-118133408D02*
X68900000Y-120533408D01*
X68175000Y-118133408D02*
X68175000Y-120533408D01*
X68375000Y-118133408D02*
X68375000Y-120533408D01*
X68900000Y-118133408D02*
X63300000Y-118133408D01*
X68550000Y-118133408D02*
X68550000Y-120533408D01*
X68725000Y-118133408D02*
X68725000Y-120533408D01*
D11*
G04 #@! TO.C,SW24*
X128275000Y-77887500D02*
X147275000Y-77887500D01*
X147275000Y-77887500D02*
X147275000Y-96887500D01*
X147275000Y-96887500D02*
X128275000Y-96887500D01*
X128275000Y-96887500D02*
X128275000Y-77887500D01*
D12*
X131425000Y-81037500D02*
X133203000Y-81037500D01*
X142347000Y-81037500D02*
X144125000Y-81037500D01*
X144125000Y-81037500D02*
X144125000Y-82815500D01*
X144125000Y-91959500D02*
X144125000Y-93737500D01*
X144125000Y-93737500D02*
X142347000Y-93737500D01*
X133203000Y-93737500D02*
X131425000Y-93737500D01*
X131425000Y-93737500D02*
X131425000Y-91959500D01*
X131425000Y-82815500D02*
X131425000Y-81037500D01*
D13*
G04 #@! TO.C,D24*
X144475000Y-77651908D02*
X144475000Y-80051908D01*
X139500000Y-77651908D02*
X139500000Y-80051908D01*
X139500000Y-80051908D02*
X145100000Y-80051908D01*
X145100000Y-77651908D02*
X145100000Y-80051908D01*
X144375000Y-77651908D02*
X144375000Y-80051908D01*
X144575000Y-77651908D02*
X144575000Y-80051908D01*
X145100000Y-77651908D02*
X139500000Y-77651908D01*
X144750000Y-77651908D02*
X144750000Y-80051908D01*
X144925000Y-77651908D02*
X144925000Y-80051908D01*
D11*
G04 #@! TO.C,SW25*
X160106984Y-121580669D02*
X178818331Y-124879984D01*
X178818331Y-124879984D02*
X175519016Y-143591331D01*
X175519016Y-143591331D02*
X156807669Y-140292016D01*
X156807669Y-140292016D02*
X160106984Y-121580669D01*
D12*
X162662137Y-125229805D02*
X164413125Y-125538551D01*
X173418207Y-127126390D02*
X175169195Y-127435137D01*
X175169195Y-127435137D02*
X174860449Y-129186125D01*
X173272610Y-138191207D02*
X172963863Y-139942195D01*
X172963863Y-139942195D02*
X171212875Y-139633449D01*
X162207793Y-138045610D02*
X160456805Y-137736863D01*
X160456805Y-137736863D02*
X160765551Y-135985875D01*
X162353390Y-126980793D02*
X162662137Y-125229805D01*
D13*
G04 #@! TO.C,D25*
X176101174Y-124162484D02*
X175684418Y-126526023D01*
X171201755Y-123298585D02*
X170785000Y-125662123D01*
X170785000Y-125662123D02*
X176299923Y-126634553D01*
X176716679Y-124271015D02*
X176299923Y-126634553D01*
X176002693Y-124145120D02*
X175585938Y-126508658D01*
X176199655Y-124179849D02*
X175782899Y-126543388D01*
X176716679Y-124271015D02*
X171201755Y-123298585D01*
X176371996Y-124210238D02*
X175955240Y-126573776D01*
X176544337Y-124240626D02*
X176127582Y-126604165D01*
D11*
G04 #@! TO.C,SW30*
X33025000Y-61218800D02*
X52025000Y-61218800D01*
X52025000Y-61218800D02*
X52025000Y-80218800D01*
X52025000Y-80218800D02*
X33025000Y-80218800D01*
X33025000Y-80218800D02*
X33025000Y-61218800D01*
D12*
X36175000Y-64368800D02*
X37953000Y-64368800D01*
X47097000Y-64368800D02*
X48875000Y-64368800D01*
X48875000Y-64368800D02*
X48875000Y-66146800D01*
X48875000Y-75290800D02*
X48875000Y-77068800D01*
X48875000Y-77068800D02*
X47097000Y-77068800D01*
X37953000Y-77068800D02*
X36175000Y-77068800D01*
X36175000Y-77068800D02*
X36175000Y-75290800D01*
X36175000Y-66146800D02*
X36175000Y-64368800D01*
D13*
G04 #@! TO.C,D30*
X49225000Y-60983208D02*
X49225000Y-63383208D01*
X44250000Y-60983208D02*
X44250000Y-63383208D01*
X44250000Y-63383208D02*
X49850000Y-63383208D01*
X49850000Y-60983208D02*
X49850000Y-63383208D01*
X49125000Y-60983208D02*
X49125000Y-63383208D01*
X49325000Y-60983208D02*
X49325000Y-63383208D01*
X49850000Y-60983208D02*
X44250000Y-60983208D01*
X49500000Y-60983208D02*
X49500000Y-63383208D01*
X49675000Y-60983208D02*
X49675000Y-63383208D01*
D11*
G04 #@! TO.C,SW31*
X90175000Y-92175000D02*
X109175000Y-92175000D01*
X109175000Y-92175000D02*
X109175000Y-111175000D01*
X109175000Y-111175000D02*
X90175000Y-111175000D01*
X90175000Y-111175000D02*
X90175000Y-92175000D01*
D12*
X93325000Y-95325000D02*
X95103000Y-95325000D01*
X104247000Y-95325000D02*
X106025000Y-95325000D01*
X106025000Y-95325000D02*
X106025000Y-97103000D01*
X106025000Y-106247000D02*
X106025000Y-108025000D01*
X106025000Y-108025000D02*
X104247000Y-108025000D01*
X95103000Y-108025000D02*
X93325000Y-108025000D01*
X93325000Y-108025000D02*
X93325000Y-106247000D01*
X93325000Y-97103000D02*
X93325000Y-95325000D01*
D13*
G04 #@! TO.C,D31*
X106375000Y-91939408D02*
X106375000Y-94339408D01*
X101400000Y-91939408D02*
X101400000Y-94339408D01*
X101400000Y-94339408D02*
X107000000Y-94339408D01*
X107000000Y-91939408D02*
X107000000Y-94339408D01*
X106275000Y-91939408D02*
X106275000Y-94339408D01*
X106475000Y-91939408D02*
X106475000Y-94339408D01*
X107000000Y-91939408D02*
X101400000Y-91939408D01*
X106650000Y-91939408D02*
X106650000Y-94339408D01*
X106825000Y-91939408D02*
X106825000Y-94339408D01*
D11*
G04 #@! TO.C,SW32*
X109225000Y-75506200D02*
X128225000Y-75506200D01*
X128225000Y-75506200D02*
X128225000Y-94506200D01*
X128225000Y-94506200D02*
X109225000Y-94506200D01*
X109225000Y-94506200D02*
X109225000Y-75506200D01*
D12*
X112375000Y-78656200D02*
X114153000Y-78656200D01*
X123297000Y-78656200D02*
X125075000Y-78656200D01*
X125075000Y-78656200D02*
X125075000Y-80434200D01*
X125075000Y-89578200D02*
X125075000Y-91356200D01*
X125075000Y-91356200D02*
X123297000Y-91356200D01*
X114153000Y-91356200D02*
X112375000Y-91356200D01*
X112375000Y-91356200D02*
X112375000Y-89578200D01*
X112375000Y-80434200D02*
X112375000Y-78656200D01*
D13*
G04 #@! TO.C,D32*
X125425000Y-75270608D02*
X125425000Y-77670608D01*
X120450000Y-75270608D02*
X120450000Y-77670608D01*
X120450000Y-77670608D02*
X126050000Y-77670608D01*
X126050000Y-75270608D02*
X126050000Y-77670608D01*
X125325000Y-75270608D02*
X125325000Y-77670608D01*
X125525000Y-75270608D02*
X125525000Y-77670608D01*
X126050000Y-75270608D02*
X120450000Y-75270608D01*
X125700000Y-75270608D02*
X125700000Y-77670608D01*
X125875000Y-75270608D02*
X125875000Y-77670608D01*
D11*
G04 #@! TO.C,SW33*
X52075000Y-137419000D02*
X71075000Y-137419000D01*
X71075000Y-137419000D02*
X71075000Y-156419000D01*
X71075000Y-156419000D02*
X52075000Y-156419000D01*
X52075000Y-156419000D02*
X52075000Y-137419000D01*
D12*
X55225000Y-140569000D02*
X57003000Y-140569000D01*
X66147000Y-140569000D02*
X67925000Y-140569000D01*
X67925000Y-140569000D02*
X67925000Y-142347000D01*
X67925000Y-151491000D02*
X67925000Y-153269000D01*
X67925000Y-153269000D02*
X66147000Y-153269000D01*
X57003000Y-153269000D02*
X55225000Y-153269000D01*
X55225000Y-153269000D02*
X55225000Y-151491000D01*
X55225000Y-142347000D02*
X55225000Y-140569000D01*
D13*
G04 #@! TO.C,D33*
X68275000Y-137183408D02*
X68275000Y-139583408D01*
X63300000Y-137183408D02*
X63300000Y-139583408D01*
X63300000Y-139583408D02*
X68900000Y-139583408D01*
X68900000Y-137183408D02*
X68900000Y-139583408D01*
X68175000Y-137183408D02*
X68175000Y-139583408D01*
X68375000Y-137183408D02*
X68375000Y-139583408D01*
X68900000Y-137183408D02*
X63300000Y-137183408D01*
X68550000Y-137183408D02*
X68550000Y-139583408D01*
X68725000Y-137183408D02*
X68725000Y-139583408D01*
D11*
G04 #@! TO.C,SW34*
X147325000Y-80268800D02*
X166325000Y-80268800D01*
X166325000Y-80268800D02*
X166325000Y-99268800D01*
X166325000Y-99268800D02*
X147325000Y-99268800D01*
X147325000Y-99268800D02*
X147325000Y-80268800D01*
D12*
X150475000Y-83418800D02*
X152253000Y-83418800D01*
X161397000Y-83418800D02*
X163175000Y-83418800D01*
X163175000Y-83418800D02*
X163175000Y-85196800D01*
X163175000Y-94340800D02*
X163175000Y-96118800D01*
X163175000Y-96118800D02*
X161397000Y-96118800D01*
X152253000Y-96118800D02*
X150475000Y-96118800D01*
X150475000Y-96118800D02*
X150475000Y-94340800D01*
X150475000Y-85196800D02*
X150475000Y-83418800D01*
D13*
G04 #@! TO.C,D34*
X163525000Y-80033208D02*
X163525000Y-82433208D01*
X158550000Y-80033208D02*
X158550000Y-82433208D01*
X158550000Y-82433208D02*
X164150000Y-82433208D01*
X164150000Y-80033208D02*
X164150000Y-82433208D01*
X163425000Y-80033208D02*
X163425000Y-82433208D01*
X163625000Y-80033208D02*
X163625000Y-82433208D01*
X164150000Y-80033208D02*
X158550000Y-80033208D01*
X163800000Y-80033208D02*
X163800000Y-82433208D01*
X163975000Y-80033208D02*
X163975000Y-82433208D01*
D11*
G04 #@! TO.C,SW35*
X156798984Y-140341669D02*
X175510331Y-143640984D01*
X175510331Y-143640984D02*
X172211016Y-162352331D01*
X172211016Y-162352331D02*
X153499669Y-159053016D01*
X153499669Y-159053016D02*
X156798984Y-140341669D01*
D12*
X159354137Y-143990805D02*
X161105125Y-144299551D01*
X170110207Y-145887390D02*
X171861195Y-146196137D01*
X171861195Y-146196137D02*
X171552449Y-147947125D01*
X169964610Y-156952207D02*
X169655863Y-158703195D01*
X169655863Y-158703195D02*
X167904875Y-158394449D01*
X158899793Y-156806610D02*
X157148805Y-156497863D01*
X157148805Y-156497863D02*
X157457551Y-154746875D01*
X159045390Y-145741793D02*
X159354137Y-143990805D01*
D13*
G04 #@! TO.C,D35*
X172793174Y-142922484D02*
X172376418Y-145286023D01*
X167893755Y-142058585D02*
X167477000Y-144422123D01*
X167477000Y-144422123D02*
X172991923Y-145394553D01*
X173408679Y-143031015D02*
X172991923Y-145394553D01*
X172694693Y-142905120D02*
X172277938Y-145268658D01*
X172891655Y-142939849D02*
X172474899Y-145303388D01*
X173408679Y-143031015D02*
X167893755Y-142058585D01*
X173063996Y-142970238D02*
X172647240Y-145333776D01*
X173236337Y-143000626D02*
X172819582Y-145364165D01*
D11*
G04 #@! TO.C,SW40*
X33025000Y-80268800D02*
X52025000Y-80268800D01*
X52025000Y-80268800D02*
X52025000Y-99268800D01*
X52025000Y-99268800D02*
X33025000Y-99268800D01*
X33025000Y-99268800D02*
X33025000Y-80268800D01*
D12*
X36175000Y-83418800D02*
X37953000Y-83418800D01*
X47097000Y-83418800D02*
X48875000Y-83418800D01*
X48875000Y-83418800D02*
X48875000Y-85196800D01*
X48875000Y-94340800D02*
X48875000Y-96118800D01*
X48875000Y-96118800D02*
X47097000Y-96118800D01*
X37953000Y-96118800D02*
X36175000Y-96118800D01*
X36175000Y-96118800D02*
X36175000Y-94340800D01*
X36175000Y-85196800D02*
X36175000Y-83418800D01*
D13*
G04 #@! TO.C,D40*
X49225000Y-80033208D02*
X49225000Y-82433208D01*
X44250000Y-80033208D02*
X44250000Y-82433208D01*
X44250000Y-82433208D02*
X49850000Y-82433208D01*
X49850000Y-80033208D02*
X49850000Y-82433208D01*
X49125000Y-80033208D02*
X49125000Y-82433208D01*
X49325000Y-80033208D02*
X49325000Y-82433208D01*
X49850000Y-80033208D02*
X44250000Y-80033208D01*
X49500000Y-80033208D02*
X49500000Y-82433208D01*
X49675000Y-80033208D02*
X49675000Y-82433208D01*
D11*
G04 #@! TO.C,SW41*
X71125000Y-94556000D02*
X90125000Y-94556000D01*
X90125000Y-94556000D02*
X90125000Y-113556000D01*
X90125000Y-113556000D02*
X71125000Y-113556000D01*
X71125000Y-113556000D02*
X71125000Y-94556000D01*
D12*
X74275000Y-97706000D02*
X76053000Y-97706000D01*
X85197000Y-97706000D02*
X86975000Y-97706000D01*
X86975000Y-97706000D02*
X86975000Y-99484000D01*
X86975000Y-108628000D02*
X86975000Y-110406000D01*
X86975000Y-110406000D02*
X85197000Y-110406000D01*
X76053000Y-110406000D02*
X74275000Y-110406000D01*
X74275000Y-110406000D02*
X74275000Y-108628000D01*
X74275000Y-99484000D02*
X74275000Y-97706000D01*
D13*
G04 #@! TO.C,D41*
X87325000Y-94320608D02*
X87325000Y-96720608D01*
X82350000Y-94320608D02*
X82350000Y-96720608D01*
X82350000Y-96720608D02*
X87950000Y-96720608D01*
X87950000Y-94320608D02*
X87950000Y-96720608D01*
X87225000Y-94320608D02*
X87225000Y-96720608D01*
X87425000Y-94320608D02*
X87425000Y-96720608D01*
X87950000Y-94320608D02*
X82350000Y-94320608D01*
X87600000Y-94320608D02*
X87600000Y-96720608D01*
X87775000Y-94320608D02*
X87775000Y-96720608D01*
D11*
G04 #@! TO.C,SW42*
X109225000Y-94556000D02*
X128225000Y-94556000D01*
X128225000Y-94556000D02*
X128225000Y-113556000D01*
X128225000Y-113556000D02*
X109225000Y-113556000D01*
X109225000Y-113556000D02*
X109225000Y-94556000D01*
D12*
X112375000Y-97706000D02*
X114153000Y-97706000D01*
X123297000Y-97706000D02*
X125075000Y-97706000D01*
X125075000Y-97706000D02*
X125075000Y-99484000D01*
X125075000Y-108628000D02*
X125075000Y-110406000D01*
X125075000Y-110406000D02*
X123297000Y-110406000D01*
X114153000Y-110406000D02*
X112375000Y-110406000D01*
X112375000Y-110406000D02*
X112375000Y-108628000D01*
X112375000Y-99484000D02*
X112375000Y-97706000D01*
D13*
G04 #@! TO.C,D42*
X125425000Y-94320608D02*
X125425000Y-96720608D01*
X120450000Y-94320608D02*
X120450000Y-96720608D01*
X120450000Y-96720608D02*
X126050000Y-96720608D01*
X126050000Y-94320608D02*
X126050000Y-96720608D01*
X125325000Y-94320608D02*
X125325000Y-96720608D01*
X125525000Y-94320608D02*
X125525000Y-96720608D01*
X126050000Y-94320608D02*
X120450000Y-94320608D01*
X125700000Y-94320608D02*
X125700000Y-96720608D01*
X125875000Y-94320608D02*
X125875000Y-96720608D01*
D11*
G04 #@! TO.C,SW43*
X71125000Y-137419000D02*
X90125000Y-137419000D01*
X90125000Y-137419000D02*
X90125000Y-156419000D01*
X90125000Y-156419000D02*
X71125000Y-156419000D01*
X71125000Y-156419000D02*
X71125000Y-137419000D01*
D12*
X74275000Y-140569000D02*
X76053000Y-140569000D01*
X85197000Y-140569000D02*
X86975000Y-140569000D01*
X86975000Y-140569000D02*
X86975000Y-142347000D01*
X86975000Y-151491000D02*
X86975000Y-153269000D01*
X86975000Y-153269000D02*
X85197000Y-153269000D01*
X76053000Y-153269000D02*
X74275000Y-153269000D01*
X74275000Y-153269000D02*
X74275000Y-151491000D01*
X74275000Y-142347000D02*
X74275000Y-140569000D01*
D13*
G04 #@! TO.C,D43*
X87325000Y-137183408D02*
X87325000Y-139583408D01*
X82350000Y-137183408D02*
X82350000Y-139583408D01*
X82350000Y-139583408D02*
X87950000Y-139583408D01*
X87950000Y-137183408D02*
X87950000Y-139583408D01*
X87225000Y-137183408D02*
X87225000Y-139583408D01*
X87425000Y-137183408D02*
X87425000Y-139583408D01*
X87950000Y-137183408D02*
X82350000Y-137183408D01*
X87600000Y-137183408D02*
X87600000Y-139583408D01*
X87775000Y-137183408D02*
X87775000Y-139583408D01*
D11*
G04 #@! TO.C,SW44*
X147325000Y-61218800D02*
X166325000Y-61218800D01*
X166325000Y-61218800D02*
X166325000Y-80218800D01*
X166325000Y-80218800D02*
X147325000Y-80218800D01*
X147325000Y-80218800D02*
X147325000Y-61218800D01*
D12*
X150475000Y-64368800D02*
X152253000Y-64368800D01*
X161397000Y-64368800D02*
X163175000Y-64368800D01*
X163175000Y-64368800D02*
X163175000Y-66146800D01*
X163175000Y-75290800D02*
X163175000Y-77068800D01*
X163175000Y-77068800D02*
X161397000Y-77068800D01*
X152253000Y-77068800D02*
X150475000Y-77068800D01*
X150475000Y-77068800D02*
X150475000Y-75290800D01*
X150475000Y-66146800D02*
X150475000Y-64368800D01*
D13*
G04 #@! TO.C,D44*
X163525000Y-60983208D02*
X163525000Y-63383208D01*
X158550000Y-60983208D02*
X158550000Y-63383208D01*
X158550000Y-63383208D02*
X164150000Y-63383208D01*
X164150000Y-60983208D02*
X164150000Y-63383208D01*
X163425000Y-60983208D02*
X163425000Y-63383208D01*
X163625000Y-60983208D02*
X163625000Y-63383208D01*
X164150000Y-60983208D02*
X158550000Y-60983208D01*
X163800000Y-60983208D02*
X163800000Y-63383208D01*
X163975000Y-60983208D02*
X163975000Y-63383208D01*
D11*
G04 #@! TO.C,SW45*
X138037984Y-137033669D02*
X156749331Y-140332984D01*
X156749331Y-140332984D02*
X153450016Y-159044331D01*
X153450016Y-159044331D02*
X134738669Y-155745016D01*
X134738669Y-155745016D02*
X138037984Y-137033669D01*
D12*
X140593137Y-140682805D02*
X142344125Y-140991551D01*
X151349207Y-142579390D02*
X153100195Y-142888137D01*
X153100195Y-142888137D02*
X152791449Y-144639125D01*
X151203610Y-153644207D02*
X150894863Y-155395195D01*
X150894863Y-155395195D02*
X149143875Y-155086449D01*
X140138793Y-153498610D02*
X138387805Y-153189863D01*
X138387805Y-153189863D02*
X138696551Y-151438875D01*
X140284390Y-142433793D02*
X140593137Y-140682805D01*
D13*
G04 #@! TO.C,D45*
X154033174Y-139614484D02*
X153616418Y-141978023D01*
X149133755Y-138750585D02*
X148717000Y-141114123D01*
X148717000Y-141114123D02*
X154231923Y-142086553D01*
X154648679Y-139723015D02*
X154231923Y-142086553D01*
X153934693Y-139597120D02*
X153517938Y-141960658D01*
X154131655Y-139631849D02*
X153714899Y-141995388D01*
X154648679Y-139723015D02*
X149133755Y-138750585D01*
X154303996Y-139662238D02*
X153887240Y-142025776D01*
X154476337Y-139692626D02*
X154059582Y-142056165D01*
D11*
G04 #@! TO.C,SW50*
X71125000Y-37406200D02*
X90125000Y-37406200D01*
X90125000Y-37406200D02*
X90125000Y-56406200D01*
X90125000Y-56406200D02*
X71125000Y-56406200D01*
X71125000Y-56406200D02*
X71125000Y-37406200D01*
D12*
X74275000Y-40556200D02*
X76053000Y-40556200D01*
X85197000Y-40556200D02*
X86975000Y-40556200D01*
X86975000Y-40556200D02*
X86975000Y-42334200D01*
X86975000Y-51478200D02*
X86975000Y-53256200D01*
X86975000Y-53256200D02*
X85197000Y-53256200D01*
X76053000Y-53256200D02*
X74275000Y-53256200D01*
X74275000Y-53256200D02*
X74275000Y-51478200D01*
X74275000Y-42334200D02*
X74275000Y-40556200D01*
D13*
G04 #@! TO.C,D50*
X87325000Y-37170608D02*
X87325000Y-39570608D01*
X82350000Y-37170608D02*
X82350000Y-39570608D01*
X82350000Y-39570608D02*
X87950000Y-39570608D01*
X87950000Y-37170608D02*
X87950000Y-39570608D01*
X87225000Y-37170608D02*
X87225000Y-39570608D01*
X87425000Y-37170608D02*
X87425000Y-39570608D01*
X87950000Y-37170608D02*
X82350000Y-37170608D01*
X87600000Y-37170608D02*
X87600000Y-39570608D01*
X87775000Y-37170608D02*
X87775000Y-39570608D01*
D11*
G04 #@! TO.C,SW51*
X52075000Y-80268800D02*
X71075000Y-80268800D01*
X71075000Y-80268800D02*
X71075000Y-99268800D01*
X71075000Y-99268800D02*
X52075000Y-99268800D01*
X52075000Y-99268800D02*
X52075000Y-80268800D01*
D12*
X55225000Y-83418800D02*
X57003000Y-83418800D01*
X66147000Y-83418800D02*
X67925000Y-83418800D01*
X67925000Y-83418800D02*
X67925000Y-85196800D01*
X67925000Y-94340800D02*
X67925000Y-96118800D01*
X67925000Y-96118800D02*
X66147000Y-96118800D01*
X57003000Y-96118800D02*
X55225000Y-96118800D01*
X55225000Y-96118800D02*
X55225000Y-94340800D01*
X55225000Y-85196800D02*
X55225000Y-83418800D01*
D13*
G04 #@! TO.C,D51*
X68275000Y-80033208D02*
X68275000Y-82433208D01*
X63300000Y-80033208D02*
X63300000Y-82433208D01*
X63300000Y-82433208D02*
X68900000Y-82433208D01*
X68900000Y-80033208D02*
X68900000Y-82433208D01*
X68175000Y-80033208D02*
X68175000Y-82433208D01*
X68375000Y-80033208D02*
X68375000Y-82433208D01*
X68900000Y-80033208D02*
X63300000Y-80033208D01*
X68550000Y-80033208D02*
X68550000Y-82433208D01*
X68725000Y-80033208D02*
X68725000Y-82433208D01*
D11*
G04 #@! TO.C,SW52*
X109225000Y-37406200D02*
X128225000Y-37406200D01*
X128225000Y-37406200D02*
X128225000Y-56406200D01*
X128225000Y-56406200D02*
X109225000Y-56406200D01*
X109225000Y-56406200D02*
X109225000Y-37406200D01*
D12*
X112375000Y-40556200D02*
X114153000Y-40556200D01*
X123297000Y-40556200D02*
X125075000Y-40556200D01*
X125075000Y-40556200D02*
X125075000Y-42334200D01*
X125075000Y-51478200D02*
X125075000Y-53256200D01*
X125075000Y-53256200D02*
X123297000Y-53256200D01*
X114153000Y-53256200D02*
X112375000Y-53256200D01*
X112375000Y-53256200D02*
X112375000Y-51478200D01*
X112375000Y-42334200D02*
X112375000Y-40556200D01*
D13*
G04 #@! TO.C,D52*
X125425000Y-37170608D02*
X125425000Y-39570608D01*
X120450000Y-37170608D02*
X120450000Y-39570608D01*
X120450000Y-39570608D02*
X126050000Y-39570608D01*
X126050000Y-37170608D02*
X126050000Y-39570608D01*
X125325000Y-37170608D02*
X125325000Y-39570608D01*
X125525000Y-37170608D02*
X125525000Y-39570608D01*
X126050000Y-37170608D02*
X120450000Y-37170608D01*
X125700000Y-37170608D02*
X125700000Y-39570608D01*
X125875000Y-37170608D02*
X125875000Y-39570608D01*
D11*
G04 #@! TO.C,SW53*
X33025000Y-137419000D02*
X52025000Y-137419000D01*
X52025000Y-137419000D02*
X52025000Y-156419000D01*
X52025000Y-156419000D02*
X33025000Y-156419000D01*
X33025000Y-156419000D02*
X33025000Y-137419000D01*
D12*
X36175000Y-140569000D02*
X37953000Y-140569000D01*
X47097000Y-140569000D02*
X48875000Y-140569000D01*
X48875000Y-140569000D02*
X48875000Y-142347000D01*
X48875000Y-151491000D02*
X48875000Y-153269000D01*
X48875000Y-153269000D02*
X47097000Y-153269000D01*
X37953000Y-153269000D02*
X36175000Y-153269000D01*
X36175000Y-153269000D02*
X36175000Y-151491000D01*
X36175000Y-142347000D02*
X36175000Y-140569000D01*
D13*
G04 #@! TO.C,D53*
X49225000Y-137183408D02*
X49225000Y-139583408D01*
X44250000Y-137183408D02*
X44250000Y-139583408D01*
X44250000Y-139583408D02*
X49850000Y-139583408D01*
X49850000Y-137183408D02*
X49850000Y-139583408D01*
X49125000Y-137183408D02*
X49125000Y-139583408D01*
X49325000Y-137183408D02*
X49325000Y-139583408D01*
X49850000Y-137183408D02*
X44250000Y-137183408D01*
X49500000Y-137183408D02*
X49500000Y-139583408D01*
X49675000Y-137183408D02*
X49675000Y-139583408D01*
D11*
G04 #@! TO.C,SW54*
X147325000Y-42168800D02*
X166325000Y-42168800D01*
X166325000Y-42168800D02*
X166325000Y-61168800D01*
X166325000Y-61168800D02*
X147325000Y-61168800D01*
X147325000Y-61168800D02*
X147325000Y-42168800D01*
D12*
X150475000Y-45318800D02*
X152253000Y-45318800D01*
X161397000Y-45318800D02*
X163175000Y-45318800D01*
X163175000Y-45318800D02*
X163175000Y-47096800D01*
X163175000Y-56240800D02*
X163175000Y-58018800D01*
X163175000Y-58018800D02*
X161397000Y-58018800D01*
X152253000Y-58018800D02*
X150475000Y-58018800D01*
X150475000Y-58018800D02*
X150475000Y-56240800D01*
X150475000Y-47096800D02*
X150475000Y-45318800D01*
D13*
G04 #@! TO.C,D54*
X163525000Y-41933208D02*
X163525000Y-44333208D01*
X158550000Y-41933208D02*
X158550000Y-44333208D01*
X158550000Y-44333208D02*
X164150000Y-44333208D01*
X164150000Y-41933208D02*
X164150000Y-44333208D01*
X163425000Y-41933208D02*
X163425000Y-44333208D01*
X163625000Y-41933208D02*
X163625000Y-44333208D01*
X164150000Y-41933208D02*
X158550000Y-41933208D01*
X163800000Y-41933208D02*
X163800000Y-44333208D01*
X163975000Y-41933208D02*
X163975000Y-44333208D01*
D11*
G04 #@! TO.C,SW55*
X163414984Y-102820669D02*
X182126331Y-106119984D01*
X182126331Y-106119984D02*
X178827016Y-124831331D01*
X178827016Y-124831331D02*
X160115669Y-121532016D01*
X160115669Y-121532016D02*
X163414984Y-102820669D01*
D12*
X165970137Y-106469805D02*
X167721125Y-106778551D01*
X176726207Y-108366390D02*
X178477195Y-108675137D01*
X178477195Y-108675137D02*
X178168449Y-110426125D01*
X176580610Y-119431207D02*
X176271863Y-121182195D01*
X176271863Y-121182195D02*
X174520875Y-120873449D01*
X165515793Y-119285610D02*
X163764805Y-118976863D01*
X163764805Y-118976863D02*
X164073551Y-117225875D01*
X165661390Y-108220793D02*
X165970137Y-106469805D01*
D13*
G04 #@! TO.C,D55*
X179409174Y-105401484D02*
X178992418Y-107765023D01*
X174509755Y-104537585D02*
X174093000Y-106901123D01*
X174093000Y-106901123D02*
X179607923Y-107873553D01*
X180024679Y-105510015D02*
X179607923Y-107873553D01*
X179310693Y-105384120D02*
X178893938Y-107747658D01*
X179507655Y-105418849D02*
X179090899Y-107782388D01*
X180024679Y-105510015D02*
X174509755Y-104537585D01*
X179679996Y-105449238D02*
X179263240Y-107812776D01*
X179852337Y-105479626D02*
X179435582Y-107843165D01*
D14*
G04 #@! TO.C,X10*
G36*
X47140897Y-117402615D02*
X48572488Y-118344569D01*
X47038586Y-117854642D01*
X46562687Y-116732978D01*
X45266910Y-116147951D01*
X44146446Y-116989449D01*
X43580864Y-118984304D01*
X43033425Y-120984205D01*
X42491884Y-122985749D01*
X41943998Y-124985534D01*
X41515425Y-126530297D01*
X40516070Y-126800727D01*
X39795845Y-124441794D01*
X39150765Y-122059410D01*
X38513222Y-119675402D01*
X37554229Y-118137922D01*
X35849284Y-118448936D01*
X35598152Y-119945356D01*
X35992296Y-121499819D01*
X34604922Y-121613055D01*
X33935976Y-122839139D01*
X34528825Y-124946934D01*
X35186119Y-127039381D01*
X35833764Y-129134069D01*
X36049193Y-131121280D01*
X36304761Y-133104572D01*
X36636327Y-135075178D01*
X37079752Y-137024329D01*
X37483273Y-138531617D01*
X38339022Y-139178502D01*
X37578616Y-136767881D01*
X37045006Y-134299200D01*
X36677829Y-131796096D01*
X36416722Y-129282205D01*
X35889911Y-127433905D01*
X35308331Y-125597648D01*
X34732892Y-123760310D01*
X34730620Y-122248078D01*
X36097144Y-122199307D01*
X36734621Y-124149283D01*
X37295203Y-126129688D01*
X37628960Y-127299958D01*
X38194420Y-127347126D01*
X37517698Y-125001145D01*
X36864208Y-122648553D01*
X36211144Y-120295850D01*
X36318619Y-118736065D01*
X37710134Y-118921344D01*
X38343084Y-121172596D01*
X38955740Y-123429500D01*
X39580217Y-125683129D01*
X40363891Y-127337862D01*
X41833867Y-127003678D01*
X42489624Y-124759895D01*
X43114810Y-122507108D01*
X43725000Y-120250000D01*
X44335771Y-117993257D01*
X45224015Y-116702514D01*
X46321380Y-117573838D01*
X45828370Y-119505017D01*
X45321469Y-121432585D01*
X44807718Y-123358365D01*
X44294160Y-125284180D01*
X43879965Y-126725207D01*
X44277306Y-127491963D01*
X44804755Y-125549135D01*
X45331740Y-123606181D01*
X45858638Y-121663203D01*
X46385825Y-119720305D01*
X47169549Y-118418134D01*
X48379830Y-119052818D01*
X48029118Y-120924146D01*
X47597515Y-122786091D01*
X47172714Y-124648114D01*
X46645047Y-127073253D01*
X46407703Y-129542301D01*
X46626190Y-130957036D01*
X47727735Y-132038005D01*
X49072974Y-131231861D01*
X50352853Y-130073246D01*
X52133745Y-128977898D01*
X54067397Y-129511993D01*
X52651264Y-130839328D01*
X51223657Y-132154308D01*
X49801166Y-133474382D01*
X48709290Y-135313866D01*
X47533145Y-137105246D01*
X46529939Y-138265011D01*
X46260536Y-139350938D01*
X47766964Y-137677276D01*
X49031590Y-135811579D01*
X50148264Y-133852833D01*
X52063499Y-132070348D01*
X53978976Y-130288802D01*
X54523640Y-129360235D01*
X53596022Y-128605472D01*
X52328975Y-128399278D01*
X50331967Y-129390819D01*
X48622157Y-130907158D01*
X47740923Y-131271836D01*
X46848206Y-130570860D01*
X47043927Y-127781592D01*
X47441308Y-125820066D01*
X47883455Y-123866411D01*
X48340970Y-121915504D01*
X48784451Y-119962220D01*
X48572488Y-118344569D01*
X47140897Y-117402615D01*
X48409078Y-117866628D01*
X49182740Y-119135756D01*
X48730836Y-121411270D01*
X48204018Y-123675259D01*
X47684566Y-125940023D01*
X47311322Y-127921287D01*
X47118828Y-129928888D01*
X47613551Y-130907899D01*
X48484804Y-130668028D01*
X50305851Y-129072795D01*
X52465412Y-128120486D01*
X54109540Y-128554623D01*
X54805341Y-129877876D01*
X53361826Y-131225916D01*
X51915148Y-132570560D01*
X50463904Y-133910274D01*
X49489656Y-135560528D01*
X48458984Y-137175910D01*
X47288887Y-138691936D01*
X46268492Y-139511078D01*
X45807444Y-138713510D01*
X47223333Y-137083194D01*
X48421368Y-135284332D01*
X49498699Y-133409954D01*
X51223304Y-131793283D01*
X52961468Y-130191017D01*
X53248921Y-129340411D01*
X52055405Y-129216405D01*
X50352396Y-130408023D01*
X48774337Y-131807159D01*
X47616052Y-132212325D01*
X46569499Y-131296743D01*
X46085281Y-129582743D01*
X46285375Y-127591793D01*
X46786310Y-125132115D01*
X47351197Y-122682745D01*
X47908878Y-120232428D01*
X47904021Y-118866125D01*
X46849255Y-119023732D01*
X46328468Y-120941881D01*
X45807648Y-122860022D01*
X45287418Y-124778322D01*
X44768403Y-126696952D01*
X44227416Y-127759419D01*
X43496992Y-127265608D01*
X44071841Y-125101289D01*
X44645871Y-122936753D01*
X45219567Y-120772128D01*
X45793412Y-118607543D01*
X45849402Y-117209481D01*
X44785298Y-117330297D01*
X44191790Y-119547682D01*
X43590054Y-121762848D01*
X42981012Y-123976018D01*
X42365587Y-126187421D01*
X41453023Y-127700125D01*
X39853290Y-127289310D01*
X39086050Y-124926543D01*
X38435176Y-122523089D01*
X37782573Y-120121468D01*
X37144631Y-118882724D01*
X36264863Y-119508974D01*
X36889997Y-121750506D01*
X37511645Y-123993013D01*
X38143072Y-126232776D01*
X38377852Y-127480028D01*
X37535518Y-127780207D01*
X36867358Y-125613210D01*
X36240944Y-123425332D01*
X35572349Y-122277341D01*
X34756936Y-122948579D01*
X36590566Y-128806173D01*
X36867808Y-131123334D01*
X37177616Y-133440616D01*
X37597856Y-135737459D01*
X38206391Y-137993301D01*
X38478662Y-139257605D01*
X37574356Y-139379096D01*
X36785411Y-136929643D01*
X36240463Y-134417031D01*
X35871535Y-131867647D01*
X35610652Y-129307876D01*
X33923962Y-123868648D01*
X33800210Y-122242622D01*
X34966711Y-121147908D01*
X35527796Y-120555885D01*
X35256197Y-119193289D01*
X35956849Y-118009010D01*
X37313699Y-117752515D01*
X38437327Y-118560735D01*
X39030263Y-120573463D01*
X39571732Y-122603846D01*
X40126824Y-124629928D01*
X40469770Y-125976867D01*
X41172576Y-126648541D01*
X41740842Y-124720996D01*
X42276026Y-122784051D01*
X42798065Y-120843380D01*
X43326896Y-118904655D01*
X43859336Y-117045323D01*
X45231253Y-115888019D01*
X46513289Y-116233950D01*
X47140897Y-117402615D01*
X47140897Y-117402615D01*
G37*
G04 #@! TO.C,J5*
D11*
X117702788Y-132065856D02*
X117642843Y-132133456D01*
X117519125Y-132204885D01*
X117455352Y-132208713D01*
X117416323Y-132198255D01*
X117363008Y-132163053D01*
X117334436Y-132113566D01*
X117330609Y-132049793D01*
X117341066Y-132010764D01*
X117376268Y-131957449D01*
X117460957Y-131875563D01*
X117496158Y-131822248D01*
X117506616Y-131783218D01*
X117502788Y-131719446D01*
X117474217Y-131669958D01*
X117420902Y-131634757D01*
X117381872Y-131624299D01*
X117318099Y-131628127D01*
X117194381Y-131699555D01*
X117134436Y-131767156D01*
X116871964Y-132512541D02*
X116910993Y-132522999D01*
X116999510Y-132504885D01*
X117048997Y-132476314D01*
X117108942Y-132408713D01*
X117129858Y-132330654D01*
X117126030Y-132266881D01*
X117093631Y-132153621D01*
X117050773Y-132079391D01*
X116968887Y-131994702D01*
X116915572Y-131959500D01*
X116837513Y-131938585D01*
X116748997Y-131956698D01*
X116699510Y-131985270D01*
X116639565Y-132052870D01*
X116629107Y-132091900D01*
X116677843Y-132690599D02*
X116377843Y-132170984D01*
X116380920Y-132862028D02*
X116432184Y-132436533D01*
X116080920Y-132342413D02*
X116549272Y-132467907D01*
X111865764Y-134002385D02*
X111565764Y-133482770D01*
X111606844Y-133953923D01*
X111219354Y-133682770D01*
X111519354Y-134202385D01*
X111271918Y-134345242D02*
X110971918Y-133825627D01*
X111034940Y-134449070D02*
X110974995Y-134516671D01*
X110851277Y-134588099D01*
X110787504Y-134591927D01*
X110748475Y-134581469D01*
X110695160Y-134546268D01*
X110666588Y-134496781D01*
X110662760Y-134433008D01*
X110673218Y-134393978D01*
X110708420Y-134340663D01*
X110793108Y-134258777D01*
X110828310Y-134205462D01*
X110838768Y-134166433D01*
X110834940Y-134102660D01*
X110806368Y-134053173D01*
X110753053Y-134017971D01*
X110714024Y-134007513D01*
X110650251Y-134011341D01*
X110526533Y-134082770D01*
X110466588Y-134150370D01*
X110130636Y-134311341D02*
X110031662Y-134368484D01*
X109996460Y-134421799D01*
X109975544Y-134499858D01*
X110007944Y-134613118D01*
X110107944Y-134786323D01*
X110189830Y-134871011D01*
X110267889Y-134891927D01*
X110331662Y-134888099D01*
X110430636Y-134830956D01*
X110465837Y-134777641D01*
X110486753Y-134699583D01*
X110454354Y-134586323D01*
X110354354Y-134413118D01*
X110272467Y-134328429D01*
X110194409Y-134307513D01*
X110130636Y-134311341D01*
X116847220Y-135066826D02*
X116886250Y-135077284D01*
X116974766Y-135059171D01*
X117024253Y-135030599D01*
X117084198Y-134962999D01*
X117105114Y-134884940D01*
X117101286Y-134821167D01*
X117068887Y-134707907D01*
X117026030Y-134633676D01*
X116944143Y-134548988D01*
X116890828Y-134513786D01*
X116812770Y-134492870D01*
X116724253Y-134510984D01*
X116674766Y-134539555D01*
X116614821Y-134607156D01*
X116604363Y-134646185D01*
X116663558Y-135205856D02*
X116603612Y-135273456D01*
X116479895Y-135344885D01*
X116416122Y-135348713D01*
X116377092Y-135338255D01*
X116323777Y-135303053D01*
X116295206Y-135253566D01*
X116291378Y-135189793D01*
X116301836Y-135150764D01*
X116337037Y-135097449D01*
X116421726Y-135015563D01*
X116456928Y-134962248D01*
X116467385Y-134923218D01*
X116463558Y-134859446D01*
X116434986Y-134809958D01*
X116381671Y-134774757D01*
X116342642Y-134764299D01*
X116278869Y-134768127D01*
X116155151Y-134839555D01*
X116095206Y-134907156D01*
X111865764Y-136542385D02*
X111565764Y-136022770D01*
X111442046Y-136094198D01*
X111382101Y-136161799D01*
X111361185Y-136239858D01*
X111365013Y-136303630D01*
X111397412Y-136416891D01*
X111440269Y-136491121D01*
X111522156Y-136575810D01*
X111575471Y-136611011D01*
X111653529Y-136631927D01*
X111742046Y-136613814D01*
X111865764Y-136542385D01*
X111049226Y-137013814D02*
X111079573Y-136666378D01*
X111346148Y-136842385D02*
X111046148Y-136322770D01*
X110848200Y-136437055D01*
X110812998Y-136490370D01*
X110802541Y-136529400D01*
X110806368Y-136593173D01*
X110849226Y-136667403D01*
X110902541Y-136702605D01*
X110941570Y-136713063D01*
X111005343Y-136709235D01*
X111203291Y-136594949D01*
X118038740Y-136984885D02*
X117738740Y-136465270D01*
X117779821Y-136936423D01*
X117392330Y-136665270D01*
X117692330Y-137184885D01*
X117045920Y-136865270D02*
X116946946Y-136922413D01*
X116911744Y-136975728D01*
X116890828Y-137053786D01*
X116923228Y-137167046D01*
X117023228Y-137340251D01*
X117105114Y-137424940D01*
X117183173Y-137445856D01*
X117246946Y-137442028D01*
X117345920Y-137384885D01*
X117381121Y-137331570D01*
X117402037Y-137253511D01*
X117369638Y-137140251D01*
X117269638Y-136967046D01*
X117187751Y-136882358D01*
X117109693Y-136861442D01*
X117045920Y-136865270D01*
X116910993Y-137602999D02*
X116851048Y-137670599D01*
X116727330Y-137742028D01*
X116663558Y-137745856D01*
X116624528Y-137735398D01*
X116571213Y-137700196D01*
X116542642Y-137650709D01*
X116538814Y-137586936D01*
X116549272Y-137547907D01*
X116584473Y-137494592D01*
X116669162Y-137412706D01*
X116704363Y-137359391D01*
X116714821Y-137320361D01*
X116710993Y-137256588D01*
X116682422Y-137207101D01*
X116629107Y-137171900D01*
X116590078Y-137161442D01*
X116526305Y-137165270D01*
X116402587Y-137236698D01*
X116342642Y-137304299D01*
X116405664Y-137927742D02*
X116105664Y-137408127D01*
X117183924Y-139358585D02*
X117219125Y-139305270D01*
X117293356Y-139262413D01*
X117381872Y-139244299D01*
X117459931Y-139265215D01*
X117513246Y-139300416D01*
X117595132Y-139385105D01*
X117637989Y-139459336D01*
X117670389Y-139572596D01*
X117674217Y-139636369D01*
X117653301Y-139714427D01*
X117593356Y-139782028D01*
X117543869Y-139810599D01*
X117455352Y-139828713D01*
X117416323Y-139818255D01*
X117316323Y-139645050D01*
X117415297Y-139587907D01*
X117222202Y-139996314D02*
X116922202Y-139476698D01*
X116925279Y-140167742D01*
X116625279Y-139648127D01*
X116677843Y-140310599D02*
X116377843Y-139790984D01*
X116254125Y-139862413D01*
X116194180Y-139930013D01*
X116173265Y-140008072D01*
X116177092Y-140071845D01*
X116209492Y-140185105D01*
X116252349Y-140259336D01*
X116334235Y-140344024D01*
X116387550Y-140379226D01*
X116465609Y-140400141D01*
X116554125Y-140382028D01*
X116677843Y-140310599D01*
X111615251Y-141074198D02*
X111293584Y-141259913D01*
X111581075Y-141357861D01*
X111506844Y-141400718D01*
X111471643Y-141454033D01*
X111461185Y-141493063D01*
X111465013Y-141556836D01*
X111536441Y-141680553D01*
X111589756Y-141715755D01*
X111628786Y-141726213D01*
X111692559Y-141722385D01*
X111841020Y-141636671D01*
X111876222Y-141583356D01*
X111886679Y-141544326D01*
X111145123Y-141345627D02*
X111271918Y-141965242D01*
X110798713Y-141545627D01*
X110674995Y-141617055D02*
X110353328Y-141802770D01*
X110640819Y-141900718D01*
X110566588Y-141943576D01*
X110531387Y-141996891D01*
X110520929Y-142035920D01*
X110524757Y-142099693D01*
X110596185Y-142223411D01*
X110649500Y-142258612D01*
X110688530Y-142269070D01*
X110752303Y-142265242D01*
X110900764Y-142179528D01*
X110935965Y-142126213D01*
X110946423Y-142087184D01*
G04 #@! TO.C,J1*
X150723809Y-34368928D02*
X150761904Y-34483214D01*
X150761904Y-34673690D01*
X150723809Y-34749880D01*
X150685714Y-34787976D01*
X150609523Y-34826071D01*
X150533333Y-34826071D01*
X150457142Y-34787976D01*
X150419047Y-34749880D01*
X150380952Y-34673690D01*
X150342857Y-34521309D01*
X150304761Y-34445119D01*
X150266666Y-34407023D01*
X150190476Y-34368928D01*
X150114285Y-34368928D01*
X150038095Y-34407023D01*
X150000000Y-34445119D01*
X149961904Y-34521309D01*
X149961904Y-34711785D01*
X150000000Y-34826071D01*
X150761904Y-35168928D02*
X149961904Y-35168928D01*
X149961904Y-35359404D01*
X150000000Y-35473690D01*
X150076190Y-35549880D01*
X150152380Y-35587976D01*
X150304761Y-35626071D01*
X150419047Y-35626071D01*
X150571428Y-35587976D01*
X150647619Y-35549880D01*
X150723809Y-35473690D01*
X150761904Y-35359404D01*
X150761904Y-35168928D01*
X150533333Y-35930833D02*
X150533333Y-36311785D01*
X150761904Y-35854642D02*
X149961904Y-36121309D01*
X150761904Y-36387976D01*
X155923809Y-37468928D02*
X155961904Y-37583214D01*
X155961904Y-37773690D01*
X155923809Y-37849880D01*
X155885714Y-37887976D01*
X155809523Y-37926071D01*
X155733333Y-37926071D01*
X155657142Y-37887976D01*
X155619047Y-37849880D01*
X155580952Y-37773690D01*
X155542857Y-37621309D01*
X155504761Y-37545119D01*
X155466666Y-37507023D01*
X155390476Y-37468928D01*
X155314285Y-37468928D01*
X155238095Y-37507023D01*
X155200000Y-37545119D01*
X155161904Y-37621309D01*
X155161904Y-37811785D01*
X155200000Y-37926071D01*
X155961904Y-38268928D02*
X155161904Y-38268928D01*
X155161904Y-38459404D01*
X155200000Y-38573690D01*
X155276190Y-38649880D01*
X155352380Y-38687976D01*
X155504761Y-38726071D01*
X155619047Y-38726071D01*
X155771428Y-38687976D01*
X155847619Y-38649880D01*
X155923809Y-38573690D01*
X155961904Y-38459404D01*
X155961904Y-38268928D01*
X155961904Y-39449880D02*
X155961904Y-39068928D01*
X155161904Y-39068928D01*
X152723809Y-37468928D02*
X152761904Y-37583214D01*
X152761904Y-37773690D01*
X152723809Y-37849880D01*
X152685714Y-37887976D01*
X152609523Y-37926071D01*
X152533333Y-37926071D01*
X152457142Y-37887976D01*
X152419047Y-37849880D01*
X152380952Y-37773690D01*
X152342857Y-37621309D01*
X152304761Y-37545119D01*
X152266666Y-37507023D01*
X152190476Y-37468928D01*
X152114285Y-37468928D01*
X152038095Y-37507023D01*
X152000000Y-37545119D01*
X151961904Y-37621309D01*
X151961904Y-37811785D01*
X152000000Y-37926071D01*
X152761904Y-38268928D02*
X151961904Y-38268928D01*
X151961904Y-38459404D01*
X152000000Y-38573690D01*
X152076190Y-38649880D01*
X152152380Y-38687976D01*
X152304761Y-38726071D01*
X152419047Y-38726071D01*
X152571428Y-38687976D01*
X152647619Y-38649880D01*
X152723809Y-38573690D01*
X152761904Y-38459404D01*
X152761904Y-38268928D01*
X152761904Y-39449880D02*
X152761904Y-39068928D01*
X151961904Y-39068928D01*
X157923809Y-34368928D02*
X157961904Y-34483214D01*
X157961904Y-34673690D01*
X157923809Y-34749880D01*
X157885714Y-34787976D01*
X157809523Y-34826071D01*
X157733333Y-34826071D01*
X157657142Y-34787976D01*
X157619047Y-34749880D01*
X157580952Y-34673690D01*
X157542857Y-34521309D01*
X157504761Y-34445119D01*
X157466666Y-34407023D01*
X157390476Y-34368928D01*
X157314285Y-34368928D01*
X157238095Y-34407023D01*
X157200000Y-34445119D01*
X157161904Y-34521309D01*
X157161904Y-34711785D01*
X157200000Y-34826071D01*
X157961904Y-35168928D02*
X157161904Y-35168928D01*
X157161904Y-35359404D01*
X157200000Y-35473690D01*
X157276190Y-35549880D01*
X157352380Y-35587976D01*
X157504761Y-35626071D01*
X157619047Y-35626071D01*
X157771428Y-35587976D01*
X157847619Y-35549880D01*
X157923809Y-35473690D01*
X157961904Y-35359404D01*
X157961904Y-35168928D01*
X157733333Y-35930833D02*
X157733333Y-36311785D01*
X157961904Y-35854642D02*
X157161904Y-36121309D01*
X157961904Y-36387976D01*
G04 #@! TO.C,U1*
D15*
X182761904Y-25036380D02*
X182761904Y-25845904D01*
X182714285Y-25941142D01*
X182666666Y-25988761D01*
X182571428Y-26036380D01*
X182380952Y-26036380D01*
X182285714Y-25988761D01*
X182238095Y-25941142D01*
X182190476Y-25845904D01*
X182190476Y-25036380D01*
X181190476Y-26036380D02*
X181761904Y-26036380D01*
X181476190Y-26036380D02*
X181476190Y-25036380D01*
X181571428Y-25179238D01*
X181666666Y-25274476D01*
X181761904Y-25322095D01*
X184595238Y-27544571D02*
X184928571Y-27544571D01*
X184928571Y-28068380D02*
X184928571Y-27068380D01*
X184452380Y-27068380D01*
X184071428Y-27544571D02*
X183738095Y-27544571D01*
X183595238Y-28068380D02*
X184071428Y-28068380D01*
X184071428Y-27068380D01*
X183595238Y-27068380D01*
X183214285Y-27782666D02*
X182738095Y-27782666D01*
X183309523Y-28068380D02*
X182976190Y-27068380D01*
X182642857Y-28068380D01*
X182452380Y-27068380D02*
X181880952Y-27068380D01*
X182166666Y-28068380D02*
X182166666Y-27068380D01*
X181547619Y-28068380D02*
X181547619Y-27068380D01*
X181547619Y-27544571D02*
X180976190Y-27544571D01*
X180976190Y-28068380D02*
X180976190Y-27068380D01*
X180500000Y-27544571D02*
X180166666Y-27544571D01*
X180023809Y-28068380D02*
X180500000Y-28068380D01*
X180500000Y-27068380D01*
X180023809Y-27068380D01*
X179023809Y-28068380D02*
X179357142Y-27592190D01*
X179595238Y-28068380D02*
X179595238Y-27068380D01*
X179214285Y-27068380D01*
X179119047Y-27116000D01*
X179071428Y-27163619D01*
X179023809Y-27258857D01*
X179023809Y-27401714D01*
X179071428Y-27496952D01*
X179119047Y-27544571D01*
X179214285Y-27592190D01*
X179595238Y-27592190D01*
D11*
X169990119Y-51053809D02*
X170066309Y-51091904D01*
X170218690Y-51091904D01*
X170294880Y-51053809D01*
X170332976Y-51015714D01*
X170371071Y-50939523D01*
X170371071Y-50710952D01*
X170332976Y-50634761D01*
X170294880Y-50596666D01*
X170218690Y-50558571D01*
X170066309Y-50558571D01*
X169990119Y-50596666D01*
X169532976Y-51091904D02*
X169609166Y-51053809D01*
X169647261Y-51015714D01*
X169685357Y-50939523D01*
X169685357Y-50710952D01*
X169647261Y-50634761D01*
X169609166Y-50596666D01*
X169532976Y-50558571D01*
X169418690Y-50558571D01*
X169342500Y-50596666D01*
X169304404Y-50634761D01*
X169266309Y-50710952D01*
X169266309Y-50939523D01*
X169304404Y-51015714D01*
X169342500Y-51053809D01*
X169418690Y-51091904D01*
X169532976Y-51091904D01*
X168809166Y-51091904D02*
X168885357Y-51053809D01*
X168923452Y-50977619D01*
X168923452Y-50291904D01*
X168352023Y-50291904D02*
X168275833Y-50291904D01*
X168199642Y-50330000D01*
X168161547Y-50368095D01*
X168123452Y-50444285D01*
X168085357Y-50596666D01*
X168085357Y-50787142D01*
X168123452Y-50939523D01*
X168161547Y-51015714D01*
X168199642Y-51053809D01*
X168275833Y-51091904D01*
X168352023Y-51091904D01*
X168428214Y-51053809D01*
X168466309Y-51015714D01*
X168504404Y-50939523D01*
X168542500Y-50787142D01*
X168542500Y-50596666D01*
X168504404Y-50444285D01*
X168466309Y-50368095D01*
X168428214Y-50330000D01*
X168352023Y-50291904D01*
X169990119Y-53593809D02*
X170066309Y-53631904D01*
X170218690Y-53631904D01*
X170294880Y-53593809D01*
X170332976Y-53555714D01*
X170371071Y-53479523D01*
X170371071Y-53250952D01*
X170332976Y-53174761D01*
X170294880Y-53136666D01*
X170218690Y-53098571D01*
X170066309Y-53098571D01*
X169990119Y-53136666D01*
X169532976Y-53631904D02*
X169609166Y-53593809D01*
X169647261Y-53555714D01*
X169685357Y-53479523D01*
X169685357Y-53250952D01*
X169647261Y-53174761D01*
X169609166Y-53136666D01*
X169532976Y-53098571D01*
X169418690Y-53098571D01*
X169342500Y-53136666D01*
X169304404Y-53174761D01*
X169266309Y-53250952D01*
X169266309Y-53479523D01*
X169304404Y-53555714D01*
X169342500Y-53593809D01*
X169418690Y-53631904D01*
X169532976Y-53631904D01*
X168809166Y-53631904D02*
X168885357Y-53593809D01*
X168923452Y-53517619D01*
X168923452Y-52831904D01*
X168542500Y-52908095D02*
X168504404Y-52870000D01*
X168428214Y-52831904D01*
X168237738Y-52831904D01*
X168161547Y-52870000D01*
X168123452Y-52908095D01*
X168085357Y-52984285D01*
X168085357Y-53060476D01*
X168123452Y-53174761D01*
X168580595Y-53631904D01*
X168085357Y-53631904D01*
X169990119Y-56133809D02*
X170066309Y-56171904D01*
X170218690Y-56171904D01*
X170294880Y-56133809D01*
X170332976Y-56095714D01*
X170371071Y-56019523D01*
X170371071Y-55790952D01*
X170332976Y-55714761D01*
X170294880Y-55676666D01*
X170218690Y-55638571D01*
X170066309Y-55638571D01*
X169990119Y-55676666D01*
X169532976Y-56171904D02*
X169609166Y-56133809D01*
X169647261Y-56095714D01*
X169685357Y-56019523D01*
X169685357Y-55790952D01*
X169647261Y-55714761D01*
X169609166Y-55676666D01*
X169532976Y-55638571D01*
X169418690Y-55638571D01*
X169342500Y-55676666D01*
X169304404Y-55714761D01*
X169266309Y-55790952D01*
X169266309Y-56019523D01*
X169304404Y-56095714D01*
X169342500Y-56133809D01*
X169418690Y-56171904D01*
X169532976Y-56171904D01*
X168809166Y-56171904D02*
X168885357Y-56133809D01*
X168923452Y-56057619D01*
X168923452Y-55371904D01*
X168161547Y-55638571D02*
X168161547Y-56171904D01*
X168352023Y-55333809D02*
X168542500Y-55905238D01*
X168047261Y-55905238D01*
X169990119Y-58673809D02*
X170066309Y-58711904D01*
X170218690Y-58711904D01*
X170294880Y-58673809D01*
X170332976Y-58635714D01*
X170371071Y-58559523D01*
X170371071Y-58330952D01*
X170332976Y-58254761D01*
X170294880Y-58216666D01*
X170218690Y-58178571D01*
X170066309Y-58178571D01*
X169990119Y-58216666D01*
X169532976Y-58711904D02*
X169609166Y-58673809D01*
X169647261Y-58635714D01*
X169685357Y-58559523D01*
X169685357Y-58330952D01*
X169647261Y-58254761D01*
X169609166Y-58216666D01*
X169532976Y-58178571D01*
X169418690Y-58178571D01*
X169342500Y-58216666D01*
X169304404Y-58254761D01*
X169266309Y-58330952D01*
X169266309Y-58559523D01*
X169304404Y-58635714D01*
X169342500Y-58673809D01*
X169418690Y-58711904D01*
X169532976Y-58711904D01*
X168809166Y-58711904D02*
X168885357Y-58673809D01*
X168923452Y-58597619D01*
X168923452Y-57911904D01*
X168123452Y-57911904D02*
X168504404Y-57911904D01*
X168542500Y-58292857D01*
X168504404Y-58254761D01*
X168428214Y-58216666D01*
X168237738Y-58216666D01*
X168161547Y-58254761D01*
X168123452Y-58292857D01*
X168085357Y-58369047D01*
X168085357Y-58559523D01*
X168123452Y-58635714D01*
X168161547Y-58673809D01*
X168237738Y-58711904D01*
X168428214Y-58711904D01*
X168504404Y-58673809D01*
X168542500Y-58635714D01*
X169990119Y-61213809D02*
X170066309Y-61251904D01*
X170218690Y-61251904D01*
X170294880Y-61213809D01*
X170332976Y-61175714D01*
X170371071Y-61099523D01*
X170371071Y-60870952D01*
X170332976Y-60794761D01*
X170294880Y-60756666D01*
X170218690Y-60718571D01*
X170066309Y-60718571D01*
X169990119Y-60756666D01*
X169532976Y-61251904D02*
X169609166Y-61213809D01*
X169647261Y-61175714D01*
X169685357Y-61099523D01*
X169685357Y-60870952D01*
X169647261Y-60794761D01*
X169609166Y-60756666D01*
X169532976Y-60718571D01*
X169418690Y-60718571D01*
X169342500Y-60756666D01*
X169304404Y-60794761D01*
X169266309Y-60870952D01*
X169266309Y-61099523D01*
X169304404Y-61175714D01*
X169342500Y-61213809D01*
X169418690Y-61251904D01*
X169532976Y-61251904D01*
X168809166Y-61251904D02*
X168885357Y-61213809D01*
X168923452Y-61137619D01*
X168923452Y-60451904D01*
X168580595Y-60451904D02*
X168085357Y-60451904D01*
X168352023Y-60756666D01*
X168237738Y-60756666D01*
X168161547Y-60794761D01*
X168123452Y-60832857D01*
X168085357Y-60909047D01*
X168085357Y-61099523D01*
X168123452Y-61175714D01*
X168161547Y-61213809D01*
X168237738Y-61251904D01*
X168466309Y-61251904D01*
X168542500Y-61213809D01*
X168580595Y-61175714D01*
X169990119Y-63753809D02*
X170066309Y-63791904D01*
X170218690Y-63791904D01*
X170294880Y-63753809D01*
X170332976Y-63715714D01*
X170371071Y-63639523D01*
X170371071Y-63410952D01*
X170332976Y-63334761D01*
X170294880Y-63296666D01*
X170218690Y-63258571D01*
X170066309Y-63258571D01*
X169990119Y-63296666D01*
X169532976Y-63791904D02*
X169609166Y-63753809D01*
X169647261Y-63715714D01*
X169685357Y-63639523D01*
X169685357Y-63410952D01*
X169647261Y-63334761D01*
X169609166Y-63296666D01*
X169532976Y-63258571D01*
X169418690Y-63258571D01*
X169342500Y-63296666D01*
X169304404Y-63334761D01*
X169266309Y-63410952D01*
X169266309Y-63639523D01*
X169304404Y-63715714D01*
X169342500Y-63753809D01*
X169418690Y-63791904D01*
X169532976Y-63791904D01*
X168809166Y-63791904D02*
X168885357Y-63753809D01*
X168923452Y-63677619D01*
X168923452Y-62991904D01*
X168085357Y-63791904D02*
X168542500Y-63791904D01*
X168313928Y-63791904D02*
X168313928Y-62991904D01*
X168390119Y-63106190D01*
X168466309Y-63182380D01*
X168542500Y-63220476D01*
X170332976Y-66331904D02*
X170332976Y-65798571D01*
X170332976Y-65950952D02*
X170294880Y-65874761D01*
X170256785Y-65836666D01*
X170180595Y-65798571D01*
X170104404Y-65798571D01*
X169723452Y-66331904D02*
X169799642Y-66293809D01*
X169837738Y-66255714D01*
X169875833Y-66179523D01*
X169875833Y-65950952D01*
X169837738Y-65874761D01*
X169799642Y-65836666D01*
X169723452Y-65798571D01*
X169609166Y-65798571D01*
X169532976Y-65836666D01*
X169494880Y-65874761D01*
X169456785Y-65950952D01*
X169456785Y-66179523D01*
X169494880Y-66255714D01*
X169532976Y-66293809D01*
X169609166Y-66331904D01*
X169723452Y-66331904D01*
X169190119Y-65798571D02*
X169037738Y-66331904D01*
X168885357Y-65950952D01*
X168732976Y-66331904D01*
X168580595Y-65798571D01*
X167894880Y-65531904D02*
X168275833Y-65531904D01*
X168313928Y-65912857D01*
X168275833Y-65874761D01*
X168199642Y-65836666D01*
X168009166Y-65836666D01*
X167932976Y-65874761D01*
X167894880Y-65912857D01*
X167856785Y-65989047D01*
X167856785Y-66179523D01*
X167894880Y-66255714D01*
X167932976Y-66293809D01*
X168009166Y-66331904D01*
X168199642Y-66331904D01*
X168275833Y-66293809D01*
X168313928Y-66255714D01*
X194390833Y-68795714D02*
X194428928Y-68833809D01*
X194543214Y-68871904D01*
X194619404Y-68871904D01*
X194733690Y-68833809D01*
X194809880Y-68757619D01*
X194847976Y-68681428D01*
X194886071Y-68529047D01*
X194886071Y-68414761D01*
X194847976Y-68262380D01*
X194809880Y-68186190D01*
X194733690Y-68110000D01*
X194619404Y-68071904D01*
X194543214Y-68071904D01*
X194428928Y-68110000D01*
X194390833Y-68148095D01*
X194086071Y-68833809D02*
X193971785Y-68871904D01*
X193781309Y-68871904D01*
X193705119Y-68833809D01*
X193667023Y-68795714D01*
X193628928Y-68719523D01*
X193628928Y-68643333D01*
X193667023Y-68567142D01*
X193705119Y-68529047D01*
X193781309Y-68490952D01*
X193933690Y-68452857D01*
X194009880Y-68414761D01*
X194047976Y-68376666D01*
X194086071Y-68300476D01*
X194086071Y-68224285D01*
X194047976Y-68148095D01*
X194009880Y-68110000D01*
X193933690Y-68071904D01*
X193743214Y-68071904D01*
X193628928Y-68110000D01*
X196105119Y-66331904D02*
X196105119Y-65798571D01*
X196105119Y-65950952D02*
X196067023Y-65874761D01*
X196028928Y-65836666D01*
X195952738Y-65798571D01*
X195876547Y-65798571D01*
X195495595Y-66331904D02*
X195571785Y-66293809D01*
X195609880Y-66255714D01*
X195647976Y-66179523D01*
X195647976Y-65950952D01*
X195609880Y-65874761D01*
X195571785Y-65836666D01*
X195495595Y-65798571D01*
X195381309Y-65798571D01*
X195305119Y-65836666D01*
X195267023Y-65874761D01*
X195228928Y-65950952D01*
X195228928Y-66179523D01*
X195267023Y-66255714D01*
X195305119Y-66293809D01*
X195381309Y-66331904D01*
X195495595Y-66331904D01*
X194962261Y-65798571D02*
X194809880Y-66331904D01*
X194657500Y-65950952D01*
X194505119Y-66331904D01*
X194352738Y-65798571D01*
X194086071Y-65608095D02*
X194047976Y-65570000D01*
X193971785Y-65531904D01*
X193781309Y-65531904D01*
X193705119Y-65570000D01*
X193667023Y-65608095D01*
X193628928Y-65684285D01*
X193628928Y-65760476D01*
X193667023Y-65874761D01*
X194124166Y-66331904D01*
X193628928Y-66331904D01*
X196105119Y-56171904D02*
X196105119Y-55638571D01*
X196105119Y-55790952D02*
X196067023Y-55714761D01*
X196028928Y-55676666D01*
X195952738Y-55638571D01*
X195876547Y-55638571D01*
X195495595Y-56171904D02*
X195571785Y-56133809D01*
X195609880Y-56095714D01*
X195647976Y-56019523D01*
X195647976Y-55790952D01*
X195609880Y-55714761D01*
X195571785Y-55676666D01*
X195495595Y-55638571D01*
X195381309Y-55638571D01*
X195305119Y-55676666D01*
X195267023Y-55714761D01*
X195228928Y-55790952D01*
X195228928Y-56019523D01*
X195267023Y-56095714D01*
X195305119Y-56133809D01*
X195381309Y-56171904D01*
X195495595Y-56171904D01*
X194962261Y-55638571D02*
X194809880Y-56171904D01*
X194657500Y-55790952D01*
X194505119Y-56171904D01*
X194352738Y-55638571D01*
X194124166Y-55371904D02*
X193628928Y-55371904D01*
X193895595Y-55676666D01*
X193781309Y-55676666D01*
X193705119Y-55714761D01*
X193667023Y-55752857D01*
X193628928Y-55829047D01*
X193628928Y-56019523D01*
X193667023Y-56095714D01*
X193705119Y-56133809D01*
X193781309Y-56171904D01*
X194009880Y-56171904D01*
X194086071Y-56133809D01*
X194124166Y-56095714D01*
X196105119Y-53631904D02*
X196105119Y-53098571D01*
X196105119Y-53250952D02*
X196067023Y-53174761D01*
X196028928Y-53136666D01*
X195952738Y-53098571D01*
X195876547Y-53098571D01*
X195495595Y-53631904D02*
X195571785Y-53593809D01*
X195609880Y-53555714D01*
X195647976Y-53479523D01*
X195647976Y-53250952D01*
X195609880Y-53174761D01*
X195571785Y-53136666D01*
X195495595Y-53098571D01*
X195381309Y-53098571D01*
X195305119Y-53136666D01*
X195267023Y-53174761D01*
X195228928Y-53250952D01*
X195228928Y-53479523D01*
X195267023Y-53555714D01*
X195305119Y-53593809D01*
X195381309Y-53631904D01*
X195495595Y-53631904D01*
X194962261Y-53098571D02*
X194809880Y-53631904D01*
X194657500Y-53250952D01*
X194505119Y-53631904D01*
X194352738Y-53098571D01*
X193705119Y-53098571D02*
X193705119Y-53631904D01*
X193895595Y-52793809D02*
X194086071Y-53365238D01*
X193590833Y-53365238D01*
X196105119Y-51091904D02*
X196105119Y-50558571D01*
X196105119Y-50710952D02*
X196067023Y-50634761D01*
X196028928Y-50596666D01*
X195952738Y-50558571D01*
X195876547Y-50558571D01*
X195495595Y-51091904D02*
X195571785Y-51053809D01*
X195609880Y-51015714D01*
X195647976Y-50939523D01*
X195647976Y-50710952D01*
X195609880Y-50634761D01*
X195571785Y-50596666D01*
X195495595Y-50558571D01*
X195381309Y-50558571D01*
X195305119Y-50596666D01*
X195267023Y-50634761D01*
X195228928Y-50710952D01*
X195228928Y-50939523D01*
X195267023Y-51015714D01*
X195305119Y-51053809D01*
X195381309Y-51091904D01*
X195495595Y-51091904D01*
X194962261Y-50558571D02*
X194809880Y-51091904D01*
X194657500Y-50710952D01*
X194505119Y-51091904D01*
X194352738Y-50558571D01*
X193628928Y-51091904D02*
X194086071Y-51091904D01*
X193857500Y-51091904D02*
X193857500Y-50291904D01*
X193933690Y-50406190D01*
X194009880Y-50482380D01*
X194086071Y-50520476D01*
X196105119Y-48551904D02*
X196105119Y-48018571D01*
X196105119Y-48170952D02*
X196067023Y-48094761D01*
X196028928Y-48056666D01*
X195952738Y-48018571D01*
X195876547Y-48018571D01*
X195495595Y-48551904D02*
X195571785Y-48513809D01*
X195609880Y-48475714D01*
X195647976Y-48399523D01*
X195647976Y-48170952D01*
X195609880Y-48094761D01*
X195571785Y-48056666D01*
X195495595Y-48018571D01*
X195381309Y-48018571D01*
X195305119Y-48056666D01*
X195267023Y-48094761D01*
X195228928Y-48170952D01*
X195228928Y-48399523D01*
X195267023Y-48475714D01*
X195305119Y-48513809D01*
X195381309Y-48551904D01*
X195495595Y-48551904D01*
X194962261Y-48018571D02*
X194809880Y-48551904D01*
X194657500Y-48170952D01*
X194505119Y-48551904D01*
X194352738Y-48018571D01*
X193895595Y-47751904D02*
X193819404Y-47751904D01*
X193743214Y-47790000D01*
X193705119Y-47828095D01*
X193667023Y-47904285D01*
X193628928Y-48056666D01*
X193628928Y-48247142D01*
X193667023Y-48399523D01*
X193705119Y-48475714D01*
X193743214Y-48513809D01*
X193819404Y-48551904D01*
X193895595Y-48551904D01*
X193971785Y-48513809D01*
X194009880Y-48475714D01*
X194047976Y-48399523D01*
X194086071Y-48247142D01*
X194086071Y-48056666D01*
X194047976Y-47904285D01*
X194009880Y-47828095D01*
X193971785Y-47790000D01*
X193895595Y-47751904D01*
X195305119Y-44879000D02*
X194924166Y-44879000D01*
X195114642Y-46011904D02*
X195114642Y-45211904D01*
X194924166Y-44879000D02*
X194086071Y-44879000D01*
X194733690Y-46011904D02*
X194733690Y-45211904D01*
X194276547Y-46011904D01*
X194276547Y-45211904D01*
X194086071Y-44879000D02*
X193476547Y-44879000D01*
X194009880Y-45211904D02*
X193552738Y-45211904D01*
X193781309Y-46011904D02*
X193781309Y-45211904D01*
X193476547Y-44879000D02*
X192867023Y-44879000D01*
X192867023Y-44879000D02*
X192257500Y-44879000D01*
X195571785Y-35051904D02*
X195076547Y-35051904D01*
X195343214Y-35356666D01*
X195228928Y-35356666D01*
X195152738Y-35394761D01*
X195114642Y-35432857D01*
X195076547Y-35509047D01*
X195076547Y-35699523D01*
X195114642Y-35775714D01*
X195152738Y-35813809D01*
X195228928Y-35851904D01*
X195457500Y-35851904D01*
X195533690Y-35813809D01*
X195571785Y-35775714D01*
X194847976Y-35051904D02*
X194581309Y-35851904D01*
X194314642Y-35051904D01*
X194124166Y-35051904D02*
X193628928Y-35051904D01*
X193895595Y-35356666D01*
X193781309Y-35356666D01*
X193705119Y-35394761D01*
X193667023Y-35432857D01*
X193628928Y-35509047D01*
X193628928Y-35699523D01*
X193667023Y-35775714D01*
X193705119Y-35813809D01*
X193781309Y-35851904D01*
X194009880Y-35851904D01*
X194086071Y-35813809D01*
X194124166Y-35775714D01*
G04 #@! TO.C,J4*
X113179496Y-35661203D02*
X112917060Y-35241217D01*
X112799919Y-35628862D01*
X112739357Y-35531943D01*
X112666676Y-35487517D01*
X112614182Y-35475398D01*
X112529381Y-35483466D01*
X112367848Y-35584403D01*
X112323422Y-35657084D01*
X112311303Y-35709578D01*
X112319371Y-35794379D01*
X112440496Y-35988218D01*
X112513177Y-36032644D01*
X112565671Y-36044763D01*
X112795936Y-35047377D02*
X111976185Y-35245167D01*
X112513312Y-34595085D01*
X112412375Y-34433552D02*
X112149939Y-34013566D01*
X112032798Y-34401212D01*
X111972236Y-34304292D01*
X111899554Y-34259866D01*
X111847060Y-34247747D01*
X111762260Y-34255815D01*
X111600727Y-34356752D01*
X111556301Y-34429434D01*
X111544182Y-34481928D01*
X111552250Y-34566728D01*
X111673374Y-34760568D01*
X111746056Y-34804994D01*
X111798550Y-34817113D01*
X119810272Y-28709772D02*
X119818340Y-28794573D01*
X119899090Y-28923799D01*
X119971771Y-28968225D01*
X120024265Y-28980344D01*
X120109066Y-28972276D01*
X120302905Y-28851152D01*
X120347331Y-28778470D01*
X120359450Y-28725976D01*
X120351382Y-28641176D01*
X120270632Y-28511949D01*
X120197951Y-28467524D01*
X119535716Y-28342281D02*
X119608398Y-28386706D01*
X119660892Y-28398826D01*
X119745692Y-28390757D01*
X119939532Y-28269633D01*
X119983958Y-28196952D01*
X119996077Y-28144458D01*
X119988009Y-28059657D01*
X119927447Y-27962737D01*
X119854765Y-27918311D01*
X119802271Y-27906192D01*
X119717471Y-27914260D01*
X119523631Y-28035385D01*
X119479205Y-28108066D01*
X119467086Y-28160560D01*
X119475154Y-28245361D01*
X119535716Y-28342281D01*
X119152156Y-27728455D02*
X119224837Y-27772881D01*
X119309638Y-27764813D01*
X119891157Y-27401440D01*
X119588346Y-26916841D02*
X119547971Y-26852228D01*
X119475289Y-26807802D01*
X119422795Y-26795683D01*
X119337995Y-26803751D01*
X119188581Y-26852194D01*
X119027048Y-26953131D01*
X118918009Y-27066187D01*
X118873583Y-27138868D01*
X118861464Y-27191362D01*
X118869532Y-27276163D01*
X118909907Y-27340776D01*
X118982588Y-27385202D01*
X119035082Y-27397321D01*
X119119883Y-27389253D01*
X119269297Y-27340810D01*
X119430830Y-27239873D01*
X119539869Y-27126817D01*
X119584295Y-27054135D01*
X119596414Y-27001641D01*
X119588346Y-26916841D01*
X125475945Y-36094207D02*
X125928238Y-35811583D01*
X125799011Y-35892332D02*
X125843437Y-35819651D01*
X125855556Y-35767157D01*
X125847488Y-35682357D01*
X125807113Y-35617743D01*
X125152947Y-35577301D02*
X125225628Y-35621727D01*
X125278122Y-35633846D01*
X125362923Y-35625778D01*
X125556763Y-35504653D01*
X125601188Y-35431972D01*
X125613308Y-35379478D01*
X125605239Y-35294677D01*
X125544677Y-35197758D01*
X125471996Y-35153332D01*
X125419502Y-35141213D01*
X125334701Y-35149281D01*
X125140862Y-35270405D01*
X125096436Y-35343087D01*
X125084317Y-35395581D01*
X125092385Y-35480381D01*
X125152947Y-35577301D01*
X125322616Y-34842385D02*
X124789574Y-34995782D01*
X125031890Y-34664682D01*
X124628075Y-34737330D01*
X124999617Y-34325480D01*
X124862390Y-33602649D02*
X125064264Y-33925715D01*
X124761386Y-34159896D01*
X124773505Y-34107402D01*
X124765437Y-34022601D01*
X124664500Y-33861068D01*
X124591818Y-33816642D01*
X124539324Y-33804523D01*
X124454524Y-33812591D01*
X124292991Y-33913528D01*
X124248565Y-33986210D01*
X124236446Y-34038704D01*
X124244514Y-34123504D01*
X124345451Y-34285037D01*
X124418132Y-34329463D01*
X124470626Y-34341582D01*
X122348725Y-28621128D02*
X122356793Y-28705929D01*
X122437543Y-28835155D01*
X122510224Y-28879581D01*
X122562718Y-28891700D01*
X122647519Y-28883632D01*
X122841358Y-28762508D01*
X122885784Y-28689826D01*
X122897903Y-28637332D01*
X122889835Y-28552532D01*
X122809085Y-28423305D01*
X122736404Y-28378880D01*
X122074169Y-28253637D02*
X122146851Y-28298062D01*
X122199345Y-28310182D01*
X122284145Y-28302113D01*
X122477985Y-28180989D01*
X122522411Y-28108308D01*
X122534530Y-28055814D01*
X122526462Y-27971013D01*
X122465900Y-27874093D01*
X122393218Y-27829667D01*
X122340724Y-27817548D01*
X122255924Y-27825616D01*
X122062084Y-27946741D01*
X122017658Y-28019422D01*
X122005539Y-28071916D01*
X122013607Y-28156717D01*
X122074169Y-28253637D01*
X121690609Y-27639811D02*
X121763290Y-27684237D01*
X121848091Y-27676169D01*
X122429610Y-27312796D01*
X122247923Y-27022036D02*
X121985487Y-26602051D01*
X121868346Y-26989696D01*
X121807784Y-26892776D01*
X121735102Y-26848350D01*
X121682608Y-26836231D01*
X121597808Y-26844299D01*
X121436275Y-26945236D01*
X121391849Y-27017918D01*
X121379730Y-27070412D01*
X121387798Y-27155212D01*
X121508922Y-27349052D01*
X121581604Y-27393478D01*
X121634098Y-27405597D01*
X128014397Y-36005563D02*
X128466690Y-35722939D01*
X128337463Y-35803688D02*
X128381889Y-35731007D01*
X128394008Y-35678513D01*
X128385940Y-35593713D01*
X128345565Y-35529099D01*
X127691399Y-35488657D02*
X127764080Y-35533083D01*
X127816574Y-35545202D01*
X127901375Y-35537134D01*
X128095215Y-35416009D01*
X128139640Y-35343328D01*
X128151760Y-35290834D01*
X128143691Y-35206033D01*
X128083129Y-35109114D01*
X128010448Y-35064688D01*
X127957954Y-35052569D01*
X127873153Y-35060637D01*
X127679314Y-35181761D01*
X127634888Y-35254443D01*
X127622769Y-35306937D01*
X127630837Y-35391737D01*
X127691399Y-35488657D01*
X127861068Y-34753741D02*
X127328026Y-34907138D01*
X127570342Y-34576038D01*
X127166527Y-34648686D01*
X127538069Y-34236836D01*
X127194884Y-33687623D02*
X126742591Y-33970247D01*
X127554273Y-33687657D02*
X127170611Y-34152001D01*
X126908175Y-33732015D01*
X124887177Y-28532483D02*
X124895245Y-28617284D01*
X124975995Y-28746510D01*
X125048676Y-28790936D01*
X125101170Y-28803055D01*
X125185971Y-28794987D01*
X125379810Y-28673863D01*
X125424236Y-28601181D01*
X125436355Y-28548687D01*
X125428287Y-28463887D01*
X125347537Y-28334660D01*
X125274856Y-28290235D01*
X124612621Y-28164992D02*
X124685303Y-28209417D01*
X124737797Y-28221537D01*
X124822597Y-28213468D01*
X125016437Y-28092344D01*
X125060863Y-28019663D01*
X125072982Y-27967169D01*
X125064914Y-27882368D01*
X125004352Y-27785448D01*
X124931670Y-27741022D01*
X124879176Y-27728903D01*
X124794376Y-27736971D01*
X124600536Y-27858096D01*
X124556110Y-27930777D01*
X124543991Y-27983271D01*
X124552059Y-28068072D01*
X124612621Y-28164992D01*
X124229061Y-27551166D02*
X124301742Y-27595592D01*
X124386543Y-27587524D01*
X124968062Y-27224151D01*
X124544126Y-26545712D02*
X124746000Y-26868778D01*
X124443122Y-27102959D01*
X124455241Y-27050465D01*
X124447173Y-26965664D01*
X124346236Y-26804131D01*
X124273554Y-26759705D01*
X124221060Y-26747586D01*
X124136260Y-26755654D01*
X123974727Y-26856591D01*
X123930301Y-26929273D01*
X123918182Y-26981767D01*
X123926250Y-27066567D01*
X124027187Y-27228100D01*
X124099868Y-27272526D01*
X124152362Y-27284645D01*
X130552850Y-35916918D02*
X131005143Y-35634294D01*
X130875916Y-35715043D02*
X130920342Y-35642362D01*
X130932461Y-35589868D01*
X130924393Y-35505068D01*
X130884018Y-35440454D01*
X130229852Y-35400012D02*
X130302533Y-35444438D01*
X130355027Y-35456557D01*
X130439828Y-35448489D01*
X130633668Y-35327364D01*
X130678093Y-35254683D01*
X130690213Y-35202189D01*
X130682144Y-35117388D01*
X130621582Y-35020469D01*
X130548901Y-34976043D01*
X130496407Y-34963924D01*
X130411606Y-34971992D01*
X130217767Y-35093116D01*
X130173341Y-35165798D01*
X130161222Y-35218292D01*
X130169290Y-35303092D01*
X130229852Y-35400012D01*
X130399521Y-34665096D02*
X129866479Y-34818493D01*
X130108795Y-34487393D01*
X129704980Y-34560041D01*
X130076522Y-34148191D01*
X130181544Y-33813039D02*
X129919108Y-33393053D01*
X129801967Y-33780699D01*
X129741405Y-33683779D01*
X129668723Y-33639353D01*
X129616229Y-33627234D01*
X129531429Y-33635302D01*
X129369896Y-33736239D01*
X129325470Y-33808921D01*
X129313351Y-33861415D01*
X129321419Y-33946215D01*
X129442543Y-34140055D01*
X129515225Y-34184481D01*
X129567719Y-34196600D01*
X127425630Y-28443838D02*
X127433698Y-28528639D01*
X127514448Y-28657865D01*
X127587129Y-28702291D01*
X127639623Y-28714410D01*
X127724424Y-28706342D01*
X127918263Y-28585218D01*
X127962689Y-28512536D01*
X127974808Y-28460042D01*
X127966740Y-28375242D01*
X127885990Y-28246015D01*
X127813309Y-28201590D01*
X127151074Y-28076347D02*
X127223756Y-28120772D01*
X127276250Y-28132892D01*
X127361050Y-28124823D01*
X127554890Y-28003699D01*
X127599316Y-27931018D01*
X127611435Y-27878524D01*
X127603367Y-27793723D01*
X127542805Y-27696803D01*
X127470123Y-27652377D01*
X127417629Y-27640258D01*
X127332829Y-27648326D01*
X127138989Y-27769451D01*
X127094563Y-27842132D01*
X127082444Y-27894626D01*
X127090512Y-27979427D01*
X127151074Y-28076347D01*
X126767514Y-27462521D02*
X126840195Y-27506947D01*
X126924996Y-27498879D01*
X127506515Y-27135506D01*
X126876620Y-26630686D02*
X126424328Y-26913309D01*
X127236010Y-26630719D02*
X126852348Y-27095063D01*
X126589912Y-26675078D01*
X133091303Y-35828273D02*
X133543596Y-35545649D01*
X133414369Y-35626398D02*
X133458795Y-35553717D01*
X133470914Y-35501223D01*
X133462846Y-35416423D01*
X133422471Y-35351809D01*
X132768305Y-35311367D02*
X132840986Y-35355793D01*
X132893480Y-35367912D01*
X132978281Y-35359844D01*
X133172121Y-35238719D01*
X133216546Y-35166038D01*
X133228666Y-35113544D01*
X133220597Y-35028743D01*
X133160035Y-34931824D01*
X133087354Y-34887398D01*
X133034860Y-34875279D01*
X132950059Y-34883347D01*
X132756220Y-35004471D01*
X132711794Y-35077153D01*
X132699675Y-35129647D01*
X132707743Y-35214447D01*
X132768305Y-35311367D01*
X132937974Y-34576451D02*
X132404932Y-34729848D01*
X132647248Y-34398748D01*
X132243433Y-34471396D01*
X132614975Y-34059546D01*
X132635196Y-33732462D02*
X132647316Y-33679968D01*
X132639247Y-33595168D01*
X132538310Y-33433635D01*
X132465629Y-33389209D01*
X132413135Y-33377090D01*
X132328335Y-33385158D01*
X132263721Y-33425533D01*
X132186989Y-33518402D01*
X132041559Y-34148330D01*
X131779122Y-33728344D01*
X129964083Y-28355194D02*
X129972151Y-28439995D01*
X130052901Y-28569221D01*
X130125582Y-28613647D01*
X130178076Y-28625766D01*
X130262877Y-28617698D01*
X130456716Y-28496574D01*
X130501142Y-28423892D01*
X130513261Y-28371398D01*
X130505193Y-28286598D01*
X130424443Y-28157371D01*
X130351762Y-28112946D01*
X129689527Y-27987703D02*
X129762209Y-28032128D01*
X129814703Y-28044248D01*
X129899503Y-28036179D01*
X130093343Y-27915055D01*
X130137769Y-27842374D01*
X130149888Y-27789880D01*
X130141820Y-27705079D01*
X130081258Y-27608159D01*
X130008576Y-27563733D01*
X129956082Y-27551614D01*
X129871282Y-27559682D01*
X129677442Y-27680807D01*
X129633016Y-27753488D01*
X129620897Y-27805982D01*
X129628965Y-27890783D01*
X129689527Y-27987703D01*
X129305967Y-27373877D02*
X129378648Y-27418303D01*
X129463449Y-27410235D01*
X130044968Y-27046862D01*
X129778480Y-26764171D02*
X129790600Y-26711677D01*
X129782531Y-26626876D01*
X129681594Y-26465343D01*
X129608913Y-26420917D01*
X129556419Y-26408798D01*
X129471618Y-26416866D01*
X129407005Y-26457241D01*
X129330273Y-26550110D01*
X129184842Y-27180038D01*
X128922406Y-26760052D01*
X135629755Y-35739629D02*
X136082048Y-35457005D01*
X135952821Y-35537754D02*
X135997247Y-35465073D01*
X136009366Y-35412579D01*
X136001298Y-35327779D01*
X135960923Y-35263165D01*
X135306757Y-35222723D02*
X135379438Y-35267149D01*
X135431932Y-35279268D01*
X135516733Y-35271200D01*
X135710573Y-35150075D01*
X135754998Y-35077394D01*
X135767118Y-35024900D01*
X135759049Y-34940099D01*
X135698487Y-34843180D01*
X135625806Y-34798754D01*
X135573312Y-34786635D01*
X135488511Y-34794703D01*
X135294672Y-34915827D01*
X135250246Y-34988509D01*
X135238127Y-35041003D01*
X135246195Y-35125803D01*
X135306757Y-35222723D01*
X135476426Y-34487807D02*
X134943384Y-34641204D01*
X135185700Y-34310104D01*
X134781885Y-34382752D01*
X135153427Y-33970902D01*
X134317574Y-33639700D02*
X134559823Y-34027379D01*
X134438699Y-33833539D02*
X135117137Y-33409604D01*
X135060592Y-33534779D01*
X135036354Y-33639767D01*
X135044422Y-33724568D01*
X110229911Y-28616178D02*
X110302593Y-28660603D01*
X110363155Y-28757523D01*
X110391411Y-28874630D01*
X110367172Y-28979618D01*
X110322746Y-29052300D01*
X110213707Y-29165356D01*
X110116788Y-29225918D01*
X109967374Y-29274361D01*
X109882573Y-29282429D01*
X109777585Y-29258191D01*
X109684717Y-29181459D01*
X109644342Y-29116845D01*
X109616086Y-28999738D01*
X109628205Y-28947244D01*
X109854351Y-28805932D01*
X109935101Y-28935159D01*
X109381905Y-28696860D02*
X110060344Y-28272924D01*
X109139657Y-28309181D01*
X109818095Y-27885245D01*
X108937783Y-27986115D02*
X109616221Y-27562179D01*
X109515284Y-27400646D01*
X109422415Y-27323914D01*
X109317427Y-27299675D01*
X109232627Y-27307744D01*
X109083213Y-27356187D01*
X108986293Y-27416749D01*
X108877254Y-27529805D01*
X108832828Y-27602486D01*
X108808590Y-27707474D01*
X108836846Y-27824582D01*
X108937783Y-27986115D01*
X132502536Y-28266549D02*
X132510604Y-28351350D01*
X132591354Y-28480576D01*
X132664035Y-28525002D01*
X132716529Y-28537121D01*
X132801330Y-28529053D01*
X132995169Y-28407929D01*
X133039595Y-28335247D01*
X133051714Y-28282753D01*
X133043646Y-28197953D01*
X132962896Y-28068726D01*
X132890215Y-28024301D01*
X132227980Y-27899058D02*
X132300662Y-27943483D01*
X132353156Y-27955603D01*
X132437956Y-27947534D01*
X132631796Y-27826410D01*
X132676222Y-27753729D01*
X132688341Y-27701235D01*
X132680273Y-27616434D01*
X132619711Y-27519514D01*
X132547029Y-27475088D01*
X132494535Y-27462969D01*
X132409735Y-27471037D01*
X132215895Y-27592162D01*
X132171469Y-27664843D01*
X132159350Y-27717337D01*
X132167418Y-27802138D01*
X132227980Y-27899058D01*
X131844420Y-27285232D02*
X131917101Y-27329658D01*
X132001902Y-27321590D01*
X132583421Y-26958217D01*
X131460859Y-26671407D02*
X131703108Y-27059086D01*
X131581984Y-26865247D02*
X132260422Y-26441311D01*
X132203877Y-26566487D01*
X132179639Y-26671475D01*
X132187707Y-26756275D01*
X137655489Y-34399128D02*
X137453615Y-34076062D01*
X137502024Y-34584866D02*
X138039151Y-33934784D01*
X137219401Y-34132574D01*
X137675778Y-33353266D02*
X137635403Y-33288652D01*
X137562721Y-33244227D01*
X137510227Y-33232107D01*
X137425427Y-33240176D01*
X137276013Y-33288619D01*
X137114480Y-33389556D01*
X137005441Y-33502612D01*
X136961015Y-33575293D01*
X136948896Y-33627787D01*
X136956964Y-33712588D01*
X136997339Y-33777201D01*
X137070021Y-33821627D01*
X137122515Y-33833746D01*
X137207315Y-33825678D01*
X137356729Y-33777235D01*
X137518262Y-33676298D01*
X137627301Y-33563242D01*
X137671727Y-33490560D01*
X137683846Y-33438066D01*
X137675778Y-33353266D01*
X136252063Y-28050036D02*
X136050189Y-27726970D01*
X135190368Y-28488851D02*
X135868806Y-28064916D01*
X136050189Y-27726970D02*
X135606066Y-27016225D01*
X134988494Y-28165785D02*
X135666932Y-27741850D01*
X134746245Y-27778106D01*
X135424684Y-27354171D01*
X135606066Y-27016225D02*
X135283067Y-26499320D01*
X135283372Y-27128024D02*
X135041123Y-26740345D01*
X134483809Y-27358120D02*
X135162247Y-26934185D01*
X135283067Y-26499320D02*
X134960069Y-25982414D01*
X134960069Y-25982414D02*
X134637071Y-25465509D01*
X141425475Y-35203016D02*
X140605724Y-35400806D01*
X141142851Y-34750724D01*
X140537162Y-34500306D02*
X140444293Y-34423573D01*
X140391799Y-34411454D01*
X140306998Y-34419522D01*
X140210078Y-34480084D01*
X140165653Y-34552766D01*
X140153533Y-34605260D01*
X140161602Y-34690060D01*
X140323101Y-34948513D01*
X141001539Y-34524578D01*
X140860228Y-34298432D01*
X140787546Y-34254006D01*
X140735052Y-34241887D01*
X140650252Y-34249955D01*
X140585638Y-34290330D01*
X140541213Y-34363011D01*
X140529093Y-34415505D01*
X140537162Y-34500306D01*
X140678473Y-34726452D01*
X140113192Y-34181257D02*
X139911318Y-33858191D01*
X139959728Y-34366995D02*
X140496854Y-33716913D01*
X139677104Y-33914702D01*
X140274793Y-33361540D02*
X140032544Y-32973861D01*
X139475230Y-33591636D02*
X140153668Y-33167701D01*
X138467822Y-28073191D02*
X137648071Y-28270980D01*
X138185198Y-27620898D01*
X137579508Y-27370480D02*
X137486640Y-27293747D01*
X137434146Y-27281628D01*
X137349345Y-27289697D01*
X137252425Y-27350259D01*
X137207999Y-27422940D01*
X137195880Y-27475434D01*
X137203948Y-27560235D01*
X137365448Y-27818687D01*
X138043886Y-27394752D01*
X137902574Y-27168606D01*
X137829893Y-27124180D01*
X137777399Y-27112061D01*
X137692598Y-27120129D01*
X137627985Y-27160504D01*
X137583559Y-27233185D01*
X137571440Y-27285679D01*
X137579508Y-27370480D01*
X137720820Y-27596626D01*
X137619951Y-26716314D02*
X137070739Y-27059499D01*
X136985938Y-27067568D01*
X136933444Y-27055448D01*
X136860763Y-27011023D01*
X136780013Y-26881796D01*
X136771945Y-26796996D01*
X136784064Y-26744502D01*
X136828490Y-26671820D01*
X137377702Y-26328634D01*
X136549883Y-26441623D02*
X136457015Y-26364891D01*
X136356078Y-26203358D01*
X136348009Y-26118557D01*
X136360129Y-26066063D01*
X136404554Y-25993382D01*
X136469168Y-25953007D01*
X136553968Y-25944939D01*
X136606462Y-25957058D01*
X136679144Y-26001484D01*
X136792200Y-26110523D01*
X136864881Y-26154948D01*
X136917375Y-26167068D01*
X137002176Y-26158999D01*
X137066789Y-26118625D01*
X137111215Y-26045943D01*
X137123334Y-25993449D01*
X137115266Y-25908649D01*
X137014329Y-25747116D01*
X136921460Y-25670383D01*
X115071817Y-35976306D02*
X114978949Y-35899573D01*
X114878012Y-35738040D01*
X114869943Y-35653240D01*
X114882063Y-35600746D01*
X114926488Y-35528064D01*
X114991102Y-35487690D01*
X115075902Y-35479621D01*
X115128396Y-35491741D01*
X115201078Y-35536166D01*
X115314134Y-35645205D01*
X115386815Y-35689631D01*
X115439309Y-35701750D01*
X115524110Y-35693682D01*
X115588723Y-35653307D01*
X115633149Y-35580626D01*
X115645268Y-35528132D01*
X115637200Y-35443331D01*
X115536263Y-35281798D01*
X115443394Y-35205066D01*
X114615575Y-35318055D02*
X115294014Y-34894119D01*
X115193077Y-34732586D01*
X115100208Y-34655854D01*
X114995220Y-34631616D01*
X114910420Y-34639684D01*
X114761006Y-34688127D01*
X114664086Y-34748689D01*
X114555047Y-34861745D01*
X114510621Y-34934427D01*
X114486383Y-35039415D01*
X114514638Y-35156522D01*
X114615575Y-35318055D01*
X114405667Y-34550798D02*
X114203793Y-34227732D01*
X114252202Y-34736536D02*
X114789329Y-34086454D01*
X113969579Y-34284244D01*
X112396788Y-29298773D02*
X112303919Y-29222041D01*
X112202982Y-29060508D01*
X112194914Y-28975707D01*
X112207033Y-28923213D01*
X112251459Y-28850532D01*
X112316072Y-28810157D01*
X112400873Y-28802089D01*
X112453367Y-28814208D01*
X112526048Y-28858634D01*
X112639104Y-28967673D01*
X112711786Y-29012099D01*
X112764280Y-29024218D01*
X112849080Y-29016150D01*
X112913693Y-28975775D01*
X112958119Y-28903094D01*
X112970238Y-28850600D01*
X112962170Y-28765799D01*
X112861233Y-28604266D01*
X112768364Y-28527534D01*
X111940546Y-28640522D02*
X112618984Y-28216587D01*
X112518047Y-28055054D01*
X112425179Y-27978321D01*
X112320191Y-27954083D01*
X112235390Y-27962151D01*
X112085976Y-28010594D01*
X111989056Y-28071157D01*
X111880017Y-28184213D01*
X111835592Y-28256894D01*
X111811353Y-28361882D01*
X111839609Y-28478989D01*
X111940546Y-28640522D01*
X111314736Y-27639018D02*
X111516610Y-27962084D01*
X112195049Y-27538148D01*
X117900961Y-36424755D02*
X118579400Y-36000819D01*
X117953489Y-36077484D01*
X118296776Y-35548527D01*
X117618338Y-35972462D01*
X117416464Y-35649396D02*
X118094902Y-35225461D01*
X117267084Y-35338450D02*
X117174215Y-35261717D01*
X117073278Y-35100184D01*
X117065210Y-35015384D01*
X117077329Y-34962890D01*
X117121755Y-34890208D01*
X117186368Y-34849834D01*
X117271168Y-34841765D01*
X117323662Y-34853885D01*
X117396344Y-34898310D01*
X117509400Y-35007349D01*
X117582081Y-35051775D01*
X117634575Y-35063894D01*
X117719376Y-35055826D01*
X117783989Y-35015451D01*
X117828415Y-34942770D01*
X117840534Y-34890276D01*
X117832466Y-34805475D01*
X117731529Y-34643942D01*
X117638660Y-34567210D01*
X117408530Y-34127037D02*
X117327781Y-33997810D01*
X117255099Y-33953385D01*
X117150111Y-33929146D01*
X117000698Y-33977589D01*
X116774552Y-34118901D01*
X116665513Y-34231957D01*
X116641274Y-34336945D01*
X116649342Y-34421746D01*
X116730092Y-34550972D01*
X116802773Y-34595398D01*
X116907761Y-34619636D01*
X117057175Y-34571193D01*
X117283321Y-34429882D01*
X117392360Y-34316825D01*
X117416599Y-34211837D01*
X117408530Y-34127037D01*
X114882747Y-29198009D02*
X115561185Y-28774074D01*
X114935275Y-28850739D01*
X115278562Y-28321781D01*
X114600123Y-28745717D01*
X114995938Y-27869489D02*
X114915189Y-27740263D01*
X114842507Y-27695837D01*
X114737519Y-27671599D01*
X114588105Y-27720042D01*
X114361959Y-27861353D01*
X114252920Y-27974410D01*
X114228682Y-28079398D01*
X114236750Y-28164198D01*
X114317500Y-28293424D01*
X114390181Y-28337850D01*
X114495169Y-28362089D01*
X114644583Y-28313646D01*
X114870729Y-28172334D01*
X114979768Y-28059278D01*
X115004006Y-27954290D01*
X114995938Y-27869489D01*
X114006620Y-27724025D02*
X113913752Y-27647293D01*
X113812815Y-27485760D01*
X113804746Y-27400959D01*
X113816866Y-27348465D01*
X113861291Y-27275784D01*
X113925905Y-27235409D01*
X114010705Y-27227341D01*
X114063199Y-27239460D01*
X114135881Y-27283886D01*
X114248937Y-27392925D01*
X114321618Y-27437350D01*
X114374112Y-27449470D01*
X114458913Y-27441401D01*
X114523526Y-27401027D01*
X114567952Y-27328345D01*
X114580071Y-27275851D01*
X114572003Y-27191051D01*
X114471066Y-27029518D01*
X114378197Y-26952785D01*
X113550378Y-27065774D02*
X114228817Y-26641839D01*
X120209285Y-35895937D02*
X120116416Y-35819204D01*
X120015479Y-35657671D01*
X120007411Y-35572871D01*
X120019530Y-35520377D01*
X120063956Y-35447695D01*
X120128569Y-35407320D01*
X120213369Y-35399252D01*
X120265863Y-35411371D01*
X120338545Y-35455797D01*
X120451601Y-35564836D01*
X120524282Y-35609262D01*
X120576776Y-35621381D01*
X120661577Y-35613313D01*
X120726190Y-35572938D01*
X120770616Y-35500257D01*
X120782735Y-35447763D01*
X120774667Y-35362962D01*
X120673730Y-35201429D01*
X120580861Y-35124697D01*
X119575407Y-34809632D02*
X119563288Y-34862126D01*
X119591543Y-34979233D01*
X119631918Y-35043846D01*
X119724787Y-35120578D01*
X119829775Y-35144817D01*
X119914576Y-35136748D01*
X120063989Y-35088305D01*
X120160909Y-35027743D01*
X120269948Y-34914687D01*
X120314374Y-34842006D01*
X120338612Y-34737018D01*
X120310357Y-34619911D01*
X120269982Y-34555297D01*
X120177113Y-34478565D01*
X120124619Y-34466446D01*
X119329107Y-34559247D02*
X120007546Y-34135312D01*
X119086858Y-34171568D02*
X119656224Y-34220078D01*
X119765297Y-33747632D02*
X119619867Y-34377560D01*
X117243563Y-28681310D02*
X117231444Y-28733804D01*
X117259700Y-28850911D01*
X117300075Y-28915525D01*
X117392943Y-28992257D01*
X117497931Y-29016495D01*
X117582732Y-29008427D01*
X117732146Y-28959984D01*
X117829065Y-28899422D01*
X117938104Y-28786366D01*
X117982530Y-28713684D01*
X118006769Y-28608696D01*
X117978513Y-28491589D01*
X117938138Y-28426976D01*
X117845269Y-28350244D01*
X117792775Y-28338124D01*
X117049757Y-28443045D02*
X116956889Y-28366312D01*
X116855952Y-28204779D01*
X116847883Y-28119979D01*
X116860003Y-28067485D01*
X116904428Y-27994804D01*
X116969042Y-27954429D01*
X117053842Y-27946361D01*
X117106336Y-27958480D01*
X117179018Y-28002905D01*
X117292074Y-28111944D01*
X117364755Y-28156370D01*
X117417249Y-28168489D01*
X117502050Y-28160421D01*
X117566663Y-28120046D01*
X117611089Y-28047365D01*
X117623208Y-27994871D01*
X117615140Y-27910070D01*
X117514203Y-27748537D01*
X117421334Y-27671805D01*
X122937492Y-36182852D02*
X123389785Y-35900228D01*
X123260558Y-35980977D02*
X123304984Y-35908296D01*
X123317103Y-35855802D01*
X123309035Y-35771002D01*
X123268660Y-35706388D01*
X122614494Y-35665946D02*
X122687175Y-35710372D01*
X122739669Y-35722491D01*
X122824470Y-35714423D01*
X123018310Y-35593298D01*
X123062735Y-35520617D01*
X123074855Y-35468123D01*
X123066786Y-35383322D01*
X123006224Y-35286403D01*
X122933543Y-35241977D01*
X122881049Y-35229858D01*
X122796248Y-35237926D01*
X122602409Y-35359050D01*
X122557983Y-35431732D01*
X122545864Y-35484226D01*
X122553932Y-35569026D01*
X122614494Y-35665946D01*
X122784163Y-34931030D02*
X122251121Y-35084427D01*
X122493437Y-34753327D01*
X122089622Y-34825975D01*
X122461164Y-34414125D01*
X122445062Y-33885134D02*
X122404687Y-33820520D01*
X122332005Y-33776095D01*
X122279511Y-33763975D01*
X122194711Y-33772044D01*
X122045297Y-33820487D01*
X121883764Y-33921424D01*
X121774725Y-34034480D01*
X121730299Y-34107161D01*
X121718180Y-34159655D01*
X121726248Y-34244456D01*
X121766623Y-34309069D01*
X121839305Y-34353495D01*
X121891799Y-34365614D01*
X121976599Y-34357546D01*
X122126013Y-34309103D01*
X122287546Y-34208166D01*
X122396585Y-34095110D01*
X122441011Y-34022428D01*
X122453130Y-33969934D01*
X122445062Y-33885134D01*
G04 #@! TO.C,U2*
X178295119Y-47401904D02*
X178295119Y-46868571D01*
X178295119Y-47020952D02*
X178257023Y-46944761D01*
X178218928Y-46906666D01*
X178142738Y-46868571D01*
X178066547Y-46868571D01*
X177685595Y-47401904D02*
X177761785Y-47363809D01*
X177799880Y-47325714D01*
X177837976Y-47249523D01*
X177837976Y-47020952D01*
X177799880Y-46944761D01*
X177761785Y-46906666D01*
X177685595Y-46868571D01*
X177571309Y-46868571D01*
X177495119Y-46906666D01*
X177457023Y-46944761D01*
X177418928Y-47020952D01*
X177418928Y-47249523D01*
X177457023Y-47325714D01*
X177495119Y-47363809D01*
X177571309Y-47401904D01*
X177685595Y-47401904D01*
X177152261Y-46868571D02*
X176999880Y-47401904D01*
X176847500Y-47020952D01*
X176695119Y-47401904D01*
X176542738Y-46868571D01*
X176085595Y-46601904D02*
X176009404Y-46601904D01*
X175933214Y-46640000D01*
X175895119Y-46678095D01*
X175857023Y-46754285D01*
X175818928Y-46906666D01*
X175818928Y-47097142D01*
X175857023Y-47249523D01*
X175895119Y-47325714D01*
X175933214Y-47363809D01*
X176009404Y-47401904D01*
X176085595Y-47401904D01*
X176161785Y-47363809D01*
X176199880Y-47325714D01*
X176237976Y-47249523D01*
X176276071Y-47097142D01*
X176276071Y-46906666D01*
X176237976Y-46754285D01*
X176199880Y-46678095D01*
X176161785Y-46640000D01*
X176085595Y-46601904D01*
X178295119Y-49941904D02*
X178295119Y-49408571D01*
X178295119Y-49560952D02*
X178257023Y-49484761D01*
X178218928Y-49446666D01*
X178142738Y-49408571D01*
X178066547Y-49408571D01*
X177685595Y-49941904D02*
X177761785Y-49903809D01*
X177799880Y-49865714D01*
X177837976Y-49789523D01*
X177837976Y-49560952D01*
X177799880Y-49484761D01*
X177761785Y-49446666D01*
X177685595Y-49408571D01*
X177571309Y-49408571D01*
X177495119Y-49446666D01*
X177457023Y-49484761D01*
X177418928Y-49560952D01*
X177418928Y-49789523D01*
X177457023Y-49865714D01*
X177495119Y-49903809D01*
X177571309Y-49941904D01*
X177685595Y-49941904D01*
X177152261Y-49408571D02*
X176999880Y-49941904D01*
X176847500Y-49560952D01*
X176695119Y-49941904D01*
X176542738Y-49408571D01*
X175818928Y-49941904D02*
X176276071Y-49941904D01*
X176047500Y-49941904D02*
X176047500Y-49141904D01*
X176123690Y-49256190D01*
X176199880Y-49332380D01*
X176276071Y-49370476D01*
X178295119Y-52481904D02*
X178295119Y-51948571D01*
X178295119Y-52100952D02*
X178257023Y-52024761D01*
X178218928Y-51986666D01*
X178142738Y-51948571D01*
X178066547Y-51948571D01*
X177685595Y-52481904D02*
X177761785Y-52443809D01*
X177799880Y-52405714D01*
X177837976Y-52329523D01*
X177837976Y-52100952D01*
X177799880Y-52024761D01*
X177761785Y-51986666D01*
X177685595Y-51948571D01*
X177571309Y-51948571D01*
X177495119Y-51986666D01*
X177457023Y-52024761D01*
X177418928Y-52100952D01*
X177418928Y-52329523D01*
X177457023Y-52405714D01*
X177495119Y-52443809D01*
X177571309Y-52481904D01*
X177685595Y-52481904D01*
X177152261Y-51948571D02*
X176999880Y-52481904D01*
X176847500Y-52100952D01*
X176695119Y-52481904D01*
X176542738Y-51948571D01*
X176276071Y-51758095D02*
X176237976Y-51720000D01*
X176161785Y-51681904D01*
X175971309Y-51681904D01*
X175895119Y-51720000D01*
X175857023Y-51758095D01*
X175818928Y-51834285D01*
X175818928Y-51910476D01*
X175857023Y-52024761D01*
X176314166Y-52481904D01*
X175818928Y-52481904D01*
X178295119Y-55021904D02*
X178295119Y-54488571D01*
X178295119Y-54640952D02*
X178257023Y-54564761D01*
X178218928Y-54526666D01*
X178142738Y-54488571D01*
X178066547Y-54488571D01*
X177685595Y-55021904D02*
X177761785Y-54983809D01*
X177799880Y-54945714D01*
X177837976Y-54869523D01*
X177837976Y-54640952D01*
X177799880Y-54564761D01*
X177761785Y-54526666D01*
X177685595Y-54488571D01*
X177571309Y-54488571D01*
X177495119Y-54526666D01*
X177457023Y-54564761D01*
X177418928Y-54640952D01*
X177418928Y-54869523D01*
X177457023Y-54945714D01*
X177495119Y-54983809D01*
X177571309Y-55021904D01*
X177685595Y-55021904D01*
X177152261Y-54488571D02*
X176999880Y-55021904D01*
X176847500Y-54640952D01*
X176695119Y-55021904D01*
X176542738Y-54488571D01*
X176314166Y-54221904D02*
X175818928Y-54221904D01*
X176085595Y-54526666D01*
X175971309Y-54526666D01*
X175895119Y-54564761D01*
X175857023Y-54602857D01*
X175818928Y-54679047D01*
X175818928Y-54869523D01*
X175857023Y-54945714D01*
X175895119Y-54983809D01*
X175971309Y-55021904D01*
X176199880Y-55021904D01*
X176276071Y-54983809D01*
X176314166Y-54945714D01*
X178295119Y-60101904D02*
X178295119Y-59568571D01*
X178295119Y-59720952D02*
X178257023Y-59644761D01*
X178218928Y-59606666D01*
X178142738Y-59568571D01*
X178066547Y-59568571D01*
X177685595Y-60101904D02*
X177761785Y-60063809D01*
X177799880Y-60025714D01*
X177837976Y-59949523D01*
X177837976Y-59720952D01*
X177799880Y-59644761D01*
X177761785Y-59606666D01*
X177685595Y-59568571D01*
X177571309Y-59568571D01*
X177495119Y-59606666D01*
X177457023Y-59644761D01*
X177418928Y-59720952D01*
X177418928Y-59949523D01*
X177457023Y-60025714D01*
X177495119Y-60063809D01*
X177571309Y-60101904D01*
X177685595Y-60101904D01*
X177152261Y-59568571D02*
X176999880Y-60101904D01*
X176847500Y-59720952D01*
X176695119Y-60101904D01*
X176542738Y-59568571D01*
X175895119Y-59568571D02*
X175895119Y-60101904D01*
X176085595Y-59263809D02*
X176276071Y-59835238D01*
X175780833Y-59835238D01*
X178295119Y-62641904D02*
X178295119Y-62108571D01*
X178295119Y-62260952D02*
X178257023Y-62184761D01*
X178218928Y-62146666D01*
X178142738Y-62108571D01*
X178066547Y-62108571D01*
X177685595Y-62641904D02*
X177761785Y-62603809D01*
X177799880Y-62565714D01*
X177837976Y-62489523D01*
X177837976Y-62260952D01*
X177799880Y-62184761D01*
X177761785Y-62146666D01*
X177685595Y-62108571D01*
X177571309Y-62108571D01*
X177495119Y-62146666D01*
X177457023Y-62184761D01*
X177418928Y-62260952D01*
X177418928Y-62489523D01*
X177457023Y-62565714D01*
X177495119Y-62603809D01*
X177571309Y-62641904D01*
X177685595Y-62641904D01*
X177152261Y-62108571D02*
X176999880Y-62641904D01*
X176847500Y-62260952D01*
X176695119Y-62641904D01*
X176542738Y-62108571D01*
X175857023Y-61841904D02*
X176237976Y-61841904D01*
X176276071Y-62222857D01*
X176237976Y-62184761D01*
X176161785Y-62146666D01*
X175971309Y-62146666D01*
X175895119Y-62184761D01*
X175857023Y-62222857D01*
X175818928Y-62299047D01*
X175818928Y-62489523D01*
X175857023Y-62565714D01*
X175895119Y-62603809D01*
X175971309Y-62641904D01*
X176161785Y-62641904D01*
X176237976Y-62603809D01*
X176276071Y-62565714D01*
X187740119Y-67683809D02*
X187816309Y-67721904D01*
X187968690Y-67721904D01*
X188044880Y-67683809D01*
X188082976Y-67645714D01*
X188121071Y-67569523D01*
X188121071Y-67340952D01*
X188082976Y-67264761D01*
X188044880Y-67226666D01*
X187968690Y-67188571D01*
X187816309Y-67188571D01*
X187740119Y-67226666D01*
X187282976Y-67721904D02*
X187359166Y-67683809D01*
X187397261Y-67645714D01*
X187435357Y-67569523D01*
X187435357Y-67340952D01*
X187397261Y-67264761D01*
X187359166Y-67226666D01*
X187282976Y-67188571D01*
X187168690Y-67188571D01*
X187092500Y-67226666D01*
X187054404Y-67264761D01*
X187016309Y-67340952D01*
X187016309Y-67569523D01*
X187054404Y-67645714D01*
X187092500Y-67683809D01*
X187168690Y-67721904D01*
X187282976Y-67721904D01*
X186559166Y-67721904D02*
X186635357Y-67683809D01*
X186673452Y-67607619D01*
X186673452Y-66921904D01*
X186102023Y-66921904D02*
X186025833Y-66921904D01*
X185949642Y-66960000D01*
X185911547Y-66998095D01*
X185873452Y-67074285D01*
X185835357Y-67226666D01*
X185835357Y-67417142D01*
X185873452Y-67569523D01*
X185911547Y-67645714D01*
X185949642Y-67683809D01*
X186025833Y-67721904D01*
X186102023Y-67721904D01*
X186178214Y-67683809D01*
X186216309Y-67645714D01*
X186254404Y-67569523D01*
X186292500Y-67417142D01*
X186292500Y-67226666D01*
X186254404Y-67074285D01*
X186216309Y-66998095D01*
X186178214Y-66960000D01*
X186102023Y-66921904D01*
X187740119Y-65143809D02*
X187816309Y-65181904D01*
X187968690Y-65181904D01*
X188044880Y-65143809D01*
X188082976Y-65105714D01*
X188121071Y-65029523D01*
X188121071Y-64800952D01*
X188082976Y-64724761D01*
X188044880Y-64686666D01*
X187968690Y-64648571D01*
X187816309Y-64648571D01*
X187740119Y-64686666D01*
X187282976Y-65181904D02*
X187359166Y-65143809D01*
X187397261Y-65105714D01*
X187435357Y-65029523D01*
X187435357Y-64800952D01*
X187397261Y-64724761D01*
X187359166Y-64686666D01*
X187282976Y-64648571D01*
X187168690Y-64648571D01*
X187092500Y-64686666D01*
X187054404Y-64724761D01*
X187016309Y-64800952D01*
X187016309Y-65029523D01*
X187054404Y-65105714D01*
X187092500Y-65143809D01*
X187168690Y-65181904D01*
X187282976Y-65181904D01*
X186559166Y-65181904D02*
X186635357Y-65143809D01*
X186673452Y-65067619D01*
X186673452Y-64381904D01*
X185835357Y-65181904D02*
X186292500Y-65181904D01*
X186063928Y-65181904D02*
X186063928Y-64381904D01*
X186140119Y-64496190D01*
X186216309Y-64572380D01*
X186292500Y-64610476D01*
X187740119Y-62603809D02*
X187816309Y-62641904D01*
X187968690Y-62641904D01*
X188044880Y-62603809D01*
X188082976Y-62565714D01*
X188121071Y-62489523D01*
X188121071Y-62260952D01*
X188082976Y-62184761D01*
X188044880Y-62146666D01*
X187968690Y-62108571D01*
X187816309Y-62108571D01*
X187740119Y-62146666D01*
X187282976Y-62641904D02*
X187359166Y-62603809D01*
X187397261Y-62565714D01*
X187435357Y-62489523D01*
X187435357Y-62260952D01*
X187397261Y-62184761D01*
X187359166Y-62146666D01*
X187282976Y-62108571D01*
X187168690Y-62108571D01*
X187092500Y-62146666D01*
X187054404Y-62184761D01*
X187016309Y-62260952D01*
X187016309Y-62489523D01*
X187054404Y-62565714D01*
X187092500Y-62603809D01*
X187168690Y-62641904D01*
X187282976Y-62641904D01*
X186559166Y-62641904D02*
X186635357Y-62603809D01*
X186673452Y-62527619D01*
X186673452Y-61841904D01*
X186292500Y-61918095D02*
X186254404Y-61880000D01*
X186178214Y-61841904D01*
X185987738Y-61841904D01*
X185911547Y-61880000D01*
X185873452Y-61918095D01*
X185835357Y-61994285D01*
X185835357Y-62070476D01*
X185873452Y-62184761D01*
X186330595Y-62641904D01*
X185835357Y-62641904D01*
X187740119Y-60063809D02*
X187816309Y-60101904D01*
X187968690Y-60101904D01*
X188044880Y-60063809D01*
X188082976Y-60025714D01*
X188121071Y-59949523D01*
X188121071Y-59720952D01*
X188082976Y-59644761D01*
X188044880Y-59606666D01*
X187968690Y-59568571D01*
X187816309Y-59568571D01*
X187740119Y-59606666D01*
X187282976Y-60101904D02*
X187359166Y-60063809D01*
X187397261Y-60025714D01*
X187435357Y-59949523D01*
X187435357Y-59720952D01*
X187397261Y-59644761D01*
X187359166Y-59606666D01*
X187282976Y-59568571D01*
X187168690Y-59568571D01*
X187092500Y-59606666D01*
X187054404Y-59644761D01*
X187016309Y-59720952D01*
X187016309Y-59949523D01*
X187054404Y-60025714D01*
X187092500Y-60063809D01*
X187168690Y-60101904D01*
X187282976Y-60101904D01*
X186559166Y-60101904D02*
X186635357Y-60063809D01*
X186673452Y-59987619D01*
X186673452Y-59301904D01*
X186330595Y-59301904D02*
X185835357Y-59301904D01*
X186102023Y-59606666D01*
X185987738Y-59606666D01*
X185911547Y-59644761D01*
X185873452Y-59682857D01*
X185835357Y-59759047D01*
X185835357Y-59949523D01*
X185873452Y-60025714D01*
X185911547Y-60063809D01*
X185987738Y-60101904D01*
X186216309Y-60101904D01*
X186292500Y-60063809D01*
X186330595Y-60025714D01*
X187740119Y-54983809D02*
X187816309Y-55021904D01*
X187968690Y-55021904D01*
X188044880Y-54983809D01*
X188082976Y-54945714D01*
X188121071Y-54869523D01*
X188121071Y-54640952D01*
X188082976Y-54564761D01*
X188044880Y-54526666D01*
X187968690Y-54488571D01*
X187816309Y-54488571D01*
X187740119Y-54526666D01*
X187282976Y-55021904D02*
X187359166Y-54983809D01*
X187397261Y-54945714D01*
X187435357Y-54869523D01*
X187435357Y-54640952D01*
X187397261Y-54564761D01*
X187359166Y-54526666D01*
X187282976Y-54488571D01*
X187168690Y-54488571D01*
X187092500Y-54526666D01*
X187054404Y-54564761D01*
X187016309Y-54640952D01*
X187016309Y-54869523D01*
X187054404Y-54945714D01*
X187092500Y-54983809D01*
X187168690Y-55021904D01*
X187282976Y-55021904D01*
X186559166Y-55021904D02*
X186635357Y-54983809D01*
X186673452Y-54907619D01*
X186673452Y-54221904D01*
X185911547Y-54488571D02*
X185911547Y-55021904D01*
X186102023Y-54183809D02*
X186292500Y-54755238D01*
X185797261Y-54755238D01*
X187740119Y-52443809D02*
X187816309Y-52481904D01*
X187968690Y-52481904D01*
X188044880Y-52443809D01*
X188082976Y-52405714D01*
X188121071Y-52329523D01*
X188121071Y-52100952D01*
X188082976Y-52024761D01*
X188044880Y-51986666D01*
X187968690Y-51948571D01*
X187816309Y-51948571D01*
X187740119Y-51986666D01*
X187282976Y-52481904D02*
X187359166Y-52443809D01*
X187397261Y-52405714D01*
X187435357Y-52329523D01*
X187435357Y-52100952D01*
X187397261Y-52024761D01*
X187359166Y-51986666D01*
X187282976Y-51948571D01*
X187168690Y-51948571D01*
X187092500Y-51986666D01*
X187054404Y-52024761D01*
X187016309Y-52100952D01*
X187016309Y-52329523D01*
X187054404Y-52405714D01*
X187092500Y-52443809D01*
X187168690Y-52481904D01*
X187282976Y-52481904D01*
X186559166Y-52481904D02*
X186635357Y-52443809D01*
X186673452Y-52367619D01*
X186673452Y-51681904D01*
X185873452Y-51681904D02*
X186254404Y-51681904D01*
X186292500Y-52062857D01*
X186254404Y-52024761D01*
X186178214Y-51986666D01*
X185987738Y-51986666D01*
X185911547Y-52024761D01*
X185873452Y-52062857D01*
X185835357Y-52139047D01*
X185835357Y-52329523D01*
X185873452Y-52405714D01*
X185911547Y-52443809D01*
X185987738Y-52481904D01*
X186178214Y-52481904D01*
X186254404Y-52443809D01*
X186292500Y-52405714D01*
G04 #@! TO.C,SW00*
D16*
X45742333Y-55587657D02*
X45488333Y-55660228D01*
X45065000Y-55660228D01*
X44895666Y-55587657D01*
X44811000Y-55515085D01*
X44726333Y-55369942D01*
X44726333Y-55224800D01*
X44811000Y-55079657D01*
X44895666Y-55007085D01*
X45065000Y-54934514D01*
X45403666Y-54861942D01*
X45573000Y-54789371D01*
X45657666Y-54716800D01*
X45742333Y-54571657D01*
X45742333Y-54426514D01*
X45657666Y-54281371D01*
X45573000Y-54208800D01*
X45403666Y-54136228D01*
X44980333Y-54136228D01*
X44726333Y-54208800D01*
X44133666Y-54136228D02*
X43710333Y-55660228D01*
X43371666Y-54571657D01*
X43033000Y-55660228D01*
X42609666Y-54136228D01*
X41593666Y-54136228D02*
X41424333Y-54136228D01*
X41255000Y-54208800D01*
X41170333Y-54281371D01*
X41085666Y-54426514D01*
X41001000Y-54716800D01*
X41001000Y-55079657D01*
X41085666Y-55369942D01*
X41170333Y-55515085D01*
X41255000Y-55587657D01*
X41424333Y-55660228D01*
X41593666Y-55660228D01*
X41763000Y-55587657D01*
X41847666Y-55515085D01*
X41932333Y-55369942D01*
X42017000Y-55079657D01*
X42017000Y-54716800D01*
X41932333Y-54426514D01*
X41847666Y-54281371D01*
X41763000Y-54208800D01*
X41593666Y-54136228D01*
X39900333Y-54136228D02*
X39731000Y-54136228D01*
X39561666Y-54208800D01*
X39477000Y-54281371D01*
X39392333Y-54426514D01*
X39307666Y-54716800D01*
X39307666Y-55079657D01*
X39392333Y-55369942D01*
X39477000Y-55515085D01*
X39561666Y-55587657D01*
X39731000Y-55660228D01*
X39900333Y-55660228D01*
X40069666Y-55587657D01*
X40154333Y-55515085D01*
X40239000Y-55369942D01*
X40323666Y-55079657D01*
X40323666Y-54716800D01*
X40239000Y-54426514D01*
X40154333Y-54281371D01*
X40069666Y-54208800D01*
X39900333Y-54136228D01*
G04 #@! TO.C,SW01*
X83842333Y-88925057D02*
X83588333Y-88997628D01*
X83165000Y-88997628D01*
X82995666Y-88925057D01*
X82911000Y-88852485D01*
X82826333Y-88707342D01*
X82826333Y-88562200D01*
X82911000Y-88417057D01*
X82995666Y-88344485D01*
X83165000Y-88271914D01*
X83503666Y-88199342D01*
X83673000Y-88126771D01*
X83757666Y-88054200D01*
X83842333Y-87909057D01*
X83842333Y-87763914D01*
X83757666Y-87618771D01*
X83673000Y-87546200D01*
X83503666Y-87473628D01*
X83080333Y-87473628D01*
X82826333Y-87546200D01*
X82233666Y-87473628D02*
X81810333Y-88997628D01*
X81471666Y-87909057D01*
X81133000Y-88997628D01*
X80709666Y-87473628D01*
X79693666Y-87473628D02*
X79524333Y-87473628D01*
X79355000Y-87546200D01*
X79270333Y-87618771D01*
X79185666Y-87763914D01*
X79101000Y-88054200D01*
X79101000Y-88417057D01*
X79185666Y-88707342D01*
X79270333Y-88852485D01*
X79355000Y-88925057D01*
X79524333Y-88997628D01*
X79693666Y-88997628D01*
X79863000Y-88925057D01*
X79947666Y-88852485D01*
X80032333Y-88707342D01*
X80117000Y-88417057D01*
X80117000Y-88054200D01*
X80032333Y-87763914D01*
X79947666Y-87618771D01*
X79863000Y-87546200D01*
X79693666Y-87473628D01*
X77407666Y-88997628D02*
X78423666Y-88997628D01*
X77915666Y-88997628D02*
X77915666Y-87473628D01*
X78085000Y-87691342D01*
X78254333Y-87836485D01*
X78423666Y-87909057D01*
G04 #@! TO.C,SW02*
X102892333Y-48443857D02*
X102638333Y-48516428D01*
X102215000Y-48516428D01*
X102045666Y-48443857D01*
X101961000Y-48371285D01*
X101876333Y-48226142D01*
X101876333Y-48081000D01*
X101961000Y-47935857D01*
X102045666Y-47863285D01*
X102215000Y-47790714D01*
X102553666Y-47718142D01*
X102723000Y-47645571D01*
X102807666Y-47573000D01*
X102892333Y-47427857D01*
X102892333Y-47282714D01*
X102807666Y-47137571D01*
X102723000Y-47065000D01*
X102553666Y-46992428D01*
X102130333Y-46992428D01*
X101876333Y-47065000D01*
X101283666Y-46992428D02*
X100860333Y-48516428D01*
X100521666Y-47427857D01*
X100183000Y-48516428D01*
X99759666Y-46992428D01*
X98743666Y-46992428D02*
X98574333Y-46992428D01*
X98405000Y-47065000D01*
X98320333Y-47137571D01*
X98235666Y-47282714D01*
X98151000Y-47573000D01*
X98151000Y-47935857D01*
X98235666Y-48226142D01*
X98320333Y-48371285D01*
X98405000Y-48443857D01*
X98574333Y-48516428D01*
X98743666Y-48516428D01*
X98913000Y-48443857D01*
X98997666Y-48371285D01*
X99082333Y-48226142D01*
X99167000Y-47935857D01*
X99167000Y-47573000D01*
X99082333Y-47282714D01*
X98997666Y-47137571D01*
X98913000Y-47065000D01*
X98743666Y-46992428D01*
X97473666Y-47137571D02*
X97389000Y-47065000D01*
X97219666Y-46992428D01*
X96796333Y-46992428D01*
X96627000Y-47065000D01*
X96542333Y-47137571D01*
X96457666Y-47282714D01*
X96457666Y-47427857D01*
X96542333Y-47645571D01*
X97558333Y-48516428D01*
X96457666Y-48516428D01*
G04 #@! TO.C,SW03*
X45742333Y-112737857D02*
X45488333Y-112810428D01*
X45065000Y-112810428D01*
X44895666Y-112737857D01*
X44811000Y-112665285D01*
X44726333Y-112520142D01*
X44726333Y-112375000D01*
X44811000Y-112229857D01*
X44895666Y-112157285D01*
X45065000Y-112084714D01*
X45403666Y-112012142D01*
X45573000Y-111939571D01*
X45657666Y-111867000D01*
X45742333Y-111721857D01*
X45742333Y-111576714D01*
X45657666Y-111431571D01*
X45573000Y-111359000D01*
X45403666Y-111286428D01*
X44980333Y-111286428D01*
X44726333Y-111359000D01*
X44133666Y-111286428D02*
X43710333Y-112810428D01*
X43371666Y-111721857D01*
X43033000Y-112810428D01*
X42609666Y-111286428D01*
X41593666Y-111286428D02*
X41424333Y-111286428D01*
X41255000Y-111359000D01*
X41170333Y-111431571D01*
X41085666Y-111576714D01*
X41001000Y-111867000D01*
X41001000Y-112229857D01*
X41085666Y-112520142D01*
X41170333Y-112665285D01*
X41255000Y-112737857D01*
X41424333Y-112810428D01*
X41593666Y-112810428D01*
X41763000Y-112737857D01*
X41847666Y-112665285D01*
X41932333Y-112520142D01*
X42017000Y-112229857D01*
X42017000Y-111867000D01*
X41932333Y-111576714D01*
X41847666Y-111431571D01*
X41763000Y-111359000D01*
X41593666Y-111286428D01*
X40408333Y-111286428D02*
X39307666Y-111286428D01*
X39900333Y-111867000D01*
X39646333Y-111867000D01*
X39477000Y-111939571D01*
X39392333Y-112012142D01*
X39307666Y-112157285D01*
X39307666Y-112520142D01*
X39392333Y-112665285D01*
X39477000Y-112737857D01*
X39646333Y-112810428D01*
X40154333Y-112810428D01*
X40323666Y-112737857D01*
X40408333Y-112665285D01*
G04 #@! TO.C,SW04*
X140992333Y-53206357D02*
X140738333Y-53278928D01*
X140315000Y-53278928D01*
X140145666Y-53206357D01*
X140061000Y-53133785D01*
X139976333Y-52988642D01*
X139976333Y-52843500D01*
X140061000Y-52698357D01*
X140145666Y-52625785D01*
X140315000Y-52553214D01*
X140653666Y-52480642D01*
X140823000Y-52408071D01*
X140907666Y-52335500D01*
X140992333Y-52190357D01*
X140992333Y-52045214D01*
X140907666Y-51900071D01*
X140823000Y-51827500D01*
X140653666Y-51754928D01*
X140230333Y-51754928D01*
X139976333Y-51827500D01*
X139383666Y-51754928D02*
X138960333Y-53278928D01*
X138621666Y-52190357D01*
X138283000Y-53278928D01*
X137859666Y-51754928D01*
X136843666Y-51754928D02*
X136674333Y-51754928D01*
X136505000Y-51827500D01*
X136420333Y-51900071D01*
X136335666Y-52045214D01*
X136251000Y-52335500D01*
X136251000Y-52698357D01*
X136335666Y-52988642D01*
X136420333Y-53133785D01*
X136505000Y-53206357D01*
X136674333Y-53278928D01*
X136843666Y-53278928D01*
X137013000Y-53206357D01*
X137097666Y-53133785D01*
X137182333Y-52988642D01*
X137267000Y-52698357D01*
X137267000Y-52335500D01*
X137182333Y-52045214D01*
X137097666Y-51900071D01*
X137013000Y-51827500D01*
X136843666Y-51754928D01*
X134727000Y-52262928D02*
X134727000Y-53278928D01*
X135150333Y-51682357D02*
X135573666Y-52770928D01*
X134473000Y-52770928D01*
G04 #@! TO.C,SW05*
X140992333Y-110356857D02*
X140738333Y-110429428D01*
X140315000Y-110429428D01*
X140145666Y-110356857D01*
X140061000Y-110284285D01*
X139976333Y-110139142D01*
X139976333Y-109994000D01*
X140061000Y-109848857D01*
X140145666Y-109776285D01*
X140315000Y-109703714D01*
X140653666Y-109631142D01*
X140823000Y-109558571D01*
X140907666Y-109486000D01*
X140992333Y-109340857D01*
X140992333Y-109195714D01*
X140907666Y-109050571D01*
X140823000Y-108978000D01*
X140653666Y-108905428D01*
X140230333Y-108905428D01*
X139976333Y-108978000D01*
X139383666Y-108905428D02*
X138960333Y-110429428D01*
X138621666Y-109340857D01*
X138283000Y-110429428D01*
X137859666Y-108905428D01*
X136843666Y-108905428D02*
X136674333Y-108905428D01*
X136505000Y-108978000D01*
X136420333Y-109050571D01*
X136335666Y-109195714D01*
X136251000Y-109486000D01*
X136251000Y-109848857D01*
X136335666Y-110139142D01*
X136420333Y-110284285D01*
X136505000Y-110356857D01*
X136674333Y-110429428D01*
X136843666Y-110429428D01*
X137013000Y-110356857D01*
X137097666Y-110284285D01*
X137182333Y-110139142D01*
X137267000Y-109848857D01*
X137267000Y-109486000D01*
X137182333Y-109195714D01*
X137097666Y-109050571D01*
X137013000Y-108978000D01*
X136843666Y-108905428D01*
X134642333Y-108905428D02*
X135489000Y-108905428D01*
X135573666Y-109631142D01*
X135489000Y-109558571D01*
X135319666Y-109486000D01*
X134896333Y-109486000D01*
X134727000Y-109558571D01*
X134642333Y-109631142D01*
X134557666Y-109776285D01*
X134557666Y-110139142D01*
X134642333Y-110284285D01*
X134727000Y-110356857D01*
X134896333Y-110429428D01*
X135319666Y-110429428D01*
X135489000Y-110356857D01*
X135573666Y-110284285D01*
G04 #@! TO.C,SW10*
X64792333Y-55587657D02*
X64538333Y-55660228D01*
X64115000Y-55660228D01*
X63945666Y-55587657D01*
X63861000Y-55515085D01*
X63776333Y-55369942D01*
X63776333Y-55224800D01*
X63861000Y-55079657D01*
X63945666Y-55007085D01*
X64115000Y-54934514D01*
X64453666Y-54861942D01*
X64623000Y-54789371D01*
X64707666Y-54716800D01*
X64792333Y-54571657D01*
X64792333Y-54426514D01*
X64707666Y-54281371D01*
X64623000Y-54208800D01*
X64453666Y-54136228D01*
X64030333Y-54136228D01*
X63776333Y-54208800D01*
X63183666Y-54136228D02*
X62760333Y-55660228D01*
X62421666Y-54571657D01*
X62083000Y-55660228D01*
X61659666Y-54136228D01*
X60051000Y-55660228D02*
X61067000Y-55660228D01*
X60559000Y-55660228D02*
X60559000Y-54136228D01*
X60728333Y-54353942D01*
X60897666Y-54499085D01*
X61067000Y-54571657D01*
X58950333Y-54136228D02*
X58781000Y-54136228D01*
X58611666Y-54208800D01*
X58527000Y-54281371D01*
X58442333Y-54426514D01*
X58357666Y-54716800D01*
X58357666Y-55079657D01*
X58442333Y-55369942D01*
X58527000Y-55515085D01*
X58611666Y-55587657D01*
X58781000Y-55660228D01*
X58950333Y-55660228D01*
X59119666Y-55587657D01*
X59204333Y-55515085D01*
X59289000Y-55369942D01*
X59373666Y-55079657D01*
X59373666Y-54716800D01*
X59289000Y-54426514D01*
X59204333Y-54281371D01*
X59119666Y-54208800D01*
X58950333Y-54136228D01*
G04 #@! TO.C,SW11*
X83842333Y-69875057D02*
X83588333Y-69947628D01*
X83165000Y-69947628D01*
X82995666Y-69875057D01*
X82911000Y-69802485D01*
X82826333Y-69657342D01*
X82826333Y-69512200D01*
X82911000Y-69367057D01*
X82995666Y-69294485D01*
X83165000Y-69221914D01*
X83503666Y-69149342D01*
X83673000Y-69076771D01*
X83757666Y-69004200D01*
X83842333Y-68859057D01*
X83842333Y-68713914D01*
X83757666Y-68568771D01*
X83673000Y-68496200D01*
X83503666Y-68423628D01*
X83080333Y-68423628D01*
X82826333Y-68496200D01*
X82233666Y-68423628D02*
X81810333Y-69947628D01*
X81471666Y-68859057D01*
X81133000Y-69947628D01*
X80709666Y-68423628D01*
X79101000Y-69947628D02*
X80117000Y-69947628D01*
X79609000Y-69947628D02*
X79609000Y-68423628D01*
X79778333Y-68641342D01*
X79947666Y-68786485D01*
X80117000Y-68859057D01*
X77407666Y-69947628D02*
X78423666Y-69947628D01*
X77915666Y-69947628D02*
X77915666Y-68423628D01*
X78085000Y-68641342D01*
X78254333Y-68786485D01*
X78423666Y-68859057D01*
G04 #@! TO.C,SW12*
X102892333Y-67493857D02*
X102638333Y-67566428D01*
X102215000Y-67566428D01*
X102045666Y-67493857D01*
X101961000Y-67421285D01*
X101876333Y-67276142D01*
X101876333Y-67131000D01*
X101961000Y-66985857D01*
X102045666Y-66913285D01*
X102215000Y-66840714D01*
X102553666Y-66768142D01*
X102723000Y-66695571D01*
X102807666Y-66623000D01*
X102892333Y-66477857D01*
X102892333Y-66332714D01*
X102807666Y-66187571D01*
X102723000Y-66115000D01*
X102553666Y-66042428D01*
X102130333Y-66042428D01*
X101876333Y-66115000D01*
X101283666Y-66042428D02*
X100860333Y-67566428D01*
X100521666Y-66477857D01*
X100183000Y-67566428D01*
X99759666Y-66042428D01*
X98151000Y-67566428D02*
X99167000Y-67566428D01*
X98659000Y-67566428D02*
X98659000Y-66042428D01*
X98828333Y-66260142D01*
X98997666Y-66405285D01*
X99167000Y-66477857D01*
X97473666Y-66187571D02*
X97389000Y-66115000D01*
X97219666Y-66042428D01*
X96796333Y-66042428D01*
X96627000Y-66115000D01*
X96542333Y-66187571D01*
X96457666Y-66332714D01*
X96457666Y-66477857D01*
X96542333Y-66695571D01*
X97558333Y-67566428D01*
X96457666Y-67566428D01*
G04 #@! TO.C,SW13*
X64792333Y-112737857D02*
X64538333Y-112810428D01*
X64115000Y-112810428D01*
X63945666Y-112737857D01*
X63861000Y-112665285D01*
X63776333Y-112520142D01*
X63776333Y-112375000D01*
X63861000Y-112229857D01*
X63945666Y-112157285D01*
X64115000Y-112084714D01*
X64453666Y-112012142D01*
X64623000Y-111939571D01*
X64707666Y-111867000D01*
X64792333Y-111721857D01*
X64792333Y-111576714D01*
X64707666Y-111431571D01*
X64623000Y-111359000D01*
X64453666Y-111286428D01*
X64030333Y-111286428D01*
X63776333Y-111359000D01*
X63183666Y-111286428D02*
X62760333Y-112810428D01*
X62421666Y-111721857D01*
X62083000Y-112810428D01*
X61659666Y-111286428D01*
X60051000Y-112810428D02*
X61067000Y-112810428D01*
X60559000Y-112810428D02*
X60559000Y-111286428D01*
X60728333Y-111504142D01*
X60897666Y-111649285D01*
X61067000Y-111721857D01*
X59458333Y-111286428D02*
X58357666Y-111286428D01*
X58950333Y-111867000D01*
X58696333Y-111867000D01*
X58527000Y-111939571D01*
X58442333Y-112012142D01*
X58357666Y-112157285D01*
X58357666Y-112520142D01*
X58442333Y-112665285D01*
X58527000Y-112737857D01*
X58696333Y-112810428D01*
X59204333Y-112810428D01*
X59373666Y-112737857D01*
X59458333Y-112665285D01*
G04 #@! TO.C,SW14*
X140992333Y-72256357D02*
X140738333Y-72328928D01*
X140315000Y-72328928D01*
X140145666Y-72256357D01*
X140061000Y-72183785D01*
X139976333Y-72038642D01*
X139976333Y-71893500D01*
X140061000Y-71748357D01*
X140145666Y-71675785D01*
X140315000Y-71603214D01*
X140653666Y-71530642D01*
X140823000Y-71458071D01*
X140907666Y-71385500D01*
X140992333Y-71240357D01*
X140992333Y-71095214D01*
X140907666Y-70950071D01*
X140823000Y-70877500D01*
X140653666Y-70804928D01*
X140230333Y-70804928D01*
X139976333Y-70877500D01*
X139383666Y-70804928D02*
X138960333Y-72328928D01*
X138621666Y-71240357D01*
X138283000Y-72328928D01*
X137859666Y-70804928D01*
X136251000Y-72328928D02*
X137267000Y-72328928D01*
X136759000Y-72328928D02*
X136759000Y-70804928D01*
X136928333Y-71022642D01*
X137097666Y-71167785D01*
X137267000Y-71240357D01*
X134727000Y-71312928D02*
X134727000Y-72328928D01*
X135150333Y-70732357D02*
X135573666Y-71820928D01*
X134473000Y-71820928D01*
G04 #@! TO.C,SW15*
X151539952Y-133696004D02*
X151277209Y-133723367D01*
X150860307Y-133649855D01*
X150706148Y-133548982D01*
X150635370Y-133462811D01*
X150577193Y-133305171D01*
X150602397Y-133162233D01*
X150710981Y-133033998D01*
X150806963Y-132977231D01*
X150986326Y-132935166D01*
X151332450Y-132922506D01*
X151511812Y-132880442D01*
X151607795Y-132823675D01*
X151716379Y-132695440D01*
X151741583Y-132552502D01*
X151683406Y-132394862D01*
X151612627Y-132308691D01*
X151458469Y-132207817D01*
X151041567Y-132134306D01*
X150778824Y-132161669D01*
X150207763Y-131987284D02*
X149526221Y-133414620D01*
X149381728Y-132283778D01*
X148859178Y-133297002D01*
X148706916Y-131722644D01*
X146858048Y-132944149D02*
X147858613Y-133120576D01*
X147358331Y-133032363D02*
X147622971Y-131531516D01*
X147751926Y-131775327D01*
X147893483Y-131947669D01*
X148047642Y-132048542D01*
X145538461Y-131163960D02*
X146372265Y-131310982D01*
X146329626Y-132040374D01*
X146258848Y-131954203D01*
X146104689Y-131853329D01*
X145687787Y-131779818D01*
X145508424Y-131821883D01*
X145412442Y-131878649D01*
X145303858Y-132006885D01*
X145240848Y-132364229D01*
X145299025Y-132521869D01*
X145369803Y-132608041D01*
X145523962Y-132708914D01*
X145940864Y-132782425D01*
X146120227Y-132740360D01*
X146216209Y-132683594D01*
G04 #@! TO.C,SW20*
X64792333Y-74637657D02*
X64538333Y-74710228D01*
X64115000Y-74710228D01*
X63945666Y-74637657D01*
X63861000Y-74565085D01*
X63776333Y-74419942D01*
X63776333Y-74274800D01*
X63861000Y-74129657D01*
X63945666Y-74057085D01*
X64115000Y-73984514D01*
X64453666Y-73911942D01*
X64623000Y-73839371D01*
X64707666Y-73766800D01*
X64792333Y-73621657D01*
X64792333Y-73476514D01*
X64707666Y-73331371D01*
X64623000Y-73258800D01*
X64453666Y-73186228D01*
X64030333Y-73186228D01*
X63776333Y-73258800D01*
X63183666Y-73186228D02*
X62760333Y-74710228D01*
X62421666Y-73621657D01*
X62083000Y-74710228D01*
X61659666Y-73186228D01*
X61067000Y-73331371D02*
X60982333Y-73258800D01*
X60813000Y-73186228D01*
X60389666Y-73186228D01*
X60220333Y-73258800D01*
X60135666Y-73331371D01*
X60051000Y-73476514D01*
X60051000Y-73621657D01*
X60135666Y-73839371D01*
X61151666Y-74710228D01*
X60051000Y-74710228D01*
X58950333Y-73186228D02*
X58781000Y-73186228D01*
X58611666Y-73258800D01*
X58527000Y-73331371D01*
X58442333Y-73476514D01*
X58357666Y-73766800D01*
X58357666Y-74129657D01*
X58442333Y-74419942D01*
X58527000Y-74565085D01*
X58611666Y-74637657D01*
X58781000Y-74710228D01*
X58950333Y-74710228D01*
X59119666Y-74637657D01*
X59204333Y-74565085D01*
X59289000Y-74419942D01*
X59373666Y-74129657D01*
X59373666Y-73766800D01*
X59289000Y-73476514D01*
X59204333Y-73331371D01*
X59119666Y-73258800D01*
X58950333Y-73186228D01*
G04 #@! TO.C,SW21*
X102892333Y-86543857D02*
X102638333Y-86616428D01*
X102215000Y-86616428D01*
X102045666Y-86543857D01*
X101961000Y-86471285D01*
X101876333Y-86326142D01*
X101876333Y-86181000D01*
X101961000Y-86035857D01*
X102045666Y-85963285D01*
X102215000Y-85890714D01*
X102553666Y-85818142D01*
X102723000Y-85745571D01*
X102807666Y-85673000D01*
X102892333Y-85527857D01*
X102892333Y-85382714D01*
X102807666Y-85237571D01*
X102723000Y-85165000D01*
X102553666Y-85092428D01*
X102130333Y-85092428D01*
X101876333Y-85165000D01*
X101283666Y-85092428D02*
X100860333Y-86616428D01*
X100521666Y-85527857D01*
X100183000Y-86616428D01*
X99759666Y-85092428D01*
X99167000Y-85237571D02*
X99082333Y-85165000D01*
X98913000Y-85092428D01*
X98489666Y-85092428D01*
X98320333Y-85165000D01*
X98235666Y-85237571D01*
X98151000Y-85382714D01*
X98151000Y-85527857D01*
X98235666Y-85745571D01*
X99251666Y-86616428D01*
X98151000Y-86616428D01*
X96457666Y-86616428D02*
X97473666Y-86616428D01*
X96965666Y-86616428D02*
X96965666Y-85092428D01*
X97135000Y-85310142D01*
X97304333Y-85455285D01*
X97473666Y-85527857D01*
G04 #@! TO.C,SW22*
X121942333Y-69875057D02*
X121688333Y-69947628D01*
X121265000Y-69947628D01*
X121095666Y-69875057D01*
X121011000Y-69802485D01*
X120926333Y-69657342D01*
X120926333Y-69512200D01*
X121011000Y-69367057D01*
X121095666Y-69294485D01*
X121265000Y-69221914D01*
X121603666Y-69149342D01*
X121773000Y-69076771D01*
X121857666Y-69004200D01*
X121942333Y-68859057D01*
X121942333Y-68713914D01*
X121857666Y-68568771D01*
X121773000Y-68496200D01*
X121603666Y-68423628D01*
X121180333Y-68423628D01*
X120926333Y-68496200D01*
X120333666Y-68423628D02*
X119910333Y-69947628D01*
X119571666Y-68859057D01*
X119233000Y-69947628D01*
X118809666Y-68423628D01*
X118217000Y-68568771D02*
X118132333Y-68496200D01*
X117963000Y-68423628D01*
X117539666Y-68423628D01*
X117370333Y-68496200D01*
X117285666Y-68568771D01*
X117201000Y-68713914D01*
X117201000Y-68859057D01*
X117285666Y-69076771D01*
X118301666Y-69947628D01*
X117201000Y-69947628D01*
X116523666Y-68568771D02*
X116439000Y-68496200D01*
X116269666Y-68423628D01*
X115846333Y-68423628D01*
X115677000Y-68496200D01*
X115592333Y-68568771D01*
X115507666Y-68713914D01*
X115507666Y-68859057D01*
X115592333Y-69076771D01*
X116608333Y-69947628D01*
X115507666Y-69947628D01*
G04 #@! TO.C,SW23*
X64792333Y-131787857D02*
X64538333Y-131860428D01*
X64115000Y-131860428D01*
X63945666Y-131787857D01*
X63861000Y-131715285D01*
X63776333Y-131570142D01*
X63776333Y-131425000D01*
X63861000Y-131279857D01*
X63945666Y-131207285D01*
X64115000Y-131134714D01*
X64453666Y-131062142D01*
X64623000Y-130989571D01*
X64707666Y-130917000D01*
X64792333Y-130771857D01*
X64792333Y-130626714D01*
X64707666Y-130481571D01*
X64623000Y-130409000D01*
X64453666Y-130336428D01*
X64030333Y-130336428D01*
X63776333Y-130409000D01*
X63183666Y-130336428D02*
X62760333Y-131860428D01*
X62421666Y-130771857D01*
X62083000Y-131860428D01*
X61659666Y-130336428D01*
X61067000Y-130481571D02*
X60982333Y-130409000D01*
X60813000Y-130336428D01*
X60389666Y-130336428D01*
X60220333Y-130409000D01*
X60135666Y-130481571D01*
X60051000Y-130626714D01*
X60051000Y-130771857D01*
X60135666Y-130989571D01*
X61151666Y-131860428D01*
X60051000Y-131860428D01*
X59458333Y-130336428D02*
X58357666Y-130336428D01*
X58950333Y-130917000D01*
X58696333Y-130917000D01*
X58527000Y-130989571D01*
X58442333Y-131062142D01*
X58357666Y-131207285D01*
X58357666Y-131570142D01*
X58442333Y-131715285D01*
X58527000Y-131787857D01*
X58696333Y-131860428D01*
X59204333Y-131860428D01*
X59373666Y-131787857D01*
X59458333Y-131715285D01*
G04 #@! TO.C,SW24*
X140992333Y-91306357D02*
X140738333Y-91378928D01*
X140315000Y-91378928D01*
X140145666Y-91306357D01*
X140061000Y-91233785D01*
X139976333Y-91088642D01*
X139976333Y-90943500D01*
X140061000Y-90798357D01*
X140145666Y-90725785D01*
X140315000Y-90653214D01*
X140653666Y-90580642D01*
X140823000Y-90508071D01*
X140907666Y-90435500D01*
X140992333Y-90290357D01*
X140992333Y-90145214D01*
X140907666Y-90000071D01*
X140823000Y-89927500D01*
X140653666Y-89854928D01*
X140230333Y-89854928D01*
X139976333Y-89927500D01*
X139383666Y-89854928D02*
X138960333Y-91378928D01*
X138621666Y-90290357D01*
X138283000Y-91378928D01*
X137859666Y-89854928D01*
X137267000Y-90000071D02*
X137182333Y-89927500D01*
X137013000Y-89854928D01*
X136589666Y-89854928D01*
X136420333Y-89927500D01*
X136335666Y-90000071D01*
X136251000Y-90145214D01*
X136251000Y-90290357D01*
X136335666Y-90508071D01*
X137351666Y-91378928D01*
X136251000Y-91378928D01*
X134727000Y-90362928D02*
X134727000Y-91378928D01*
X135150333Y-89782357D02*
X135573666Y-90870928D01*
X134473000Y-90870928D01*
G04 #@! TO.C,SW25*
X170300952Y-137004004D02*
X170038209Y-137031367D01*
X169621307Y-136957855D01*
X169467148Y-136856982D01*
X169396370Y-136770811D01*
X169338193Y-136613171D01*
X169363397Y-136470233D01*
X169471981Y-136341998D01*
X169567963Y-136285231D01*
X169747326Y-136243166D01*
X170093450Y-136230506D01*
X170272812Y-136188442D01*
X170368795Y-136131675D01*
X170477379Y-136003440D01*
X170502583Y-135860502D01*
X170444406Y-135702862D01*
X170373627Y-135616691D01*
X170219469Y-135515817D01*
X169802567Y-135442306D01*
X169539824Y-135469669D01*
X168968763Y-135295284D02*
X168287221Y-136722620D01*
X168142728Y-135591778D01*
X167620178Y-136605002D01*
X167467916Y-135030644D01*
X166859049Y-135070667D02*
X166788271Y-134984496D01*
X166634112Y-134883622D01*
X166217210Y-134810111D01*
X166037847Y-134852176D01*
X165941865Y-134908942D01*
X165833281Y-135037178D01*
X165808077Y-135180116D01*
X165853652Y-135409225D01*
X166702994Y-136443278D01*
X165619048Y-136252149D01*
X164299461Y-134471960D02*
X165133265Y-134618982D01*
X165090626Y-135348374D01*
X165019848Y-135262203D01*
X164865689Y-135161329D01*
X164448787Y-135087818D01*
X164269424Y-135129883D01*
X164173442Y-135186649D01*
X164064858Y-135314885D01*
X164001848Y-135672229D01*
X164060025Y-135829869D01*
X164130803Y-135916041D01*
X164284962Y-136016914D01*
X164701864Y-136090425D01*
X164881227Y-136048360D01*
X164977209Y-135991594D01*
G04 #@! TO.C,SW30*
X45742333Y-74637657D02*
X45488333Y-74710228D01*
X45065000Y-74710228D01*
X44895666Y-74637657D01*
X44811000Y-74565085D01*
X44726333Y-74419942D01*
X44726333Y-74274800D01*
X44811000Y-74129657D01*
X44895666Y-74057085D01*
X45065000Y-73984514D01*
X45403666Y-73911942D01*
X45573000Y-73839371D01*
X45657666Y-73766800D01*
X45742333Y-73621657D01*
X45742333Y-73476514D01*
X45657666Y-73331371D01*
X45573000Y-73258800D01*
X45403666Y-73186228D01*
X44980333Y-73186228D01*
X44726333Y-73258800D01*
X44133666Y-73186228D02*
X43710333Y-74710228D01*
X43371666Y-73621657D01*
X43033000Y-74710228D01*
X42609666Y-73186228D01*
X42101666Y-73186228D02*
X41001000Y-73186228D01*
X41593666Y-73766800D01*
X41339666Y-73766800D01*
X41170333Y-73839371D01*
X41085666Y-73911942D01*
X41001000Y-74057085D01*
X41001000Y-74419942D01*
X41085666Y-74565085D01*
X41170333Y-74637657D01*
X41339666Y-74710228D01*
X41847666Y-74710228D01*
X42017000Y-74637657D01*
X42101666Y-74565085D01*
X39900333Y-73186228D02*
X39731000Y-73186228D01*
X39561666Y-73258800D01*
X39477000Y-73331371D01*
X39392333Y-73476514D01*
X39307666Y-73766800D01*
X39307666Y-74129657D01*
X39392333Y-74419942D01*
X39477000Y-74565085D01*
X39561666Y-74637657D01*
X39731000Y-74710228D01*
X39900333Y-74710228D01*
X40069666Y-74637657D01*
X40154333Y-74565085D01*
X40239000Y-74419942D01*
X40323666Y-74129657D01*
X40323666Y-73766800D01*
X40239000Y-73476514D01*
X40154333Y-73331371D01*
X40069666Y-73258800D01*
X39900333Y-73186228D01*
G04 #@! TO.C,SW31*
X102892333Y-105593857D02*
X102638333Y-105666428D01*
X102215000Y-105666428D01*
X102045666Y-105593857D01*
X101961000Y-105521285D01*
X101876333Y-105376142D01*
X101876333Y-105231000D01*
X101961000Y-105085857D01*
X102045666Y-105013285D01*
X102215000Y-104940714D01*
X102553666Y-104868142D01*
X102723000Y-104795571D01*
X102807666Y-104723000D01*
X102892333Y-104577857D01*
X102892333Y-104432714D01*
X102807666Y-104287571D01*
X102723000Y-104215000D01*
X102553666Y-104142428D01*
X102130333Y-104142428D01*
X101876333Y-104215000D01*
X101283666Y-104142428D02*
X100860333Y-105666428D01*
X100521666Y-104577857D01*
X100183000Y-105666428D01*
X99759666Y-104142428D01*
X99251666Y-104142428D02*
X98151000Y-104142428D01*
X98743666Y-104723000D01*
X98489666Y-104723000D01*
X98320333Y-104795571D01*
X98235666Y-104868142D01*
X98151000Y-105013285D01*
X98151000Y-105376142D01*
X98235666Y-105521285D01*
X98320333Y-105593857D01*
X98489666Y-105666428D01*
X98997666Y-105666428D01*
X99167000Y-105593857D01*
X99251666Y-105521285D01*
X96457666Y-105666428D02*
X97473666Y-105666428D01*
X96965666Y-105666428D02*
X96965666Y-104142428D01*
X97135000Y-104360142D01*
X97304333Y-104505285D01*
X97473666Y-104577857D01*
G04 #@! TO.C,SW32*
X121942333Y-88925057D02*
X121688333Y-88997628D01*
X121265000Y-88997628D01*
X121095666Y-88925057D01*
X121011000Y-88852485D01*
X120926333Y-88707342D01*
X120926333Y-88562200D01*
X121011000Y-88417057D01*
X121095666Y-88344485D01*
X121265000Y-88271914D01*
X121603666Y-88199342D01*
X121773000Y-88126771D01*
X121857666Y-88054200D01*
X121942333Y-87909057D01*
X121942333Y-87763914D01*
X121857666Y-87618771D01*
X121773000Y-87546200D01*
X121603666Y-87473628D01*
X121180333Y-87473628D01*
X120926333Y-87546200D01*
X120333666Y-87473628D02*
X119910333Y-88997628D01*
X119571666Y-87909057D01*
X119233000Y-88997628D01*
X118809666Y-87473628D01*
X118301666Y-87473628D02*
X117201000Y-87473628D01*
X117793666Y-88054200D01*
X117539666Y-88054200D01*
X117370333Y-88126771D01*
X117285666Y-88199342D01*
X117201000Y-88344485D01*
X117201000Y-88707342D01*
X117285666Y-88852485D01*
X117370333Y-88925057D01*
X117539666Y-88997628D01*
X118047666Y-88997628D01*
X118217000Y-88925057D01*
X118301666Y-88852485D01*
X116523666Y-87618771D02*
X116439000Y-87546200D01*
X116269666Y-87473628D01*
X115846333Y-87473628D01*
X115677000Y-87546200D01*
X115592333Y-87618771D01*
X115507666Y-87763914D01*
X115507666Y-87909057D01*
X115592333Y-88126771D01*
X116608333Y-88997628D01*
X115507666Y-88997628D01*
G04 #@! TO.C,SW33*
X64792333Y-150837857D02*
X64538333Y-150910428D01*
X64115000Y-150910428D01*
X63945666Y-150837857D01*
X63861000Y-150765285D01*
X63776333Y-150620142D01*
X63776333Y-150475000D01*
X63861000Y-150329857D01*
X63945666Y-150257285D01*
X64115000Y-150184714D01*
X64453666Y-150112142D01*
X64623000Y-150039571D01*
X64707666Y-149967000D01*
X64792333Y-149821857D01*
X64792333Y-149676714D01*
X64707666Y-149531571D01*
X64623000Y-149459000D01*
X64453666Y-149386428D01*
X64030333Y-149386428D01*
X63776333Y-149459000D01*
X63183666Y-149386428D02*
X62760333Y-150910428D01*
X62421666Y-149821857D01*
X62083000Y-150910428D01*
X61659666Y-149386428D01*
X61151666Y-149386428D02*
X60051000Y-149386428D01*
X60643666Y-149967000D01*
X60389666Y-149967000D01*
X60220333Y-150039571D01*
X60135666Y-150112142D01*
X60051000Y-150257285D01*
X60051000Y-150620142D01*
X60135666Y-150765285D01*
X60220333Y-150837857D01*
X60389666Y-150910428D01*
X60897666Y-150910428D01*
X61067000Y-150837857D01*
X61151666Y-150765285D01*
X59458333Y-149386428D02*
X58357666Y-149386428D01*
X58950333Y-149967000D01*
X58696333Y-149967000D01*
X58527000Y-150039571D01*
X58442333Y-150112142D01*
X58357666Y-150257285D01*
X58357666Y-150620142D01*
X58442333Y-150765285D01*
X58527000Y-150837857D01*
X58696333Y-150910428D01*
X59204333Y-150910428D01*
X59373666Y-150837857D01*
X59458333Y-150765285D01*
G04 #@! TO.C,SW34*
X160042333Y-93687657D02*
X159788333Y-93760228D01*
X159365000Y-93760228D01*
X159195666Y-93687657D01*
X159111000Y-93615085D01*
X159026333Y-93469942D01*
X159026333Y-93324800D01*
X159111000Y-93179657D01*
X159195666Y-93107085D01*
X159365000Y-93034514D01*
X159703666Y-92961942D01*
X159873000Y-92889371D01*
X159957666Y-92816800D01*
X160042333Y-92671657D01*
X160042333Y-92526514D01*
X159957666Y-92381371D01*
X159873000Y-92308800D01*
X159703666Y-92236228D01*
X159280333Y-92236228D01*
X159026333Y-92308800D01*
X158433666Y-92236228D02*
X158010333Y-93760228D01*
X157671666Y-92671657D01*
X157333000Y-93760228D01*
X156909666Y-92236228D01*
X156401666Y-92236228D02*
X155301000Y-92236228D01*
X155893666Y-92816800D01*
X155639666Y-92816800D01*
X155470333Y-92889371D01*
X155385666Y-92961942D01*
X155301000Y-93107085D01*
X155301000Y-93469942D01*
X155385666Y-93615085D01*
X155470333Y-93687657D01*
X155639666Y-93760228D01*
X156147666Y-93760228D01*
X156317000Y-93687657D01*
X156401666Y-93615085D01*
X153777000Y-92744228D02*
X153777000Y-93760228D01*
X154200333Y-92163657D02*
X154623666Y-93252228D01*
X153523000Y-93252228D01*
G04 #@! TO.C,SW35*
X166992952Y-155765004D02*
X166730209Y-155792367D01*
X166313307Y-155718855D01*
X166159148Y-155617982D01*
X166088370Y-155531811D01*
X166030193Y-155374171D01*
X166055397Y-155231233D01*
X166163981Y-155102998D01*
X166259963Y-155046231D01*
X166439326Y-155004166D01*
X166785450Y-154991506D01*
X166964812Y-154949442D01*
X167060795Y-154892675D01*
X167169379Y-154764440D01*
X167194583Y-154621502D01*
X167136406Y-154463862D01*
X167065627Y-154377691D01*
X166911469Y-154276817D01*
X166494567Y-154203306D01*
X166231824Y-154230669D01*
X165660763Y-154056284D02*
X164979221Y-155483620D01*
X164834728Y-154352778D01*
X164312178Y-155366002D01*
X164159916Y-153791644D01*
X163659633Y-153703431D02*
X162575688Y-153512302D01*
X163058536Y-154186969D01*
X162808395Y-154142862D01*
X162629032Y-154184927D01*
X162533050Y-154241694D01*
X162424466Y-154369929D01*
X162361456Y-154727274D01*
X162419633Y-154884914D01*
X162490411Y-154971085D01*
X162644570Y-155071958D01*
X163144852Y-155160171D01*
X163324215Y-155118107D01*
X163420197Y-155061340D01*
X160991461Y-153232960D02*
X161825265Y-153379982D01*
X161782626Y-154109374D01*
X161711848Y-154023203D01*
X161557689Y-153922329D01*
X161140787Y-153848818D01*
X160961424Y-153890883D01*
X160865442Y-153947649D01*
X160756858Y-154075885D01*
X160693848Y-154433229D01*
X160752025Y-154590869D01*
X160822803Y-154677041D01*
X160976962Y-154777914D01*
X161393864Y-154851425D01*
X161573227Y-154809360D01*
X161669209Y-154752594D01*
G04 #@! TO.C,SW40*
X45742333Y-93687657D02*
X45488333Y-93760228D01*
X45065000Y-93760228D01*
X44895666Y-93687657D01*
X44811000Y-93615085D01*
X44726333Y-93469942D01*
X44726333Y-93324800D01*
X44811000Y-93179657D01*
X44895666Y-93107085D01*
X45065000Y-93034514D01*
X45403666Y-92961942D01*
X45573000Y-92889371D01*
X45657666Y-92816800D01*
X45742333Y-92671657D01*
X45742333Y-92526514D01*
X45657666Y-92381371D01*
X45573000Y-92308800D01*
X45403666Y-92236228D01*
X44980333Y-92236228D01*
X44726333Y-92308800D01*
X44133666Y-92236228D02*
X43710333Y-93760228D01*
X43371666Y-92671657D01*
X43033000Y-93760228D01*
X42609666Y-92236228D01*
X41170333Y-92744228D02*
X41170333Y-93760228D01*
X41593666Y-92163657D02*
X42017000Y-93252228D01*
X40916333Y-93252228D01*
X39900333Y-92236228D02*
X39731000Y-92236228D01*
X39561666Y-92308800D01*
X39477000Y-92381371D01*
X39392333Y-92526514D01*
X39307666Y-92816800D01*
X39307666Y-93179657D01*
X39392333Y-93469942D01*
X39477000Y-93615085D01*
X39561666Y-93687657D01*
X39731000Y-93760228D01*
X39900333Y-93760228D01*
X40069666Y-93687657D01*
X40154333Y-93615085D01*
X40239000Y-93469942D01*
X40323666Y-93179657D01*
X40323666Y-92816800D01*
X40239000Y-92526514D01*
X40154333Y-92381371D01*
X40069666Y-92308800D01*
X39900333Y-92236228D01*
G04 #@! TO.C,SW41*
X83842333Y-107974857D02*
X83588333Y-108047428D01*
X83165000Y-108047428D01*
X82995666Y-107974857D01*
X82911000Y-107902285D01*
X82826333Y-107757142D01*
X82826333Y-107612000D01*
X82911000Y-107466857D01*
X82995666Y-107394285D01*
X83165000Y-107321714D01*
X83503666Y-107249142D01*
X83673000Y-107176571D01*
X83757666Y-107104000D01*
X83842333Y-106958857D01*
X83842333Y-106813714D01*
X83757666Y-106668571D01*
X83673000Y-106596000D01*
X83503666Y-106523428D01*
X83080333Y-106523428D01*
X82826333Y-106596000D01*
X82233666Y-106523428D02*
X81810333Y-108047428D01*
X81471666Y-106958857D01*
X81133000Y-108047428D01*
X80709666Y-106523428D01*
X79270333Y-107031428D02*
X79270333Y-108047428D01*
X79693666Y-106450857D02*
X80117000Y-107539428D01*
X79016333Y-107539428D01*
X77407666Y-108047428D02*
X78423666Y-108047428D01*
X77915666Y-108047428D02*
X77915666Y-106523428D01*
X78085000Y-106741142D01*
X78254333Y-106886285D01*
X78423666Y-106958857D01*
G04 #@! TO.C,SW42*
X121942333Y-107974857D02*
X121688333Y-108047428D01*
X121265000Y-108047428D01*
X121095666Y-107974857D01*
X121011000Y-107902285D01*
X120926333Y-107757142D01*
X120926333Y-107612000D01*
X121011000Y-107466857D01*
X121095666Y-107394285D01*
X121265000Y-107321714D01*
X121603666Y-107249142D01*
X121773000Y-107176571D01*
X121857666Y-107104000D01*
X121942333Y-106958857D01*
X121942333Y-106813714D01*
X121857666Y-106668571D01*
X121773000Y-106596000D01*
X121603666Y-106523428D01*
X121180333Y-106523428D01*
X120926333Y-106596000D01*
X120333666Y-106523428D02*
X119910333Y-108047428D01*
X119571666Y-106958857D01*
X119233000Y-108047428D01*
X118809666Y-106523428D01*
X117370333Y-107031428D02*
X117370333Y-108047428D01*
X117793666Y-106450857D02*
X118217000Y-107539428D01*
X117116333Y-107539428D01*
X116523666Y-106668571D02*
X116439000Y-106596000D01*
X116269666Y-106523428D01*
X115846333Y-106523428D01*
X115677000Y-106596000D01*
X115592333Y-106668571D01*
X115507666Y-106813714D01*
X115507666Y-106958857D01*
X115592333Y-107176571D01*
X116608333Y-108047428D01*
X115507666Y-108047428D01*
G04 #@! TO.C,SW43*
X83842333Y-150837857D02*
X83588333Y-150910428D01*
X83165000Y-150910428D01*
X82995666Y-150837857D01*
X82911000Y-150765285D01*
X82826333Y-150620142D01*
X82826333Y-150475000D01*
X82911000Y-150329857D01*
X82995666Y-150257285D01*
X83165000Y-150184714D01*
X83503666Y-150112142D01*
X83673000Y-150039571D01*
X83757666Y-149967000D01*
X83842333Y-149821857D01*
X83842333Y-149676714D01*
X83757666Y-149531571D01*
X83673000Y-149459000D01*
X83503666Y-149386428D01*
X83080333Y-149386428D01*
X82826333Y-149459000D01*
X82233666Y-149386428D02*
X81810333Y-150910428D01*
X81471666Y-149821857D01*
X81133000Y-150910428D01*
X80709666Y-149386428D01*
X79270333Y-149894428D02*
X79270333Y-150910428D01*
X79693666Y-149313857D02*
X80117000Y-150402428D01*
X79016333Y-150402428D01*
X78508333Y-149386428D02*
X77407666Y-149386428D01*
X78000333Y-149967000D01*
X77746333Y-149967000D01*
X77577000Y-150039571D01*
X77492333Y-150112142D01*
X77407666Y-150257285D01*
X77407666Y-150620142D01*
X77492333Y-150765285D01*
X77577000Y-150837857D01*
X77746333Y-150910428D01*
X78254333Y-150910428D01*
X78423666Y-150837857D01*
X78508333Y-150765285D01*
G04 #@! TO.C,SW44*
X160042333Y-74637657D02*
X159788333Y-74710228D01*
X159365000Y-74710228D01*
X159195666Y-74637657D01*
X159111000Y-74565085D01*
X159026333Y-74419942D01*
X159026333Y-74274800D01*
X159111000Y-74129657D01*
X159195666Y-74057085D01*
X159365000Y-73984514D01*
X159703666Y-73911942D01*
X159873000Y-73839371D01*
X159957666Y-73766800D01*
X160042333Y-73621657D01*
X160042333Y-73476514D01*
X159957666Y-73331371D01*
X159873000Y-73258800D01*
X159703666Y-73186228D01*
X159280333Y-73186228D01*
X159026333Y-73258800D01*
X158433666Y-73186228D02*
X158010333Y-74710228D01*
X157671666Y-73621657D01*
X157333000Y-74710228D01*
X156909666Y-73186228D01*
X155470333Y-73694228D02*
X155470333Y-74710228D01*
X155893666Y-73113657D02*
X156317000Y-74202228D01*
X155216333Y-74202228D01*
X153777000Y-73694228D02*
X153777000Y-74710228D01*
X154200333Y-73113657D02*
X154623666Y-74202228D01*
X153523000Y-74202228D01*
G04 #@! TO.C,SW45*
X148231952Y-152457004D02*
X147969209Y-152484367D01*
X147552307Y-152410855D01*
X147398148Y-152309982D01*
X147327370Y-152223811D01*
X147269193Y-152066171D01*
X147294397Y-151923233D01*
X147402981Y-151794998D01*
X147498963Y-151738231D01*
X147678326Y-151696166D01*
X148024450Y-151683506D01*
X148203812Y-151641442D01*
X148299795Y-151584675D01*
X148408379Y-151456440D01*
X148433583Y-151313502D01*
X148375406Y-151155862D01*
X148304627Y-151069691D01*
X148150469Y-150968817D01*
X147733567Y-150895306D01*
X147470824Y-150922669D01*
X146899763Y-150748284D02*
X146218221Y-152175620D01*
X146073728Y-151044778D01*
X145551178Y-152058002D01*
X145398916Y-150483644D01*
X143893236Y-150733989D02*
X143716809Y-151734554D01*
X144410953Y-150235749D02*
X144638826Y-151381293D01*
X143554881Y-151190165D01*
X142230461Y-149924960D02*
X143064265Y-150071982D01*
X143021626Y-150801374D01*
X142950848Y-150715203D01*
X142796689Y-150614329D01*
X142379787Y-150540818D01*
X142200424Y-150582883D01*
X142104442Y-150639649D01*
X141995858Y-150767885D01*
X141932848Y-151125229D01*
X141991025Y-151282869D01*
X142061803Y-151369041D01*
X142215962Y-151469914D01*
X142632864Y-151543425D01*
X142812227Y-151501360D01*
X142908209Y-151444594D01*
G04 #@! TO.C,SW50*
X83842333Y-50825057D02*
X83588333Y-50897628D01*
X83165000Y-50897628D01*
X82995666Y-50825057D01*
X82911000Y-50752485D01*
X82826333Y-50607342D01*
X82826333Y-50462200D01*
X82911000Y-50317057D01*
X82995666Y-50244485D01*
X83165000Y-50171914D01*
X83503666Y-50099342D01*
X83673000Y-50026771D01*
X83757666Y-49954200D01*
X83842333Y-49809057D01*
X83842333Y-49663914D01*
X83757666Y-49518771D01*
X83673000Y-49446200D01*
X83503666Y-49373628D01*
X83080333Y-49373628D01*
X82826333Y-49446200D01*
X82233666Y-49373628D02*
X81810333Y-50897628D01*
X81471666Y-49809057D01*
X81133000Y-50897628D01*
X80709666Y-49373628D01*
X79185666Y-49373628D02*
X80032333Y-49373628D01*
X80117000Y-50099342D01*
X80032333Y-50026771D01*
X79863000Y-49954200D01*
X79439666Y-49954200D01*
X79270333Y-50026771D01*
X79185666Y-50099342D01*
X79101000Y-50244485D01*
X79101000Y-50607342D01*
X79185666Y-50752485D01*
X79270333Y-50825057D01*
X79439666Y-50897628D01*
X79863000Y-50897628D01*
X80032333Y-50825057D01*
X80117000Y-50752485D01*
X78000333Y-49373628D02*
X77831000Y-49373628D01*
X77661666Y-49446200D01*
X77577000Y-49518771D01*
X77492333Y-49663914D01*
X77407666Y-49954200D01*
X77407666Y-50317057D01*
X77492333Y-50607342D01*
X77577000Y-50752485D01*
X77661666Y-50825057D01*
X77831000Y-50897628D01*
X78000333Y-50897628D01*
X78169666Y-50825057D01*
X78254333Y-50752485D01*
X78339000Y-50607342D01*
X78423666Y-50317057D01*
X78423666Y-49954200D01*
X78339000Y-49663914D01*
X78254333Y-49518771D01*
X78169666Y-49446200D01*
X78000333Y-49373628D01*
G04 #@! TO.C,SW51*
X64792333Y-93687657D02*
X64538333Y-93760228D01*
X64115000Y-93760228D01*
X63945666Y-93687657D01*
X63861000Y-93615085D01*
X63776333Y-93469942D01*
X63776333Y-93324800D01*
X63861000Y-93179657D01*
X63945666Y-93107085D01*
X64115000Y-93034514D01*
X64453666Y-92961942D01*
X64623000Y-92889371D01*
X64707666Y-92816800D01*
X64792333Y-92671657D01*
X64792333Y-92526514D01*
X64707666Y-92381371D01*
X64623000Y-92308800D01*
X64453666Y-92236228D01*
X64030333Y-92236228D01*
X63776333Y-92308800D01*
X63183666Y-92236228D02*
X62760333Y-93760228D01*
X62421666Y-92671657D01*
X62083000Y-93760228D01*
X61659666Y-92236228D01*
X60135666Y-92236228D02*
X60982333Y-92236228D01*
X61067000Y-92961942D01*
X60982333Y-92889371D01*
X60813000Y-92816800D01*
X60389666Y-92816800D01*
X60220333Y-92889371D01*
X60135666Y-92961942D01*
X60051000Y-93107085D01*
X60051000Y-93469942D01*
X60135666Y-93615085D01*
X60220333Y-93687657D01*
X60389666Y-93760228D01*
X60813000Y-93760228D01*
X60982333Y-93687657D01*
X61067000Y-93615085D01*
X58357666Y-93760228D02*
X59373666Y-93760228D01*
X58865666Y-93760228D02*
X58865666Y-92236228D01*
X59035000Y-92453942D01*
X59204333Y-92599085D01*
X59373666Y-92671657D01*
G04 #@! TO.C,SW52*
X121942333Y-50825057D02*
X121688333Y-50897628D01*
X121265000Y-50897628D01*
X121095666Y-50825057D01*
X121011000Y-50752485D01*
X120926333Y-50607342D01*
X120926333Y-50462200D01*
X121011000Y-50317057D01*
X121095666Y-50244485D01*
X121265000Y-50171914D01*
X121603666Y-50099342D01*
X121773000Y-50026771D01*
X121857666Y-49954200D01*
X121942333Y-49809057D01*
X121942333Y-49663914D01*
X121857666Y-49518771D01*
X121773000Y-49446200D01*
X121603666Y-49373628D01*
X121180333Y-49373628D01*
X120926333Y-49446200D01*
X120333666Y-49373628D02*
X119910333Y-50897628D01*
X119571666Y-49809057D01*
X119233000Y-50897628D01*
X118809666Y-49373628D01*
X117285666Y-49373628D02*
X118132333Y-49373628D01*
X118217000Y-50099342D01*
X118132333Y-50026771D01*
X117963000Y-49954200D01*
X117539666Y-49954200D01*
X117370333Y-50026771D01*
X117285666Y-50099342D01*
X117201000Y-50244485D01*
X117201000Y-50607342D01*
X117285666Y-50752485D01*
X117370333Y-50825057D01*
X117539666Y-50897628D01*
X117963000Y-50897628D01*
X118132333Y-50825057D01*
X118217000Y-50752485D01*
X116523666Y-49518771D02*
X116439000Y-49446200D01*
X116269666Y-49373628D01*
X115846333Y-49373628D01*
X115677000Y-49446200D01*
X115592333Y-49518771D01*
X115507666Y-49663914D01*
X115507666Y-49809057D01*
X115592333Y-50026771D01*
X116608333Y-50897628D01*
X115507666Y-50897628D01*
G04 #@! TO.C,SW53*
X45742333Y-150837857D02*
X45488333Y-150910428D01*
X45065000Y-150910428D01*
X44895666Y-150837857D01*
X44811000Y-150765285D01*
X44726333Y-150620142D01*
X44726333Y-150475000D01*
X44811000Y-150329857D01*
X44895666Y-150257285D01*
X45065000Y-150184714D01*
X45403666Y-150112142D01*
X45573000Y-150039571D01*
X45657666Y-149967000D01*
X45742333Y-149821857D01*
X45742333Y-149676714D01*
X45657666Y-149531571D01*
X45573000Y-149459000D01*
X45403666Y-149386428D01*
X44980333Y-149386428D01*
X44726333Y-149459000D01*
X44133666Y-149386428D02*
X43710333Y-150910428D01*
X43371666Y-149821857D01*
X43033000Y-150910428D01*
X42609666Y-149386428D01*
X41085666Y-149386428D02*
X41932333Y-149386428D01*
X42017000Y-150112142D01*
X41932333Y-150039571D01*
X41763000Y-149967000D01*
X41339666Y-149967000D01*
X41170333Y-150039571D01*
X41085666Y-150112142D01*
X41001000Y-150257285D01*
X41001000Y-150620142D01*
X41085666Y-150765285D01*
X41170333Y-150837857D01*
X41339666Y-150910428D01*
X41763000Y-150910428D01*
X41932333Y-150837857D01*
X42017000Y-150765285D01*
X40408333Y-149386428D02*
X39307666Y-149386428D01*
X39900333Y-149967000D01*
X39646333Y-149967000D01*
X39477000Y-150039571D01*
X39392333Y-150112142D01*
X39307666Y-150257285D01*
X39307666Y-150620142D01*
X39392333Y-150765285D01*
X39477000Y-150837857D01*
X39646333Y-150910428D01*
X40154333Y-150910428D01*
X40323666Y-150837857D01*
X40408333Y-150765285D01*
G04 #@! TO.C,SW54*
X160042333Y-55587657D02*
X159788333Y-55660228D01*
X159365000Y-55660228D01*
X159195666Y-55587657D01*
X159111000Y-55515085D01*
X159026333Y-55369942D01*
X159026333Y-55224800D01*
X159111000Y-55079657D01*
X159195666Y-55007085D01*
X159365000Y-54934514D01*
X159703666Y-54861942D01*
X159873000Y-54789371D01*
X159957666Y-54716800D01*
X160042333Y-54571657D01*
X160042333Y-54426514D01*
X159957666Y-54281371D01*
X159873000Y-54208800D01*
X159703666Y-54136228D01*
X159280333Y-54136228D01*
X159026333Y-54208800D01*
X158433666Y-54136228D02*
X158010333Y-55660228D01*
X157671666Y-54571657D01*
X157333000Y-55660228D01*
X156909666Y-54136228D01*
X155385666Y-54136228D02*
X156232333Y-54136228D01*
X156317000Y-54861942D01*
X156232333Y-54789371D01*
X156063000Y-54716800D01*
X155639666Y-54716800D01*
X155470333Y-54789371D01*
X155385666Y-54861942D01*
X155301000Y-55007085D01*
X155301000Y-55369942D01*
X155385666Y-55515085D01*
X155470333Y-55587657D01*
X155639666Y-55660228D01*
X156063000Y-55660228D01*
X156232333Y-55587657D01*
X156317000Y-55515085D01*
X153777000Y-54644228D02*
X153777000Y-55660228D01*
X154200333Y-54063657D02*
X154623666Y-55152228D01*
X153523000Y-55152228D01*
G04 #@! TO.C,SW55*
X173608952Y-118244004D02*
X173346209Y-118271367D01*
X172929307Y-118197855D01*
X172775148Y-118096982D01*
X172704370Y-118010811D01*
X172646193Y-117853171D01*
X172671397Y-117710233D01*
X172779981Y-117581998D01*
X172875963Y-117525231D01*
X173055326Y-117483166D01*
X173401450Y-117470506D01*
X173580812Y-117428442D01*
X173676795Y-117371675D01*
X173785379Y-117243440D01*
X173810583Y-117100502D01*
X173752406Y-116942862D01*
X173681627Y-116856691D01*
X173527469Y-116755817D01*
X173110567Y-116682306D01*
X172847824Y-116709669D01*
X172276763Y-116535284D02*
X171595221Y-117962620D01*
X171450728Y-116831778D01*
X170928178Y-117845002D01*
X170775916Y-116270644D01*
X169275069Y-116006004D02*
X170108873Y-116153027D01*
X170066234Y-116882418D01*
X169995456Y-116796247D01*
X169841297Y-116695373D01*
X169424395Y-116621862D01*
X169245032Y-116663927D01*
X169149050Y-116720694D01*
X169040466Y-116848929D01*
X168977456Y-117206274D01*
X169035633Y-117363914D01*
X169106411Y-117450085D01*
X169260570Y-117550958D01*
X169677472Y-117624469D01*
X169856835Y-117582405D01*
X169952817Y-117525638D01*
X167607461Y-115711960D02*
X168441265Y-115858982D01*
X168398626Y-116588374D01*
X168327848Y-116502203D01*
X168173689Y-116401329D01*
X167756787Y-116327818D01*
X167577424Y-116369883D01*
X167481442Y-116426649D01*
X167372858Y-116554885D01*
X167309848Y-116912229D01*
X167368025Y-117069869D01*
X167438803Y-117156041D01*
X167592962Y-117256914D01*
X168009864Y-117330425D01*
X168189227Y-117288360D01*
X168285209Y-117231594D01*
G04 #@! TD*
M02*
