<?xml version="1.0" encoding="utf-8" ?>
<svg baseProfile="full" height="137.38117262045893mm" version="1.1" viewBox="0,0,159.15498240315824,137.38117262045893" width="159.15498240315824mm" xmlns="http://www.w3.org/2000/svg" xmlns:ev="http://www.w3.org/2001/xml-events" xmlns:xlink="http://www.w3.org/1999/xlink"><defs /><g><polygon fill="red" fill-opacity="0.4" points="24.05,12.14375 24.05,31.19375 5.0,31.19375 5.0,12.14375 24.05,12.14375" stroke="red" stroke-width="0.2" /><polygon fill="red" fill-opacity="0.4" points="43.1,12.14375 43.1,31.19375 24.05,31.19375 24.05,12.14375 43.1,12.14375" stroke="red" stroke-width="0.2" /><polygon fill="red" fill-opacity="0.4" points="43.1,31.19375 43.1,50.243750000000006 24.05,50.243750000000006 24.05,31.19375 43.1,31.19375" stroke="red" stroke-width="0.2" /><polygon fill="red" fill-opacity="0.4" points="24.05,31.19375 24.05,50.243750000000006 5.0,50.243750000000006 5.0,31.19375 24.05,31.19375" stroke="red" stroke-width="0.2" /><polygon fill="red" fill-opacity="0.4" points="24.05,50.24375 24.05,69.29375 5.0,69.29375 5.0,50.24375 24.05,50.24375" stroke="red" stroke-width="0.2" /><polygon fill="red" fill-opacity="0.4" points="62.150000000000006,7.38125 62.150000000000006,26.431250000000002 43.1,26.431250000000002 43.1,7.38125 62.150000000000006,7.38125" stroke="red" stroke-width="0.2" /><line stroke="red" stroke-width="0.2" x1="14.525" x2="33.575" y1="21.668750000000003" y2="21.668750000000003" /><line stroke="red" stroke-width="0.2" x1="33.575" x2="33.575" y1="21.668750000000003" y2="40.71875" /><line stroke="red" stroke-width="0.2" x1="33.575" x2="14.525" y1="40.71875" y2="40.71875" /><line stroke="red" stroke-width="0.2" x1="14.525" x2="14.525" y1="40.71875" y2="59.768750000000004" /><line stroke="red" stroke-width="0.2" x1="14.525" x2="52.625" y1="59.768750000000004" y2="16.90625" /><polygon fill="blue" fill-opacity="0.4" points="62.150000000000006,45.48125 62.150000000000006,64.53125 43.1,64.53125 43.1,45.48125 62.150000000000006,45.48125" stroke="blue" stroke-width="0.2" /><polygon fill="blue" fill-opacity="0.4" points="62.150000000000006,26.431250000000002 62.150000000000006,45.48125 43.1,45.48125 43.1,26.431250000000002 62.150000000000006,26.431250000000002" stroke="blue" stroke-width="0.2" /><polygon fill="blue" fill-opacity="0.4" points="81.2,43.1 81.2,62.150000000000006 62.150000000000006,62.150000000000006 62.150000000000006,43.1 81.2,43.1" stroke="blue" stroke-width="0.2" /><polygon fill="blue" fill-opacity="0.4" points="81.2,62.150000000000006 81.2,81.2 62.150000000000006,81.2 62.150000000000006,62.150000000000006 81.2,62.150000000000006" stroke="blue" stroke-width="0.2" /><polygon fill="blue" fill-opacity="0.4" points="62.150000000000006,64.53125 62.150000000000006,83.58125 43.1,83.58125 43.1,64.53125 62.150000000000006,64.53125" stroke="blue" stroke-width="0.2" /><polygon fill="blue" fill-opacity="0.4" points="43.1,50.24375 43.1,69.29375 24.05,69.29375 24.05,50.24375 43.1,50.24375" stroke="blue" stroke-width="0.2" /><line stroke="blue" stroke-width="0.2" x1="52.625" x2="52.625" y1="55.00625" y2="35.95625" /><line stroke="blue" stroke-width="0.2" x1="52.625" x2="71.67500000000001" y1="35.95625" y2="52.625" /><line stroke="blue" stroke-width="0.2" x1="71.67500000000001" x2="71.675" y1="52.625" y2="71.675" /><line stroke="blue" stroke-width="0.2" x1="71.675" x2="52.625" y1="71.675" y2="74.05625" /><line stroke="blue" stroke-width="0.2" x1="52.625" x2="33.575" y1="74.05625" y2="59.768750000000004" /><polygon fill="green" fill-opacity="0.4" points="81.2,5.0 81.2,24.05 62.150000000000006,24.05 62.150000000000006,5.0 81.2,5.0" stroke="green" stroke-width="0.2" /><polygon fill="green" fill-opacity="0.4" points="81.2,24.05 81.2,43.1 62.150000000000006,43.1 62.150000000000006,24.05 81.2,24.05" stroke="green" stroke-width="0.2" /><polygon fill="green" fill-opacity="0.4" points="100.25,26.431250000000002 100.25,45.48125 81.2,45.48125 81.2,26.431250000000002 100.25,26.431250000000002" stroke="green" stroke-width="0.2" /><polygon fill="green" fill-opacity="0.4" points="100.25,45.48125 100.25,64.53125 81.2,64.53125 81.2,45.48125 100.25,45.48125" stroke="green" stroke-width="0.2" /><polygon fill="green" fill-opacity="0.4" points="100.25,64.53125 100.25,83.58125 81.2,83.58125 81.2,64.53125 100.25,64.53125" stroke="green" stroke-width="0.2" /><polygon fill="green" fill-opacity="0.4" points="100.25,7.38125 100.25,26.431250000000002 81.2,26.431250000000002 81.2,7.38125 100.25,7.38125" stroke="green" stroke-width="0.2" /><line stroke="green" stroke-width="0.2" x1="71.67500000000001" x2="71.67500000000001" y1="14.524999999999999" y2="33.575" /><line stroke="green" stroke-width="0.2" x1="71.67500000000001" x2="90.725" y1="33.575" y2="35.956250000000004" /><line stroke="green" stroke-width="0.2" x1="90.725" x2="90.725" y1="35.956250000000004" y2="55.006249999999994" /><line stroke="green" stroke-width="0.2" x1="90.725" x2="90.725" y1="55.006249999999994" y2="74.05625" /><line stroke="green" stroke-width="0.2" x1="90.725" x2="90.725" y1="74.05625" y2="16.90625" /><polygon fill="gray" fill-opacity="0.4" points="24.05,69.29375 24.05,88.34375 5.0,88.34375 5.0,69.29375 24.05,69.29375" stroke="gray" stroke-width="0.2" /><polygon fill="gray" fill-opacity="0.4" points="43.1,69.29375 43.1,88.34375 24.05,88.34375 24.05,69.29375 43.1,69.29375" stroke="gray" stroke-width="0.2" /><polygon fill="gray" fill-opacity="0.4" points="43.1,88.34375 43.1,107.39375 24.05,107.39375 24.05,88.34375 43.1,88.34375" stroke="gray" stroke-width="0.2" /><polygon fill="gray" fill-opacity="0.4" points="43.1,107.39375 43.1,126.44375 24.05,126.44375 24.05,107.39375 43.1,107.39375" stroke="gray" stroke-width="0.2" /><polygon fill="gray" fill-opacity="0.4" points="62.150000000000006,107.39375 62.150000000000006,126.44375 43.1,126.44375 43.1,107.39375 62.150000000000006,107.39375" stroke="gray" stroke-width="0.2" /><polygon fill="gray" fill-opacity="0.4" points="24.05,107.39375 24.05,126.44375 5.0,126.44375 5.0,107.39375 24.05,107.39375" stroke="gray" stroke-width="0.2" /><line stroke="gray" stroke-width="0.2" x1="14.524999999999999" x2="33.575" y1="78.81875" y2="78.81875" /><line stroke="gray" stroke-width="0.2" x1="33.575" x2="33.575" y1="78.81875" y2="97.86875" /><line stroke="gray" stroke-width="0.2" x1="33.575" x2="33.575" y1="97.86875" y2="116.91875" /><line stroke="gray" stroke-width="0.2" x1="33.575" x2="52.625" y1="116.91875" y2="116.91875" /><line stroke="gray" stroke-width="0.2" x1="52.625" x2="14.524999999999999" y1="116.91875" y2="116.91875" /><polygon fill="gold" fill-opacity="0.4" points="119.3,9.7625 119.3,28.8125 100.25,28.8125 100.25,9.7625 119.3,9.7625" stroke="gold" stroke-width="0.2" /><polygon fill="gold" fill-opacity="0.4" points="119.3,28.8125 119.3,47.8625 100.25,47.8625 100.25,28.8125 119.3,28.8125" stroke="gold" stroke-width="0.2" /><polygon fill="gold" fill-opacity="0.4" points="119.3,47.862500000000004 119.3,66.91250000000001 100.25,66.91250000000001 100.25,47.862500000000004 119.3,47.862500000000004" stroke="gold" stroke-width="0.2" /><polygon fill="gold" fill-opacity="0.4" points="138.35000000000002,50.24375 138.35000000000002,69.29375 119.30000000000001,69.29375 119.30000000000001,50.24375 138.35000000000002,50.24375" stroke="gold" stroke-width="0.2" /><polygon fill="gold" fill-opacity="0.4" points="138.35000000000002,31.19375 138.35000000000002,50.243750000000006 119.30000000000001,50.243750000000006 119.30000000000001,31.19375 138.35000000000002,31.19375" stroke="gold" stroke-width="0.2" /><polygon fill="gold" fill-opacity="0.4" points="138.35000000000002,12.14375 138.35000000000002,31.19375 119.30000000000001,31.19375 119.30000000000001,12.14375 138.35000000000002,12.14375" stroke="gold" stroke-width="0.2" /><line stroke="gold" stroke-width="0.2" x1="109.77500000000002" x2="109.775" y1="19.2875" y2="38.3375" /><line stroke="gold" stroke-width="0.2" x1="109.775" x2="109.775" y1="38.3375" y2="57.3875" /><line stroke="gold" stroke-width="0.2" x1="109.775" x2="128.82500000000005" y1="57.3875" y2="59.768750000000004" /><line stroke="gold" stroke-width="0.2" x1="128.82500000000005" x2="128.82500000000005" y1="59.768750000000004" y2="40.71875000000001" /><line stroke="gold" stroke-width="0.2" x1="128.82500000000005" x2="128.82500000000005" y1="40.71875000000001" y2="21.668750000000003" /><polygon fill="purple" fill-opacity="0.4" points="119.3,66.9125 119.3,85.9625 100.25,85.9625 100.25,66.9125 119.3,66.9125" stroke="purple" stroke-width="0.2" /><polygon fill="purple" fill-opacity="0.4" points="132.08639692372063,91.55199944613877 128.77839913916563,110.31258714102133 110.01781144428307,107.00458935646631 113.32580922883807,88.24400166158375 132.08639692372063,91.55199944613877" stroke="purple" stroke-width="0.2" /><polygon fill="purple" fill-opacity="0.4" points="150.84698461860322,94.85999723069379 147.5389868340482,113.62058492557635 128.77839913916563,110.31258714102133 132.08639692372063,91.55199944613877 150.84698461860322,94.85999723069379" stroke="purple" stroke-width="0.2" /><polygon fill="purple" fill-opacity="0.4" points="147.5389868340482,113.62058492557635 144.23098904949316,132.38117262045893 125.4704013546106,129.0731748359039 128.77839913916563,110.31258714102133 147.5389868340482,113.62058492557635" stroke="purple" stroke-width="0.2" /><polygon fill="purple" fill-opacity="0.4" points="128.77839913916563,110.31258714102133 125.4704013546106,129.0731748359039 106.70981365972804,125.76517705134886 110.01781144428307,107.00458935646631 128.77839913916563,110.31258714102133" stroke="purple" stroke-width="0.2" /><polygon fill="purple" fill-opacity="0.4" points="154.15498240315824,76.09940953581122 150.84698461860322,94.85999723069378 132.08639692372063,91.55199944613877 135.39439470827566,72.7914117512562 154.15498240315824,76.09940953581122" stroke="purple" stroke-width="0.2" /><line stroke="purple" stroke-width="0.2" x1="109.775" x2="121.05210418400186" y1="76.4375" y2="99.27829440130255" /><line stroke="purple" stroke-width="0.2" x1="121.05210418400186" x2="139.8126918788844" y1="99.27829440130255" y2="102.58629218585756" /><line stroke="purple" stroke-width="0.2" x1="139.8126918788844" x2="136.50469409432938" y1="102.58629218585756" y2="121.34687988074012" /><line stroke="purple" stroke-width="0.2" x1="136.50469409432938" x2="117.74410639944685" y1="121.34687988074012" y2="118.0388820961851" /><line stroke="purple" stroke-width="0.2" x1="117.74410639944685" x2="143.12068966343946" y1="118.0388820961851" y2="83.82570449097499" /></g></svg>